<?xml version="1.0" encoding="utf-8"?>
<!-- Generator: Adobe Illustrator 16.0.0, SVG Export Plug-In . SVG Version: 6.00 Build 0)  -->
<!DOCTYPE svg PUBLIC "-//W3C//DTD SVG 1.1//EN" "http://www.w3.org/Graphics/SVG/1.1/DTD/svg11.dtd">
<svg version="1.1" id="Layer_2" xmlns="http://www.w3.org/2000/svg" xmlns:xlink="http://www.w3.org/1999/xlink" x="0px" y="0px"
	 width="100px" height="100px" viewBox="0 0 100 100" enable-background="new 0 0 100 100" xml:space="preserve">
<g>
	<path d="M50,1.42C23.213,1.42,1.42,23.213,1.42,50S23.213,98.58,50,98.58S98.58,76.787,98.58,50S76.787,1.42,50,1.42z M50,88.243
		c-21.087,0-38.244-17.155-38.244-38.243S28.913,11.757,50,11.757S88.244,28.912,88.244,50S71.087,88.243,50,88.243z"/>
	<path d="M75.318,48.5H53.487V22.25c0-2.209-1.791-4-4-4s-4,1.791-4,4V52.5c0,2.209,1.791,4,4,4h25.831c2.209,0,4-1.791,4-4
		S77.527,48.5,75.318,48.5z"/>
</g>
</svg>
