<?xml version="1.0" encoding="utf-8"?>
<!-- Generator: Adobe Illustrator 16.0.0, SVG Export Plug-In . SVG Version: 6.00 Build 0)  -->
<!DOCTYPE svg PUBLIC "-//W3C//DTD SVG 1.1//EN" "http://www.w3.org/Graphics/SVG/1.1/DTD/svg11.dtd">
<svg version="1.1" id="Capa_1" xmlns="http://www.w3.org/2000/svg" xmlns:xlink="http://www.w3.org/1999/xlink" x="0px" y="0px"
	 width="29.257px" height="29.256px" viewBox="0 0 29.257 29.256" enable-background="new 0 0 29.257 29.256" xml:space="preserve">
<g>
	<path d="M8.877,4.01c0,0-3.556,1.322-5.656,6.294l11.585-2.19L8.877,4.01z"/>
	<path d="M3.046,11.013c0,0-1.568,3.455,0.481,8.448l6.612-9.763L3.046,11.013z"/>
	<path d="M3.97,19.953c0,0,1.322,3.556,6.294,5.656L8.075,14.022L3.97,19.953z"/>
	<path d="M10.973,25.783c0,0,3.455,1.567,8.448-0.481l-9.763-6.61L10.973,25.783z"/>
	<path d="M20.104,25.011c0,0,3.557-1.322,5.656-6.296l-11.586,2.189L20.104,25.011z"/>
	<path d="M25.453,9.559l-6.61,9.763l7.093-1.316C25.936,18.007,27.502,14.552,25.453,9.559z"/>
	<path d="M25.01,9.067c0,0-1.322-3.556-6.295-5.655l2.189,11.585L25.01,9.067z"/>
	<path d="M18.006,3.237c0,0-3.453-1.568-8.447,0.482l9.764,6.61L18.006,3.237z"/>
	<path d="M14.533,0.382c-7.815,0-14.151,6.336-14.151,14.15c0,7.813,6.335,14.15,14.151,14.15c7.813,0,14.149-6.338,14.149-14.15
		C28.683,6.718,22.347,0.382,14.533,0.382z M14.533,27.588c-7.199,0-13.057-5.857-13.057-13.056c0-7.199,5.858-13.056,13.057-13.056
		c7.197,0,13.055,5.857,13.055,13.056C27.588,21.731,21.73,27.588,14.533,27.588z"/>
</g>
</svg>
