<?xml version="1.0" encoding="iso-8859-1"?>
<!-- Generator: Adobe Illustrator 16.0.0, SVG Export Plug-In . SVG Version: 6.00 Build 0)  -->
<!DOCTYPE svg PUBLIC "-//W3C//DTD SVG 1.1//EN" "http://www.w3.org/Graphics/SVG/1.1/DTD/svg11.dtd">
<svg version="1.1" id="Capa_1" xmlns="http://www.w3.org/2000/svg" xmlns:xlink="http://www.w3.org/1999/xlink" x="0px" y="0px"
	 width="100px" height="80px" viewBox="0 0 100 80" style="enable-background:new 0 0 100 80;" xml:space="preserve">
<g>
	<path d="M50,30c-8.285,0-15,6.718-15,15c0,8.285,6.715,15,15,15c8.283,0,15-6.715,15-15C65,36.718,58.283,30,50,30z M90,15H78
		c-1.65,0-3.428-1.28-3.949-2.846l-3.102-9.309C70.426,1.28,68.65,0,67,0H33c-1.65,0-3.428,1.28-3.949,2.846l-3.102,9.309
		C25.426,13.72,23.65,15,22,15H10C4.5,15,0,19.5,0,25v45c0,5.5,4.5,10,10,10h80c5.5,0,10-4.5,10-10V25C100,19.5,95.5,15,90,15z
		 M50,70c-13.807,0-25-11.193-25-25c0-13.806,11.193-25,25-25c13.805,0,25,11.194,25,25C75,58.807,63.805,70,50,70z M86.5,31.993
		c-1.932,0-3.5-1.566-3.5-3.5c0-1.932,1.568-3.5,3.5-3.5c1.934,0,3.5,1.568,3.5,3.5C90,30.427,88.433,31.993,86.5,31.993z"/>
</g>
<g>
</g>
<g>
</g>
<g>
</g>
<g>
</g>
<g>
</g>
<g>
</g>
<g>
</g>
<g>
</g>
<g>
</g>
<g>
</g>
<g>
</g>
<g>
</g>
<g>
</g>
<g>
</g>
<g>
</g>
</svg>
