<?xml version="1.0" encoding="utf-8"?>
<!-- Generator: Adobe Illustrator 16.0.0, SVG Export Plug-In . SVG Version: 6.00 Build 0)  -->
<!DOCTYPE svg PUBLIC "-//W3C//DTD SVG 1.1//EN" "http://www.w3.org/Graphics/SVG/1.1/DTD/svg11.dtd">
<svg version="1.1" id="Layer_1" xmlns="http://www.w3.org/2000/svg" xmlns:xlink="http://www.w3.org/1999/xlink" x="0px" y="0px"
	 width="100px" height="100px" viewBox="0 0 100 100" enable-background="new 0 0 100 100" xml:space="preserve">
<path d="M62.925,93.344c-1.733-1.275-1.918-3.189-1.918-3.189L60.357,86H39.643l-0.652,4.152c0,0-0.181,1.916-1.914,3.191
	c-1.732,1.274-3.099,2.368-1.732,2.553c1.317,0.178,13.74,0.016,14.656,0c0.918,0.016,13.338,0.178,14.655,0
	C66.021,95.713,64.654,94.621,62.925,93.344z"/>
<g>
	<path d="M26.667,60.152c5.534-0.043,6.223-1.377,8.027-6.932c3.327-8.769,18.309,2.295,9.024,6.135
		C34.433,63.197,21.133,60.195,26.667,60.152z"/>
	<path d="M83.411,2.37c-2.687-2.164-7.134-1.098-9.937,2.38L45.083,45.086c-2.803,3.477-2.789,2.813-0.104,4.975
		c2.685,2.164,2.038,2.32,4.841-1.158l33.377-36.317C85.999,9.106,86.096,4.533,83.411,2.37z M76.111,7.198
		c0,0-0.416-0.483-1.799-1.589c2.074-3.387,6.15-2.766,6.15-2.766C76.596,5.125,76.111,7.198,76.111,7.198z"/>
</g>
<path d="M96.001,16H83.516l-5.514,6h16v48h-88V22h51.191l4.226-6H4.001c-2.209,0-4,1.791-4,4v58c0,2.209,1.791,4,4,4h92
	c2.209,0,4-1.791,4-4V20C100.001,17.791,98.21,16,96.001,16z"/>
</svg>
