<?xml version="1.0" encoding="utf-8"?>
<!-- Generator: Adobe Illustrator 16.0.4, SVG Export Plug-In . SVG Version: 6.00 Build 0)  -->
<!DOCTYPE svg PUBLIC "-//W3C//DTD SVG 1.1//EN" "http://www.w3.org/Graphics/SVG/1.1/DTD/svg11.dtd">
<svg version="1.1" id="Capa_1" xmlns="http://www.w3.org/2000/svg" xmlns:xlink="http://www.w3.org/1999/xlink" x="0px" y="0px"
	 width="216px" height="146px" viewBox="0 0 216 146" enable-background="new 0 0 216 146" xml:space="preserve">
<g>
	<path d="M40.214,67.787h125.144c1.412,0,2.634-0.517,3.666-1.549c1.031-1.031,1.547-2.254,1.547-3.666V52.143
		c0-1.413-0.516-2.634-1.547-3.666c-1.032-1.032-2.254-1.548-3.666-1.548H40.214c-1.413,0-2.635,0.516-3.667,1.548
		c-1.032,1.032-1.548,2.254-1.548,3.666v10.429c0,1.412,0.516,2.635,1.548,3.666C37.58,67.27,38.802,67.787,40.214,67.787z"/>
	<path d="M40.214,36.5h93.856c1.412,0,2.635-0.516,3.668-1.548c1.031-1.032,1.547-2.254,1.547-3.666V20.857
		c0-1.412-0.516-2.634-1.547-3.667c-1.033-1.031-2.256-1.548-3.668-1.548H40.214c-1.413,0-2.635,0.517-3.667,1.548
		c-1.032,1.032-1.548,2.255-1.548,3.667v10.429c0,1.412,0.516,2.634,1.548,3.666C37.58,35.984,38.802,36.5,40.214,36.5z"/>
	<path d="M179.452,111.048c-1.032-1.032-2.255-1.548-3.667-1.548H40.214c-1.413,0-2.635,0.516-3.667,1.548
		c-1.032,1.032-1.548,2.254-1.548,3.666v10.429c0,1.412,0.516,2.635,1.548,3.668c1.033,1.03,2.255,1.547,3.667,1.547h135.571
		c1.412,0,2.635-0.517,3.667-1.547c1.032-1.033,1.548-2.256,1.548-3.668v-10.429C181,113.302,180.484,112.08,179.452,111.048z"/>
	<path d="M40.214,99.072H144.5c1.412,0,2.635-0.517,3.666-1.549c1.032-1.031,1.549-2.254,1.549-3.666V83.429
		c0-1.411-0.517-2.635-1.549-3.666c-1.031-1.032-2.254-1.549-3.666-1.549H40.214c-1.413,0-2.635,0.517-3.667,1.549
		c-1.032,1.031-1.548,2.255-1.548,3.666v10.429c0,1.412,0.516,2.635,1.548,3.666C37.58,98.556,38.802,99.072,40.214,99.072z"/>
</g>
</svg>
