<?xml version="1.0" encoding="utf-8"?>
<!-- Generator: Adobe Illustrator 16.0.4, SVG Export Plug-In . SVG Version: 6.00 Build 0)  -->
<!DOCTYPE svg PUBLIC "-//W3C//DTD SVG 1.1//EN" "http://www.w3.org/Graphics/SVG/1.1/DTD/svg11.dtd">
<svg version="1.1" id="Capa_1" xmlns="http://www.w3.org/2000/svg" xmlns:xlink="http://www.w3.org/1999/xlink" x="0px" y="0px"
	 width="216px" height="146px" viewBox="0 0 216 146" enable-background="new 0 0 216 146" xml:space="preserve">
<g>
	<path d="M175.785,109.5H40.214c-1.413,0-2.635,0.516-3.667,1.548c-1.032,1.032-1.548,2.254-1.548,3.666v10.429
		c0,1.412,0.516,2.635,1.548,3.668c1.033,1.03,2.255,1.547,3.667,1.547h135.571c1.412,0,2.635-0.517,3.667-1.547
		c1.032-1.033,1.548-2.256,1.548-3.668v-10.429c0-1.412-0.516-2.634-1.548-3.666S177.197,109.5,175.785,109.5z"/>
	<path d="M175.785,78.214H71.5c-1.413,0-2.635,0.517-3.667,1.549c-1.032,1.031-1.548,2.255-1.548,3.666v10.429
		c0,1.412,0.516,2.635,1.548,3.666c1.033,1.032,2.255,1.549,3.667,1.549h104.285c1.412,0,2.635-0.517,3.667-1.549
		c1.032-1.031,1.548-2.254,1.548-3.666V83.429c0-1.411-0.516-2.635-1.548-3.666C178.42,78.73,177.197,78.214,175.785,78.214z"/>
	<path d="M175.785,46.929H50.643c-1.413,0-2.635,0.516-3.667,1.548c-1.032,1.032-1.548,2.254-1.548,3.666v10.429
		c0,1.412,0.516,2.635,1.548,3.666c1.033,1.032,2.254,1.549,3.667,1.549h125.142c1.412,0,2.635-0.517,3.667-1.549
		c1.032-1.031,1.548-2.254,1.548-3.666V52.143c0-1.413-0.516-2.634-1.548-3.666C178.42,47.445,177.197,46.929,175.785,46.929z"/>
	<path d="M179.452,17.19c-1.032-1.031-2.255-1.548-3.667-1.548H81.929c-1.413,0-2.635,0.517-3.667,1.548
		c-1.032,1.032-1.548,2.255-1.548,3.667v10.429c0,1.412,0.516,2.634,1.548,3.666c1.033,1.032,2.255,1.548,3.667,1.548h93.856
		c1.412,0,2.635-0.516,3.667-1.548c1.032-1.032,1.548-2.254,1.548-3.666V20.857C181,19.445,180.484,18.223,179.452,17.19z"/>
</g>
</svg>
