<?xml version="1.0" encoding="utf-8"?>
<!-- Generator: Adobe Illustrator 16.0.4, SVG Export Plug-In . SVG Version: 6.00 Build 0)  -->
<!DOCTYPE svg PUBLIC "-//W3C//DTD SVG 1.1//EN" "http://www.w3.org/Graphics/SVG/1.1/DTD/svg11.dtd">
<svg version="1.1" id="Capa_1" xmlns="http://www.w3.org/2000/svg" xmlns:xlink="http://www.w3.org/1999/xlink" x="0px" y="0px"
	 width="216px" height="146px" viewBox="0 0 216 146" enable-background="new 0 0 216 146" xml:space="preserve">
<path d="M180.266,95.242c-0.488-0.489-1.113-0.733-1.873-0.733h-28.679c-1.194,0-2.009,0.543-2.444,1.63
	c-0.435,1.033-0.244,1.983,0.569,2.853l8.147,8.146c-3.639,4.943-8.785,9.111-15.438,12.507c-6.653,3.395-14.026,5.635-22.12,6.722
	V73.652h15.643c1.412,0,2.635-0.517,3.668-1.548c1.031-1.031,1.547-2.254,1.547-3.666V58.009c0-1.412-0.516-2.634-1.547-3.666
	c-1.033-1.032-2.256-1.548-3.668-1.548h-15.643v-13.28c3.15-1.847,5.676-4.359,7.577-7.536c1.901-3.178,2.853-6.667,2.853-10.47
	c0-5.757-2.037-10.673-6.111-14.746c-4.073-4.074-8.988-6.111-14.746-6.111S97.327,2.689,93.253,6.763
	c-4.073,4.073-6.11,8.989-6.11,14.746c0,3.803,0.951,7.292,2.852,10.47c1.901,3.177,4.427,5.689,7.577,7.536v13.28H81.929
	c-1.413,0-2.635,0.516-3.667,1.548c-1.032,1.032-1.548,2.254-1.548,3.666v10.429c0,1.412,0.516,2.635,1.548,3.666
	c1.033,1.032,2.255,1.548,3.667,1.548h15.643v52.714c-8.093-1.087-15.467-3.327-22.12-6.722c-6.653-3.396-11.8-7.564-15.439-12.507
	l8.147-8.146c0.814-0.87,1.005-1.82,0.57-2.853c-0.434-1.087-1.249-1.63-2.444-1.63H37.607c-0.761,0-1.386,0.244-1.874,0.733
	C35.245,95.73,35,96.355,35,97.116v28.679c0,1.193,0.543,2.009,1.629,2.443c0.435,0.108,0.761,0.162,0.978,0.162
	c0.761,0,1.385-0.244,1.874-0.731l7.577-7.577c6.463,7.766,15.113,13.918,25.949,18.453s22.5,6.804,34.993,6.804
	c12.492,0,24.156-2.269,34.992-6.804s19.486-10.686,25.949-18.453l7.578,7.577c0.543,0.487,1.166,0.731,1.873,0.731
	c0.217,0,0.543-0.054,0.979-0.162c1.086-0.434,1.629-1.25,1.629-2.443V97.116C181,96.355,180.755,95.73,180.266,95.242z
	 M111.666,25.175c-1.031,1.032-2.253,1.549-3.666,1.549s-2.635-0.517-3.667-1.549c-1.032-1.031-1.548-2.254-1.548-3.666
	c0-1.412,0.516-2.634,1.548-3.666c1.033-1.032,2.255-1.548,3.667-1.548s2.635,0.516,3.666,1.548
	c1.032,1.032,1.549,2.254,1.549,3.666C113.215,22.921,112.698,24.144,111.666,25.175z"/>
</svg>
