<?xml version="1.0" encoding="utf-8"?>
<!-- Generator: Adobe Illustrator 16.0.4, SVG Export Plug-In . SVG Version: 6.00 Build 0)  -->
<!DOCTYPE svg PUBLIC "-//W3C//DTD SVG 1.1//EN" "http://www.w3.org/Graphics/SVG/1.1/DTD/svg11.dtd">
<svg version="1.1" id="Capa_1" xmlns="http://www.w3.org/2000/svg" xmlns:xlink="http://www.w3.org/1999/xlink" x="0px" y="0px"
	 width="216px" height="146px" viewBox="0 0 216 146" enable-background="new 0 0 216 146" xml:space="preserve">
<path d="M130.895,71.125L92.928,33.159c-0.543-0.543-1.168-0.815-1.874-0.815c-0.706,0-1.331,0.272-1.874,0.815l-4.073,4.074
	c-0.544,0.543-0.815,1.167-0.815,1.874s0.271,1.331,0.815,1.874L117.126,73l-32.019,32.02c-0.544,0.543-0.815,1.168-0.815,1.873
	c0,0.707,0.271,1.332,0.815,1.875l4.073,4.072c0.543,0.544,1.168,0.814,1.874,0.814c0.706,0,1.331-0.271,1.874-0.814l37.966-37.966
	c0.543-0.543,0.814-1.168,0.814-1.874S131.438,71.669,130.895,71.125z"/>
</svg>
