<?xml version="1.0" encoding="utf-8"?>
<!-- Generator: Adobe Illustrator 16.0.4, SVG Export Plug-In . SVG Version: 6.00 Build 0)  -->
<!DOCTYPE svg PUBLIC "-//W3C//DTD SVG 1.1//EN" "http://www.w3.org/Graphics/SVG/1.1/DTD/svg11.dtd">
<svg version="1.1" id="Capa_1" xmlns="http://www.w3.org/2000/svg" xmlns:xlink="http://www.w3.org/1999/xlink" x="0px" y="0px"
	 width="216px" height="146px" viewBox="0 0 216 146" enable-background="new 0 0 216 146" xml:space="preserve">
<g>
	<path d="M151.874,93.938c-3.748-5.377-5.621-11.435-5.621-18.168c0-6.138,1.767-11.761,5.295-16.866
		c1.901-2.77,4.998-5.974,9.289-9.614c-2.825-3.475-5.649-6.191-8.474-8.147c-5.106-3.53-10.891-5.295-17.354-5.295
		c-3.856,0-8.555,0.923-14.094,2.771c-5.323,1.847-9.207,2.771-11.651,2.771c-1.847,0-5.594-0.814-11.243-2.444
		c-5.703-1.63-10.51-2.444-14.421-2.444c-9.342,0-17.055,3.911-23.138,11.732c-6.138,7.93-9.207,18.087-9.207,30.471
		c0,13.144,3.993,26.804,11.977,40.981c8.092,14.067,16.267,21.102,24.523,21.102c2.77,0,6.355-0.924,10.754-2.771
		c4.4-1.791,8.256-2.688,11.57-2.688c3.53,0,7.631,0.869,12.302,2.607c4.942,1.736,8.745,2.605,11.406,2.605
		c6.952,0,13.932-5.323,20.938-15.969c4.562-6.789,7.903-13.578,10.021-20.368C159.912,102.737,155.622,99.314,151.874,93.938z"/>
	<path d="M124.172,30.96c3.422-3.422,5.948-7.17,7.578-11.243c1.574-4.074,2.361-7.768,2.361-11.081
		c0-0.217-0.012-0.489-0.041-0.815c-0.025-0.326-0.039-0.597-0.039-0.814c-0.055-0.163-0.123-0.462-0.204-0.896
		c-0.081-0.434-0.149-0.733-0.204-0.896c-9.559,2.228-16.348,6.247-20.368,12.059c-4.073,5.866-6.192,12.845-6.355,20.938
		c3.639-0.326,6.463-0.787,8.473-1.385C118.307,35.849,121.238,33.893,124.172,30.96z"/>
</g>
</svg>
