<?xml version="1.0" encoding="utf-8"?>
<!-- Generator: Adobe Illustrator 16.0.4, SVG Export Plug-In . SVG Version: 6.00 Build 0)  -->
<!DOCTYPE svg PUBLIC "-//W3C//DTD SVG 1.1//EN" "http://www.w3.org/Graphics/SVG/1.1/DTD/svg11.dtd">
<svg version="1.1" id="Capa_1" xmlns="http://www.w3.org/2000/svg" xmlns:xlink="http://www.w3.org/1999/xlink" x="0px" y="0px"
	 width="216px" height="146px" viewBox="0 0 216 146" enable-background="new 0 0 216 146" xml:space="preserve">
<g>
	<path d="M165.357,46.929H50.644c-1.413,0-2.635,0.516-3.667,1.548c-1.032,1.032-1.548,2.254-1.548,3.666v78.214
		c0,1.412,0.516,2.635,1.548,3.666c1.032,1.032,2.254,1.549,3.667,1.549h114.713c1.412,0,2.634-0.517,3.666-1.549
		c1.031-1.031,1.547-2.254,1.547-3.666V52.143c0-1.413-0.514-2.634-1.547-3.666C167.992,47.445,166.77,46.929,165.357,46.929z
		 M122.094,71.452C121.062,72.484,119.84,73,118.428,73H97.571c-1.412,0-2.634-0.516-3.666-1.548
		c-1.032-1.032-1.548-2.254-1.548-3.667c0-1.412,0.516-2.634,1.548-3.666c1.032-1.032,2.254-1.548,3.666-1.548h20.859
		c1.411,0,2.633,0.516,3.666,1.548c1.031,1.032,1.547,2.254,1.547,3.666C123.643,69.198,123.126,70.42,122.094,71.452z"/>
	<path d="M174.238,11.977c-1.032-1.032-2.254-1.548-3.666-1.548H45.429c-1.412,0-2.634,0.516-3.666,1.548
		c-1.032,1.032-1.548,2.254-1.548,3.666V36.5c0,1.412,0.516,2.634,1.548,3.666c1.032,1.032,2.254,1.548,3.666,1.548H170.57
		c1.412,0,2.635-0.516,3.668-1.548c1.031-1.032,1.547-2.254,1.547-3.666V15.643C175.785,14.23,175.27,13.009,174.238,11.977z"/>
</g>
</svg>
