<?xml version="1.0" encoding="utf-8"?>
<!-- Generator: Adobe Illustrator 16.0.4, SVG Export Plug-In . SVG Version: 6.00 Build 0)  -->
<!DOCTYPE svg PUBLIC "-//W3C//DTD SVG 1.1//EN" "http://www.w3.org/Graphics/SVG/1.1/DTD/svg11.dtd">
<svg version="1.1" id="Capa_1" xmlns="http://www.w3.org/2000/svg" xmlns:xlink="http://www.w3.org/1999/xlink" x="0px" y="0px"
	 width="216px" height="146px" viewBox="0 0 216 146" enable-background="new 0 0 216 146" xml:space="preserve">
<path d="M162.18,41.592c-5.595-9.586-13.185-17.176-22.771-22.771c-9.588-5.595-20.055-8.392-31.408-8.392
	c-11.352,0-21.822,2.797-31.408,8.392c-9.587,5.594-17.177,13.184-22.772,22.771C48.225,51.179,45.428,61.649,45.428,73
	c0,11.352,2.798,21.82,8.392,31.408c5.595,9.585,13.185,17.176,22.772,22.771c9.587,5.595,20.056,8.392,31.408,8.392
	c11.352,0,21.822-2.797,31.408-8.392c9.586-5.594,17.176-13.185,22.771-22.771c5.594-9.587,8.391-20.057,8.391-31.408
	C170.57,61.648,167.773,51.178,162.18,41.592z M148.573,76.585l-7.414,7.414c-1.031,1.032-2.255,1.548-3.666,1.548
	c-1.412,0-2.634-0.516-3.666-1.548L118.43,68.601V109.5c0,1.412-0.518,2.634-1.549,3.666s-2.254,1.548-3.666,1.548h-10.429
	c-1.412,0-2.634-0.516-3.666-1.548c-1.032-1.032-1.548-2.254-1.548-3.666V68.601L82.174,83.999c-0.979,0.978-2.2,1.466-3.667,1.466
	c-1.467,0-2.689-0.488-3.667-1.466l-7.414-7.414c-0.977-0.978-1.466-2.2-1.466-3.667c0-1.466,0.488-2.688,1.466-3.666L96.92,39.759
	l7.414-7.414c0.978-0.978,2.2-1.467,3.666-1.467c1.467,0,2.689,0.489,3.666,1.467l7.415,7.414l29.492,29.493
	c0.979,0.978,1.467,2.2,1.467,3.666C150.04,74.385,149.552,75.607,148.573,76.585z"/>
</svg>
