<?xml version="1.0" encoding="utf-8"?>
<!-- Generator: Adobe Illustrator 16.0.4, SVG Export Plug-In . SVG Version: 6.00 Build 0)  -->
<!DOCTYPE svg PUBLIC "-//W3C//DTD SVG 1.1//EN" "http://www.w3.org/Graphics/SVG/1.1/DTD/svg11.dtd">
<svg version="1.1" id="Capa_1" xmlns="http://www.w3.org/2000/svg" xmlns:xlink="http://www.w3.org/1999/xlink" x="0px" y="0px"
	 width="216px" height="146px" viewBox="0 0 216 146" enable-background="new 0 0 216 146" xml:space="preserve">
<path d="M165.805,91.861c-0.734-2.797-2.349-4.902-4.848-6.314L139.285,73l21.672-12.547c2.499-1.412,4.115-3.516,4.848-6.314
	c0.733-2.797,0.394-5.445-1.019-7.943l-5.214-8.962c-1.412-2.499-3.516-4.115-6.314-4.848c-2.797-0.732-5.443-0.393-7.943,1.02
	L123.643,45.87V20.858c0-2.825-1.033-5.269-3.097-7.333s-4.508-3.096-7.332-3.096h-10.428c-2.825,0-5.269,1.033-7.333,3.096
	c-2.064,2.064-3.096,4.508-3.096,7.333V45.87L70.685,33.405c-2.499-1.413-5.147-1.753-7.944-1.02
	c-2.797,0.734-4.902,2.349-6.314,4.848l-5.214,8.962c-1.413,2.498-1.752,5.146-1.019,7.943c0.734,2.797,2.349,4.902,4.848,6.314
	L76.714,73L55.042,85.547c-2.499,1.412-4.115,3.516-4.848,6.314c-0.733,2.797-0.393,5.443,1.019,7.942l5.214,8.962
	c1.412,2.5,3.516,4.115,6.314,4.849c2.798,0.732,5.445,0.393,7.944-1.02l21.672-12.465v25.013c0,2.823,1.032,5.269,3.096,7.332
	c2.064,2.064,4.509,3.096,7.333,3.096h10.428c2.824,0,5.269-1.032,7.332-3.096c2.065-2.063,3.097-4.509,3.097-7.332V100.13
	l21.672,12.465c2.5,1.413,5.146,1.753,7.943,1.02c2.797-0.734,4.902-2.349,6.314-4.849l5.214-8.962
	C166.199,97.305,166.538,94.658,165.805,91.861z"/>
</svg>
