<?xml version="1.0" encoding="utf-8"?>
<!-- Generator: Adobe Illustrator 16.0.4, SVG Export Plug-In . SVG Version: 6.00 Build 0)  -->
<!DOCTYPE svg PUBLIC "-//W3C//DTD SVG 1.1//EN" "http://www.w3.org/Graphics/SVG/1.1/DTD/svg11.dtd">
<svg version="1.1" id="Capa_1" xmlns="http://www.w3.org/2000/svg" xmlns:xlink="http://www.w3.org/1999/xlink" x="0px" y="0px"
	 width="216px" height="146px" viewBox="0 0 216 146" enable-background="new 0 0 216 146" xml:space="preserve">
<path d="M165.602,48.558c-3.313-7.739-7.754-14.407-13.322-20.001c-5.565-5.594-12.221-10.049-19.961-13.362
	c-7.738-3.313-15.846-4.97-24.318-4.97c-8.473,0-16.58,1.658-24.32,4.97c-7.74,3.313-14.394,7.767-19.961,13.362
	c-5.567,5.594-10.008,12.262-13.321,20.001c-3.313,7.74-4.97,15.874-4.97,24.401c0,8.527,1.657,16.674,4.97,24.441
	c3.314,7.768,7.754,14.447,13.321,20.043c5.567,5.594,12.221,10.049,19.961,13.36c7.74,3.314,15.847,4.972,24.32,4.972
	c8.473,0,16.58-1.658,24.318-4.972c7.74-3.312,14.396-7.766,19.961-13.36c5.568-5.596,10.009-12.275,13.322-20.043
	c3.313-7.767,4.969-15.914,4.969-24.441C170.57,64.432,168.915,56.298,165.602,48.558z M70.93,97.318
	c-4.834-7.439-7.251-15.561-7.25-24.36c0-8.038,1.983-15.479,5.948-22.323c3.964-6.844,9.342-12.248,16.131-16.214
	c6.789-3.965,14.203-5.947,22.242-5.947c8.963,0,17.108,2.472,24.442,7.414L70.93,97.318z M148.816,90.273
	c-2.336,5.513-5.484,10.252-9.45,14.217s-8.677,7.129-14.136,9.49c-5.459,2.363-11.203,3.545-17.231,3.545
	c-8.69,0-16.756-2.416-24.197-7.252l61.431-61.349c4.727,7.278,7.088,15.29,7.088,24.034
	C152.32,78.988,151.152,84.759,148.816,90.273z"/>
</svg>
