<?xml version="1.0" encoding="utf-8"?>
<!-- Generator: Adobe Illustrator 16.0.4, SVG Export Plug-In . SVG Version: 6.00 Build 0)  -->
<!DOCTYPE svg PUBLIC "-//W3C//DTD SVG 1.1//EN" "http://www.w3.org/Graphics/SVG/1.1/DTD/svg11.dtd">
<svg version="1.1" id="Capa_1" xmlns="http://www.w3.org/2000/svg" xmlns:xlink="http://www.w3.org/1999/xlink" x="0px" y="0px"
	 width="216px" height="146px" viewBox="0 0 216 146" enable-background="new 0 0 216 146" xml:space="preserve">
<g>
	<rect x="73.456" y="15.642" width="5.051" height="114.633"/>
	<rect x="63.19" y="15.642" width="2.525" height="114.633"/>
	<rect x="91.379" y="15.642" width="2.526" height="114.633"/>
	<rect x="86.246" y="15.642" width="2.526" height="114.633"/>
	<rect x="42.659" y="15.642" width="2.607" height="114.633"/>
	<rect x="50.398" y="15.642" width="2.526" height="114.633"/>
	<rect x="35" y="15.642" width="5.133" height="114.715"/>
	<rect x="96.512" y="15.642" width="2.526" height="114.633"/>
	<rect x="147.678" y="15.642" width="5.133" height="114.633"/>
	<rect x="160.551" y="15.642" width="7.658" height="114.633"/>
	<rect x="170.734" y="15.642" width="2.607" height="114.633"/>
	<rect x="175.867" y="15.642" width="5.133" height="114.715"/>
	<rect x="129.754" y="15.642" width="5.133" height="114.633"/>
	<rect x="140.02" y="15.642" width="5.133" height="114.633"/>
	<rect x="119.488" y="15.642" width="5.133" height="114.633"/>
	<rect x="106.696" y="15.642" width="5.133" height="114.633"/>
</g>
</svg>
