<?xml version="1.0" encoding="utf-8"?>
<!-- Generator: Adobe Illustrator 16.0.4, SVG Export Plug-In . SVG Version: 6.00 Build 0)  -->
<!DOCTYPE svg PUBLIC "-//W3C//DTD SVG 1.1//EN" "http://www.w3.org/Graphics/SVG/1.1/DTD/svg11.dtd">
<svg version="1.1" id="Capa_1" xmlns="http://www.w3.org/2000/svg" xmlns:xlink="http://www.w3.org/1999/xlink" x="0px" y="0px"
	 width="216px" height="146px" viewBox="0 0 216 146" enable-background="new 0 0 216 146" xml:space="preserve">
<path d="M164.624,117.973l-40.983-64.606V20.858h5.215c1.412,0,2.635-0.517,3.666-1.549c1.033-1.031,1.549-2.254,1.549-3.666
	c0-1.412-0.516-2.634-1.549-3.666c-1.031-1.032-2.254-1.548-3.666-1.548H87.142c-1.413,0-2.635,0.516-3.667,1.548
	c-1.032,1.032-1.548,2.254-1.548,3.666c0,1.412,0.516,2.635,1.548,3.666c1.033,1.032,2.255,1.549,3.667,1.549h5.214v32.508
	l-40.981,64.606c-3.041,4.836-3.625,8.978-1.751,12.426c1.874,3.449,5.69,5.174,11.447,5.174h93.859
	c5.756,0,9.571-1.725,11.445-5.174C168.249,126.95,167.665,122.809,164.624,117.973z M78.995,93.857l22.161-34.952l1.629-2.526
	v-3.014V20.857h10.428v32.508v3.014l1.629,2.526l22.161,34.952H78.995z"/>
</svg>
