<?xml version="1.0" encoding="utf-8"?>
<!-- Generator: Adobe Illustrator 16.0.4, SVG Export Plug-In . SVG Version: 6.00 Build 0)  -->
<!DOCTYPE svg PUBLIC "-//W3C//DTD SVG 1.1//EN" "http://www.w3.org/Graphics/SVG/1.1/DTD/svg11.dtd">
<svg version="1.1" id="Capa_1" xmlns="http://www.w3.org/2000/svg" xmlns:xlink="http://www.w3.org/1999/xlink" x="0px" y="0px"
	 width="216px" height="146px" viewBox="0 0 216 146" enable-background="new 0 0 216 146" xml:space="preserve">
<g>
	<path d="M163.686,17.313c-4.588-4.589-10.115-6.884-16.578-6.884H68.893c-6.463,0-11.99,2.295-16.58,6.884
		c-4.589,4.59-6.884,10.117-6.884,16.58v78.214c0,6.463,2.295,11.99,6.884,16.58c4.59,4.59,10.117,6.885,16.58,6.885h78.214
		c6.463,0,11.99-2.295,16.578-6.885c4.59-4.59,6.885-10.117,6.885-16.58V33.893C170.57,27.43,168.275,21.902,163.686,17.313z
		 M138.919,96.342c-0.299,1.059-0.446,1.779-0.446,2.159c-0.272,0.978-0.613,2.906-1.021,5.785c-0.406,2.879-1.019,5.2-1.832,6.967
		c-0.815,1.764-2.146,3.163-3.992,4.194c-9.723,5.377-21.347,6.816-34.871,4.318c-8.528-1.467-14.068-4.399-16.621-8.799
		c-0.814-3.042-1.928-8.745-3.34-17.109l0.407-0.979l0.978-0.488c8.799,5.758,18.739,8.637,29.819,8.637
		c11.081,0,20.993-2.879,29.736-8.637c0.816,0.217,1.291,0.665,1.427,1.344C139.3,94.414,139.218,95.283,138.919,96.342z
		 M149.062,42.04c-1.737,11.189-3.912,24.034-6.518,38.536c-0.218,1.141-0.748,2.227-1.589,3.259s-1.683,1.819-2.524,2.362
		c-0.843,0.544-1.916,1.168-3.22,1.873c-9.831,4.945-21.78,6.654-35.848,5.134c-9.722-1.085-17.435-3.802-23.138-8.147
		c-0.706-0.596-1.303-1.356-1.792-2.281c-0.489-0.922-0.815-1.655-0.978-2.198s-0.353-1.522-0.57-2.935
		c-0.217-1.412-0.353-2.254-0.407-2.524c-0.327-1.955-0.978-5.676-1.956-11.162s-1.765-10.13-2.363-13.932
		c-0.597-3.802-1.113-7.55-1.548-11.243c0.217-1.629,1.018-3.095,2.403-4.399c1.385-1.304,2.662-2.228,3.829-2.771
		c1.168-0.543,2.784-1.222,4.848-2.037c5.106-1.847,11.244-3.096,18.413-3.747c14.719-1.466,27.945-0.489,39.677,2.933
		c6.084,1.793,10.293,4.183,12.629,7.17C149.333,37.125,149.551,39.161,149.062,42.04z"/>
	<path d="M114.396,59.963c-3.883-2.226-7.727-2.498-11.528-0.814c-2.444,1.086-4.413,2.824-5.907,5.214s-2.186,4.916-2.078,7.577
		c0.163,3.64,1.684,6.708,4.562,9.207c2.879,2.498,6.111,3.586,9.696,3.26c3.584-0.326,6.571-1.983,8.963-4.971
		c2.39-2.986,3.367-6.272,2.933-9.857C120.493,65.396,118.279,62.191,114.396,59.963z M111.585,76.748
		c-2.28,1.466-4.481,1.574-6.599,0.324c-2.336-0.977-3.517-2.891-3.544-5.742c-0.027-2.851,1.127-4.821,3.463-5.907
		c1.955-1.195,4.046-1.168,6.273,0.081c2.227,1.25,3.34,3.042,3.34,5.378C114.844,73.326,113.866,75.281,111.585,76.748z"/>
	<path d="M131.873,35.157c-1.357-0.679-2.525-1.114-3.504-1.304c-0.977-0.189-2.362-0.421-4.154-0.692
		c-11.408-1.847-22.488-1.819-33.242,0.082c-1.629,0.271-2.905,0.501-3.829,0.692s-2.01,0.612-3.259,1.263
		c-1.249,0.651-2.227,1.494-2.933,2.525c1.141,1.086,2.621,1.969,4.44,2.648s3.245,1.114,4.277,1.304
		c1.032,0.189,2.743,0.447,5.133,0.773c9.18,1.087,17.978,1.087,26.397,0c2.391-0.271,4.115-0.488,5.174-0.651
		s2.499-0.597,4.318-1.304c1.818-0.707,3.271-1.63,4.358-2.771C134.289,36.69,133.229,35.835,131.873,35.157z"/>
</g>
</svg>
