<?xml version="1.0" encoding="utf-8"?>
<!-- Generator: Adobe Illustrator 16.0.4, SVG Export Plug-In . SVG Version: 6.00 Build 0)  -->
<!DOCTYPE svg PUBLIC "-//W3C//DTD SVG 1.1//EN" "http://www.w3.org/Graphics/SVG/1.1/DTD/svg11.dtd">
<svg version="1.1" id="Capa_1" xmlns="http://www.w3.org/2000/svg" xmlns:xlink="http://www.w3.org/1999/xlink" x="0px" y="0px"
	 width="216px" height="146px" viewBox="0 0 216 146" enable-background="new 0 0 216 146" xml:space="preserve">
<path d="M158.555,15.439c-1.06-1.522-2.486-2.635-4.277-3.341c-1.141-0.488-2.336-0.733-3.586-0.733v-0.001H65.307
	c-1.249,0-2.443,0.245-3.584,0.733c-1.792,0.706-3.218,1.82-4.277,3.341c-1.059,1.521-1.589,3.204-1.589,5.051v105.02
	c0,1.847,0.53,3.53,1.589,5.052c1.059,1.521,2.485,2.635,4.277,3.34c1.14,0.488,2.335,0.733,3.584,0.733
	c2.554,0,4.807-0.896,6.763-2.688L108,97.4l35.93,34.547c1.901,1.736,4.155,2.605,6.762,2.605c1.358,0,2.554-0.216,3.586-0.65
	c1.791-0.706,3.217-1.82,4.277-3.342c1.059-1.521,1.588-3.203,1.588-5.051V20.49C160.143,18.643,159.613,16.96,158.555,15.439z"/>
</svg>
