<?xml version="1.0" encoding="utf-8"?>
<!-- Generator: Adobe Illustrator 16.0.4, SVG Export Plug-In . SVG Version: 6.00 Build 0)  -->
<!DOCTYPE svg PUBLIC "-//W3C//DTD SVG 1.1//EN" "http://www.w3.org/Graphics/SVG/1.1/DTD/svg11.dtd">
<svg version="1.1" id="Capa_1" xmlns="http://www.w3.org/2000/svg" xmlns:xlink="http://www.w3.org/1999/xlink" x="0px" y="0px"
	 width="216px" height="146px" viewBox="0 0 216 146" enable-background="new 0 0 216 146" xml:space="preserve">
<path d="M153.952,83.552c-3.858-1.33-7.36-1.969-10.511-1.914c-3.149,0.056-6.342,0.599-9.573,1.629
	c-3.232,1.032-5.933,2.173-8.104,3.423c-2.174,1.25-4.277,2.674-6.314,4.276s-3.381,2.716-4.033,3.34
	c-0.652,0.625-1.141,1.128-1.467,1.509c2.716-7.388,4.699-15.074,5.947-23.058l1.386,0.244c0.923,0.163,2.186,0.285,3.788,0.367
	c1.602,0.082,3.436,0.109,5.5,0.082c2.062-0.027,4.236-0.285,6.518-0.774s4.576-1.141,6.885-1.956
	c2.31-0.814,4.522-2.05,6.639-3.707c2.119-1.656,4.007-3.598,5.664-5.825c1.656-2.227,3.014-5.065,4.072-8.514
	c1.062-3.448,1.646-7.291,1.752-11.528c-3.692-1.249-7.291-1.901-10.795-1.955c-3.504-0.055-6.545,0.34-9.125,1.181
	c-2.58,0.841-5.063,2.05-7.455,3.625c-2.389,1.575-4.317,3.083-5.785,4.521c-1.465,1.439-2.838,3.014-4.112,4.725
	c-1.276,1.711-2.104,2.878-2.484,3.503s-0.651,1.127-0.815,1.507c0.055-1.412,0.082-3.354,0.082-5.825
	c0-2.471-0.027-3.843-0.082-4.114l0.57-1.222c0.436-0.815,0.897-1.956,1.387-3.422c0.488-1.467,1.004-3.15,1.547-5.051
	s0.896-3.979,1.059-6.233c0.164-2.254,0.178-4.576,0.041-6.966c-0.135-2.39-0.691-4.807-1.67-7.251
	c-0.977-2.444-2.281-4.753-3.91-6.925c-1.629-2.173-3.924-4.251-6.885-6.233c-2.96-1.983-6.423-3.653-10.388-5.011
	c-2.77,3.694-4.671,7.455-5.703,11.284c-1.032,3.829-1.358,7.278-0.978,10.347c0.38,3.069,1.276,6.124,2.688,9.166
	c1.412,3.042,2.878,5.567,4.399,7.577c1.521,2.01,3.246,3.951,5.173,5.825c1.929,1.874,3.26,3.082,3.992,3.625
	c0.733,0.544,1.316,0.978,1.752,1.304c0,3.965-0.326,9.261-0.979,15.887l-0.325-1.303c-0.272-0.815-0.707-1.888-1.304-3.218
	c-0.598-1.33-1.344-2.851-2.24-4.562s-2.037-3.422-3.422-5.133c-1.384-1.711-2.905-3.367-4.562-4.97
	c-1.656-1.602-3.652-2.96-5.988-4.073c-2.336-1.113-4.834-1.928-7.496-2.444c-2.662-0.517-5.717-0.543-9.166-0.082
	c-3.449,0.462-7.074,1.453-10.876,2.974c0.326,3.802,1.1,7.265,2.322,10.388s2.702,5.689,4.44,7.699
	c1.737,2.009,3.775,3.774,6.11,5.295c2.336,1.521,4.617,2.675,6.844,3.463s4.63,1.413,7.21,1.874c2.58,0.462,4.793,0.733,6.64,0.815
	s3.734,0.096,5.662,0.041s3.192-0.122,3.789-0.204c0.599-0.082,1.087-0.149,1.468-0.204c-1.414,8.689-3.559,16.594-6.438,23.708
	c-1.358-2.391-2.893-4.617-4.604-6.682c-1.711-2.063-4.114-4.154-7.21-6.272c-3.097-2.119-6.478-3.653-10.144-4.604
	c-3.667-0.949-8.215-1.154-13.647-0.611c-5.432,0.545-11.243,2.093-17.435,4.646c1.793,4.509,3.816,8.474,6.07,11.896
	c2.254,3.42,4.548,6.138,6.884,8.147c2.336,2.011,4.835,3.612,7.496,4.808c2.661,1.194,5.187,1.968,7.577,2.321
	c2.39,0.353,4.861,0.42,7.414,0.203c2.553-0.217,4.806-0.571,6.762-1.059c1.955-0.489,3.91-1.113,5.866-1.875
	c-5.541,10.212-12.371,18.21-20.491,23.993c-8.12,5.785-16.879,8.705-26.275,8.76c-1.032,0-1.901,0.339-2.607,1.02
	c-0.706,0.678-1.059,1.533-1.059,2.565c0,1.031,0.353,1.899,1.059,2.606c0.706,0.705,1.575,1.06,2.607,1.06
	c11.297-0.056,21.74-3.652,31.326-10.795c9.587-7.144,17.449-16.906,23.587-29.289l1.385,0.813c0.869,0.543,2.119,1.154,3.748,1.832
	c1.629,0.68,3.517,1.427,5.662,2.241c2.146,0.815,4.494,1.412,7.047,1.792c2.553,0.381,5.174,0.611,7.863,0.693
	c2.688,0.081,5.444-0.312,8.27-1.182c2.824-0.869,5.512-2.133,8.064-3.789s5.025-4.061,7.414-7.211
	c2.391-3.149,4.455-6.896,6.193-11.242C161.527,86.986,157.807,84.882,153.952,83.552z"/>
</svg>
