<?xml version="1.0" encoding="utf-8"?>
<!-- Generator: Adobe Illustrator 16.0.4, SVG Export Plug-In . SVG Version: 6.00 Build 0)  -->
<!DOCTYPE svg PUBLIC "-//W3C//DTD SVG 1.1//EN" "http://www.w3.org/Graphics/SVG/1.1/DTD/svg11.dtd">
<svg version="1.1" id="Capa_1" xmlns="http://www.w3.org/2000/svg" xmlns:xlink="http://www.w3.org/1999/xlink" x="0px" y="0px"
	 width="216px" height="146px" viewBox="0 0 216 146" enable-background="new 0 0 216 146" xml:space="preserve">
<g>
	<path d="M126.251,96.464c0,1.413-0.517,2.636-1.548,3.667c-1.032,1.032-2.255,1.548-3.667,1.548H94.965
		c-1.413,0-2.635-0.516-3.667-1.548c-1.032-1.031-1.548-2.254-1.548-3.667V83.429H35v39.107c0,3.584,1.276,6.653,3.829,9.206
		c2.553,2.553,5.622,3.829,9.207,3.829h119.929c3.584,0,6.653-1.276,9.206-3.829c2.554-2.553,3.829-5.622,3.829-9.206V83.429
		h-54.749V96.464z"/>
	<rect x="97.571" y="83.429" width="20.859" height="10.429"/>
	<path d="M177.171,35.115c-2.553-2.553-5.622-3.829-9.206-3.829h-28.68V18.25c0-2.173-0.76-4.019-2.281-5.54
		c-1.52-1.52-3.367-2.281-5.539-2.281H84.536c-2.172,0-4.019,0.761-5.54,2.281s-2.281,3.367-2.281,5.54v13.036H48.036
		c-3.585,0-6.654,1.276-9.207,3.829C36.276,37.668,35,40.736,35,44.321v31.286h146V44.321C181,40.736,179.725,37.668,177.171,35.115
		z M128.857,31.286H87.143V20.857h41.714V31.286z"/>
</g>
</svg>
