<?xml version="1.0" encoding="utf-8"?>
<!-- Generator: Adobe Illustrator 16.0.4, SVG Export Plug-In . SVG Version: 6.00 Build 0)  -->
<!DOCTYPE svg PUBLIC "-//W3C//DTD SVG 1.1//EN" "http://www.w3.org/Graphics/SVG/1.1/DTD/svg11.dtd">
<svg version="1.1" id="Capa_1" xmlns="http://www.w3.org/2000/svg" xmlns:xlink="http://www.w3.org/1999/xlink" x="0px" y="0px"
	 width="216px" height="146px" viewBox="0 0 216 146" enable-background="new 0 0 216 146" xml:space="preserve">
<g>
	<path d="M171.628,78.458c-1.03-1.032-2.254-1.549-3.666-1.549h-18.25V52.956l14.095-14.095c1.032-1.032,1.549-2.254,1.549-3.667
		c0-1.412-0.517-2.634-1.549-3.666c-1.031-1.032-2.254-1.548-3.666-1.548s-2.634,0.516-3.666,1.548L142.38,45.623H73.616
		L59.521,31.528c-1.032-1.032-2.254-1.548-3.666-1.548c-1.413,0-2.635,0.516-3.667,1.548c-1.032,1.032-1.548,2.254-1.548,3.666
		c0,1.413,0.516,2.635,1.548,3.667l14.095,14.095v23.953h-18.25c-1.412,0-2.634,0.517-3.666,1.549
		c-1.032,1.031-1.548,2.255-1.548,3.666c0,1.412,0.516,2.636,1.548,3.666c1.032,1.032,2.254,1.55,3.666,1.55h18.25
		c0,8.688,1.576,16.131,4.726,22.322l-16.457,18.494c-0.924,1.087-1.345,2.35-1.263,3.788c0.081,1.438,0.638,2.647,1.67,3.626
		c1.032,0.869,2.199,1.304,3.503,1.304c1.521,0,2.824-0.569,3.911-1.711l14.909-16.865l1.223,1.142
		c0.76,0.707,1.941,1.588,3.544,2.647s3.395,2.118,5.377,3.179c1.983,1.059,4.346,1.955,7.088,2.688
		c2.744,0.734,5.5,1.101,8.27,1.101v-73h10.429v73c2.607,0,5.241-0.353,7.902-1.06c2.662-0.705,4.889-1.493,6.682-2.362
		c1.792-0.87,3.559-1.86,5.295-2.974c1.738-1.113,2.879-1.887,3.422-2.322c0.545-0.436,0.952-0.788,1.223-1.059l16.133,16.05
		c0.979,1.032,2.199,1.548,3.666,1.548s2.688-0.516,3.667-1.548c1.03-1.032,1.547-2.255,1.547-3.667s-0.517-2.635-1.547-3.666
		l-16.947-17.027c3.64-6.464,5.459-14.34,5.459-23.627h18.25c1.412,0,2.636-0.517,3.666-1.549c1.032-1.031,1.55-2.254,1.55-3.666
		S172.662,79.49,171.628,78.458z"/>
	<path d="M126.453,16.742c-5.078-5.078-11.229-7.618-18.453-7.618c-7.225,0-13.375,2.54-18.454,7.618
		c-5.078,5.079-7.617,11.23-7.617,18.454h52.141C134.07,27.973,131.532,21.821,126.453,16.742z"/>
</g>
</svg>
