<?xml version="1.0" encoding="utf-8"?>
<!-- Generator: Adobe Illustrator 16.0.4, SVG Export Plug-In . SVG Version: 6.00 Build 0)  -->
<!DOCTYPE svg PUBLIC "-//W3C//DTD SVG 1.1//EN" "http://www.w3.org/Graphics/SVG/1.1/DTD/svg11.dtd">
<svg version="1.1" id="Capa_1" xmlns="http://www.w3.org/2000/svg" xmlns:xlink="http://www.w3.org/1999/xlink" x="0px" y="0px"
	 width="216px" height="146px" viewBox="0 0 216 146" enable-background="new 0 0 216 146" xml:space="preserve">
<path d="M177.945,55.148c-2.037-2.036-4.495-3.055-7.375-3.055h0.002V20.807c0-2.825-1.033-5.269-3.096-7.333
	c-2.063-2.064-4.51-3.096-7.334-3.096c-25.039,20.857-49.373,31.286-73,31.286H48.036c-3.585,0-6.654,1.276-9.207,3.829
	C36.276,48.047,35,51.116,35,54.7v15.643c0,3.585,1.274,6.654,3.827,9.207c2.553,2.554,5.622,3.829,9.207,3.829h9.94
	c-0.923,2.934-1.521,5.936-1.792,9.003c-0.271,3.069-0.366,5.743-0.285,8.025s0.489,5.024,1.222,8.229
	c0.733,3.204,1.358,5.621,1.874,7.25c0.516,1.631,1.385,4.196,2.607,7.699c1.222,3.504,2.023,5.88,2.403,7.129
	c2.498,2.281,6.083,3.789,10.754,4.522c4.672,0.731,9.248,0.42,13.729-0.938c4.481-1.357,7.509-3.613,9.084-6.762
	c-2.064-1.63-3.734-3.001-5.01-4.115c-1.277-1.113-2.58-2.47-3.911-4.072s-2.24-3.096-2.729-4.481
	c-0.489-1.385-0.652-2.96-0.489-4.726c0.163-1.766,0.788-3.545,1.874-5.336c-2.064-2.119-3.151-4.631-3.259-7.537
	c-0.108-2.905,0.734-5.635,2.526-8.188s4.264-4.345,7.414-5.377c21.456,1.792,43.507,12.112,66.157,30.96
	c2.823,0,5.27-1.032,7.332-3.096c2.064-2.063,3.096-4.509,3.096-7.333V72.95c2.88,0,5.338-1.018,7.375-3.055
	C179.98,67.858,181,65.4,181,62.522C181,59.643,179.98,57.185,177.945,55.148z M160.143,101.303
	c-21.238-16.24-42.094-25.502-62.571-27.783V51.522c20.313-2.227,41.171-11.542,62.571-27.945V101.303z"/>
</svg>
