<?xml version="1.0" encoding="utf-8"?>
<!-- Generator: Adobe Illustrator 16.0.4, SVG Export Plug-In . SVG Version: 6.00 Build 0)  -->
<!DOCTYPE svg PUBLIC "-//W3C//DTD SVG 1.1//EN" "http://www.w3.org/Graphics/SVG/1.1/DTD/svg11.dtd">
<svg version="1.1" id="Capa_1" xmlns="http://www.w3.org/2000/svg" xmlns:xlink="http://www.w3.org/1999/xlink" x="0px" y="0px"
	 width="216px" height="146px" viewBox="0 0 216 146" enable-background="new 0 0 216 146" xml:space="preserve">
<g>
	<path d="M162.18,41.592c-5.595-9.586-13.185-17.176-22.771-22.771c-9.588-5.595-20.055-8.392-31.408-8.392
		c-11.352,0-21.822,2.797-31.408,8.392c-9.587,5.594-17.177,13.184-22.772,22.771C48.225,51.179,45.428,61.649,45.428,73
		c0,11.352,2.798,21.82,8.392,31.408c5.595,9.585,13.185,17.176,22.772,22.771c9.587,5.595,20.056,8.392,31.408,8.392
		c11.352,0,21.822-2.797,31.408-8.392c9.586-5.594,17.176-13.185,22.771-22.771c5.594-9.587,8.391-20.057,8.391-31.408
		C170.57,61.648,167.773,51.178,162.18,41.592z M155.988,93.246c-2.77,6.436-6.477,11.976-11.121,16.62
		c-4.643,4.644-10.184,8.351-16.62,11.12c-6.437,2.771-13.185,4.156-20.246,4.156c-7.061,0-13.809-1.385-20.246-4.156
		c-6.436-2.769-11.977-6.476-16.621-11.12c-4.643-4.644-8.35-10.183-11.121-16.62c-2.77-6.436-4.155-13.186-4.155-20.246
		c0-7.061,1.385-13.809,4.155-20.246c2.77-6.436,6.477-11.976,11.121-16.621c4.644-4.643,10.185-8.35,16.621-11.121
		c6.436-2.769,13.185-4.154,20.246-4.154c7.06,0,13.81,1.384,20.246,4.154s11.976,6.477,16.62,11.121
		c4.644,4.644,8.351,10.184,11.121,16.621c2.77,6.436,4.156,13.184,4.156,20.246C160.145,80.061,158.758,86.811,155.988,93.246z"/>
	<path d="M108,31.285c-11.514,0-21.346,4.075-29.493,12.222C70.36,51.654,66.286,61.485,66.286,73
		c0,11.516,4.074,21.346,12.221,29.493S96.486,114.714,108,114.714c11.514,0,21.348-4.073,29.493-12.221
		c8.147-8.147,12.221-17.978,12.221-29.493c0-11.515-4.073-21.346-12.221-29.493C129.348,35.359,119.514,31.285,108,31.285z
		 M130.12,95.12c-6.11,6.11-13.483,9.165-22.12,9.165c-8.637,0-16.01-3.055-22.12-9.165c-6.111-6.11-9.166-13.484-9.166-22.12
		c0-8.637,3.055-16.01,9.166-22.12c6.111-6.11,13.484-9.166,22.12-9.166c8.637,0,16.01,3.056,22.12,9.166
		c6.11,6.11,9.166,13.483,9.166,22.12C139.286,81.636,136.23,89.01,130.12,95.12z"/>
	<path d="M108,52.143c-5.758,0-10.673,2.037-14.747,6.11c-4.073,4.074-6.11,8.989-6.11,14.747s2.036,10.673,6.11,14.746
		c4.074,4.074,8.99,6.111,14.747,6.111c5.758,0,10.674-2.037,14.747-6.111c4.073-4.073,6.11-8.988,6.11-14.746
		s-2.037-10.673-6.11-14.747C118.674,54.18,113.758,52.143,108,52.143z"/>
</g>
</svg>
