<?xml version="1.0" encoding="utf-8"?>
<!-- Generator: Adobe Illustrator 16.0.4, SVG Export Plug-In . SVG Version: 6.00 Build 0)  -->
<!DOCTYPE svg PUBLIC "-//W3C//DTD SVG 1.1//EN" "http://www.w3.org/Graphics/SVG/1.1/DTD/svg11.dtd">
<svg version="1.1" id="Capa_1" xmlns="http://www.w3.org/2000/svg" xmlns:xlink="http://www.w3.org/1999/xlink" x="0px" y="0px"
	 width="216px" height="146px" viewBox="0 0 216 146" enable-background="new 0 0 216 146" xml:space="preserve">
<g>
	<path d="M177.945,13.483c-2.036-2.036-4.494-3.055-7.373-3.055H45.429c-2.879,0-5.337,1.02-7.374,3.055
		C36.019,15.52,35,17.978,35,20.857v104.286c0,2.879,1.018,5.336,3.055,7.373c2.038,2.037,4.495,3.056,7.374,3.056H170.57
		c2.88,0,5.338-1.019,7.375-3.056c2.035-2.037,3.055-4.494,3.055-7.373V20.857C181,17.979,179.98,15.521,177.945,13.483z
		 M55.857,15.642h31.286v10.429H55.857V15.642z M170.572,125.143H45.429v-10.429h125.143V125.143z M76.714,78.377
		c0-8.636,3.056-16.01,9.166-22.12c6.111-6.11,13.484-9.165,22.12-9.165c8.637,0,16.01,3.055,22.12,9.165
		c6.11,6.11,9.165,13.484,9.165,22.12c0,8.637-3.055,16.01-9.165,22.12s-13.483,9.166-22.12,9.166
		c-8.636,0-16.009-3.056-22.12-9.166C79.769,94.387,76.714,87.014,76.714,78.377z M170.572,32.101v9.613H45.429V31.286h52.47
		l5.214-10.428h67.459V32.101z"/>
	<path d="M122.746,93.124c4.074-4.074,6.111-8.989,6.111-14.747c0-5.757-2.037-10.673-6.111-14.746
		c-4.073-4.074-8.988-6.111-14.746-6.111s-10.673,2.037-14.747,6.111c-4.073,4.073-6.11,8.989-6.11,14.746
		c0,5.758,2.036,10.673,6.11,14.747c4.074,4.073,8.99,6.11,14.747,6.11C113.758,99.234,118.673,97.197,122.746,93.124z
		 M102.459,72.674c-1.521,1.521-2.281,3.368-2.281,5.54c0,0.761-0.244,1.386-0.733,1.874c-0.489,0.489-1.113,0.733-1.874,0.733
		c-0.761,0-1.385-0.244-1.874-0.733c-0.489-0.488-0.733-1.113-0.733-1.874c0-3.585,1.276-6.653,3.829-9.206
		c2.553-2.553,5.622-3.829,9.207-3.829c0.76,0,1.385,0.244,1.874,0.733c0.489,0.488,0.733,1.113,0.733,1.873
		c0,0.761-0.244,1.386-0.734,1.875c-0.489,0.489-1.114,0.733-1.874,0.733C105.826,70.393,103.98,71.153,102.459,72.674z"/>
</g>
</svg>
