<?xml version="1.0" encoding="utf-8"?>
<!-- Generator: Adobe Illustrator 16.0.4, SVG Export Plug-In . SVG Version: 6.00 Build 0)  -->
<!DOCTYPE svg PUBLIC "-//W3C//DTD SVG 1.1//EN" "http://www.w3.org/Graphics/SVG/1.1/DTD/svg11.dtd">
<svg version="1.1" id="Capa_1" xmlns="http://www.w3.org/2000/svg" xmlns:xlink="http://www.w3.org/1999/xlink" x="0px" y="0px"
	 width="216px" height="146px" viewBox="0 0 216 146" enable-background="new 0 0 216 146" xml:space="preserve">
<g>
	<path d="M149.286,99.823c-12.166,8.038-25.95,12.058-41.348,12.058s-29.154-4.02-41.266-12.058l-1.467,0.733l-0.489,1.304
		c1.738,10.645,3.286,18.575,4.644,23.79c1.087,1.9,2.499,3.572,4.237,5.011c1.738,1.438,3.72,2.62,5.947,3.544
		c2.227,0.923,4.305,1.656,6.233,2.199c1.928,0.543,4.141,1.031,6.64,1.467c5.594,0.924,11.066,1.426,16.416,1.507
		c5.351,0.082,10.836-0.516,16.458-1.792c5.622-1.275,10.768-3.218,15.439-5.824c1.955-1.088,3.53-2.623,4.726-4.604
		c1.194-1.982,1.968-3.884,2.321-5.703s0.734-4.101,1.141-6.844c0.409-2.743,0.829-4.82,1.264-6.232
		c0-0.489,0.219-1.495,0.652-3.015s0.57-2.743,0.407-3.666C151.079,100.773,150.427,100.149,149.286,99.823z"/>
	<path d="M164.034,21.527c-3.259-4.127-9.099-7.44-17.517-9.939c-16.133-4.726-34.492-6.084-55.077-4.074
		C81.23,8.491,72.73,10.229,65.94,12.728c-1.63,0.597-2.933,1.099-3.911,1.507c-0.978,0.407-2.227,1.018-3.748,1.833
		s-2.744,1.629-3.667,2.444c-0.923,0.814-1.778,1.833-2.566,3.055s-1.263,2.539-1.426,3.951c0.488,3.911,1.085,8.202,1.792,12.873
		s1.345,8.677,1.915,12.017c0.57,3.34,1.33,7.726,2.281,13.158c0.951,5.432,1.67,9.506,2.159,12.221
		c0.109,0.49,0.258,1.439,0.448,2.852c0.19,1.413,0.353,2.486,0.489,3.219c0.136,0.734,0.38,1.658,0.733,2.771
		c0.353,1.115,0.815,2.065,1.385,2.853c0.571,0.787,1.263,1.508,2.078,2.158c7.93,6.084,18.63,9.858,32.1,11.325
		c19.445,2.063,36.012-0.325,49.699-7.17c1.792-0.922,3.271-1.764,4.439-2.524c1.168-0.762,2.351-1.848,3.545-3.26
		s1.928-2.933,2.199-4.562c4.617-26.507,7.631-44.295,9.043-53.366c0.326-1.249,0.475-2.716,0.451-4.4
		C165.352,23.999,164.902,22.613,164.034,21.527z M121.99,81.898c-3.314,4.128-7.442,6.408-12.385,6.844
		c-4.996,0.435-9.49-1.086-13.482-4.562s-6.097-7.686-6.314-12.629C89.646,67.803,90.583,64.286,92.62,61s4.766-5.689,8.188-7.21
		c5.323-2.39,10.672-2.037,16.049,1.059s8.447,7.55,9.207,13.362C126.662,73.208,125.305,77.77,121.99,81.898z M139.426,27.842
		c-2.499,0.95-4.468,1.534-5.906,1.751c-1.439,0.217-3.869,0.543-7.291,0.979c-11.951,1.52-24.117,1.493-36.5-0.082
		c-3.259-0.38-5.635-0.693-7.129-0.938c-1.493-0.244-3.489-0.841-5.988-1.792c-2.499-0.951-4.563-2.186-6.192-3.707
		c0.978-1.412,2.336-2.58,4.074-3.503c1.738-0.923,3.232-1.52,4.481-1.792s3.042-0.598,5.377-0.978
		c14.937-2.662,30.308-2.716,46.114-0.163c2.662,0.435,4.59,0.774,5.785,1.019c1.195,0.244,2.77,0.842,4.725,1.792
		c1.955,0.95,3.477,2.159,4.562,3.625C143.963,25.628,141.925,26.892,139.426,27.842z"/>
	<path d="M114.781,64.422c-1.494-1.603-3.233-2.567-5.215-2.893c-1.982-0.326-3.95,0-5.906,0.978
		c-2.064,0.923-3.476,2.498-4.237,4.725c-0.76,2.227-0.747,4.454,0.041,6.682c0.788,2.227,2.24,3.802,4.359,4.725
		c2.878,1.739,5.905,1.575,9.084-0.488c3.177-2.063,4.549-4.807,4.114-8.229C117.021,67.858,116.273,66.025,114.781,64.422z"/>
</g>
</svg>
