<?xml version="1.0" encoding="utf-8"?>
<!-- Generator: Adobe Illustrator 16.0.4, SVG Export Plug-In . SVG Version: 6.00 Build 0)  -->
<!DOCTYPE svg PUBLIC "-//W3C//DTD SVG 1.1//EN" "http://www.w3.org/Graphics/SVG/1.1/DTD/svg11.dtd">
<svg version="1.1" id="Capa_1" xmlns="http://www.w3.org/2000/svg" xmlns:xlink="http://www.w3.org/1999/xlink" x="0px" y="0px"
	 width="216px" height="146px" viewBox="0 0 216 146" enable-background="new 0 0 216 146" xml:space="preserve">
<path d="M181,114.714v10.429c0,1.412-0.516,2.635-1.548,3.668c-1.032,1.03-2.255,1.547-3.667,1.547H40.214
	c-1.412,0-2.634-0.517-3.667-1.547c-1.032-1.033-1.548-2.256-1.548-3.668v-10.429c0-1.412,0.516-2.634,1.548-3.666
	c1.032-1.032,2.254-1.548,3.667-1.548h135.571c1.412,0,2.635,0.516,3.667,1.548S181,113.302,181,114.714z M71.5,78.214
	c-1.413,0-2.635,0.517-3.667,1.549c-1.032,1.031-1.548,2.255-1.548,3.666v10.429c0,1.412,0.516,2.636,1.548,3.666
	c1.033,1.032,2.255,1.549,3.667,1.549h73c1.412,0,2.635-0.517,3.666-1.549c1.032-1.03,1.549-2.254,1.549-3.666V83.429
	c0-1.411-0.517-2.635-1.549-3.666c-1.031-1.032-2.254-1.549-3.666-1.549H71.5z M50.643,67.787h114.714
	c1.412,0,2.634-0.517,3.666-1.549c1.031-1.031,1.547-2.254,1.547-3.666V52.143c0-1.413-0.516-2.634-1.547-3.666
	c-1.032-1.032-2.254-1.548-3.666-1.548H50.643c-1.413,0-2.635,0.516-3.667,1.548c-1.032,1.032-1.548,2.254-1.548,3.666v10.429
	c0,1.412,0.516,2.635,1.548,3.666C48.009,67.27,49.23,67.787,50.643,67.787z M81.929,36.5h52.141c1.412,0,2.635-0.516,3.668-1.548
	c1.031-1.032,1.547-2.254,1.547-3.666V20.857c0-1.412-0.516-2.634-1.546-3.667c-1.033-1.031-2.255-1.548-3.667-1.548H81.929
	c-1.413,0-2.635,0.517-3.667,1.548c-1.032,1.032-1.548,2.255-1.548,3.667v10.429c0,1.412,0.516,2.634,1.548,3.666
	C79.295,35.984,80.517,36.5,81.929,36.5z"/>
</svg>
