<?xml version="1.0" encoding="utf-8"?>
<!-- Generator: Adobe Illustrator 16.0.4, SVG Export Plug-In . SVG Version: 6.00 Build 0)  -->
<!DOCTYPE svg PUBLIC "-//W3C//DTD SVG 1.1//EN" "http://www.w3.org/Graphics/SVG/1.1/DTD/svg11.dtd">
<svg version="1.1" id="Capa_1" xmlns="http://www.w3.org/2000/svg" xmlns:xlink="http://www.w3.org/1999/xlink" x="0px" y="0px"
	 width="216px" height="146px" viewBox="0 0 216 146" enable-background="new 0 0 216 146" xml:space="preserve">
<path d="M168.777,83.993l-11.242-10.999l11.242-10.999c1.63-1.521,2.173-3.422,1.63-5.703c-0.651-2.227-2.063-3.612-4.237-4.155
	l-15.316-3.911l4.318-15.154c0.651-2.226,0.137-4.128-1.549-5.703c-1.574-1.684-3.475-2.2-5.703-1.548l-15.152,4.318l-3.912-15.317
	c-0.543-2.227-1.926-3.612-4.153-4.155c-2.228-0.598-4.129-0.081-5.703,1.548L108,23.54L97.001,12.215
	c-1.575-1.684-3.476-2.2-5.703-1.548c-2.227,0.543-3.612,1.928-4.155,4.155l-3.911,15.317l-15.154-4.318
	c-2.227-0.652-4.128-0.136-5.703,1.548c-1.684,1.575-2.2,3.476-1.548,5.703l4.318,15.154l-15.317,3.911
	c-2.172,0.543-3.585,1.928-4.236,4.155c-0.544,2.281,0,4.182,1.629,5.703l11.243,10.999L47.221,83.993
	c-1.629,1.521-2.172,3.422-1.629,5.703c0.651,2.227,2.064,3.612,4.236,4.155l15.317,3.91l-4.318,15.154
	c-0.652,2.227-0.136,4.127,1.548,5.703c1.575,1.684,3.476,2.199,5.703,1.548l15.154-4.317l3.911,15.316
	c0.543,2.227,1.928,3.639,4.155,4.236c2.281,0.543,4.182,0,5.703-1.629L108,122.529l11,11.244c1.086,1.193,2.471,1.791,4.154,1.791
	c0.381,0,0.896-0.055,1.549-0.162c2.227-0.652,3.611-2.064,4.154-4.236l3.91-15.316l15.153,4.317
	c2.228,0.651,4.129,0.136,5.703-1.548c1.685-1.576,2.2-3.477,1.549-5.703l-4.317-15.154l15.315-3.91
	c2.175-0.543,3.586-1.928,4.237-4.155C170.951,87.415,170.408,85.514,168.777,83.993z"/>
</svg>
