<?xml version="1.0" encoding="utf-8"?>
<!-- Generator: Adobe Illustrator 16.0.4, SVG Export Plug-In . SVG Version: 6.00 Build 0)  -->
<!DOCTYPE svg PUBLIC "-//W3C//DTD SVG 1.1//EN" "http://www.w3.org/Graphics/SVG/1.1/DTD/svg11.dtd">
<svg version="1.1" id="Capa_1" xmlns="http://www.w3.org/2000/svg" xmlns:xlink="http://www.w3.org/1999/xlink" x="0px" y="0px"
	 width="216px" height="146px" viewBox="0 0 216 146" enable-background="new 0 0 216 146" xml:space="preserve">
<g>
	<path d="M153.34,78.621c-0.326-0.163-0.652-0.245-0.979-0.245c-0.707,0-1.33,0.271-1.873,0.815l-5.215,5.214
		c-0.488,0.489-0.733,1.086-0.733,1.792v20.693c0,3.586-1.274,6.654-3.828,9.207c-2.553,2.553-5.622,3.829-9.207,3.829H63.719
		c-3.585,0-6.654-1.276-9.207-3.829c-2.553-2.553-3.829-5.621-3.829-9.207V39.106c0-3.585,1.276-6.654,3.829-9.207
		c2.553-2.553,5.622-3.829,9.207-3.829h67.787c1.195,0,2.417,0.163,3.666,0.489c0.326,0.108,0.57,0.163,0.732,0.163
		c0.707,0,1.332-0.271,1.875-0.814l3.992-3.992c0.651-0.651,0.896-1.439,0.732-2.362c-0.163-0.869-0.652-1.494-1.467-1.874
		c-2.932-1.356-6.11-2.037-9.532-2.037H63.719c-6.463,0-11.99,2.295-16.58,6.885c-4.589,4.59-6.884,10.116-6.884,16.58v67.786
		c0,6.463,2.295,11.989,6.884,16.579c4.59,4.591,10.117,6.886,16.58,6.886h67.786c6.463,0,11.99-2.295,16.58-6.886
		c4.59-4.59,6.886-10.116,6.886-16.579V80.984C154.971,79.844,154.426,79.057,153.34,78.621z"/>
	<path d="M173.791,31.856l-8.963-8.963c-1.303-1.303-2.852-1.955-4.645-1.955c-1.791,0-3.341,0.652-4.644,1.955l-52.714,52.714
		L81.399,54.179c-1.304-1.304-2.852-1.955-4.644-1.955s-3.34,0.651-4.644,1.955l-8.962,8.962c-1.304,1.304-1.956,2.852-1.956,4.645
		c0,1.792,0.652,3.34,1.956,4.644l35.033,35.033c1.304,1.305,2.852,1.956,4.644,1.956s3.34-0.651,4.644-1.956l66.32-66.319
		c1.303-1.303,1.956-2.852,1.956-4.644S175.094,33.159,173.791,31.856z"/>
</g>
</svg>
