<?xml version="1.0" encoding="utf-8"?>
<!-- Generator: Adobe Illustrator 16.0.4, SVG Export Plug-In . SVG Version: 6.00 Build 0)  -->
<!DOCTYPE svg PUBLIC "-//W3C//DTD SVG 1.1//EN" "http://www.w3.org/Graphics/SVG/1.1/DTD/svg11.dtd">
<svg version="1.1" id="Capa_1" xmlns="http://www.w3.org/2000/svg" xmlns:xlink="http://www.w3.org/1999/xlink" x="0px" y="0px"
	 width="216px" height="146px" viewBox="0 0 216 146" enable-background="new 0 0 216 146" xml:space="preserve">
<g>
	<path d="M48.037,10.428c-2.879,0-5.337,1.02-7.374,3.055c-2.036,2.037-3.055,4.495-3.055,7.374c0,1.901,0.475,3.639,1.426,5.214
		c0.95,1.575,2.213,2.824,3.788,3.748v103.145c0,0.761,0.244,1.386,0.733,1.874c0.489,0.489,1.113,0.733,1.874,0.733h5.214
		c0.761,0,1.386-0.244,1.874-0.733c0.489-0.488,0.733-1.113,0.733-1.874V29.819c1.575-0.924,2.838-2.173,3.788-3.748
		c0.951-1.575,1.426-3.314,1.426-5.214c0-2.878-1.018-5.336-3.054-7.374C53.373,11.447,50.915,10.428,48.037,10.428z"/>
	<path d="M175.869,21.59c-1.684-0.977-3.367-1.031-5.053-0.162c-0.488,0.272-1.33,0.733-2.524,1.385
		c-10.212,6.083-18.63,9.125-25.257,9.125c-2.77,0-5.188-0.516-7.251-1.548c-6.083-2.987-11.759-5.323-17.028-7.007
		c-5.268-1.683-10.944-2.525-17.027-2.525c-3.965,0-8.175,0.516-12.628,1.548c-4.454,1.032-8.596,2.376-12.425,4.032
		c-3.829,1.657-6.926,3.069-9.288,4.237c-2.364,1.168-4.496,2.321-6.396,3.462c-1.684,1.086-2.526,2.58-2.526,4.481v60.453
		c0,2.009,0.869,3.53,2.607,4.562c0.869,0.435,1.738,0.651,2.607,0.651c0.977,0,1.874-0.244,2.688-0.731
		c5.16-3.151,11.365-5.922,18.616-8.312c7.252-2.39,13.648-3.585,19.188-3.585c3.149,0,6.246,0.38,9.288,1.141
		c3.041,0.76,5.513,1.549,7.414,2.362c1.899,0.815,4.588,2.119,8.065,3.911l2.281,1.141c3.801,1.902,8.092,2.853,12.871,2.853
		c8.202,0,18.223-3.15,30.064-9.451c0.38-0.216,0.842-0.461,1.385-0.733c1.9-0.978,2.852-2.525,2.852-4.644V26.071
		C178.393,24.17,177.551,22.677,175.869,21.59z M68.893,41.633c11.515-6.41,21.943-9.831,31.286-10.266v16.05
		c-9.18,0.381-19.609,3.585-31.286,9.614V41.633z M100.179,81.473c-9.723,0.76-20.152,3.748-31.286,8.963V75.362
		c11.026-5.485,21.455-8.663,31.286-9.532V81.473z M167.964,85.141c-9.397,4.996-17.354,7.494-23.872,7.494
		c-2.66,0-5.133-0.463-7.414-1.386V75.934c8.094,2.444,18.521,0.517,31.286-5.785V85.141z M167.964,50.351
		c-12.817,7.169-23.247,9.613-31.286,7.333v18.248c-1.086-0.325-2.145-0.733-3.177-1.222c-5.812-2.879-11.176-5.106-16.091-6.681
		c-4.916-1.575-10.144-2.363-15.684-2.363h-1.548V47.579c1.412-0.163,2.743-0.244,3.992-0.244c1.194,0,2.39,0.055,3.585,0.163
		c1.195,0.108,2.269,0.217,3.218,0.325c0.95,0.109,2.022,0.312,3.219,0.611c1.195,0.298,2.146,0.529,2.852,0.692
		c0.707,0.164,1.684,0.503,2.934,1.019c1.25,0.517,2.131,0.87,2.647,1.06s1.454,0.611,2.812,1.263
		c1.357,0.652,2.213,1.06,2.566,1.222c0.354,0.163,1.29,0.625,2.811,1.386c1.521,0.76,2.418,1.222,2.688,1.385
		c1.032,0.489,2.091,0.897,3.177,1.222V41.715c1.793,0.434,3.911,0.652,6.355,0.652c7.441,0,15.752-2.472,24.931-7.414V50.351z"/>
</g>
</svg>
