<?xml version="1.0" encoding="utf-8"?>
<!-- Generator: Adobe Illustrator 16.0.4, SVG Export Plug-In . SVG Version: 6.00 Build 0)  -->
<!DOCTYPE svg PUBLIC "-//W3C//DTD SVG 1.1//EN" "http://www.w3.org/Graphics/SVG/1.1/DTD/svg11.dtd">
<svg version="1.1" id="Capa_1" xmlns="http://www.w3.org/2000/svg" xmlns:xlink="http://www.w3.org/1999/xlink" x="0px" y="0px"
	 width="216px" height="146px" viewBox="0 0 216 146" enable-background="new 0 0 216 146" xml:space="preserve">
<path d="M163.686,17.313c-4.588-4.589-10.115-6.884-16.578-6.884H68.893c-6.463,0-11.99,2.295-16.58,6.884
	c-4.589,4.59-6.884,10.117-6.884,16.58v78.214c0,6.463,2.295,11.99,6.884,16.58c4.59,4.59,10.117,6.885,16.58,6.885h78.214
	c6.463,0,11.99-2.295,16.578-6.885c4.59-4.59,6.885-10.117,6.885-16.58V33.893C170.57,27.43,168.275,21.902,163.686,17.313z
	 M151.264,55.809l-50.026,50.025c-1.032,1.031-2.254,1.548-3.667,1.549c-1.413,0-2.635-0.517-3.667-1.548L64.737,76.667
	c-1.032-1.032-1.548-2.254-1.548-3.666s0.516-2.635,1.548-3.666l8.311-8.311c1.032-1.032,2.253-1.548,3.666-1.548
	s2.635,0.516,3.667,1.548l17.191,17.19l38.048-38.048c1.03-1.032,2.254-1.548,3.666-1.548s2.634,0.516,3.666,1.548l8.312,8.311
	c1.03,1.032,1.547,2.254,1.547,3.666C152.811,53.555,152.294,54.778,151.264,55.809z"/>
</svg>
