<?xml version="1.0" encoding="utf-8"?>
<!-- Generator: Adobe Illustrator 16.0.4, SVG Export Plug-In . SVG Version: 6.00 Build 0)  -->
<!DOCTYPE svg PUBLIC "-//W3C//DTD SVG 1.1//EN" "http://www.w3.org/Graphics/SVG/1.1/DTD/svg11.dtd">
<svg version="1.1" id="Capa_1" xmlns="http://www.w3.org/2000/svg" xmlns:xlink="http://www.w3.org/1999/xlink" x="0px" y="0px"
	 width="216px" height="146px" viewBox="0 0 216 146" enable-background="new 0 0 216 146" xml:space="preserve">
<path d="M162.18,41.592c-5.595-9.586-13.185-17.176-22.771-22.771c-9.588-5.595-20.055-8.392-31.408-8.392
	c-11.352,0-21.822,2.797-31.408,8.392c-9.587,5.594-17.177,13.184-22.772,22.771C48.225,51.179,45.428,61.649,45.428,73
	c0,11.352,2.798,21.82,8.392,31.408c5.595,9.585,13.185,17.176,22.772,22.771c9.587,5.595,20.056,8.392,31.408,8.392
	c11.352,0,21.822-2.797,31.408-8.392c9.586-5.594,17.176-13.185,22.771-22.771c5.594-9.587,8.391-20.057,8.391-31.408
	C170.57,61.648,167.773,51.178,162.18,41.592z M149.714,78.214c0,1.412-0.516,2.636-1.547,3.667
	c-1.033,1.031-2.255,1.549-3.667,1.549h-40.899l15.398,15.397c0.978,0.978,1.467,2.199,1.467,3.666s-0.489,2.688-1.467,3.666
	l-7.414,7.414c-0.978,0.978-2.201,1.467-3.667,1.467s-2.688-0.489-3.666-1.467L74.759,84.08l-7.414-7.414
	c-0.978-0.979-1.467-2.199-1.467-3.666s0.489-2.688,1.467-3.666l7.414-7.414l29.493-29.494c0.978-0.978,2.199-1.466,3.666-1.466
	s2.689,0.488,3.667,1.466l7.414,7.414c1.032,1.032,1.548,2.255,1.548,3.667c0,1.412-0.516,2.634-1.548,3.666l-15.398,15.398H144.5
	c1.412,0,2.634,0.516,3.667,1.548c1.031,1.032,1.547,2.254,1.547,3.666V78.214z"/>
</svg>
