<?xml version="1.0" encoding="utf-8"?>
<!-- Generator: Adobe Illustrator 16.0.4, SVG Export Plug-In . SVG Version: 6.00 Build 0)  -->
<!DOCTYPE svg PUBLIC "-//W3C//DTD SVG 1.1//EN" "http://www.w3.org/Graphics/SVG/1.1/DTD/svg11.dtd">
<svg version="1.1" id="Capa_1" xmlns="http://www.w3.org/2000/svg" xmlns:xlink="http://www.w3.org/1999/xlink" x="0px" y="0px"
	 width="216px" height="146px" viewBox="0 0 216 146" enable-background="new 0 0 216 146" xml:space="preserve">
<path d="M179.41,79.638c-4.536-5.676-10.333-9.355-17.395-11.039c2.228-3.367,3.34-7.115,3.34-11.243
	c0-5.758-2.037-10.673-6.11-14.747c-4.073-4.073-8.988-6.11-14.746-6.11c-5.16,0-9.668,1.684-13.524,5.052
	c-3.203-7.822-8.324-14.095-15.357-18.82c-7.033-4.726-14.787-7.089-23.261-7.089c-11.514,0-21.346,4.075-29.493,12.222
	c-8.148,8.146-12.221,17.978-12.221,29.493c0,0.706,0.055,1.874,0.163,3.503c-6.409,2.987-11.514,7.468-15.317,13.442
	c-3.802,5.976-5.703,12.492-5.703,19.555c0,10.048,3.572,18.643,10.714,25.785c7.142,7.144,15.738,10.715,25.786,10.715h88.645
	c8.635,0,16.008-3.057,22.119-9.166c6.11-6.11,9.166-13.483,9.166-22.12C186.215,91.793,183.947,85.316,179.41,79.638z
	 M133.296,77.44c-0.517,0.515-1.127,0.772-1.832,0.772h-18.25v28.68c0,0.705-0.258,1.316-0.774,1.832
	c-0.517,0.517-1.127,0.774-1.832,0.774H94.963c-0.706,0-1.317-0.257-1.833-0.774c-0.515-0.516-0.774-1.127-0.774-1.832v-28.68
	h-18.25c-0.76,0-1.385-0.244-1.873-0.731c-0.489-0.489-0.733-1.114-0.733-1.874c0-0.652,0.271-1.305,0.814-1.956l28.597-28.597
	c0.489-0.489,1.114-0.733,1.874-0.733c0.761,0,1.386,0.244,1.874,0.733l28.679,28.678c0.489,0.488,0.732,1.113,0.732,1.875
	C134.07,76.312,133.812,76.925,133.296,77.44z"/>
</svg>
