<?xml version="1.0" encoding="utf-8"?>
<!-- Generator: Adobe Illustrator 16.0.4, SVG Export Plug-In . SVG Version: 6.00 Build 0)  -->
<!DOCTYPE svg PUBLIC "-//W3C//DTD SVG 1.1//EN" "http://www.w3.org/Graphics/SVG/1.1/DTD/svg11.dtd">
<svg version="1.1" id="Capa_1" xmlns="http://www.w3.org/2000/svg" xmlns:xlink="http://www.w3.org/1999/xlink" x="0px" y="0px"
	 width="216px" height="146px" viewBox="0 0 216 146" enable-background="new 0 0 216 146" xml:space="preserve">
<path d="M145.152,25.419c-3.043-3.041-6.736-4.562-11.082-4.562c-4.344,0-8.037,1.52-11.079,4.562
	c-3.041,3.041-4.562,6.734-4.562,11.08c0,2.824,0.705,5.445,2.117,7.862s3.312,4.305,5.703,5.662c0,2.824-0.23,5.31-0.691,7.455
	c-0.463,2.145-1.222,4.032-2.281,5.662c-1.061,1.63-2.159,3.014-3.301,4.155c-1.141,1.141-2.744,2.213-4.807,3.218
	c-2.064,1.005-3.979,1.846-5.744,2.526c-1.765,0.678-4.142,1.479-7.129,2.402c-5.432,1.685-9.614,3.232-12.547,4.645V39.594
	c2.39-1.357,4.291-3.245,5.703-5.662s2.118-5.038,2.118-7.862c0-4.345-1.52-8.039-4.562-11.08c-3.041-3.041-6.734-4.562-11.08-4.562
	c-4.346,0-8.039,1.52-11.081,4.562c-3.041,3.041-4.562,6.735-4.562,11.08c0,2.824,0.706,5.445,2.118,7.862
	c1.412,2.417,3.313,4.305,5.703,5.662v66.809c-2.39,1.356-4.291,3.245-5.703,5.661c-1.412,2.418-2.118,5.039-2.118,7.863
	c0,4.344,1.52,8.038,4.562,11.079s6.736,4.562,11.081,4.562c4.345,0,8.039-1.521,11.08-4.562s4.562-6.735,4.562-11.079
	c0-2.824-0.706-5.445-2.118-7.863c-1.412-2.416-3.313-4.305-5.703-5.661v-2.119c0-3.747,1.127-6.462,3.381-8.146
	c2.254-1.685,6.857-3.613,13.81-5.785c7.333-2.336,12.847-4.537,16.54-6.601c12.166-6.897,18.304-18.14,18.412-33.729
	c2.392-1.357,4.291-3.245,5.703-5.662c1.412-2.417,2.119-5.038,2.119-7.862C149.715,32.154,148.193,28.461,145.152,25.419z
	 M87.469,125.469c-1.521,1.521-3.368,2.281-5.54,2.281c-2.173,0-4.02-0.76-5.541-2.281c-1.52-1.52-2.281-3.367-2.281-5.54
	s0.76-4.019,2.281-5.54c1.521-1.521,3.368-2.281,5.541-2.281c2.172,0,4.019,0.761,5.54,2.281c1.521,1.521,2.281,3.367,2.281,5.54
	S88.99,123.949,87.469,125.469z M87.469,31.611c-1.521,1.521-3.368,2.281-5.54,2.281c-2.173,0-4.02-0.76-5.541-2.281
	c-1.52-1.521-2.281-3.367-2.281-5.54c0-2.173,0.76-4.02,2.281-5.54s3.368-2.281,5.541-2.281c2.172,0,4.019,0.761,5.54,2.281
	c1.521,1.52,2.281,3.367,2.281,5.54C89.75,28.244,88.99,30.091,87.469,31.611z M139.611,42.04c-1.52,1.52-3.366,2.281-5.539,2.281
	c-2.174,0-4.02-0.761-5.54-2.281s-2.281-3.367-2.281-5.54s0.761-4.019,2.281-5.54s3.366-2.281,5.54-2.281
	c2.173,0,4.019,0.76,5.539,2.281c1.521,1.52,2.281,3.367,2.281,5.54S141.133,40.52,139.611,42.04z"/>
</svg>
