<?xml version="1.0" encoding="utf-8"?>
<!-- Generator: Adobe Illustrator 16.0.4, SVG Export Plug-In . SVG Version: 6.00 Build 0)  -->
<!DOCTYPE svg PUBLIC "-//W3C//DTD SVG 1.1//EN" "http://www.w3.org/Graphics/SVG/1.1/DTD/svg11.dtd">
<svg version="1.1" id="Capa_1" xmlns="http://www.w3.org/2000/svg" xmlns:xlink="http://www.w3.org/1999/xlink" x="0px" y="0px"
	 width="216px" height="146px" viewBox="0 0 216 146" enable-background="new 0 0 216 146" xml:space="preserve">
<g>
	<path d="M126.413,18.575l-5.052-1.385c-0.651-0.217-1.291-0.149-1.914,0.204c-0.625,0.353-1.047,0.883-1.264,1.589l-30.39,105.182
		c-0.217,0.706-0.149,1.372,0.204,1.996c0.353,0.625,0.882,1.046,1.589,1.263l5.051,1.385c0.652,0.219,1.29,0.151,1.915-0.203
		c0.625-0.354,1.046-0.883,1.263-1.588l30.39-105.183c0.217-0.706,0.149-1.372-0.204-1.997S127.119,18.792,126.413,18.575z"/>
	<path d="M80.87,39.108c0-0.706-0.272-1.331-0.815-1.874l-4.074-4.074c-0.543-0.543-1.168-0.815-1.874-0.815
		s-1.331,0.272-1.874,0.815L34.267,71.126c-0.544,0.543-0.815,1.168-0.815,1.874s0.272,1.331,0.815,1.874l37.966,37.966
		c0.543,0.544,1.167,0.814,1.874,0.814s1.331-0.271,1.874-0.814l4.074-4.072c0.543-0.543,0.815-1.168,0.815-1.875
		c0-0.705-0.272-1.33-0.815-1.873L48.036,73l32.019-32.018C80.599,40.439,80.87,39.814,80.87,39.108z"/>
	<path d="M181.732,71.125l-37.967-37.966c-0.543-0.543-1.168-0.815-1.873-0.815c-0.707,0-1.33,0.272-1.875,0.815l-4.072,4.074
		c-0.543,0.543-0.814,1.167-0.814,1.874s0.271,1.331,0.814,1.874L167.964,73l-32.019,32.02c-0.543,0.543-0.814,1.168-0.814,1.873
		c0,0.707,0.271,1.332,0.814,1.875l4.072,4.072c0.545,0.544,1.168,0.814,1.875,0.814c0.705,0,1.33-0.271,1.873-0.814l37.967-37.966
		c0.543-0.543,0.814-1.169,0.814-1.875S182.275,71.668,181.732,71.125z"/>
</g>
</svg>
