<?xml version="1.0" encoding="utf-8"?>
<!-- Generator: Adobe Illustrator 16.0.4, SVG Export Plug-In . SVG Version: 6.00 Build 0)  -->
<!DOCTYPE svg PUBLIC "-//W3C//DTD SVG 1.1//EN" "http://www.w3.org/Graphics/SVG/1.1/DTD/svg11.dtd">
<svg version="1.1" id="Capa_1" xmlns="http://www.w3.org/2000/svg" xmlns:xlink="http://www.w3.org/1999/xlink" x="0px" y="0px"
	 width="216px" height="146px" viewBox="0 0 216 146" enable-background="new 0 0 216 146" xml:space="preserve">
<g>
	<path d="M38.503,124.246c4.074,4.074,8.989,6.111,14.747,6.111h104.286c5.758,0,10.674-2.037,14.747-6.111
		c4.072-4.073,6.109-8.989,6.109-14.746h-146C32.393,115.257,34.43,120.173,38.503,124.246z"/>
	<path d="M71.5,99.071h57.357c4.996,0,9.287-1.792,12.873-5.377c3.584-3.585,5.377-7.876,5.377-12.873v-2.607h5.213
		c8.637,0,16.011-3.055,22.121-9.165c6.109-6.111,9.166-13.484,9.166-22.12c0-8.637-3.057-16.011-9.166-22.121
		c-6.11-6.11-13.484-9.166-22.121-9.166H58.464c-1.412,0-2.634,0.517-3.666,1.548c-1.032,1.032-1.548,2.255-1.548,3.667v59.964
		c0,4.997,1.792,9.288,5.377,12.873S66.503,99.071,71.5,99.071z M147.107,31.286h5.215c4.345,0,8.039,1.521,11.08,4.562
		c3.041,3.042,4.562,6.735,4.562,11.081c0,4.344-1.521,8.038-4.562,11.081c-3.041,3.041-6.735,4.562-11.08,4.562h-5.215V31.286z"/>
</g>
</svg>
