<?xml version="1.0" encoding="utf-8"?>
<!-- Generator: Adobe Illustrator 16.0.4, SVG Export Plug-In . SVG Version: 6.00 Build 0)  -->
<!DOCTYPE svg PUBLIC "-//W3C//DTD SVG 1.1//EN" "http://www.w3.org/Graphics/SVG/1.1/DTD/svg11.dtd">
<svg version="1.1" id="Capa_1" xmlns="http://www.w3.org/2000/svg" xmlns:xlink="http://www.w3.org/1999/xlink" x="0px" y="0px"
	 width="216px" height="146px" viewBox="0 0 216 146" enable-background="new 0 0 216 146" xml:space="preserve">
<g>
	<path d="M163.686,17.313c-4.588-4.589-10.115-6.884-16.578-6.884H68.893c-6.463,0-11.99,2.295-16.58,6.884
		c-4.589,4.59-6.884,10.117-6.884,16.58v78.214c0,6.463,2.295,11.99,6.884,16.58c4.59,4.59,10.117,6.885,16.58,6.885h78.214
		c6.463,0,11.99-2.295,16.578-6.885c4.59-4.59,6.885-10.117,6.885-16.58V33.893C170.57,27.43,168.275,21.902,163.686,17.313z
		 M149.714,112.107c0,0.705-0.258,1.316-0.774,1.832c-0.516,0.516-1.127,0.773-1.832,0.773H68.893c-0.706,0-1.317-0.257-1.833-0.773
		s-0.774-1.127-0.774-1.832V33.892c0-0.706,0.258-1.317,0.774-1.833c0.516-0.515,1.127-0.774,1.833-0.774h78.214
		c0.707,0,1.318,0.258,1.834,0.774c0.515,0.516,0.772,1.127,0.772,1.833V112.107z"/>
	<path d="M134.073,52.142H81.93c-2.173,0-3.721,0.952-4.644,2.852c-0.978,1.901-0.842,3.693,0.407,5.377l26.072,36.5
		c1.031,1.467,2.444,2.199,4.236,2.199c1.793,0,3.205-0.732,4.235-2.199l26.072-36.5c1.25-1.684,1.385-3.476,0.407-5.377
		C137.792,53.094,136.244,52.143,134.073,52.142z"/>
</g>
</svg>
