<?xml version="1.0" encoding="utf-8"?>
<!-- Generator: Adobe Illustrator 16.0.4, SVG Export Plug-In . SVG Version: 6.00 Build 0)  -->
<!DOCTYPE svg PUBLIC "-//W3C//DTD SVG 1.1//EN" "http://www.w3.org/Graphics/SVG/1.1/DTD/svg11.dtd">
<svg version="1.1" id="Capa_1" xmlns="http://www.w3.org/2000/svg" xmlns:xlink="http://www.w3.org/1999/xlink" x="0px" y="0px"
	 width="216px" height="146px" viewBox="0 0 216 146" enable-background="new 0 0 216 146" xml:space="preserve">
<g>
	<path d="M121.158,93.486c8.826-3.721,15.792-8.786,20.896-15.195c5.106-6.409,7.659-13.388,7.659-20.938
		c0-7.55-2.553-14.529-7.659-20.939c-5.104-6.409-12.07-11.474-20.896-15.195c-8.826-3.721-18.426-5.581-28.801-5.581
		c-10.374,0-19.974,1.861-28.801,5.582c-8.826,3.721-15.792,8.786-20.897,15.195C37.553,42.824,35,49.803,35,57.353
		c0,6.463,1.93,12.549,5.786,18.251c3.856,5.703,9.152,10.511,15.887,14.421c-0.543,1.305-1.1,2.498-1.67,3.586
		c-0.571,1.086-1.249,2.131-2.037,3.137c-0.788,1.005-1.398,1.792-1.833,2.361c-0.435,0.57-1.141,1.372-2.119,2.403
		c-0.978,1.032-1.603,1.711-1.874,2.037c0-0.056-0.109,0.067-0.326,0.366c-0.218,0.299-0.34,0.434-0.367,0.408
		c-0.027-0.029-0.136,0.107-0.326,0.406s-0.285,0.448-0.285,0.448l-0.204,0.407c-0.081,0.162-0.136,0.324-0.163,0.488
		c-0.027,0.162-0.041,0.34-0.041,0.529s0.027,0.366,0.082,0.529c0.109,0.706,0.421,1.275,0.937,1.711
		c0.516,0.434,1.072,0.65,1.67,0.65h0.245c2.715-0.379,5.051-0.814,7.006-1.303c8.365-2.173,15.915-5.649,22.65-10.429
		c4.888,0.869,9.668,1.304,14.339,1.304C102.731,99.066,112.332,97.206,121.158,93.486z M75.574,86.684l-3.585,2.525
		c-1.521,1.031-3.204,2.092-5.051,3.178l2.852-6.845l-7.903-4.562c-5.215-3.041-9.261-6.626-12.14-10.754
		c-2.879-4.128-4.318-8.419-4.318-12.873c0-5.541,2.133-10.728,6.396-15.562c4.263-4.834,10.007-8.663,17.231-11.488
		c7.224-2.824,14.991-4.237,23.301-4.237s16.078,1.413,23.301,4.237c7.224,2.825,12.968,6.654,17.232,11.488
		c4.264,4.834,6.395,10.021,6.395,15.562c0,5.54-2.131,10.727-6.395,15.561c-4.264,4.835-10.008,8.664-17.232,11.488
		c-7.223,2.824-14.99,4.236-23.301,4.236c-4.073,0-8.228-0.381-12.465-1.141L75.574,86.684z"/>
	<path d="M175.213,96.497c3.857-5.677,5.785-11.772,5.785-18.29c0-6.681-2.037-12.928-6.109-18.739
		c-4.074-5.811-9.615-10.646-16.621-14.502c1.248,4.073,1.873,8.201,1.873,12.384c0,7.278-1.818,14.176-5.459,20.694
		c-3.639,6.517-8.854,12.274-15.643,17.272c-6.301,4.562-13.471,8.065-21.51,10.51c-8.037,2.443-16.429,3.666-25.174,3.666
		c-1.629,0-4.019-0.108-7.169-0.325c10.917,7.169,23.736,10.754,38.455,10.754c4.672,0,9.451-0.435,14.34-1.304
		c6.734,4.781,14.285,8.256,22.649,10.429c1.955,0.49,4.291,0.924,7.007,1.304c0.651,0.055,1.25-0.135,1.793-0.57
		c0.543-0.435,0.896-1.031,1.059-1.791c-0.026-0.326,0-0.504,0.082-0.53c0.08-0.026,0.066-0.203-0.041-0.529
		c-0.108-0.326-0.163-0.489-0.163-0.489l-0.203-0.406c-0.056-0.108-0.149-0.258-0.285-0.448c-0.136-0.188-0.244-0.325-0.326-0.407
		c-0.081-0.081-0.202-0.217-0.366-0.406c-0.162-0.189-0.271-0.312-0.326-0.367c-0.271-0.325-0.895-1.004-1.873-2.036
		c-0.978-1.032-1.684-1.833-2.118-2.403s-1.046-1.357-1.833-2.363c-0.787-1.004-1.467-2.05-2.037-3.137
		c-0.57-1.086-1.127-2.281-1.67-3.584C166.062,106.97,171.359,102.177,175.213,96.497z"/>
</g>
</svg>
