<?xml version="1.0" encoding="utf-8"?>
<!-- Generator: Adobe Illustrator 16.0.4, SVG Export Plug-In . SVG Version: 6.00 Build 0)  -->
<!DOCTYPE svg PUBLIC "-//W3C//DTD SVG 1.1//EN" "http://www.w3.org/Graphics/SVG/1.1/DTD/svg11.dtd">
<svg version="1.1" id="Capa_1" xmlns="http://www.w3.org/2000/svg" xmlns:xlink="http://www.w3.org/1999/xlink" x="0px" y="0px"
	 width="216px" height="146px" viewBox="0 0 216 146" enable-background="new 0 0 216 146" xml:space="preserve">
<path d="M171.223,36.378c-6.518-8.011-15.371-14.339-26.56-18.983s-23.41-6.966-36.663-6.966s-25.474,2.322-36.663,6.966
	s-20.042,10.971-26.56,18.983C38.259,44.389,35,53.12,35,62.571c0,8.147,2.457,15.78,7.373,22.895
	c4.916,7.115,11.637,13.091,20.165,17.925c-0.598,2.172-1.304,4.236-2.119,6.192c-0.815,1.955-1.548,3.558-2.2,4.808
	c-0.652,1.248-1.534,2.634-2.648,4.153c-1.113,1.522-1.955,2.595-2.525,3.22c-0.57,0.625-1.507,1.656-2.811,3.096
	c-1.303,1.439-2.145,2.377-2.525,2.811c-0.055,0.027-0.272,0.271-0.652,0.734c-0.38,0.461-0.57,0.691-0.57,0.691l-0.489,0.733
	c-0.272,0.406-0.394,0.665-0.367,0.772c0.027,0.109-0.027,0.381-0.163,0.814c-0.136,0.436-0.122,0.762,0.041,0.979v0.082
	c0.217,0.923,0.651,1.67,1.303,2.24c0.652,0.569,1.386,0.854,2.2,0.854h0.408c3.531-0.435,6.627-1.032,9.288-1.792
	c14.231-3.639,26.724-10.211,37.478-19.717c4.073,0.434,8.011,0.651,11.813,0.651c13.253,0,25.475-2.321,36.663-6.967
	c11.188-4.644,20.042-10.97,26.56-18.981C177.741,80.754,181,72.022,181,62.571C181,53.121,177.741,44.389,171.223,36.378z
	 M162.057,83.347c-5.678,6.408-13.336,11.501-22.977,15.275s-20.002,5.662-31.082,5.662c-3.313,0-6.843-0.216-10.591-0.651
	l-4.644-0.488l-3.503,3.097c-6.68,5.866-14.149,10.51-22.405,13.932c2.498-4.399,4.399-9.071,5.703-14.013l2.2-7.822l-7.088-4.072
	c-7.061-4.021-12.533-8.787-16.417-14.3c-3.884-5.513-5.825-11.312-5.825-17.395c0-7.441,2.838-14.366,8.514-20.775
	c5.677-6.409,13.335-11.501,22.976-15.276S96.919,20.857,108,20.857c11.08,0,21.439,1.888,31.08,5.663s17.299,8.867,22.977,15.276
	c5.676,6.409,8.514,13.334,8.514,20.775S167.732,76.938,162.057,83.347z"/>
</svg>
