<?xml version="1.0" encoding="utf-8"?>
<!-- Generator: Adobe Illustrator 16.0.4, SVG Export Plug-In . SVG Version: 6.00 Build 0)  -->
<!DOCTYPE svg PUBLIC "-//W3C//DTD SVG 1.1//EN" "http://www.w3.org/Graphics/SVG/1.1/DTD/svg11.dtd">
<svg version="1.1" id="Capa_1" xmlns="http://www.w3.org/2000/svg" xmlns:xlink="http://www.w3.org/1999/xlink" x="0px" y="0px"
	 width="216px" height="146px" viewBox="0 0 216 146" enable-background="new 0 0 216 146" xml:space="preserve">
<path d="M151.1,19.472c-2.554-2.553-5.621-3.829-9.207-3.829H74.107c-3.585,0-6.654,1.276-9.207,3.829
	c-2.553,2.554-3.829,5.622-3.829,9.207v88.644c0,3.585,1.276,6.651,3.829,9.206c2.553,2.554,5.622,3.828,9.207,3.828h67.786
	c3.586,0,6.653-1.274,9.207-3.828c2.553-2.555,3.83-5.622,3.83-9.206V28.679C154.93,25.094,153.65,22.025,151.1,19.472z
	 M111.666,123.596c-1.031,1.031-2.253,1.547-3.666,1.547s-2.635-0.516-3.667-1.547c-1.032-1.033-1.548-2.255-1.548-3.666
	c0-1.412,0.516-2.636,1.548-3.666c1.033-1.033,2.255-1.55,3.667-1.55s2.635,0.517,3.666,1.55c1.032,1.03,1.549,2.254,1.549,3.666
	C113.215,121.341,112.698,122.562,111.666,123.596z M144.5,106.893c0,0.707-0.259,1.317-0.773,1.834
	c-0.517,0.517-1.127,0.773-1.834,0.773H74.107c-0.706,0-1.317-0.257-1.833-0.773c-0.516-0.516-0.774-1.127-0.774-1.834V28.679
	c0-0.706,0.258-1.317,0.774-1.833c0.516-0.516,1.127-0.774,1.833-0.774h67.786c0.707,0,1.317,0.257,1.834,0.774
	c0.516,0.516,0.773,1.127,0.773,1.833V106.893z"/>
</svg>
