<?xml version="1.0" encoding="utf-8"?>
<!-- Generator: Adobe Illustrator 16.0.4, SVG Export Plug-In . SVG Version: 6.00 Build 0)  -->
<!DOCTYPE svg PUBLIC "-//W3C//DTD SVG 1.1//EN" "http://www.w3.org/Graphics/SVG/1.1/DTD/svg11.dtd">
<svg version="1.1" id="Capa_1" xmlns="http://www.w3.org/2000/svg" xmlns:xlink="http://www.w3.org/1999/xlink" x="0px" y="0px"
	 width="216px" height="146px" viewBox="0 0 216 146" enable-background="new 0 0 216 146" xml:space="preserve">
<path d="M178.719,33.567c-1.521-1.52-3.367-2.281-5.539-2.281h-33.895c-3.258,0-6.735,1.086-10.428,3.259V7.822
	c0-2.173-0.76-4.021-2.281-5.541S123.209,0,121.035,0H87.143c-2.173,0-4.563,0.543-7.17,1.629s-4.671,2.39-6.192,3.911L40.54,38.781
	c-1.521,1.521-2.825,3.585-3.911,6.192C35.543,47.581,35,49.97,35,52.143v54.75c0,2.174,0.76,4.021,2.281,5.541
	c1.521,1.521,3.368,2.281,5.54,2.281h44.322v23.465c0,2.172,0.76,4.019,2.281,5.539c1.52,1.521,3.367,2.281,5.54,2.281h78.216
	c2.172,0,4.019-0.76,5.539-2.281c1.521-1.52,2.281-3.367,2.281-5.539V39.108C181,36.935,180.24,35.088,178.719,33.567z
	 M128.857,48.64V73h-24.36L128.857,48.64z M76.714,17.354v24.36h-24.36L76.714,17.354z M92.683,70.067
	c-1.521,1.521-2.825,3.585-3.911,6.193s-1.629,4.996-1.629,7.17v20.855H45.429V52.143h33.892c2.173,0,4.02-0.76,5.541-2.281
	c1.52-1.521,2.281-3.368,2.281-5.54V10.429h31.287v33.893L92.683,70.067z M170.57,135.572h-73V83.428h33.894
	c2.172,0,4.018-0.76,5.539-2.281c1.521-1.52,2.281-3.367,2.281-5.539V41.714h31.285V135.572z"/>
</svg>
