<?xml version="1.0" encoding="utf-8"?>
<!-- Generator: Adobe Illustrator 16.0.4, SVG Export Plug-In . SVG Version: 6.00 Build 0)  -->
<!DOCTYPE svg PUBLIC "-//W3C//DTD SVG 1.1//EN" "http://www.w3.org/Graphics/SVG/1.1/DTD/svg11.dtd">
<svg version="1.1" id="Capa_1" xmlns="http://www.w3.org/2000/svg" xmlns:xlink="http://www.w3.org/1999/xlink" x="0px" y="0px"
	 width="216px" height="146px" viewBox="0 0 216 146" enable-background="new 0 0 216 146" xml:space="preserve">
<g>
	<path d="M101.973,77.073c2.498-5.92,4.616-10.564,6.354-13.932c1.304-2.498,2.526-4.603,3.667-6.314
		c1.14-1.711,2.525-3.381,4.154-5.01c1.631-1.63,3.504-2.853,5.623-3.667c2.117-0.815,4.48-1.222,7.088-1.222h20.856v15.643
		c0,0.706,0.257,1.317,0.773,1.833c0.516,0.516,1.127,0.774,1.833,0.774c0.761,0,1.386-0.244,1.873-0.733l26.072-26.071
		C180.756,37.885,181,37.261,181,36.5s-0.244-1.385-0.734-1.876l-25.99-25.99c-0.651-0.543-1.305-0.813-1.955-0.813
		c-0.762,0-1.385,0.244-1.875,0.733c-0.487,0.489-0.731,1.113-0.731,1.874V26.07h-20.856c-3.694,0-7.17,0.449-10.43,1.345
		c-3.259,0.896-6.152,2.036-8.677,3.422c-2.526,1.385-4.97,3.245-7.333,5.581c-2.363,2.335-4.373,4.59-6.029,6.762
		c-1.656,2.172-3.395,4.888-5.214,8.147c-1.819,3.259-3.286,6.111-4.399,8.555c-1.114,2.444-2.458,5.459-4.033,9.044
		c-2.499,5.92-4.617,10.565-6.355,13.932c-1.303,2.498-2.526,4.604-3.666,6.314c-1.14,1.711-2.526,3.381-4.155,5.01
		c-1.63,1.631-3.504,2.853-5.622,3.668c-2.118,0.814-4.481,1.222-7.088,1.222h-18.25c-0.761,0-1.386,0.243-1.874,0.733
		c-0.488,0.488-0.733,1.112-0.733,1.873v15.644c0,0.761,0.246,1.386,0.735,1.875c0.489,0.489,1.114,0.733,1.874,0.733h18.25
		c3.694,0,7.17-0.449,10.429-1.346c3.259-0.896,6.152-2.036,8.677-3.422c2.526-1.385,4.97-3.245,7.333-5.581
		c2.362-2.335,4.373-4.59,6.029-6.762c1.656-2.173,3.394-4.888,5.214-8.147c1.819-3.259,3.286-6.111,4.399-8.555
		C99.054,83.673,100.398,80.658,101.973,77.073z"/>
	<path d="M37.607,46.927h18.25c2.39,0,4.603,0.394,6.64,1.182s3.748,1.738,5.133,2.852c1.385,1.114,2.77,2.648,4.155,4.603
		c1.385,1.956,2.485,3.681,3.3,5.174c0.814,1.494,1.819,3.463,3.014,5.907c4.183-9.831,7.903-17.245,11.162-22.242
		c-8.69-12.221-19.825-18.332-33.404-18.332h-18.25c-0.761,0-1.386,0.244-1.874,0.733C35.245,27.293,35,27.917,35,28.678v15.643
		c0,0.761,0.244,1.384,0.733,1.873C36.222,46.683,36.847,46.927,37.607,46.927z"/>
	<path d="M154.277,81.637c-0.652-0.543-1.305-0.813-1.957-0.813c-0.76,0-1.385,0.244-1.873,0.733
		c-0.488,0.488-0.732,1.113-0.732,1.873v15.644h-20.857c-2.391,0-4.604-0.394-6.641-1.183c-2.037-0.787-3.748-1.737-5.133-2.852
		c-1.384-1.113-2.77-2.648-4.154-4.604c-1.386-1.955-2.486-3.68-3.301-5.174c-0.814-1.492-1.819-3.463-3.014-5.906
		c-4.182,9.777-7.875,17.19-11.08,22.242c1.466,2.119,2.987,4.006,4.562,5.662c1.575,1.656,3.069,3.109,4.481,4.358
		s3.015,2.336,4.807,3.259c1.793,0.924,3.367,1.697,4.727,2.322s3.07,1.127,5.133,1.507c2.064,0.38,3.802,0.666,5.214,0.854
		c1.412,0.19,3.341,0.326,5.785,0.408s4.426,0.108,5.946,0.082c1.522-0.027,3.722-0.056,6.601-0.082s5.188-0.041,6.926-0.041v15.644
		c0,0.706,0.257,1.317,0.773,1.833c0.516,0.516,1.127,0.773,1.833,0.773c0.761,0,1.386-0.244,1.873-0.732l26.072-26.071
		c0.488-0.489,0.732-1.113,0.732-1.874s-0.244-1.385-0.734-1.873L154.277,81.637z"/>
</g>
</svg>
