<?xml version="1.0" encoding="utf-8"?>
<!-- Generator: Adobe Illustrator 16.0.4, SVG Export Plug-In . SVG Version: 6.00 Build 0)  -->
<!DOCTYPE svg PUBLIC "-//W3C//DTD SVG 1.1//EN" "http://www.w3.org/Graphics/SVG/1.1/DTD/svg11.dtd">
<svg version="1.1" id="Capa_1" xmlns="http://www.w3.org/2000/svg" xmlns:xlink="http://www.w3.org/1999/xlink" x="0px" y="0px"
	 width="216px" height="146px" viewBox="0 0 216 146" enable-background="new 0 0 216 146" xml:space="preserve">
<path d="M173.18,99.07h-18.25V29.738l20.123-20.042c0.488-0.543,0.732-1.167,0.732-1.874s-0.244-1.331-0.732-1.874
	c-0.543-0.488-1.168-0.733-1.873-0.733c-0.707,0-1.332,0.244-1.875,0.733l-20.043,20.124H81.929V7.822
	c0-0.761-0.244-1.386-0.733-1.874c-0.489-0.488-1.113-0.733-1.874-0.733H63.679c-0.76,0-1.386,0.244-1.874,0.733
	c-0.488,0.489-0.733,1.114-0.733,1.874v18.25h-18.25c-0.761,0-1.386,0.244-1.874,0.733c-0.488,0.489-0.733,1.114-0.733,1.874v15.643
	c0,0.761,0.244,1.386,0.733,1.874c0.489,0.488,1.114,0.733,1.874,0.733h18.25v70.394c0,0.761,0.244,1.386,0.733,1.873
	c0.489,0.488,1.114,0.733,1.874,0.733h70.394v18.25c0,0.761,0.243,1.386,0.731,1.874s1.113,0.732,1.875,0.732h15.644
	c0.76,0,1.385-0.244,1.872-0.732c0.488-0.488,0.734-1.113,0.734-1.874v-18.25h18.25c0.76,0,1.385-0.245,1.873-0.733
	c0.488-0.487,0.732-1.112,0.732-1.873v-15.644c0-0.761-0.244-1.387-0.732-1.875C174.564,99.316,173.939,99.07,173.18,99.07z
	 M81.929,46.928h48.478L81.929,95.405V46.928z M134.073,99.071H85.595l48.478-48.478V99.071z"/>
</svg>
