<?xml version="1.0" encoding="utf-8"?>
<!-- Generator: Adobe Illustrator 16.0.4, SVG Export Plug-In . SVG Version: 6.00 Build 0)  -->
<!DOCTYPE svg PUBLIC "-//W3C//DTD SVG 1.1//EN" "http://www.w3.org/Graphics/SVG/1.1/DTD/svg11.dtd">
<svg version="1.1" id="Capa_1" xmlns="http://www.w3.org/2000/svg" xmlns:xlink="http://www.w3.org/1999/xlink" x="0px" y="0px"
	 width="216px" height="146px" viewBox="0 0 216 146" enable-background="new 0 0 216 146" xml:space="preserve">
<g>
	<path d="M178.959,105.426L137.652,73l41.306-32.431c1.521-1.085,2.199-2.605,2.037-4.562c-0.272-1.9-1.224-3.286-2.853-4.155
		l-10.429-5.214c-0.706-0.38-1.493-0.57-2.362-0.57c-0.922,0-1.765,0.217-2.525,0.651L106.61,58.25l-8.962-5.377
		c-0.435-0.217-0.761-0.352-0.978-0.407c0.761-2.661,1.032-5.296,0.815-7.903c-0.38-4.182-1.901-8.202-4.562-12.058
		c-2.661-3.856-6.246-7.197-10.754-10.021c-7.17-4.563-14.692-6.844-22.568-6.844c-7.441,0-13.47,2.146-18.087,6.437
		c-2.335,2.118-4.06,4.643-5.173,7.577c-1.114,2.933-1.534,6.002-1.263,9.206c0.38,4.128,1.901,8.121,4.562,11.977
		c2.661,3.857,6.219,7.225,10.673,10.103c7.169,4.563,14.719,6.844,22.649,6.844c4.508,0,8.609-0.841,12.302-2.525
		c0.488,0.706,1.086,1.304,1.792,1.793l9.94,5.947l-9.94,5.946c-0.706,0.49-1.303,1.088-1.792,1.793
		c-3.693-1.684-7.794-2.525-12.302-2.525c-7.93,0-15.48,2.282-22.649,6.844c-4.454,2.879-8.011,6.248-10.673,10.104
		c-2.661,3.857-4.182,7.849-4.562,11.977c-0.597,6.682,1.549,12.303,6.437,16.865c4.671,4.236,10.7,6.355,18.087,6.355
		c7.876,0,15.398-2.282,22.568-6.845c4.507-2.878,8.093-6.231,10.754-10.062c2.661-3.83,4.182-7.835,4.562-12.018
		c0.217-2.606-0.054-5.242-0.815-7.902c0.217-0.055,0.543-0.19,0.978-0.407l8.962-5.378l56.216,31.529
		c0.76,0.435,1.603,0.652,2.526,0.652c0.869,0,1.655-0.189,2.361-0.57l10.43-5.215c1.629-0.869,2.58-2.254,2.852-4.154
		C181.158,108.033,180.48,106.514,178.959,105.426z M82.169,51.816c-2.118,1.956-5.187,2.934-9.207,2.934
		c-5.432,0-10.646-1.603-15.643-4.807c-4.399-2.77-7.278-5.948-8.636-9.533c-1.358-3.584-0.788-6.518,1.711-8.799
		c2.119-1.955,5.188-2.933,9.207-2.933c5.432,0,10.646,1.603,15.643,4.807c4.399,2.77,7.278,5.947,8.636,9.532
		S84.668,49.535,82.169,51.816z M83.88,102.982c-1.358,3.584-4.237,6.762-8.636,9.533c-4.997,3.203-10.211,4.806-15.643,4.807
		c-4.019,0-7.088-0.979-9.207-2.934c-2.499-2.281-3.069-5.215-1.711-8.8s4.237-6.761,8.636-9.532
		c4.997-3.203,10.211-4.807,15.643-4.807c4.019,0,7.088,0.979,9.207,2.934C84.668,96.464,85.238,99.398,83.88,102.982z
		 M89.746,62.571l0.732-0.731c0.055-0.054,0.136-0.122,0.245-0.203c0.109-0.082,0.218-0.177,0.326-0.285
		c0.272-0.218,0.598-0.544,0.978-0.979c0.38-0.434,0.652-0.733,0.815-0.896l2.118-2.118l6.437,3.829l-1.141,0.651
		c-1.792,1.086-2.688,2.607-2.688,4.562v0.896L89.746,62.571z M107.996,80.821l-13.037,7.82l-2.118-2.118
		c-0.217-0.217-0.516-0.543-0.896-0.979c-0.38-0.435-0.679-0.761-0.896-0.978c-0.271-0.218-0.461-0.381-0.57-0.489l-0.733-0.65
		l13.036-7.821v-9.207l62.571-35.115l10.428,5.215l-59.965,46.929L107.996,80.821z M165.354,114.714l-47.418-26.642
		c0.599-0.217,0.953-0.407,1.06-0.57l14.422-11.243l42.365,33.241L165.354,114.714z"/>
	<path d="M113.21,67.785c-1.412,0-2.634,0.517-3.666,1.549c-1.032,1.031-1.548,2.254-1.548,3.666s0.516,2.634,1.548,3.666
		s2.254,1.548,3.666,1.548s2.634-0.516,3.667-1.548c1.031-1.032,1.547-2.254,1.547-3.666s-0.516-2.635-1.547-3.666
		C115.844,68.302,114.622,67.785,113.21,67.785z"/>
</g>
</svg>
