<?xml version="1.0" encoding="utf-8"?>
<!-- Generator: Adobe Illustrator 16.0.4, SVG Export Plug-In . SVG Version: 6.00 Build 0)  -->
<!DOCTYPE svg PUBLIC "-//W3C//DTD SVG 1.1//EN" "http://www.w3.org/Graphics/SVG/1.1/DTD/svg11.dtd">
<svg version="1.1" id="Capa_1" xmlns="http://www.w3.org/2000/svg" xmlns:xlink="http://www.w3.org/1999/xlink" x="0px" y="0px"
	 width="216px" height="146px" viewBox="0 0 216 146" enable-background="new 0 0 216 146" xml:space="preserve">
<path d="M175.217,60.29c-3.855-9.017-9.043-16.783-15.561-23.302c-6.518-6.518-14.285-11.705-23.303-15.561
	c-9.017-3.856-18.467-5.785-28.353-5.785s-19.337,1.929-28.353,5.785c-9.016,3.857-16.783,9.043-23.301,15.561
	c-6.519,6.519-11.705,14.285-15.562,23.302C36.928,69.307,35,78.758,35,88.643c0,14.23,3.829,27.348,11.488,39.353
	c1.031,1.575,2.498,2.362,4.399,2.362h114.226c1.9,0,3.367-0.787,4.398-2.362C177.171,115.938,181,102.82,181,88.643
	C181,78.758,179.072,69.307,175.217,60.29z M100.626,29.127c2.038-2.037,4.495-3.056,7.374-3.056s5.336,1.019,7.373,3.056
	c2.037,2.036,3.057,4.494,3.057,7.373s-1.02,5.336-3.057,7.373s-4.494,3.056-7.373,3.056s-5.337-1.019-7.374-3.056
	c-2.036-2.037-3.055-4.494-3.055-7.373S98.589,31.163,100.626,29.127z M63.231,96.016c-2.037,2.037-4.495,3.057-7.374,3.057
	c-2.878,0-5.336-1.02-7.373-3.057c-2.037-2.035-3.055-4.494-3.055-7.373s1.018-5.336,3.055-7.373s4.495-3.056,7.373-3.056
	c2.879,0,5.338,1.019,7.374,3.056s3.055,4.494,3.055,7.373S65.267,93.979,63.231,96.016z M78.874,59.516
	c-2.038,2.037-4.495,3.056-7.374,3.056s-5.337-1.02-7.374-3.056c-2.036-2.036-3.055-4.494-3.055-7.373
	c0-2.879,1.018-5.336,3.055-7.373c2.038-2.037,4.495-3.056,7.374-3.056s5.337,1.019,7.374,3.056
	c2.036,2.037,3.055,4.494,3.055,7.373C81.929,55.021,80.91,57.479,78.874,59.516z M125.027,60.209l-8.229,31.122
	c2.717,1.847,4.672,4.317,5.868,7.415c1.194,3.096,1.358,6.273,0.489,9.532c-1.086,4.182-3.504,7.36-7.252,9.532
	c-3.748,2.173-7.713,2.717-11.896,1.63c-4.182-1.086-7.36-3.503-9.532-7.251c-2.172-3.749-2.715-7.713-1.629-11.896
	c0.869-3.258,2.58-5.933,5.133-8.023c2.552-2.092,5.458-3.273,8.717-3.545l8.229-31.123c0.38-1.412,1.194-2.486,2.443-3.219
	c1.25-0.732,2.553-0.909,3.911-0.529c1.359,0.381,2.404,1.181,3.137,2.403C125.15,57.48,125.354,58.797,125.027,60.209z
	 M137.127,59.516c-2.037-2.036-3.057-4.494-3.057-7.373c0-2.879,1.02-5.336,3.057-7.373c2.037-2.037,4.494-3.056,7.373-3.056
	s5.336,1.019,7.373,3.056c2.037,2.037,3.057,4.494,3.057,7.373c0,2.878-1.02,5.336-3.057,7.373
	c-2.037,2.037-4.494,3.056-7.373,3.056S139.164,61.553,137.127,59.516z M167.516,96.016c-2.037,2.037-4.494,3.057-7.373,3.057
	s-5.336-1.02-7.373-3.057c-2.037-2.035-3.056-4.494-3.056-7.373s1.019-5.336,3.056-7.373s4.494-3.056,7.373-3.056
	s5.336,1.019,7.373,3.056c2.036,2.037,3.055,4.494,3.055,7.373S169.553,93.979,167.516,96.016z"/>
</svg>
