<?xml version="1.0" encoding="utf-8"?>
<!-- Generator: Adobe Illustrator 16.0.4, SVG Export Plug-In . SVG Version: 6.00 Build 0)  -->
<!DOCTYPE svg PUBLIC "-//W3C//DTD SVG 1.1//EN" "http://www.w3.org/Graphics/SVG/1.1/DTD/svg11.dtd">
<svg version="1.1" id="Capa_1" xmlns="http://www.w3.org/2000/svg" xmlns:xlink="http://www.w3.org/1999/xlink" x="0px" y="0px"
	 width="216px" height="146px" viewBox="0 0 216 146" enable-background="new 0 0 216 146" xml:space="preserve">
<path d="M176.846,17.189c-1.031-1.031-2.255-1.548-3.666-1.548H89.751c-1.412,0-2.635,0.517-3.666,1.548
	c-1.032,1.032-1.548,2.255-1.548,3.667v15.643H71.501c-1.467,0-3.056,0.353-4.767,1.059c-1.711,0.707-3.082,1.575-4.114,2.607
	L46.488,56.297c-0.706,0.706-1.316,1.52-1.833,2.444c-0.516,0.922-0.896,1.752-1.141,2.484c-0.244,0.734-0.421,1.738-0.529,3.015
	c-0.108,1.277-0.177,2.214-0.204,2.812c-0.026,0.597-0.026,1.629,0,3.096c0.027,1.467,0.041,2.417,0.041,2.852v26.071
	c-1.412,0-2.634,0.516-3.666,1.548c-1.032,1.031-1.548,2.254-1.548,3.666c0,0.814,0.108,1.535,0.325,2.159
	c0.218,0.625,0.584,1.127,1.101,1.508c0.516,0.38,0.964,0.692,1.344,0.937c0.381,0.244,1.019,0.407,1.915,0.489
	c0.896,0.081,1.507,0.136,1.833,0.163c0.326,0.026,1.018,0.026,2.077,0c1.06-0.027,1.671-0.041,1.834-0.041h5.214
	c0,5.757,2.037,10.673,6.11,14.746c4.074,4.074,8.989,6.111,14.747,6.111c5.757,0,10.673-2.037,14.746-6.111
	c4.074-4.073,6.11-8.989,6.11-14.746h31.287c0,5.757,2.037,10.673,6.11,14.746c4.072,4.074,8.988,6.111,14.746,6.111
	s10.672-2.037,14.746-6.111c4.074-4.073,6.11-8.989,6.11-14.746c0.163,0,0.774,0.014,1.833,0.041c1.059,0.026,1.752,0.026,2.078,0
	c0.326-0.027,0.938-0.082,1.833-0.163c0.896-0.082,1.534-0.245,1.915-0.489c0.38-0.244,0.828-0.557,1.344-0.937
	c0.516-0.381,0.883-0.883,1.1-1.508c0.219-0.624,0.326-1.345,0.326-2.159V20.857C178.393,19.445,177.877,18.223,176.846,17.189z
	 M81.439,116.832c-2.063,2.064-4.508,3.098-7.332,3.098c-2.825,0-5.269-1.033-7.333-3.098c-2.064-2.062-3.096-4.508-3.096-7.332
	s1.033-5.27,3.096-7.333c2.064-2.063,4.508-3.096,7.333-3.096c2.824,0,5.269,1.032,7.332,3.096c2.065,2.063,3.097,4.509,3.097,7.333
	S83.504,114.77,81.439,116.832z M84.536,67.785H53.25v-2.443c0-0.706,0.244-1.304,0.733-1.793L69.87,47.662
	c0.489-0.489,1.087-0.733,1.793-0.733h12.873V67.785z M154.439,116.832c-2.064,2.064-4.508,3.098-7.332,3.098
	c-2.825,0-5.271-1.033-7.334-3.098c-2.063-2.062-3.096-4.508-3.096-7.332s1.033-5.27,3.096-7.333
	c2.063-2.063,4.509-3.096,7.334-3.096c2.824,0,5.268,1.032,7.332,3.096s3.096,4.509,3.096,7.333S156.504,114.77,154.439,116.832z"/>
</svg>
