<?xml version="1.0" encoding="utf-8"?>
<!-- Generator: Adobe Illustrator 16.0.4, SVG Export Plug-In . SVG Version: 6.00 Build 0)  -->
<!DOCTYPE svg PUBLIC "-//W3C//DTD SVG 1.1//EN" "http://www.w3.org/Graphics/SVG/1.1/DTD/svg11.dtd">
<svg version="1.1" id="Capa_1" xmlns="http://www.w3.org/2000/svg" xmlns:xlink="http://www.w3.org/1999/xlink" x="0px" y="0px"
	 width="216px" height="146px" viewBox="0 0 216 146" enable-background="new 0 0 216 146" xml:space="preserve">
<path d="M182.384,9.044c-2.553-2.553-5.62-3.83-9.206-3.83H42.821c-3.585,0-6.653,1.277-9.207,3.83
	c-2.553,2.553-3.829,5.621-3.829,9.206v88.643c0,3.586,1.276,6.654,3.829,9.207c2.554,2.553,5.622,3.829,9.207,3.829h44.322
	c0,2.063-0.435,4.183-1.304,6.354c-0.869,2.173-1.738,4.074-2.607,5.703c-0.868,1.63-1.303,2.824-1.303,3.584
	c0,1.412,0.516,2.636,1.548,3.666c1.032,1.033,2.254,1.55,3.666,1.55h41.714c1.412,0,2.635-0.517,3.666-1.55
	c1.033-1.03,1.549-2.254,1.549-3.666c0-0.705-0.436-1.887-1.305-3.543s-1.738-3.586-2.606-5.784c-0.869-2.2-1.304-4.304-1.304-6.314
	h44.322c3.584,0,6.652-1.276,9.205-3.829s3.83-5.621,3.83-9.207V18.25C186.215,14.665,184.938,11.597,182.384,9.044z
	 M175.785,86.036c0,0.706-0.258,1.317-0.774,1.833c-0.516,0.515-1.127,0.773-1.833,0.773H42.821c-0.706,0-1.317-0.258-1.833-0.773
	c-0.516-0.518-0.774-1.127-0.774-1.833V18.25c0-0.706,0.257-1.317,0.774-1.833c0.516-0.515,1.127-0.774,1.833-0.774H173.18
	c0.705,0,1.317,0.258,1.832,0.774c0.516,0.516,0.773,1.127,0.773,1.833V86.036z"/>
</svg>
