<?xml version="1.0" encoding="utf-8"?>
<!-- Generator: Adobe Illustrator 16.0.4, SVG Export Plug-In . SVG Version: 6.00 Build 0)  -->
<!DOCTYPE svg PUBLIC "-//W3C//DTD SVG 1.1//EN" "http://www.w3.org/Graphics/SVG/1.1/DTD/svg11.dtd">
<svg version="1.1" id="Capa_1" xmlns="http://www.w3.org/2000/svg" xmlns:xlink="http://www.w3.org/1999/xlink" x="0px" y="0px"
	 width="216px" height="146px" viewBox="0 0 216 146" enable-background="new 0 0 216 146" xml:space="preserve">
<g>
	<path d="M162.18,41.592c-5.595-9.586-13.185-17.176-22.771-22.771c-9.588-5.595-20.055-8.392-31.408-8.392
		c-11.352,0-21.822,2.797-31.408,8.392c-9.587,5.594-17.177,13.184-22.772,22.771C48.225,51.179,45.428,61.649,45.428,73
		c0,11.352,2.798,21.82,8.392,31.408c5.595,9.585,13.185,17.176,22.772,22.771c9.587,5.595,20.056,8.392,31.408,8.392
		c11.352,0,21.822-2.797,31.408-8.392c9.586-5.594,17.176-13.185,22.771-22.771c5.594-9.587,8.391-20.057,8.391-31.408
		C170.57,61.648,167.773,51.178,162.18,41.592z M146.374,95.242c-3.965,6.789-9.342,12.166-16.132,16.132
		c-6.789,3.965-14.203,5.946-22.242,5.946c-8.038,0-15.452-1.981-22.242-5.946c-6.789-3.966-12.166-9.343-16.131-16.132
		C65.661,88.453,63.679,81.039,63.679,73s1.983-15.453,5.948-22.242c3.964-6.789,9.342-12.167,16.131-16.132
		S99.961,28.679,108,28.679s15.453,1.982,22.242,5.947c6.79,3.965,12.167,9.343,16.132,16.132S152.32,64.961,152.32,73
		S150.339,88.453,146.374,95.242z"/>
	<path d="M108,52.143c-5.758,0-10.673,2.037-14.747,6.11c-4.073,4.074-6.11,8.989-6.11,14.747s2.036,10.673,6.11,14.746
		c4.074,4.074,8.99,6.111,14.747,6.111c5.758,0,10.674-2.037,14.747-6.111c4.073-4.073,6.11-8.988,6.11-14.746
		s-2.037-10.673-6.11-14.747C118.674,54.18,113.758,52.143,108,52.143z"/>
</g>
</svg>
