<?xml version="1.0" encoding="utf-8"?>
<!-- Generator: Adobe Illustrator 16.0.4, SVG Export Plug-In . SVG Version: 6.00 Build 0)  -->
<!DOCTYPE svg PUBLIC "-//W3C//DTD SVG 1.1//EN" "http://www.w3.org/Graphics/SVG/1.1/DTD/svg11.dtd">
<svg version="1.1" id="Capa_1" xmlns="http://www.w3.org/2000/svg" xmlns:xlink="http://www.w3.org/1999/xlink" x="0px" y="0px"
	 width="216px" height="146px" viewBox="0 0 216 146" enable-background="new 0 0 216 146" xml:space="preserve">
<path d="M180.266,68.519c-0.49-0.488-1.113-0.732-1.875-0.732h-14.584l2.771-10.429h11.812c0.762,0,1.385-0.245,1.875-0.733
	c0.488-0.489,0.732-1.113,0.732-1.874v-5.214c0-0.761-0.244-1.386-0.732-1.874c-0.49-0.489-1.113-0.733-1.875-0.733h-9.043
	l7.414-28.027c0.272-0.814,0.137-1.574-0.408-2.281c-0.543-0.652-1.248-0.978-2.117-0.978h-11.161c-1.412,0-2.255,0.652-2.525,1.956
	l-7.577,29.33h-29.738l-7.983-29.33c-0.379-1.304-1.222-1.956-2.524-1.956H102.46c-1.304,0-2.146,0.652-2.526,1.956l-7.903,29.33
	H62.782L55.449,17.6c-0.271-1.304-1.113-1.956-2.525-1.956H41.762c-0.869,0-1.575,0.327-2.118,0.978
	c-0.543,0.707-0.679,1.467-0.407,2.281l7.251,28.027h-8.881c-0.761,0-1.385,0.244-1.874,0.733C35.245,48.151,35,48.776,35,49.537
	v5.214c0,0.761,0.244,1.385,0.733,1.874c0.489,0.488,1.114,0.733,1.874,0.733h11.57l2.688,10.429H37.607
	c-0.761,0-1.385,0.244-1.874,0.732C35.245,69.008,35,69.633,35,70.393v5.214c0,0.761,0.244,1.386,0.733,1.875
	c0.489,0.488,1.114,0.731,1.874,0.731h16.947l13.036,50.188c0.108,0.544,0.393,1.005,0.855,1.386
	c0.462,0.38,0.991,0.569,1.589,0.569h12.955c1.303,0,2.145-0.651,2.525-1.955L99.12,78.214h17.028l13.524,50.188
	c0.38,1.304,1.222,1.955,2.525,1.955h12.954c1.303,0,2.145-0.651,2.525-1.955l13.361-50.188h17.354c0.762,0,1.385-0.244,1.875-0.731
	c0.488-0.489,0.732-1.114,0.732-1.875v-5.214C181,69.633,180.756,69.008,180.266,68.519z M76.877,102.575
	c0,0.054-0.013,0.149-0.04,0.284c-0.027,0.137-0.041,0.23-0.041,0.285c-0.055-0.055-0.082-0.136-0.082-0.244
	s-0.028-0.189-0.082-0.244l-6.11-24.442h12.954L76.877,102.575z M86.328,67.786H67.997L65.39,57.357h23.79L86.328,67.786z
	 M101.971,67.786l2.77-10.429h5.702l2.853,10.429H101.971z M138.553,102.656c0,0.055-0.014,0.136-0.041,0.244
	s-0.041,0.189-0.041,0.244c-0.055-0.055-0.095-0.148-0.121-0.285c-0.026-0.135-0.041-0.23-0.041-0.284l-6.6-24.361h13.198
	L138.553,102.656z M147.596,67.786h-18.738l-2.771-10.429h24.198L147.596,67.786z"/>
</svg>
