<?xml version="1.0" encoding="utf-8"?>
<!-- Generator: Adobe Illustrator 16.0.4, SVG Export Plug-In . SVG Version: 6.00 Build 0)  -->
<!DOCTYPE svg PUBLIC "-//W3C//DTD SVG 1.1//EN" "http://www.w3.org/Graphics/SVG/1.1/DTD/svg11.dtd">
<svg version="1.1" id="Capa_1" xmlns="http://www.w3.org/2000/svg" xmlns:xlink="http://www.w3.org/1999/xlink" x="0px" y="0px"
	 width="216px" height="146px" viewBox="0 0 216 146" enable-background="new 0 0 216 146" xml:space="preserve">
<g>
	<path d="M72.233,80.251c0.543,0.544,1.168,0.815,1.874,0.815s1.331-0.271,1.874-0.815L108,48.232l32.02,32.019
		c0.543,0.544,1.168,0.815,1.873,0.815c0.707,0,1.332-0.271,1.875-0.815l4.073-4.073c0.543-0.543,0.813-1.168,0.813-1.874
		s-0.271-1.331-0.813-1.874l-37.968-37.966c-0.543-0.544-1.167-0.814-1.873-0.814s-1.331,0.271-1.874,0.814L68.16,72.43
		c-0.544,0.543-0.815,1.167-0.815,1.875c0,0.705,0.272,1.33,0.815,1.873L72.233,80.251z"/>
	<path d="M109.873,65.75c-0.543-0.544-1.167-0.815-1.873-0.815s-1.331,0.272-1.874,0.815L68.16,103.716
		c-0.544,0.544-0.815,1.168-0.815,1.875c0,0.705,0.272,1.33,0.815,1.873l4.073,4.074c0.543,0.543,1.168,0.813,1.874,0.813
		s1.331-0.271,1.874-0.813L108,79.518l32.02,32.02c0.543,0.543,1.168,0.814,1.873,0.814c0.707,0,1.332-0.271,1.875-0.814
		l4.073-4.074c0.543-0.543,0.813-1.168,0.813-1.873c0-0.707-0.271-1.331-0.813-1.874L109.873,65.75z"/>
</g>
</svg>
