<?xml version="1.0" encoding="utf-8"?>
<!-- Generator: Adobe Illustrator 16.0.4, SVG Export Plug-In . SVG Version: 6.00 Build 0)  -->
<!DOCTYPE svg PUBLIC "-//W3C//DTD SVG 1.1//EN" "http://www.w3.org/Graphics/SVG/1.1/DTD/svg11.dtd">
<svg version="1.1" id="Capa_1" xmlns="http://www.w3.org/2000/svg" xmlns:xlink="http://www.w3.org/1999/xlink" x="0px" y="0px"
	 width="216px" height="146px" viewBox="0 0 216 146" enable-background="new 0 0 216 146" xml:space="preserve">
<g>
	<path d="M146.538,71.125L108.57,33.159c-0.542-0.543-1.167-0.815-1.873-0.815c-0.706,0-1.33,0.272-1.873,0.815l-4.074,4.074
		c-0.543,0.543-0.814,1.167-0.814,1.874s0.271,1.331,0.814,1.874L132.77,73l-32.02,32.02c-0.543,0.543-0.814,1.168-0.814,1.873
		c0,0.707,0.271,1.332,0.814,1.875l4.074,4.072c0.543,0.544,1.167,0.814,1.873,0.814c0.707,0,1.331-0.271,1.873-0.814l37.968-37.966
		c0.543-0.543,0.813-1.168,0.813-1.874S147.08,71.669,146.538,71.125z"/>
	<path d="M116.066,73c0-0.706-0.271-1.331-0.815-1.875L77.285,33.159c-0.543-0.543-1.168-0.815-1.874-0.815
		s-1.331,0.272-1.874,0.815l-4.073,4.074c-0.544,0.543-0.815,1.167-0.815,1.874s0.271,1.331,0.815,1.874L101.483,73l-32.019,32.02
		c-0.544,0.543-0.815,1.168-0.815,1.873c0,0.707,0.271,1.332,0.815,1.875l4.073,4.072c0.543,0.544,1.168,0.814,1.874,0.814
		s1.331-0.271,1.874-0.814l37.966-37.966C115.795,74.331,116.066,73.706,116.066,73z"/>
</g>
</svg>
