<?xml version="1.0" encoding="utf-8"?>
<!-- Generator: Adobe Illustrator 16.0.4, SVG Export Plug-In . SVG Version: 6.00 Build 0)  -->
<!DOCTYPE svg PUBLIC "-//W3C//DTD SVG 1.1//EN" "http://www.w3.org/Graphics/SVG/1.1/DTD/svg11.dtd">
<svg version="1.1" id="Capa_1" xmlns="http://www.w3.org/2000/svg" xmlns:xlink="http://www.w3.org/1999/xlink" x="0px" y="0px"
	 width="216px" height="146px" viewBox="0 0 216 146" enable-background="new 0 0 216 146" xml:space="preserve">
<g>
	<path d="M162.18,41.592c-5.595-9.586-13.185-17.176-22.771-22.771c-9.588-5.595-20.055-8.392-31.408-8.392
		c-11.352,0-21.822,2.797-31.408,8.392c-9.587,5.594-17.177,13.184-22.772,22.771C48.225,51.179,45.428,61.649,45.428,73
		c0,11.352,2.798,21.82,8.392,31.408c5.595,9.585,13.185,17.176,22.772,22.771c9.587,5.595,20.056,8.392,31.408,8.392
		c11.352,0,21.822-2.797,31.408-8.392c9.586-5.594,17.176-13.185,22.771-22.771c5.594-9.587,8.391-20.057,8.391-31.408
		C170.57,61.648,167.773,51.178,162.18,41.592z M146.374,95.242c-3.965,6.789-9.342,12.166-16.132,16.132
		c-6.789,3.965-14.203,5.946-22.242,5.946c-8.038,0-15.452-1.981-22.242-5.946c-6.789-3.966-12.166-9.343-16.131-16.132
		C65.661,88.453,63.679,81.039,63.679,73s1.983-15.453,5.948-22.242c3.964-6.789,9.342-12.167,16.131-16.132
		S99.961,28.679,108,28.679s15.453,1.982,22.242,5.947c6.79,3.965,12.167,9.343,16.132,16.132S152.32,64.961,152.32,73
		S150.339,88.453,146.374,95.242z"/>
	<path d="M134.072,73H118.43V44.32c0-0.761-0.246-1.385-0.734-1.874c-0.487-0.488-1.112-0.733-1.872-0.733h-15.644
		c-0.76,0-1.385,0.245-1.874,0.733c-0.489,0.489-0.733,1.113-0.733,1.874v28.679H81.929c-1.194,0-2.009,0.543-2.444,1.629
		c-0.435,1.033-0.244,1.983,0.57,2.853l26.072,26.071c0.598,0.488,1.222,0.732,1.874,0.732c0.651,0,1.276-0.244,1.874-0.732
		l25.99-25.989c0.543-0.652,0.814-1.305,0.814-1.955c0-0.76-0.244-1.385-0.734-1.875C135.457,73.244,134.833,73,134.072,73z"/>
</g>
</svg>
