<?xml version="1.0" encoding="utf-8"?>
<!-- Generator: Adobe Illustrator 16.0.4, SVG Export Plug-In . SVG Version: 6.00 Build 0)  -->
<!DOCTYPE svg PUBLIC "-//W3C//DTD SVG 1.1//EN" "http://www.w3.org/Graphics/SVG/1.1/DTD/svg11.dtd">
<svg version="1.1" id="Capa_1" xmlns="http://www.w3.org/2000/svg" xmlns:xlink="http://www.w3.org/1999/xlink" x="0px" y="0px"
	 width="216px" height="146px" viewBox="0 0 216 146" enable-background="new 0 0 216 146" xml:space="preserve">
<path d="M162.18,41.592c-5.595-9.586-13.185-17.176-22.771-22.771c-9.588-5.595-20.055-8.392-31.408-8.392
	c-11.352,0-21.822,2.797-31.408,8.392c-9.587,5.594-17.177,13.184-22.772,22.771C48.225,51.179,45.428,61.649,45.428,73
	c0,11.352,2.798,21.82,8.392,31.408c5.595,9.585,13.185,17.176,22.772,22.771c9.587,5.595,20.056,8.392,31.408,8.392
	c11.352,0,21.822-2.797,31.408-8.392c9.586-5.594,17.176-13.185,22.771-22.771c5.594-9.587,8.391-20.057,8.391-31.408
	C170.57,61.648,167.773,51.178,162.18,41.592z M108,19.554c13.469,0,25.229,4.454,35.277,13.361l-1.018,1.425
	c-0.408,0.571-1.426,1.67-3.056,3.3c-1.629,1.629-3.408,3.178-5.336,4.644c-1.929,1.467-4.548,3.137-7.862,5.011
	s-6.844,3.518-10.592,4.93c-6.246-11.516-12.926-21.89-20.042-31.123C99.663,20.07,103.872,19.554,108,19.554z M66.124,39.839
	c5.214-6.571,11.568-11.623,19.064-15.153c6.735,8.962,13.361,19.228,19.879,30.797C88.555,59.828,72.098,62.001,55.695,62
	C57.434,53.799,60.91,46.411,66.124,39.839z M58.138,92.27c-2.39-6.111-3.585-12.534-3.585-19.27c0-0.761,0.028-1.331,0.082-1.711
	c19.663,0,37.94-2.525,54.832-7.577c1.738,3.367,3.178,6.382,4.318,9.044c-0.219,0.108-0.569,0.23-1.059,0.366
	c-0.49,0.136-0.843,0.23-1.061,0.285l-3.014,1.06c-2.065,0.76-4.768,2.063-8.107,3.91c-3.34,1.848-6.884,4.047-10.632,6.6
	c-3.748,2.554-7.618,5.935-11.61,10.145c-3.992,4.209-7.346,8.73-10.062,13.564C63.895,103.852,60.528,98.379,58.138,92.27z
	 M108,126.447c-12.71,0-24.062-4.074-34.056-12.221l1.222,0.896c1.901-4.183,4.698-8.202,8.392-12.058
	c3.694-3.856,7.251-6.967,10.673-9.33c3.422-2.362,7.142-4.588,11.162-6.681c4.019-2.091,6.761-3.422,8.228-3.991
	c1.467-0.571,2.635-1.02,3.504-1.345l0.163-0.082h0.163c5.322,13.959,9.125,27.484,11.406,40.574
	C122.122,125.034,115.17,126.446,108,126.447z M152.975,101.883c-4.02,6.219-9.045,11.366-15.072,15.439
	c-2.229-12.492-5.703-25.23-10.43-38.211c10.809-1.685,21.916-0.897,33.322,2.361C159.6,88.859,156.993,95.663,152.975,101.883z
	 M160.631,72.267c-0.543-0.108-1.222-0.231-2.037-0.366c-0.814-0.135-1.806-0.299-2.974-0.489c-1.167-0.19-2.472-0.366-3.911-0.529
	c-1.439-0.163-2.973-0.312-4.604-0.448c-1.629-0.136-3.367-0.244-5.213-0.326c-1.849-0.081-3.722-0.122-5.623-0.122
	c-1.9,0-3.897,0.055-5.987,0.163c-2.091,0.107-4.114,0.299-6.069,0.57c-0.164-0.272-0.367-0.72-0.611-1.345
	c-0.244-0.624-0.422-1.1-0.528-1.426c-1.033-2.281-2.228-4.861-3.587-7.739c3.748-1.522,7.32-3.273,10.716-5.256
	c3.394-1.983,6.108-3.747,8.146-5.295c2.037-1.549,3.965-3.192,5.785-4.93c1.819-1.738,3-2.946,3.544-3.625
	c0.544-0.68,1.06-1.345,1.548-1.996l0.082-0.082c7.93,9.668,11.978,20.802,12.139,33.404L160.631,72.267z"/>
</svg>
