<?xml version="1.0" encoding="utf-8"?>
<!-- Generator: Adobe Illustrator 16.0.4, SVG Export Plug-In . SVG Version: 6.00 Build 0)  -->
<!DOCTYPE svg PUBLIC "-//W3C//DTD SVG 1.1//EN" "http://www.w3.org/Graphics/SVG/1.1/DTD/svg11.dtd">
<svg version="1.1" id="Capa_1" xmlns="http://www.w3.org/2000/svg" xmlns:xlink="http://www.w3.org/1999/xlink" x="0px" y="0px"
	 width="216px" height="146px" viewBox="0 0 216 146" enable-background="new 0 0 216 146" xml:space="preserve">
<g>
	<polygon points="80.137,106.079 108,82.859 67.753,58.009 40.215,80.089 	"/>
	<polygon points="108,82.857 135.945,106.078 175.785,80.088 148.248,58.009 	"/>
	<polygon points="108.163,87.91 108.163,87.746 108.082,87.828 108,87.746 108,87.91 80.137,111.048 68.16,103.227 68.16,112.025 
		108,135.898 108,135.979 108.082,135.898 108.163,135.979 108.163,135.898 148.085,112.025 148.085,103.227 136.107,111.048 	"/>
	<polygon points="40.215,36.011 67.753,58.009 108,33.241 80.137,10.021 	"/>
	<polygon points="135.945,10.021 108,33.241 148.248,58.009 175.785,36.011 	"/>
</g>
</svg>
