<?xml version="1.0" encoding="utf-8"?>
<!-- Generator: Adobe Illustrator 16.0.4, SVG Export Plug-In . SVG Version: 6.00 Build 0)  -->
<!DOCTYPE svg PUBLIC "-//W3C//DTD SVG 1.1//EN" "http://www.w3.org/Graphics/SVG/1.1/DTD/svg11.dtd">
<svg version="1.1" id="Capa_1" xmlns="http://www.w3.org/2000/svg" xmlns:xlink="http://www.w3.org/1999/xlink" x="0px" y="0px"
	 width="216px" height="146px" viewBox="0 0 216 146" enable-background="new 0 0 216 146" xml:space="preserve">
<path d="M162.18,41.592c-5.595-9.586-13.185-17.176-22.771-22.771c-9.588-5.595-20.055-8.392-31.408-8.392
	c-11.352,0-21.821,2.797-31.408,8.392c-9.587,5.594-17.177,13.184-22.772,22.771C48.225,51.179,45.428,61.649,45.428,73
	c0,11.351,2.798,21.82,8.392,31.408c5.595,9.584,13.185,17.176,22.772,22.771c9.587,5.595,20.056,8.392,31.408,8.392
	c11.352,0,21.822-2.797,31.408-8.392c9.586-5.594,17.176-13.185,22.771-22.771c5.594-9.588,8.391-20.058,8.391-31.408
	C170.57,61.649,167.773,51.178,162.18,41.592z M115.826,105.922c-0.545-0.651-0.734-1.195-0.57-1.631
	c-0.054,0.272-0.245,0.516-0.57,0.733c-0.272-0.326-0.762-0.734-1.467-1.222c-0.707-0.49-1.195-0.897-1.467-1.224
	c-0.109-0.162-0.258-0.393-0.448-0.692c-0.19-0.299-0.434-0.692-0.733-1.181c-0.297-0.489-0.514-0.91-0.651-1.264
	c-0.135-0.353-0.147-0.556-0.04-0.61c-1.032,0.436-2.526,0.137-4.481-0.896c-0.38-0.217-0.951-0.787-1.711-1.711
	c-0.76-0.923-1.548-1.33-2.363-1.222c-0.271,0.054-0.638,0.149-1.1,0.285c-0.461,0.136-0.855,0.203-1.181,0.203
	s-0.761-0.108-1.304-0.326c-0.434-0.163-1.018-0.476-1.751-0.937s-1.236-0.748-1.507-0.855c-0.706-0.38-1.059-0.57-1.059-0.57
	l-1.304-0.65c-0.326-0.163-0.666-0.42-1.019-0.774c-0.353-0.353-0.583-0.72-0.692-1.1c-0.108-0.326-0.244-0.978-0.407-1.956
	c-0.163-0.978-0.381-1.684-0.652-2.118c-0.325-0.543-0.787-1.086-1.385-1.629c-0.597-0.543-1.14-0.815-1.629-0.815
	c0.435,0,0.435-0.365,0-1.1s-0.815-1.264-1.141-1.589c-0.109-0.109-0.435-0.461-0.978-1.06c-0.543-0.598-1.005-1.112-1.385-1.548
	c-0.38-0.435-0.707-0.937-0.978-1.508s-0.326-1.045-0.163-1.426c0.054-0.054,0-0.136-0.163-0.244s-0.366-0.218-0.611-0.326
	c-0.244-0.108-0.475-0.203-0.692-0.285c-0.218-0.081-0.381-0.122-0.489-0.122c0.109,0.219,0.231,0.611,0.367,1.182
	c0.136,0.571,0.285,0.992,0.448,1.264c0.109,0.216,0.57,1.005,1.385,2.361c1.413,2.281,2.064,3.967,1.956,5.053
	c-0.326,0.107-0.544,0.055-0.652-0.163c-0.109-0.216-0.191-0.515-0.245-0.896c-0.054-0.379-0.108-0.651-0.163-0.814
	c-0.163-0.327-0.584-0.68-1.263-1.061c-0.679-0.379-1.1-0.76-1.263-1.141c0.055,0,0.122-0.025,0.204-0.081
	c0.082-0.055,0.15-0.081,0.204-0.081c0.055-0.488-0.23-1.113-0.855-1.874s-0.882-1.304-0.774-1.63
	c-0.435-0.326-0.815-0.964-1.141-1.914c-0.326-0.951-0.598-1.562-0.815-1.834c-0.217-0.325-0.488-0.61-0.814-0.855
	c-0.326-0.244-0.733-0.515-1.222-0.814c-0.489-0.299-0.815-0.502-0.978-0.611c-0.109-0.053-0.326-0.297-0.652-0.732
	c-1.792-2.173-2.335-3.341-1.629-3.504c-0.706,0.163-1.29-0.366-1.752-1.589c-0.462-1.222-0.611-2.16-0.448-2.811l-0.163-0.081
	c0.055-0.218,0.082-0.855,0.082-1.915c0-1.06,0.068-2.024,0.204-2.893c0.136-0.869,0.394-1.304,0.774-1.304
	c-0.38,0.054-0.665-0.286-0.855-1.018c-0.19-0.734-0.204-1.237-0.041-1.508c0.054-0.163,0.299-0.053,0.733,0.326
	c0.434,0.379,0.679,0.625,0.733,0.733c0.706-0.381,0.978-0.869,0.815-1.467c-0.109-0.217-0.679-0.787-1.711-1.711
	c-2.336-1.52-3.531-2.254-3.585-2.2c0.325-0.597,0.244-1.113-0.245-1.548c-0.543,0.326-0.855,0.407-0.937,0.245
	c-0.081-0.163-0.149-0.461-0.204-0.896c-0.054-0.434-0.19-0.678-0.407-0.733c-0.272-0.054-0.598-0.271-0.978-0.651
	c4.834-7.713,11.216-13.742,19.146-18.088c0.326-0.054,0.923-0.081,1.792-0.081c0.434,0.054,0.842,0.19,1.222,0.407
	c0.38,0.217,0.774,0.516,1.181,0.896c0.408,0.379,0.72,0.651,0.937,0.814c0.109-0.326-0.027-0.815-0.407-1.467
	c0.108-0.326,0.706-0.652,1.792-0.978c1.249-0.163,2.064-0.136,2.444,0.082c-0.325-0.489-0.868-1.168-1.629-2.037l-0.407,0.407
	c-0.435-0.38-1.575-0.19-3.422,0.57c-0.108,0.054-0.38,0.204-0.815,0.448c-0.434,0.244-0.788,0.421-1.059,0.529
	c-0.326,0.109-0.652,0.136-0.978,0.082c2.607-1.412,5.16-2.527,7.659-3.341c0.162,0.108,0.434,0.339,0.814,0.692
	c0.38,0.353,0.679,0.611,0.896,0.774c-0.163-0.108-0.272-0.055-0.326,0.163c-0.217,0.651-0.217,1.194,0,1.629
	c0.271,0.381,0.638,0.597,1.1,0.652c0.462,0.054,1.018,0.027,1.67-0.082c0.652-0.108,1.087-0.163,1.304-0.163l0.815,0.082
	c1.738,0.163,2.417,0,2.037-0.489c0.163,0.218,0.353,0.666,0.57,1.345c0.217,0.679,0.462,1.155,0.733,1.426
	c0.272-0.218,0.326-0.598,0.163-1.141s-0.163-0.924,0-1.141c0.054-0.108,0.217-0.218,0.489-0.326
	c0.272-0.108,0.584-0.23,0.937-0.366c0.353-0.136,0.584-0.231,0.693-0.285c0.326-0.218,0.108-0.598-0.652-1.141
	c-0.109-0.055-0.339-0.136-0.692-0.245c-0.353-0.107-0.666-0.217-0.937-0.325s-0.556-0.258-0.855-0.448
	c-0.299-0.19-0.435-0.407-0.408-0.652c0.027-0.245,0.177-0.557,0.448-0.937c0.326-0.271,0.856-0.38,1.589-0.326
	c0.733,0.054,1.29,0.189,1.67,0.407c1.467,0.815,1.684,1.549,0.652,2.2c0.544,0.054,1.196,0.271,1.956,0.651
	c0.76,0.381,1.059,0.788,0.896,1.223c0.435-0.815,0.869-1.223,1.304-1.223c0.271,0.055,0.53,0.422,0.774,1.101
	c0.244,0.679,0.393,1.045,0.447,1.1c0.436,0.597,0.868,0.733,1.305,0.407c0.434-0.326,0.882-0.801,1.344-1.426
	c0.461-0.624,0.719-0.909,0.773-0.855c-0.543-0.216-0.599-0.434-0.162-0.651c0.813-0.489,1.547-0.625,2.199-0.407
	c0.162,0.108,0.381,0.353,0.651,0.732c0.487,0.979,0.405,1.44-0.244,1.386c0.488,0.435,0.69,0.978,0.61,1.629
	c-0.081,0.652-0.504,0.951-1.264,0.896c-0.271,0-0.666-0.136-1.182-0.407s-0.91-0.42-1.182-0.448
	c-0.272-0.028-0.652,0.122-1.141,0.448c-0.217,0.272-0.502,0.734-0.855,1.385c-0.354,0.653-0.666,1.114-0.938,1.385
	c-0.814,0.815-2.173,1.114-4.074,0.896c0.163,0,0.149,0.163-0.041,0.489c-0.191,0.326-0.448,0.693-0.774,1.1
	c-0.326,0.407-0.516,0.638-0.57,0.692c-0.489,0.543-0.815,1.168-0.978,1.874c0,0.109-0.027,0.476-0.082,1.1
	c-0.055,0.625-0.163,1.101-0.326,1.426c0.652-0.163,1.168,0.164,1.548,0.978c0.326,0.761,0.326,1.168,0,1.223
	c1.793-0.271,3.368-0.163,4.727,0.326c1.955,0.706,3.07,1.412,3.341,2.118c0.325-0.489,1.112-0.517,2.362-0.082
	c0.489,0.271,0.922,1.087,1.304,2.444c0.217,0.814,0.584,1.521,1.1,2.118c0.517,0.597,1.072,0.76,1.671,0.489l0.243-0.163
	c0.218-0.108,0.394-0.204,0.53-0.285c0.136-0.081,0.285-0.19,0.447-0.326c0.164-0.136,0.259-0.258,0.285-0.366
	c0.026-0.108-0.014-0.218-0.121-0.326c-0.381-0.326-0.666-0.774-0.855-1.344c-0.189-0.57-0.148-1.073,0.122-1.508
	c0.163-0.217,0.597-0.543,1.304-0.978c0.706-0.435,1.141-0.869,1.303-1.304c0.219-0.706-0.053-1.29-0.813-1.752
	c-0.761-0.461-1.142-0.882-1.142-1.263c0-0.272,0.177-0.597,0.529-0.978c0.354-0.38,0.504-0.734,0.449-1.059
	c0-0.164-0.096-0.503-0.285-1.019c-0.189-0.517-0.299-0.897-0.326-1.141c-0.027-0.245,0.096-0.53,0.366-0.855
	c0.379-0.218,1.276-0.204,2.688,0.04c1.412,0.245,2.336,0.503,2.771,0.774c0.164,0.108,0.517,0.271,1.06,0.489
	c0.543,0.216,1.019,0.447,1.427,0.692c0.405,0.244,0.637,0.474,0.69,0.692h-0.406c0.38,0.327,0.611,0.706,0.691,1.141
	c0.082,0.436-0.121,0.761-0.609,0.979c0.324-0.055,0.761,0.027,1.304,0.244c0.869,0.326,0.896,0.625,0.081,0.896
	c0.163-0.055,0.393-0.108,0.691-0.163c0.299-0.054,0.529-0.136,0.693-0.244c0.107-0.055,0.244-0.149,0.406-0.285
	c0.164-0.136,0.285-0.218,0.367-0.244c0.082-0.027,0.203-0.055,0.367-0.082c0.162-0.027,0.324,0.014,0.487,0.122
	c0.056,0,0.177-0.136,0.367-0.407c0.188-0.271,0.394-0.543,0.61-0.814c0.217-0.271,0.406-0.407,0.57-0.407
	c0.162,0,0.312,0.067,0.447,0.203c0.137,0.136,0.244,0.285,0.326,0.448c0.081,0.163,0.162,0.34,0.244,0.529
	c0.082,0.19,0.148,0.34,0.203,0.448c0.108,0.271,0.367,0.557,0.773,0.855c0.407,0.298,0.665,0.584,0.774,0.855
	c0.055,0.163,0.161,0.571,0.325,1.223c0.162,0.652,0.381,1.1,0.651,1.344c0.272,0.245,0.679,0.448,1.222,0.611
	c0.109,0.055,0.354,0.027,0.733-0.081c0.38-0.109,0.693-0.136,0.937-0.082c0.246,0.054,0.367,0.271,0.367,0.652
	c0.326-0.326,0.488-0.544,0.488-0.652c0.055,0.706,0.23,1.277,0.53,1.711c0.299,0.434,0.774,0.625,1.426,0.57l-0.163,1.793
	c-0.162,0.271-0.57,0.474-1.223,0.61c-0.652,0.136-1.059,0.259-1.223,0.367c-0.162,0.054-0.557,0.38-1.181,0.978
	c-0.625,0.598-0.882,0.951-0.774,1.059c-0.922-1.032-2.308-1.331-4.154-0.896c-2.064,0.326-3.477,0.652-4.236,0.978
	c-0.869,0.435-1.467,0.842-1.793,1.222c-0.055,0.054-0.148,0.245-0.285,0.57c-0.136,0.326-0.271,0.625-0.406,0.896
	c-0.137,0.271-0.258,0.407-0.366,0.407c0.327-0.053,0.692-0.312,1.1-0.773c0.407-0.462,0.666-0.719,0.773-0.774
	c1.411-0.923,2.579-1.249,3.508-0.971c1.194,0.326,1.384,0.761,0.569,1.304c-0.107,0.108-0.393,0.149-0.854,0.122
	s-0.774-0.014-0.938,0.041c0.49,0.108,0.897,0.258,1.224,0.447c0.325,0.19,0.407,0.448,0.244,0.774
	c0.868,0.489,1.032,1.032,0.489,1.63c-0.707,0.707-1.547,1.005-2.526,0.896c0.164,0,0.164,0.109,0,0.326l-1.386,0.896
	c-0.108,0.053-0.461,0.189-1.059,0.407c-0.598,0.216-1.005,0.462-1.223,0.733c-0.162,0.217-0.244,0.543-0.244,0.979
	c0,0.435-0.027,0.761-0.082,0.978c-0.053,0.218-0.271,0.271-0.65,0.163c-0.164,0.326-0.666,0.584-1.508,0.773
	c-0.842,0.19-1.398,0.475-1.67,0.855c0.325,0.435,0.299,0.869-0.082,1.304c-0.652,0.544-1.223,0.489-1.711-0.163
	c-0.271,0.109-0.475,0.38-0.611,0.815c-0.135,0.435-0.34,0.734-0.61,0.896c0.381,0.598,0.325,1.033-0.162,1.304
	c0.054,0,0.176,0.055,0.366,0.163c0.189,0.108,0.393,0.244,0.611,0.407c0.217,0.163,0.352,0.245,0.406,0.245
	c-0.216,0.488-0.516,0.732-0.896,0.732c0.326,0.87-0.08,1.821-1.221,2.852c-0.219,0.217-0.558,0.434-1.02,0.652
	c-0.463,0.217-0.883,0.393-1.264,0.529c-0.381,0.136-0.597,0.231-0.651,0.285c-0.543,0.49-0.951,0.992-1.222,1.508
	c-0.271,0.516-0.312,1.018-0.123,1.507c0.19,0.49,0.693,0.814,1.509,0.979l0.079,0.651v1.466l0.082,0.652
	c0.056,0.38,0.097,0.72,0.123,1.02c0.026,0.299,0.026,0.678,0,1.141c-0.026,0.461-0.149,0.719-0.366,0.772
	c-0.216,0.056-0.515,0-0.896-0.163c-0.436-0.217-0.951-1.412-1.549-3.584c-0.109-0.543-0.436-1.194-0.979-1.955
	c-0.271,0.271-0.502,0.447-0.692,0.528c-0.188,0.082-0.325,0.097-0.405,0.041c-0.082-0.054-0.231-0.177-0.449-0.366
	c-0.217-0.189-0.406-0.34-0.57-0.447c-0.271-0.163-0.746-0.299-1.426-0.407c-0.678-0.108-1.101-0.245-1.262-0.407
	c-1.305,0.979-2.093,0.733-2.364-0.732c-0.108,0.271-0.095,0.638,0.041,1.1c0.136,0.462,0.204,0.719,0.204,0.773
	c-0.38,0.707-0.977,0.761-1.792,0.162c-0.326-0.324-1.073-0.365-2.241-0.121c-1.168,0.244-1.942,0.285-2.322,0.121
	c0.055,0,0.163,0.082,0.326,0.246c0.163,0.107,0.272,0.188,0.326,0.243c-0.055,0.218-0.136,0.38-0.245,0.489
	c-0.109,0.107-0.218,0.148-0.326,0.122c-0.109-0.027-0.231-0.027-0.367,0c-0.136,0.026-0.258,0.067-0.367,0.122
	c-0.217,0.162-0.488,0.447-0.814,0.854c-0.326,0.407-0.57,0.665-0.733,0.773c0.325,0.868,0.475,1.534,0.448,1.995
	c-0.028,0.463-0.109,1.142-0.245,2.037c-0.136,0.896-0.204,1.617-0.204,2.16c0,0.868,0.258,1.875,0.774,3.015
	c0.516,1.14,1.127,1.927,1.833,2.362c0.381,0.218,1.033,0.353,1.956,0.406c0.923,0.055,1.575,0,1.955-0.162
	c0.326-0.162,0.57-0.353,0.733-0.569c0.163-0.218,0.299-0.531,0.407-0.938c0.109-0.406,0.191-0.691,0.245-0.854
	c0.38-1.032,1.086-1.575,2.117-1.63c0.654-0.055,1.127,0.015,1.427,0.203c0.299,0.19,0.421,0.448,0.366,0.774
	s-0.163,0.665-0.325,1.019c-0.163,0.354-0.367,0.746-0.611,1.182c-0.243,0.436-0.393,0.761-0.446,0.979
	c-0.109,0.435-0.205,1.045-0.285,1.834c-0.082,0.787-0.151,1.263-0.205,1.426c0.109,0.054,0.516,0.081,1.222,0.081
	c0-0.108,0.041-0.285,0.123-0.529c0.08-0.245,0.121-0.394,0.121-0.448c0.272,0.435,0.707,0.678,1.305,0.733
	c0.597,0.054,1.032-0.163,1.304-0.652c0.109,0.163,0.435,0.571,0.979,1.224c0.543,0.65,0.842,1.193,0.896,1.629
	c0.054,0.218,0.162,0.57,0.324,1.06c0.164,0.489,0.219,0.829,0.164,1.02c-0.054,0.188-0.326,0.284-0.814,0.284
	c-0.217,0-0.353,0.082-0.407,0.244c-0.056,0.164-0.056,0.366,0,0.611c0.055,0.244,0.123,0.475,0.203,0.692
	c0.082,0.216,0.19,0.448,0.325,0.692c0.138,0.243,0.205,0.393,0.205,0.447c0.977,1.792,2.308,2.281,3.992,1.467
	c0,1.575-0.381,2.443-1.142,2.606C116.857,106.846,116.369,106.572,115.826,105.922z M117.043,124.328
	c-0.107-0.543-0.162-0.977-0.156-1.301c-0.056-0.436,0.135-1.02,0.569-1.752s0.651-1.29,0.651-1.67
	c-0.869-0.217-1.195-0.924-0.979-2.118c0.109-0.815,0.896-1.901,2.362-3.259c1.034-0.924,1.358-2.228,0.979-3.911
	c-0.164-0.706-0.3-1.739-0.408-3.097c-0.107-1.358-0.217-2.309-0.326-2.852c0,0.163,0.258,0.312,0.775,0.448
	c0.516,0.135,0.828,0.312,0.937,0.528c0.108-0.162,0.243-0.461,0.407-0.896c0.162-0.435,0.326-0.76,0.487-0.978
	c0.109-0.163,0.339-0.366,0.693-0.611c0.353-0.244,0.584-0.393,0.692-0.447c0.107-0.054,0.352-0.23,0.732-0.529
	c0.38-0.299,0.693-0.529,0.938-0.692c0.246-0.163,0.57-0.285,0.978-0.366c0.408-0.082,0.692,0.04,0.854,0.366
	c0.272,0.326,0.219,0.828-0.162,1.508c-0.381,0.679-0.381,1.155,0,1.427c0.055-0.164,0.108-0.518,0.162-1.061
	c0.055-0.543,0.219-0.951,0.49-1.223c0.325-0.325,0.637-0.516,0.937-0.569c0.298-0.056,0.569-0.015,0.813,0.122
	c0.245,0.135,0.53,0.324,0.855,0.57c0.326,0.243,0.625,0.393,0.896,0.447c0.814,0.271,1.793,0.869,2.934,1.792
	c-0.055-0.055-0.055-0.122,0-0.204c0.055-0.081,0.162-0.162,0.326-0.244c0.162-0.08,0.311-0.162,0.447-0.244
	c0.135-0.082,0.284-0.148,0.447-0.203l0.245-0.082c0.379,0,0.651-0.026,0.813-0.082c0.162-0.054,0.395,0,0.692,0.164
	c0.298,0.162,0.503,0.284,0.61,0.366c0.109,0.081,0.299,0.23,0.57,0.448c0.271,0.217,0.463,0.38,0.569,0.488
	c0.164,0.107,0.462,0.299,0.896,0.57c0.436,0.271,0.775,0.488,1.02,0.651c0.245,0.162,0.462,0.407,0.65,0.731
	c0.19,0.328,0.26,0.681,0.205,1.061c0.326,0.055,0.977,0.271,1.955,0.651c0.164,0.108,0.502,0.204,1.019,0.284
	c0.517,0.082,0.856,0.205,1.019,0.367C137.766,117.24,128.232,122.373,117.043,124.328z"/>
</svg>
