<?xml version="1.0" encoding="utf-8"?>
<!-- Generator: Adobe Illustrator 16.0.4, SVG Export Plug-In . SVG Version: 6.00 Build 0)  -->
<!DOCTYPE svg PUBLIC "-//W3C//DTD SVG 1.1//EN" "http://www.w3.org/Graphics/SVG/1.1/DTD/svg11.dtd">
<svg version="1.1" id="Capa_1" xmlns="http://www.w3.org/2000/svg" xmlns:xlink="http://www.w3.org/1999/xlink" x="0px" y="0px"
	 width="216px" height="146px" viewBox="0 0 216 146" enable-background="new 0 0 216 146" xml:space="preserve">
<g>
	<path d="M163.686,17.313c-4.588-4.589-10.115-6.884-16.578-6.884H68.893c-6.463,0-11.99,2.295-16.58,6.884
		c-4.589,4.59-6.884,10.117-6.884,16.58v78.214c0,6.463,2.295,11.99,6.884,16.58c4.59,4.59,10.117,6.885,16.58,6.885h78.214
		c6.463,0,11.99-2.295,16.578-6.885c4.59-4.59,6.885-10.117,6.885-16.58V33.893C170.57,27.43,168.275,21.902,163.686,17.313z
		 M89.75,114.714H66.285V91.25l44.322-44.321l23.463,23.464L89.75,114.714z M146.781,57.683l-7.495,7.496l-23.464-23.465
		l7.494-7.495c1.521-1.52,3.367-2.281,5.541-2.281c2.172,0,4.019,0.76,5.539,2.281l12.385,12.384c1.52,1.52,2.281,3.367,2.281,5.54
		C149.062,54.316,148.302,56.162,146.781,57.683z"/>
	<polygon points="74.108,94.509 74.108,99.07 81.929,99.07 81.929,106.893 86.491,106.893 90.728,102.656 78.344,90.271 	"/>
	<path d="M85.922,82.451c-0.924,0.922-1.005,1.736-0.245,2.443c0.706,0.761,1.521,0.68,2.444-0.244l23.709-23.709
		c0.923-0.922,1.004-1.737,0.244-2.443c-0.707-0.761-1.521-0.68-2.444,0.244L85.922,82.451z"/>
</g>
</svg>
