<?xml version="1.0" encoding="utf-8"?>
<!-- Generator: Adobe Illustrator 16.0.4, SVG Export Plug-In . SVG Version: 6.00 Build 0)  -->
<!DOCTYPE svg PUBLIC "-//W3C//DTD SVG 1.1//EN" "http://www.w3.org/Graphics/SVG/1.1/DTD/svg11.dtd">
<svg version="1.1" id="Capa_1" xmlns="http://www.w3.org/2000/svg" xmlns:xlink="http://www.w3.org/1999/xlink" x="0px" y="0px"
	 width="216px" height="146px" viewBox="0 0 216 146" enable-background="new 0 0 216 146" xml:space="preserve">
<g>
	<path d="M49.013,51.003c1.847,1.303,7.414,5.174,16.702,11.61S82.118,74.005,87.061,77.48c0.543,0.381,1.697,1.209,3.462,2.485
		c1.765,1.277,3.232,2.31,4.399,3.097c1.168,0.787,2.58,1.67,4.237,2.647c1.657,0.977,3.219,1.711,4.685,2.198
		c1.467,0.49,2.825,0.733,4.074,0.733H108h0.082c1.249,0,2.607-0.243,4.074-0.733c1.466-0.487,3.029-1.222,4.685-2.198
		c1.656-0.978,3.068-1.86,4.236-2.647s2.634-1.82,4.399-3.097s2.92-2.104,3.463-2.485c4.996-3.476,17.707-12.302,38.129-26.479
		c3.965-2.769,7.277-6.11,9.939-10.021C179.67,37.071,181,32.97,181,28.679c0-3.585-1.291-6.654-3.871-9.207
		c-2.58-2.553-5.636-3.829-9.165-3.829H48.035c-4.182,0-7.4,1.412-9.654,4.236C36.127,22.704,35,26.235,35,30.471
		c0,3.422,1.494,7.13,4.481,11.122S45.646,48.722,49.013,51.003z"/>
	<path d="M172.852,59.72c-17.814,12.057-31.34,21.427-40.572,28.108c-3.096,2.281-5.608,4.061-7.537,5.336
		c-1.928,1.277-4.494,2.58-7.699,3.911c-3.204,1.331-6.191,1.996-8.961,1.996H108h-0.082c-2.77,0-5.758-0.665-8.962-1.996
		s-5.771-2.634-7.699-3.911c-1.928-1.275-4.44-3.055-7.536-5.336c-7.333-5.377-20.83-14.747-40.492-28.108
		c-3.096-2.063-5.839-4.427-8.229-7.088v64.688c0,3.586,1.276,6.654,3.829,9.207c2.553,2.554,5.622,3.83,9.207,3.83h119.929
		c3.584,0,6.653-1.276,9.206-3.83c2.554-2.554,3.829-5.621,3.829-9.207V52.632C178.664,55.238,175.949,57.602,172.852,59.72z"/>
</g>
</svg>
