<?xml version="1.0" encoding="utf-8"?>
<!-- Generator: Adobe Illustrator 16.0.4, SVG Export Plug-In . SVG Version: 6.00 Build 0)  -->
<!DOCTYPE svg PUBLIC "-//W3C//DTD SVG 1.1//EN" "http://www.w3.org/Graphics/SVG/1.1/DTD/svg11.dtd">
<svg version="1.1" id="Capa_1" xmlns="http://www.w3.org/2000/svg" xmlns:xlink="http://www.w3.org/1999/xlink" x="0px" y="0px"
	 width="216px" height="146px" viewBox="0 0 216 146" enable-background="new 0 0 216 146" xml:space="preserve">
<path d="M149.145,124.654l-2.853-12.954c-0.162-0.761-0.569-1.331-1.222-1.71c-0.706-0.381-1.412-0.434-2.118-0.162l-0.408,0.162
	l-0.978,0.244c-0.436,0.108-0.938,0.23-1.508,0.366s-1.234,0.271-1.996,0.407c-0.758,0.136-1.562,0.259-2.402,0.367
	c-0.842,0.107-1.751,0.203-2.729,0.285c-0.979,0.08-1.955,0.121-2.934,0.121c-6.898,0-13.104-1.859-18.617-5.58
	c-5.513-3.721-9.573-8.759-12.18-15.113h31.529c0.598,0,1.142-0.203,1.629-0.611c0.49-0.406,0.789-0.908,0.896-1.507l1.955-9.125
	c0.163-0.813,0-1.548-0.488-2.2c-0.543-0.652-1.223-0.978-2.037-0.978H95.29c-0.163-3.694-0.163-6.545,0-8.555h39.759
	c1.467,0,2.336-0.706,2.607-2.118l1.955-9.288c0.162-0.76-0.026-1.466-0.57-2.118c-0.488-0.652-1.167-0.979-2.036-0.979h-38.13
	c2.716-6.083,6.789-10.863,12.221-14.339c5.432-3.477,11.569-5.215,18.414-5.215c0.217-0.108,1.018-0.081,2.402,0.082
	c1.385,0.162,2.173,0.23,2.363,0.203c0.188-0.027,0.896,0.055,2.117,0.244c1.223,0.19,1.834,0.285,1.834,0.285l1.426,0.285
	c0.408,0.082,0.72,0.149,0.937,0.204l0.326,0.081c0.706,0.218,1.356,0.15,1.955-0.203c0.599-0.354,0.979-0.883,1.142-1.589
	l3.504-12.954c0.162-0.706,0.08-1.358-0.244-1.955c-0.489-0.653-1.033-1.06-1.631-1.223c-4.996-1.249-10.266-1.874-15.806-1.874
	c-12.167,0-23.043,3.477-32.63,10.429c-9.587,6.952-16.2,16.132-19.839,27.538h-7.984c-0.761,0-1.385,0.244-1.874,0.733
	c-0.488,0.488-0.733,1.113-0.733,1.874v9.288c0,0.76,0.244,1.385,0.733,1.873c0.489,0.489,1.114,0.733,1.874,0.733h5.459
	c-0.164,2.608-0.19,5.458-0.082,8.555h-5.377c-0.706,0-1.317,0.258-1.833,0.774c-0.516,0.516-0.774,1.127-0.774,1.832v9.207
	c0,0.707,0.258,1.316,0.774,1.834c0.516,0.515,1.127,0.772,1.833,0.772h7.74c3.422,12.004,9.886,21.55,19.391,28.638
	c9.506,7.09,20.613,10.633,33.323,10.633c1.033,0,2.077-0.026,3.137-0.082c1.061-0.054,2.051-0.136,2.975-0.244
	c0.923-0.107,1.833-0.229,2.729-0.365c0.896-0.137,1.711-0.271,2.443-0.408c0.734-0.136,1.426-0.271,2.078-0.406
	c0.652-0.137,1.236-0.285,1.752-0.449c0.516-0.161,0.949-0.284,1.303-0.365s0.639-0.178,0.855-0.285l0.408-0.081
	c0.598-0.218,1.059-0.612,1.385-1.183C149.227,125.917,149.307,125.305,149.145,124.654z"/>
</svg>
