<?xml version="1.0" encoding="utf-8"?>
<!-- Generator: Adobe Illustrator 16.0.4, SVG Export Plug-In . SVG Version: 6.00 Build 0)  -->
<!DOCTYPE svg PUBLIC "-//W3C//DTD SVG 1.1//EN" "http://www.w3.org/Graphics/SVG/1.1/DTD/svg11.dtd">
<svg version="1.1" id="Capa_1" xmlns="http://www.w3.org/2000/svg" xmlns:xlink="http://www.w3.org/1999/xlink" x="0px" y="0px"
	 width="216px" height="146px" viewBox="0 0 216 146" enable-background="new 0 0 216 146" xml:space="preserve">
<g>
	<path d="M37.607,57.357h112.109V73c0,0.706,0.257,1.316,0.773,1.833c0.516,0.517,1.127,0.774,1.833,0.774
		c0.761,0,1.386-0.244,1.873-0.733l26.072-26.071c0.488-0.489,0.732-1.114,0.732-1.874c0-0.761-0.244-1.386-0.734-1.874
		l-25.988-25.99c-0.652-0.544-1.305-0.815-1.957-0.815c-0.76,0-1.385,0.244-1.873,0.733c-0.488,0.489-0.732,1.113-0.732,1.874V36.5
		H37.607c-0.706,0-1.317,0.258-1.833,0.774S35,38.401,35,39.107V54.75c0,0.706,0.258,1.317,0.774,1.833S36.901,57.357,37.607,57.357
		z"/>
	<path d="M178.393,88.644H66.285V73.001c0-0.706-0.258-1.317-0.774-1.833c-0.516-0.516-1.127-0.774-1.833-0.774
		c-0.761,0-1.385,0.244-1.874,0.733l-26.071,26.07C35.245,97.687,35,98.311,35,99.072c0,0.705,0.244,1.304,0.733,1.791l25.99,26.072
		c0.652,0.543,1.304,0.814,1.956,0.814c0.706,0,1.317-0.258,1.833-0.773c0.516-0.517,0.774-1.127,0.774-1.834V109.5h112.106
		c0.707,0,1.317-0.257,1.834-0.773c0.516-0.517,0.773-1.127,0.773-1.834V91.25c0-0.706-0.258-1.316-0.773-1.832
		C179.709,88.902,179.1,88.644,178.393,88.644z"/>
</g>
</svg>
