<?xml version="1.0" encoding="utf-8"?>
<!-- Generator: Adobe Illustrator 16.0.4, SVG Export Plug-In . SVG Version: 6.00 Build 0)  -->
<!DOCTYPE svg PUBLIC "-//W3C//DTD SVG 1.1//EN" "http://www.w3.org/Graphics/SVG/1.1/DTD/svg11.dtd">
<svg version="1.1" id="Capa_1" xmlns="http://www.w3.org/2000/svg" xmlns:xlink="http://www.w3.org/1999/xlink" x="0px" y="0px"
	 width="216px" height="146px" viewBox="0 0 216 146" enable-background="new 0 0 216 146" xml:space="preserve">
<g>
	<path d="M118.428,101.679H97.571c-1.413,0-2.635,0.517-3.667,1.548c-1.032,1.032-1.548,2.254-1.548,3.666v18.25
		c0,1.412,0.516,2.635,1.548,3.668c1.033,1.03,2.254,1.547,3.667,1.547h20.859c1.411,0,2.633-0.517,3.666-1.547
		c1.031-1.033,1.547-2.256,1.547-3.668v-18.25c0-1.412-0.517-2.634-1.549-3.666C121.062,102.195,119.84,101.679,118.428,101.679z"/>
	<path d="M124.661,17.19c-1.005-1.031-2.213-1.548-3.626-1.548H94.964c-1.412,0-2.62,0.517-3.625,1.548
		c-1.005,1.032-1.48,2.255-1.426,3.667l2.281,62.571c0.054,1.412,0.61,2.635,1.67,3.666c1.059,1.032,2.294,1.549,3.707,1.549h20.859
		c1.411,0,2.646-0.517,3.707-1.549c1.059-1.031,1.614-2.254,1.67-3.666l2.28-62.571C126.143,19.445,125.666,18.223,124.661,17.19z"
		/>
</g>
</svg>
