<?xml version="1.0" encoding="utf-8"?>
<!-- Generator: Adobe Illustrator 16.0.4, SVG Export Plug-In . SVG Version: 6.00 Build 0)  -->
<!DOCTYPE svg PUBLIC "-//W3C//DTD SVG 1.1//EN" "http://www.w3.org/Graphics/SVG/1.1/DTD/svg11.dtd">
<svg version="1.1" id="Capa_1" xmlns="http://www.w3.org/2000/svg" xmlns:xlink="http://www.w3.org/1999/xlink" x="0px" y="0px"
	 width="216px" height="146px" viewBox="0 0 216 146" enable-background="new 0 0 216 146" xml:space="preserve">
<g>
	<path d="M149.591,31.408c-3.558-3.558-7.862-5.337-12.913-5.337H79.321c-5.052,0-9.357,1.779-12.914,5.337
		c-3.557,3.558-5.336,7.862-5.336,12.913v57.356c0,4.997,1.778,9.288,5.336,12.872c3.558,3.587,7.863,5.378,12.914,5.378h57.359
		c5.051,0,9.354-1.791,12.912-5.378c3.559-3.584,5.338-7.875,5.338-12.872V44.321C154.93,39.27,153.148,34.966,149.591,31.408z
		 M144.5,101.679c0,2.173-0.762,4.02-2.282,5.54c-1.52,1.521-3.368,2.281-5.54,2.281H79.321c-2.173,0-4.019-0.76-5.54-2.281
		c-1.521-1.52-2.281-3.367-2.281-5.54V44.322c0-2.172,0.76-4.019,2.281-5.54c1.52-1.52,3.367-2.281,5.54-2.281h57.359
		c2.172,0,4.019,0.76,5.539,2.281c1.52,1.521,2.281,3.368,2.281,5.54V101.679z"/>
	<path d="M131.465,67.786h-18.25v-18.25c0-0.761-0.244-1.385-0.734-1.874c-0.487-0.489-1.112-0.733-1.873-0.733h-5.214
		c-0.761,0-1.385,0.244-1.874,0.733c-0.489,0.489-0.733,1.114-0.733,1.874v18.25h-18.25c-0.76,0-1.386,0.244-1.874,0.733
		c-0.488,0.489-0.733,1.114-0.733,1.874v5.214c0,0.76,0.244,1.385,0.733,1.873c0.489,0.488,1.114,0.733,1.874,0.733h18.25v18.25
		c0,0.761,0.244,1.386,0.733,1.873c0.489,0.489,1.114,0.733,1.874,0.733h5.214c0.761,0,1.386-0.244,1.873-0.733
		c0.49-0.487,0.734-1.112,0.734-1.873v-18.25h18.25c0.76,0,1.385-0.245,1.873-0.733s0.732-1.113,0.732-1.873v-5.214
		c0-0.76-0.244-1.386-0.732-1.874C132.85,68.031,132.225,67.786,131.465,67.786z"/>
</g>
</svg>
