<?xml version="1.0" encoding="utf-8"?>
<!-- Generator: Adobe Illustrator 16.0.4, SVG Export Plug-In . SVG Version: 6.00 Build 0)  -->
<!DOCTYPE svg PUBLIC "-//W3C//DTD SVG 1.1//EN" "http://www.w3.org/Graphics/SVG/1.1/DTD/svg11.dtd">
<svg version="1.1" id="Capa_1" xmlns="http://www.w3.org/2000/svg" xmlns:xlink="http://www.w3.org/1999/xlink" x="0px" y="0px"
	 width="216px" height="146px" viewBox="0 0 216 146" enable-background="new 0 0 216 146" xml:space="preserve">
<path d="M186.133,72.758c-1.412-1.901-9.207-4.427-23.383-7.577l-28.68-2.607l-18.25-5.214h-5.213L86.735,28.681h5.621
	c1.413,0,2.635-0.122,3.667-0.367c1.032-0.245,1.548-0.557,1.548-0.937s-0.516-0.692-1.548-0.937
	c-1.032-0.244-2.254-0.367-3.667-0.367h-7.821H71.5h-5.215v2.607H71.5v33.893H58.464l-15.643-18.25H35l-2.607,2.607v15.643H35v2.607
	h10.429v0.652l-15.644,1.955v10.429l15.644,1.955v0.651H35v2.606h-2.607v15.644L35,101.679h7.821l15.643-18.25H71.5v33.894h-5.215
	v2.606H71.5h13.035h7.821c1.413,0,2.635-0.122,3.667-0.366c1.032-0.246,1.548-0.557,1.548-0.938c0-0.38-0.516-0.693-1.548-0.938
	c-1.032-0.244-2.254-0.366-3.667-0.366h-5.621l23.873-28.679h5.213l18.25-5.215l28.68-2.606c15.588-3.476,23.41-6.083,23.465-7.821
	L186.133,72.758z"/>
</svg>
