<?xml version="1.0" encoding="utf-8"?>
<!-- Generator: Adobe Illustrator 16.0.4, SVG Export Plug-In . SVG Version: 6.00 Build 0)  -->
<!DOCTYPE svg PUBLIC "-//W3C//DTD SVG 1.1//EN" "http://www.w3.org/Graphics/SVG/1.1/DTD/svg11.dtd">
<svg version="1.1" id="Capa_1" xmlns="http://www.w3.org/2000/svg" xmlns:xlink="http://www.w3.org/1999/xlink" x="0px" y="0px"
	 width="216px" height="146px" viewBox="0 0 216 146" enable-background="new 0 0 216 146" xml:space="preserve">
<g>
	<path d="M154.604,41.389l-25.42-25.42c-2.717-2.716-6.302-4.482-10.756-5.296v41.47h41.471
		C159.084,47.688,157.318,44.104,154.604,41.389z"/>
	<path d="M115.822,62.571c-2.174,0-4.021-0.76-5.541-2.281C108.76,58.77,108,56.923,108,54.75V10.429H63.679
		c-2.172,0-4.019,0.76-5.54,2.281c-1.521,1.52-2.281,3.367-2.281,5.54v109.5c0,2.173,0.76,4.02,2.281,5.54s3.368,2.281,5.54,2.281
		h88.644c2.172,0,4.018-0.761,5.538-2.281c1.521-1.521,2.281-3.367,2.281-5.54V62.571H115.822z"/>
</g>
</svg>
