<?xml version="1.0" encoding="utf-8"?>
<!-- Generator: Adobe Illustrator 16.0.4, SVG Export Plug-In . SVG Version: 6.00 Build 0)  -->
<!DOCTYPE svg PUBLIC "-//W3C//DTD SVG 1.1//EN" "http://www.w3.org/Graphics/SVG/1.1/DTD/svg11.dtd">
<svg version="1.1" id="Capa_1" xmlns="http://www.w3.org/2000/svg" xmlns:xlink="http://www.w3.org/1999/xlink" x="0px" y="0px"
	 width="216px" height="146px" viewBox="0 0 216 146" enable-background="new 0 0 216 146" xml:space="preserve">
<path d="M158.514,47.58c-1.086-2.607-2.389-4.67-3.91-6.191l-25.42-25.42c-1.521-1.52-3.584-2.824-6.191-3.911
	c-2.607-1.086-4.997-1.629-7.169-1.629H63.679c-2.172,0-4.019,0.76-5.54,2.281c-1.521,1.52-2.281,3.367-2.281,5.54v109.5
	c0,2.173,0.76,4.02,2.281,5.54s3.368,2.281,5.54,2.281h88.644c2.172,0,4.018-0.761,5.538-2.281c1.521-1.521,2.281-3.367,2.281-5.54
	v-73C160.143,52.577,159.6,50.187,158.514,47.58z M118.43,21.509c1.574,0.543,2.688,1.141,3.34,1.792l25.502,25.502
	c0.65,0.652,1.248,1.765,1.791,3.34H118.43V21.509z M149.715,125.143H66.286V20.858H108v33.893c0,2.173,0.76,4.019,2.281,5.54
	c1.521,1.52,3.367,2.281,5.541,2.281h33.893V125.143z"/>
</svg>
