<?xml version="1.0" encoding="utf-8"?>
<!-- Generator: Adobe Illustrator 16.0.4, SVG Export Plug-In . SVG Version: 6.00 Build 0)  -->
<!DOCTYPE svg PUBLIC "-//W3C//DTD SVG 1.1//EN" "http://www.w3.org/Graphics/SVG/1.1/DTD/svg11.dtd">
<svg version="1.1" id="Capa_1" xmlns="http://www.w3.org/2000/svg" xmlns:xlink="http://www.w3.org/1999/xlink" x="0px" y="0px"
	 width="216px" height="146px" viewBox="0 0 216 146" enable-background="new 0 0 216 146" xml:space="preserve">
<path d="M182.384,9.043c-2.553-2.553-5.62-3.829-9.206-3.829H42.821c-3.585,0-6.653,1.276-9.207,3.829
	c-2.553,2.554-3.829,5.622-3.829,9.207v109.5c0,3.585,1.276,6.654,3.829,9.207c2.554,2.553,5.622,3.828,9.207,3.828H173.18
	c3.584,0,6.652-1.275,9.205-3.828s3.83-5.622,3.83-9.207V18.25C186.215,14.665,184.938,11.597,182.384,9.043z M61.071,125.143
	c0,1.412-0.515,2.635-1.547,3.666c-1.032,1.033-2.254,1.549-3.667,1.549H45.429c-1.412,0-2.635-0.516-3.667-1.549
	c-1.031-1.031-1.548-2.254-1.548-3.666v-10.428c0-1.412,0.517-2.635,1.548-3.667c1.032-1.032,2.255-1.548,3.667-1.548h10.427
	c1.413,0,2.635,0.516,3.667,1.548c1.032,1.032,1.548,2.255,1.548,3.667V125.143z M61.071,93.857c0,1.412-0.515,2.635-1.547,3.666
	c-1.032,1.031-2.254,1.548-3.667,1.548H45.429c-1.412,0-2.635-0.517-3.667-1.548c-1.031-1.031-1.548-2.254-1.548-3.666v-10.43
	c0-1.412,0.517-2.634,1.548-3.666c1.032-1.031,2.255-1.548,3.667-1.548h10.427c1.413,0,2.635,0.517,3.667,1.548
	c1.032,1.032,1.548,2.254,1.548,3.666V93.857z M61.071,62.571c0,1.413-0.515,2.635-1.547,3.667
	c-1.032,1.032-2.254,1.548-3.667,1.548H45.429c-1.412,0-2.635-0.516-3.667-1.548c-1.031-1.032-1.548-2.254-1.548-3.667V52.143
	c0-1.413,0.517-2.635,1.548-3.667c1.032-1.032,2.255-1.548,3.667-1.548h10.427c1.413,0,2.635,0.516,3.667,1.548
	c1.032,1.033,1.548,2.255,1.548,3.667V62.571z M61.071,31.286c0,1.412-0.515,2.635-1.547,3.667
	c-1.032,1.032-2.254,1.548-3.667,1.548H45.429c-1.412,0-2.635-0.516-3.667-1.548c-1.031-1.033-1.548-2.254-1.548-3.667V20.858
	c0-1.413,0.517-2.635,1.548-3.667c1.032-1.032,2.255-1.548,3.667-1.548h10.427c1.413,0,2.635,0.516,3.667,1.548
	c1.032,1.033,1.548,2.255,1.548,3.667V31.286z M144.5,125.143c0,1.412-0.516,2.635-1.548,3.666
	c-1.032,1.033-2.255,1.549-3.667,1.549H76.714c-1.412,0-2.634-0.516-3.666-1.549c-1.032-1.031-1.548-2.254-1.548-3.666V83.429
	c0-1.411,0.516-2.634,1.548-3.667c1.032-1.031,2.254-1.547,3.666-1.547h62.571c1.412,0,2.635,0.516,3.667,1.547
	c1.032,1.033,1.548,2.256,1.548,3.667V125.143z M144.5,62.571c0,1.413-0.516,2.635-1.548,3.667
	c-1.032,1.032-2.255,1.548-3.667,1.548H76.714c-1.412,0-2.634-0.516-3.666-1.548c-1.032-1.032-1.548-2.254-1.548-3.667V20.857
	c0-1.413,0.516-2.635,1.548-3.667c1.032-1.032,2.254-1.548,3.666-1.548h62.571c1.412,0,2.635,0.516,3.667,1.548
	c1.032,1.033,1.548,2.255,1.548,3.667V62.571z M175.785,125.143c0,1.412-0.516,2.635-1.547,3.666
	c-1.033,1.033-2.256,1.549-3.668,1.549h-10.428c-1.412,0-2.635-0.516-3.666-1.549c-1.033-1.031-1.549-2.254-1.549-3.666v-10.428
	c0-1.412,0.516-2.635,1.549-3.667c1.031-1.032,2.254-1.548,3.666-1.548h10.428c1.412,0,2.635,0.516,3.668,1.548
	c1.031,1.032,1.547,2.255,1.547,3.667V125.143z M175.785,93.857c0,1.412-0.516,2.635-1.547,3.666
	c-1.033,1.031-2.256,1.548-3.668,1.548h-10.428c-1.412,0-2.635-0.517-3.666-1.548c-1.033-1.031-1.549-2.254-1.549-3.666v-10.43
	c0-1.412,0.516-2.634,1.549-3.666c1.031-1.031,2.254-1.548,3.666-1.548h10.428c1.412,0,2.635,0.517,3.668,1.548
	c1.031,1.032,1.547,2.254,1.547,3.666V93.857z M175.785,62.571c0,1.413-0.516,2.635-1.547,3.667
	c-1.033,1.032-2.256,1.548-3.668,1.548h-10.428c-1.412,0-2.635-0.516-3.666-1.548c-1.033-1.032-1.549-2.254-1.549-3.667V52.143
	c0-1.413,0.516-2.635,1.549-3.667c1.031-1.032,2.254-1.548,3.666-1.548h10.428c1.412,0,2.635,0.516,3.668,1.548
	c1.031,1.033,1.547,2.255,1.547,3.667V62.571z M175.785,31.286c0,1.412-0.516,2.634-1.547,3.667
	c-1.033,1.032-2.256,1.548-3.668,1.548h-10.428c-1.412,0-2.635-0.515-3.666-1.548c-1.033-1.033-1.549-2.254-1.549-3.667V20.858
	c0-1.413,0.516-2.635,1.549-3.667c1.031-1.032,2.254-1.548,3.666-1.548h10.428c1.412,0,2.635,0.516,3.668,1.548
	c1.031,1.033,1.547,2.255,1.547,3.667V31.286z"/>
</svg>
