<?xml version="1.0" encoding="utf-8"?>
<!-- Generator: Adobe Illustrator 16.0.4, SVG Export Plug-In . SVG Version: 6.00 Build 0)  -->
<!DOCTYPE svg PUBLIC "-//W3C//DTD SVG 1.1//EN" "http://www.w3.org/Graphics/SVG/1.1/DTD/svg11.dtd">
<svg version="1.1" id="Capa_1" xmlns="http://www.w3.org/2000/svg" xmlns:xlink="http://www.w3.org/1999/xlink" x="0px" y="0px"
	 width="216px" height="146px" viewBox="0 0 216 146" enable-background="new 0 0 216 146" xml:space="preserve">
<path d="M164.949,18.82c-0.924-2.118-2.525-3.177-4.809-3.178H55.856c-2.281,0-3.884,1.06-4.807,3.178
	c-0.923,2.226-0.543,4.128,1.141,5.703l40.167,40.166v39.596c0,1.413,0.516,2.635,1.548,3.667l20.856,20.856
	c0.979,1.031,2.2,1.549,3.667,1.549c0.651,0,1.33-0.137,2.036-0.408c2.119-0.924,3.179-2.526,3.179-4.807V64.689l40.166-40.166
	C165.493,22.948,165.872,21.047,164.949,18.82z"/>
</svg>
