<?xml version="1.0" encoding="utf-8"?>
<!-- Generator: Adobe Illustrator 16.0.4, SVG Export Plug-In . SVG Version: 6.00 Build 0)  -->
<!DOCTYPE svg PUBLIC "-//W3C//DTD SVG 1.1//EN" "http://www.w3.org/Graphics/SVG/1.1/DTD/svg11.dtd">
<svg version="1.1" id="Capa_1" xmlns="http://www.w3.org/2000/svg" xmlns:xlink="http://www.w3.org/1999/xlink" x="0px" y="0px"
	 width="216px" height="146px" viewBox="0 0 216 146" enable-background="new 0 0 216 146" xml:space="preserve">
<path d="M174.809,47.903c-4.129-4.128-9.018-6.192-14.666-6.192h-30.471c1.195-3.259,1.793-6.735,1.793-10.429
	c0-6.626-2.214-11.758-6.641-15.398c-4.428-3.639-10.035-5.458-16.824-5.458c-2.064,0-3.952,0.475-5.663,1.426
	c-1.711,0.95-3.205,2.295-4.481,4.032c-1.276,1.738-2.376,3.449-3.299,5.133c-0.924,1.684-1.929,3.639-3.015,5.866
	c-1.086,2.228-1.982,3.911-2.688,5.052c-1.901,2.988-4.617,6.49-8.147,10.51c-0.109,0.163-0.489,0.625-1.141,1.385
	c-0.652,0.761-1.168,1.345-1.548,1.752c-0.38,0.407-0.936,0.991-1.67,1.752c-0.734,0.761-1.386,1.371-1.956,1.833
	c-0.57,0.462-1.181,0.95-1.833,1.467c-0.652,0.516-1.29,0.896-1.915,1.141c-0.624,0.244-1.208,0.366-1.751,0.366H45.429
	c-2.879,0-5.337,1.02-7.374,3.056C36.019,57.233,35,59.691,35,62.57v52.143c0,2.879,1.018,5.337,3.055,7.374
	c2.038,2.036,4.495,3.056,7.374,3.056h23.464c3.204,0,9.26,1.603,18.168,4.807c10.265,3.748,19.01,5.621,26.234,5.621
	c7.658,0,13.823-2.187,18.494-6.559s6.98-10.333,6.925-17.884c3.261-4.183,4.89-9.017,4.89-14.502c0-1.194-0.082-2.362-0.244-3.503
	c1.793-3.096,2.797-6.328,3.015-9.695h13.769c5.703,0,10.606-2.064,14.707-6.191c4.1-4.128,6.15-9.043,6.15-14.746
	C181,56.896,178.936,52.034,174.809,47.903z M54.309,113.166c-1.032,1.032-2.254,1.548-3.666,1.548
	c-1.413,0-2.635-0.516-3.667-1.548c-1.032-1.032-1.548-2.254-1.548-3.666s0.516-2.635,1.548-3.666
	c1.033-1.032,2.254-1.549,3.667-1.549c1.412,0,2.634,0.517,3.666,1.549c1.032,1.031,1.548,2.254,1.548,3.666
	S55.341,112.134,54.309,113.166z M167.475,69.907c-2.063,2.064-4.51,3.096-7.334,3.096h-26.967c0.814,0.923,1.493,2.214,2.036,3.87
	c0.544,1.656,0.815,3.164,0.815,4.521c0,3.748-1.439,6.979-4.318,9.694c0.979,1.738,1.467,3.613,1.467,5.622
	c0,2.01-0.476,4.006-1.426,5.988c-0.951,1.982-2.241,3.408-3.871,4.277c0.271,1.627,0.408,3.149,0.408,4.562
	c0,9.069-5.133,13.604-15.398,13.604c-4.4,0-9.275-0.869-14.625-2.606c-5.35-1.737-10.605-3.476-15.765-5.214
	s-9.695-2.607-13.606-2.607h-2.607V62.572h2.607c3.856,0,7.658-1.548,11.406-4.645c1.63-1.359,4.373-4.238,8.229-8.637
	c3.911-4.399,6.953-8.336,9.125-11.813c0.706-1.141,1.711-2.906,3.015-5.296c3.585-7.55,6.029-11.324,7.333-11.324
	c3.856,0,6.993,0.828,9.41,2.484c2.417,1.657,3.625,4.304,3.625,7.943c0,2.336-0.407,4.631-1.222,6.885s-1.711,4.101-2.688,5.54
	s-1.874,2.933-2.688,4.481c-0.815,1.548-1.222,2.865-1.222,3.951h46.929c2.715,0,5.133,1.046,7.252,3.137
	c2.117,2.092,3.176,4.521,3.176,7.292C170.57,65.396,169.539,67.84,167.475,69.907z"/>
</svg>
