<?xml version="1.0" encoding="utf-8"?>
<!-- Generator: Adobe Illustrator 16.0.4, SVG Export Plug-In . SVG Version: 6.00 Build 0)  -->
<!DOCTYPE svg PUBLIC "-//W3C//DTD SVG 1.1//EN" "http://www.w3.org/Graphics/SVG/1.1/DTD/svg11.dtd">
<svg version="1.1" id="Capa_1" xmlns="http://www.w3.org/2000/svg" xmlns:xlink="http://www.w3.org/1999/xlink" x="0px" y="0px"
	 width="216px" height="146px" viewBox="0 0 216 146" enable-background="new 0 0 216 146" xml:space="preserve">
<g>
	<path d="M79.646,100.253c2.444,3.502,5.527,6.83,9.247,9.979c3.721,3.15,7.481,5.865,11.284,8.147
		c3.803,2.282,8.148,4.535,13.036,6.763l-0.081-0.082l0.326,0.082c-3.64-6.953-5.459-13.035-5.459-18.25
		c0-2.77,0.666-5.391,1.997-7.861c1.33-2.473,3.068-4.687,5.214-6.641c2.146-1.955,4.522-3.91,7.129-5.865
		c2.606-1.956,5.213-4.061,7.821-6.314c2.607-2.254,4.984-4.645,7.129-7.17c2.146-2.526,3.884-5.581,5.215-9.166
		c1.33-3.585,1.996-7.496,1.996-11.732c0-5.323-0.747-10.32-2.24-14.991c-1.494-4.671-3.463-8.759-5.906-12.262
		c-2.444-3.503-5.526-6.83-9.248-9.979c-3.721-3.15-7.481-5.866-11.283-8.147c-3.803-2.281-8.148-4.535-13.036-6.762l0.081,0.082
		l-0.244-0.082C106.208,7.062,108,13.146,108,18.251c0,2.77-0.665,5.391-1.996,7.862c-1.331,2.471-3.069,4.684-5.214,6.64
		c-2.146,1.955-4.522,3.91-7.129,5.866c-2.608,1.955-5.215,4.06-7.822,6.314c-2.607,2.254-4.983,4.644-7.129,7.169
		c-2.145,2.526-3.883,5.581-5.214,9.166C72.166,64.853,71.5,68.764,71.5,73c0,5.323,0.745,10.32,2.239,14.991
		C75.233,92.662,77.202,96.751,79.646,100.253z"/>
	<path d="M164.583,136.346c-0.517-0.515-1.127-0.772-1.833-0.772H53.25c-0.706,0-1.317,0.257-1.833,0.772s-0.774,1.127-0.774,1.833
		v5.214c0,0.707,0.258,1.317,0.774,1.834c0.516,0.516,1.127,0.773,1.833,0.773h109.5c0.706,0,1.316-0.257,1.833-0.773
		c0.515-0.517,0.774-1.127,0.774-1.834v-5.214C165.357,137.473,165.1,136.861,164.583,136.346z"/>
</g>
</svg>
