<?xml version="1.0" encoding="utf-8"?>
<!-- Generator: Adobe Illustrator 16.0.4, SVG Export Plug-In . SVG Version: 6.00 Build 0)  -->
<!DOCTYPE svg PUBLIC "-//W3C//DTD SVG 1.1//EN" "http://www.w3.org/Graphics/SVG/1.1/DTD/svg11.dtd">
<svg version="1.1" id="Capa_1" xmlns="http://www.w3.org/2000/svg" xmlns:xlink="http://www.w3.org/1999/xlink" x="0px" y="0px"
	 width="216px" height="146px" viewBox="0 0 216 146" enable-background="new 0 0 216 146" xml:space="preserve">
<path d="M164.379,14.909c-0.436-0.38-0.979-0.57-1.63-0.57c-0.217,0-0.407,0.027-0.569,0.082l-36.5,7.821
	c-0.598,0.108-1.087,0.407-1.468,0.896c-0.38,0.488-0.569,1.031-0.569,1.629H99.038c0.761-1.684,1.141-3.422,1.141-5.214
	c0-3.585-1.276-6.654-3.829-9.207c-2.553-2.553-5.622-3.829-9.207-3.829s-6.654,1.276-9.207,3.829
	c-2.553,2.553-3.829,5.622-3.829,9.207c0,2.39,0.679,4.726,2.037,7.007c-3.042,0.977-5.988,2.403-8.84,4.277
	c-2.851,1.873-5.159,3.693-6.925,5.458c-1.765,1.765-3.408,3.667-4.929,5.703c-1.52,2.037-2.539,3.49-3.055,4.359
	c-0.515,0.869-0.91,1.575-1.181,2.118c-0.652,1.304-0.747,2.634-0.285,3.992c0.461,1.358,1.316,2.363,2.566,3.015
	c0.706,0.38,1.494,0.57,2.363,0.57c2.172,0,3.721-0.952,4.644-2.852c0.218-0.434,0.598-1.1,1.141-1.996s1.643-2.349,3.299-4.359
	c1.656-2.01,3.449-3.814,5.377-5.418c1.929-1.601,4.413-3.041,7.455-4.317s6.165-1.915,9.37-1.915h2.607v9.044
	c-5.377,1.629-9.763,4.738-13.158,9.328c-3.395,4.59-5.092,9.764-5.092,15.521v65.179c0,1.412,0.516,2.636,1.548,3.666
	c1.032,1.032,2.254,1.55,3.666,1.55h41.715c1.411,0,2.633-0.518,3.666-1.55c1.031-1.03,1.547-2.254,1.547-3.666V69.088
	c0-6.246-1.968-11.759-5.906-16.539c-3.938-4.779-8.922-7.794-14.95-9.043v-8.311h20.856c0,0.598,0.19,1.141,0.57,1.63
	c0.381,0.489,0.87,0.788,1.467,0.896l36.5,7.821c0.163,0.055,0.353,0.082,0.57,0.082c0.65,0,1.195-0.19,1.63-0.57
	c0.652-0.489,0.978-1.168,0.978-2.037V16.946C165.357,16.077,165.032,15.398,164.379,14.909z M90.81,23.22
	c-1.032,1.032-2.253,1.548-3.666,1.548s-2.635-0.516-3.667-1.548c-1.032-1.032-1.548-2.254-1.548-3.666
	c0-1.412,0.516-2.635,1.548-3.667c1.033-1.031,2.255-1.548,3.667-1.548s2.634,0.517,3.666,1.548
	c1.032,1.032,1.548,2.255,1.548,3.667C92.358,20.966,91.842,22.188,90.81,23.22z"/>
</svg>
