<?xml version="1.0" encoding="utf-8"?>
<!-- Generator: Adobe Illustrator 16.0.4, SVG Export Plug-In . SVG Version: 6.00 Build 0)  -->
<!DOCTYPE svg PUBLIC "-//W3C//DTD SVG 1.1//EN" "http://www.w3.org/Graphics/SVG/1.1/DTD/svg11.dtd">
<svg version="1.1" id="Capa_1" xmlns="http://www.w3.org/2000/svg" xmlns:xlink="http://www.w3.org/1999/xlink" x="0px" y="0px"
	 width="216px" height="146px" viewBox="0 0 216 146" enable-background="new 0 0 216 146" xml:space="preserve">
<g>
	<path d="M55.41,13.483c-2.037-2.036-4.495-3.055-7.373-3.055c-2.879,0-5.337,1.02-7.374,3.055
		c-2.036,2.037-3.055,4.495-3.055,7.374c0,3.91,1.737,6.898,5.214,8.962v103.145c0,0.706,0.257,1.317,0.774,1.833
		c0.516,0.516,1.127,0.774,1.833,0.774h5.214c0.706,0,1.317-0.257,1.833-0.774c0.516-0.516,0.774-1.127,0.774-1.833V29.819
		c3.477-2.065,5.214-5.052,5.214-8.962C58.464,17.979,57.446,15.521,55.41,13.483z"/>
	<path d="M176.846,22.406c-1.033-1.032-2.256-1.548-3.668-1.548c-0.705,0-2.185,0.57-4.439,1.711
		c-2.254,1.141-4.645,2.417-7.17,3.829c-2.524,1.412-5.514,2.688-8.961,3.829c-3.449,1.141-6.64,1.711-9.573,1.711
		c-2.716,0-5.106-0.516-7.171-1.548c-6.844-3.205-12.79-5.595-17.842-7.17c-5.051-1.575-10.482-2.362-16.294-2.362
		c-10.049,0-21.482,3.258-34.3,9.776c-3.151,1.575-5.296,2.743-6.437,3.503c-1.684,1.25-2.526,2.743-2.526,4.481v60.453
		c0,1.412,0.517,2.635,1.549,3.666c1.031,1.032,2.254,1.548,3.666,1.548c0.869,0,1.764-0.244,2.688-0.732
		c14.774-7.931,27.375-11.896,37.804-11.896c3.964,0,7.835,0.598,11.608,1.792c3.775,1.195,6.912,2.499,9.41,3.911
		c2.5,1.411,5.445,2.716,8.84,3.911c3.396,1.193,6.75,1.791,10.062,1.791c8.365,0,18.387-3.149,30.064-9.45
		c1.467-0.761,2.539-1.507,3.218-2.24s1.019-1.778,1.019-3.137V26.071C178.393,24.659,177.877,23.438,176.846,22.406z"/>
</g>
</svg>
