<?xml version="1.0" encoding="utf-8"?>
<!-- Generator: Adobe Illustrator 16.0.4, SVG Export Plug-In . SVG Version: 6.00 Build 0)  -->
<!DOCTYPE svg PUBLIC "-//W3C//DTD SVG 1.1//EN" "http://www.w3.org/Graphics/SVG/1.1/DTD/svg11.dtd">
<svg version="1.1" id="Capa_1" xmlns="http://www.w3.org/2000/svg" xmlns:xlink="http://www.w3.org/1999/xlink" x="0px" y="0px"
	 width="216px" height="146px" viewBox="0 0 216 146" enable-background="new 0 0 216 146" xml:space="preserve">
<path d="M163.686,17.313c-4.588-4.589-10.115-6.884-16.578-6.884H68.893c-6.463,0-11.99,2.295-16.58,6.884
	c-4.589,4.59-6.884,10.117-6.884,16.58v78.214c0,6.463,2.295,11.99,6.884,16.58c4.59,4.59,10.117,6.885,16.58,6.885h78.214
	c6.463,0,11.99-2.295,16.578-6.885c4.59-4.59,6.885-10.117,6.885-16.58V33.893C170.57,27.43,168.275,21.903,163.686,17.313z
	 M97.246,85.221c-3.368,3.368-7.441,5.053-12.221,5.053c-4.78,0-8.853-1.685-12.221-5.053c-3.367-3.367-5.051-7.441-5.051-12.221
	c0-4.781,1.683-8.854,5.051-12.221c3.367-3.368,7.441-5.052,12.221-5.052c4.78,0,8.853,1.684,12.221,5.052
	c3.367,3.367,5.051,7.44,5.051,12.221C102.297,77.779,100.613,81.854,97.246,85.221z M143.195,85.221
	c-3.366,3.368-7.44,5.053-12.221,5.053c-4.779,0-8.854-1.685-12.222-5.053c-3.366-3.367-5.051-7.441-5.051-12.221
	c0-4.781,1.685-8.854,5.051-12.221c3.368-3.368,7.442-5.052,12.222-5.052c4.78,0,8.854,1.684,12.221,5.052
	c3.367,3.367,5.053,7.44,5.053,12.221C148.248,77.779,146.562,81.854,143.195,85.221z"/>
</svg>
