<?xml version="1.0" encoding="utf-8"?>
<!-- Generator: Adobe Illustrator 16.0.4, SVG Export Plug-In . SVG Version: 6.00 Build 0)  -->
<!DOCTYPE svg PUBLIC "-//W3C//DTD SVG 1.1//EN" "http://www.w3.org/Graphics/SVG/1.1/DTD/svg11.dtd">
<svg version="1.1" id="Capa_1" xmlns="http://www.w3.org/2000/svg" xmlns:xlink="http://www.w3.org/1999/xlink" x="0px" y="0px"
	 width="216px" height="146px" viewBox="0 0 216 146" enable-background="new 0 0 216 146" xml:space="preserve">
<path d="M179.369,79.557c-4.562-5.676-10.348-9.329-17.354-10.958c2.228-3.422,3.34-7.17,3.34-11.243
	c0-5.758-2.037-10.673-6.11-14.747c-4.073-4.073-8.988-6.11-14.746-6.11c-5.214,0-9.722,1.684-13.524,5.052
	c-3.203-7.713-8.297-13.959-15.275-18.739c-6.98-4.779-14.761-7.17-23.343-7.17c-11.514,0-21.346,4.075-29.493,12.222
	c-8.148,8.146-12.221,17.978-12.221,29.493c0,0.815,0.055,1.982,0.163,3.503c-6.3,2.933-11.379,7.373-15.235,13.322
	c-3.856,5.946-5.785,12.506-5.785,19.676c0,10.048,3.572,18.643,10.714,25.785c7.142,7.144,15.738,10.715,25.786,10.715h88.645
	c8.635,0,16.008-3.057,22.119-9.166c6.11-6.11,9.166-13.483,9.166-22.12C186.215,91.739,183.932,85.232,179.369,79.557z"/>
</svg>
