<?xml version="1.0" encoding="utf-8"?>
<!-- Generator: Adobe Illustrator 16.0.4, SVG Export Plug-In . SVG Version: 6.00 Build 0)  -->
<!DOCTYPE svg PUBLIC "-//W3C//DTD SVG 1.1//EN" "http://www.w3.org/Graphics/SVG/1.1/DTD/svg11.dtd">
<svg version="1.1" id="Capa_1" xmlns="http://www.w3.org/2000/svg" xmlns:xlink="http://www.w3.org/1999/xlink" x="0px" y="0px"
	 width="216px" height="146px" viewBox="0 0 216 146" enable-background="new 0 0 216 146" xml:space="preserve">
<path d="M170.408,41.876c-3.584-3.585-7.875-5.377-12.873-5.377h-54.75v-2.607c0-4.997-1.793-9.288-5.377-12.872
	c-3.585-3.585-7.876-5.378-12.873-5.378H58.464c-4.998,0-9.289,1.793-12.873,5.378c-3.585,3.584-5.377,7.875-5.377,12.872v78.215
	c0,4.996,1.792,9.287,5.377,12.871c3.585,3.586,7.876,5.379,12.873,5.379h99.071c4.998,0,9.289-1.793,12.873-5.379
	c3.586-3.584,5.377-7.875,5.377-12.871V54.75C175.785,49.753,173.994,45.462,170.408,41.876z"/>
</svg>
