<?xml version="1.0" encoding="utf-8"?>
<!-- Generator: Adobe Illustrator 16.0.4, SVG Export Plug-In . SVG Version: 6.00 Build 0)  -->
<!DOCTYPE svg PUBLIC "-//W3C//DTD SVG 1.1//EN" "http://www.w3.org/Graphics/SVG/1.1/DTD/svg11.dtd">
<svg version="1.1" id="Capa_1" xmlns="http://www.w3.org/2000/svg" xmlns:xlink="http://www.w3.org/1999/xlink" x="0px" y="0px"
	 width="216px" height="146px" viewBox="0 0 216 146" enable-background="new 0 0 216 146" xml:space="preserve">
<path d="M170.408,41.876c-3.584-3.585-7.875-5.377-12.873-5.377h-54.75v-2.607c0-4.997-1.793-9.288-5.377-12.872
	c-3.585-3.585-7.876-5.378-12.873-5.378H58.464c-4.998,0-9.289,1.793-12.873,5.378c-3.585,3.584-5.377,7.875-5.377,12.872v78.215
	c0,4.996,1.792,9.287,5.377,12.871c3.585,3.586,7.876,5.379,12.873,5.379h99.071c4.998,0,9.289-1.793,12.873-5.379
	c3.586-3.584,5.377-7.875,5.377-12.871V54.75C175.785,49.753,173.994,45.462,170.408,41.876z M165.357,112.107
	c0,2.172-0.76,4.021-2.281,5.541c-1.521,1.52-3.367,2.28-5.541,2.28H58.464c-2.173,0-4.019-0.76-5.54-2.28s-2.281-3.369-2.281-5.541
	V33.893c0-2.172,0.76-4.019,2.281-5.54c1.52-1.52,3.367-2.281,5.54-2.281h26.072c2.173,0,4.02,0.76,5.541,2.281
	c1.52,1.521,2.281,3.368,2.281,5.54v5.215c0,2.173,0.76,4.019,2.281,5.54c1.52,1.52,3.367,2.281,5.54,2.281h57.356
	c2.174,0,4.02,0.761,5.541,2.281s2.281,3.367,2.281,5.54V112.107z"/>
</svg>
