<?xml version="1.0" encoding="utf-8"?>
<!-- Generator: Adobe Illustrator 16.0.4, SVG Export Plug-In . SVG Version: 6.00 Build 0)  -->
<!DOCTYPE svg PUBLIC "-//W3C//DTD SVG 1.1//EN" "http://www.w3.org/Graphics/SVG/1.1/DTD/svg11.dtd">
<svg version="1.1" id="Capa_1" xmlns="http://www.w3.org/2000/svg" xmlns:xlink="http://www.w3.org/1999/xlink" x="0px" y="0px"
	 width="216px" height="146px" viewBox="0 0 216 146" enable-background="new 0 0 216 146" xml:space="preserve">
<g>
	<path d="M72.763,71.655c5.594-2.579,10.945-3.869,16.05-3.869H156.6V54.75c0-4.997-1.793-9.29-5.379-12.875
		c-3.585-3.585-7.875-5.377-12.873-5.377H94.027v-2.607c0-4.997-1.792-9.288-5.377-12.872c-3.585-3.585-7.876-5.378-12.873-5.378
		H49.706c-4.997,0-9.288,1.793-12.873,5.378c-3.585,3.584-5.377,7.875-5.377,12.872v78.214c0,0.218,0.014,0.558,0.041,1.02
		c0.027,0.461,0.041,0.801,0.041,1.018l0.407-0.487l27.457-32.265C62.715,77.48,67.169,74.234,72.763,71.655z"/>
	<path d="M182.385,79.273c-1.439-0.707-3.082-1.061-4.929-1.061H88.813c-3.585,0-7.482,0.965-11.691,2.893
		c-4.209,1.93-7.482,4.277-9.817,7.049L39.93,120.417c-1.684,1.901-2.526,3.694-2.526,5.378c0,1.629,0.72,2.797,2.159,3.503
		s3.082,1.06,4.929,1.06h88.645c3.584,0,7.48-0.965,11.69-2.893c4.209-1.928,7.481-4.277,9.817-7.048l27.375-32.263
		c1.683-1.901,2.524-3.693,2.524-5.379C184.544,81.146,183.825,79.979,182.385,79.273z"/>
</g>
</svg>
