<?xml version="1.0" encoding="utf-8"?>
<!-- Generator: Adobe Illustrator 16.0.4, SVG Export Plug-In . SVG Version: 6.00 Build 0)  -->
<!DOCTYPE svg PUBLIC "-//W3C//DTD SVG 1.1//EN" "http://www.w3.org/Graphics/SVG/1.1/DTD/svg11.dtd">
<svg version="1.1" id="Capa_1" xmlns="http://www.w3.org/2000/svg" xmlns:xlink="http://www.w3.org/1999/xlink" x="0px" y="0px"
	 width="216px" height="146px" viewBox="0 0 216 146" enable-background="new 0 0 216 146" xml:space="preserve">
<g>
	<path d="M148.412,89.048c-1.087-0.434-2.038-0.243-2.852,0.57l-5.215,5.215c-0.488,0.488-0.734,1.086-0.734,1.792v10.266
		c0,3.586-1.274,6.654-3.827,9.207c-2.554,2.553-5.622,3.829-9.207,3.829H58.791c-3.585,0-6.654-1.276-9.207-3.829
		c-2.553-2.553-3.829-5.621-3.829-9.207V39.106c0-3.585,1.276-6.654,3.829-9.207c2.553-2.553,5.622-3.829,9.207-3.829h67.787
		c1.195,0,2.417,0.163,3.666,0.489c0.979,0.326,1.847,0.109,2.607-0.652l3.991-3.992c0.652-0.651,0.896-1.439,0.733-2.362
		c-0.163-0.869-0.652-1.494-1.467-1.874c-2.933-1.356-6.11-2.037-9.532-2.037H58.791c-6.463,0-11.99,2.295-16.58,6.885
		c-4.589,4.59-6.884,10.116-6.884,16.58v67.786c0,6.463,2.295,11.989,6.884,16.579c4.59,4.591,10.117,6.886,16.58,6.886h67.785
		c6.463,0,11.99-2.295,16.58-6.886c4.59-4.59,6.885-10.116,6.885-16.579V91.413C150.041,90.271,149.497,89.484,148.412,89.048z"/>
	<path d="M87.469,86.036V109.5h23.465l54.75-54.75l-23.465-23.464L87.469,86.036z M107.674,101.679L107.674,101.679l-4.563-0.001
		v-7.82H95.29v-4.562l9.451-9.451l12.384,12.385L107.674,101.679z M143.441,45.706l-28.517,28.516
		c-0.923,0.925-1.819,0.951-2.688,0.082c-0.869-0.869-0.842-1.765,0.082-2.688L140.834,43.1c0.923-0.924,1.818-0.951,2.688-0.082
		C144.393,43.887,144.363,44.783,143.441,45.706z"/>
	<path d="M178.393,30.96L166.01,18.576c-1.521-1.521-3.367-2.281-5.541-2.281c-2.172,0-4.019,0.76-5.539,2.281l-7.496,7.495
		l23.465,23.465l7.494-7.496c1.521-1.52,2.281-3.367,2.281-5.54C180.674,34.327,179.914,32.481,178.393,30.96z"/>
</g>
</svg>
