<?xml version="1.0" encoding="utf-8"?>
<!-- Generator: Adobe Illustrator 16.0.4, SVG Export Plug-In . SVG Version: 6.00 Build 0)  -->
<!DOCTYPE svg PUBLIC "-//W3C//DTD SVG 1.1//EN" "http://www.w3.org/Graphics/SVG/1.1/DTD/svg11.dtd">
<svg version="1.1" id="Capa_1" xmlns="http://www.w3.org/2000/svg" xmlns:xlink="http://www.w3.org/1999/xlink" x="0px" y="0px"
	 width="216px" height="146px" viewBox="0 0 216 146" enable-background="new 0 0 216 146" xml:space="preserve">
<path d="M175.297,128.809c-3.041-1.141-5.838-1.873-8.391-2.199c-2.553-0.219-4.428-0.842-5.623-1.874
	c-0.706-0.436-1.657-1.983-2.852-4.645c-2.228-4.454-3.992-8.501-5.295-12.14c-2.119-5.758-3.886-10.212-5.298-13.362
	c-3.095-7.224-5.702-13.606-7.819-19.146c-1.142-2.987-4.508-11.053-10.104-24.198l-16.701-39.106l-0.896-1.711H108h-6.111
	L79.077,69.414l-19.309,50.188c-1.521,2.824-2.825,4.672-3.911,5.541c-1.14,0.813-4.128,1.656-8.962,2.524
	c-3.151,0.599-5.323,1.087-6.518,1.467l-0.163,6.438h1.711c4.671,0,9.207-0.38,13.606-1.14l3.911-0.651
	c15.372,1.086,24.85,1.629,28.434,1.629c0.109-0.543,0.163-1.276,0.163-2.199c0-1.63-0.027-3.205-0.082-4.726
	c-1.14-0.163-2.24-0.326-3.299-0.489c-1.059-0.163-1.874-0.299-2.444-0.407c-0.57-0.107-0.937-0.162-1.1-0.162
	c-4.183-0.598-6.98-1.467-8.392-2.607c-0.923-0.651-1.385-1.819-1.385-3.504c0-1.086,0.625-3.366,1.874-6.844
	c4.074-11.351,6.898-18.793,8.473-22.322l36.664,0.162l7.496,18.576l3.828,9.287c0.326,0.924,0.488,1.793,0.488,2.607
	s-0.325,1.548-0.977,2.199c-0.652,0.544-2.498,1.168-5.541,1.873l-10.674,2.281c-0.218,1.793-0.324,3.911-0.324,6.355l4.725-0.163
	l16.295-0.896c3.041-0.108,6.709-0.164,11-0.164c5.212,0,10.345,0.218,15.398,0.652c6.082,0.434,11.297,0.651,15.643,0.651
	c0.055-0.651,0.08-1.357,0.08-2.118C175.785,132.475,175.623,130.928,175.297,128.809z M111.91,82.531
	c-0.76,0-2.186-0.014-4.277-0.041c-2.091-0.025-5.322-0.066-9.695-0.121c-4.372-0.055-8.541-0.108-12.506-0.163l13.85-36.663
	c2.119,4.291,4.617,10.021,7.495,17.191c3.26,7.93,5.758,14.475,7.497,19.635L111.91,82.531z"/>
</svg>
