<?xml version="1.0" encoding="utf-8"?>
<!-- Generator: Adobe Illustrator 16.0.4, SVG Export Plug-In . SVG Version: 6.00 Build 0)  -->
<!DOCTYPE svg PUBLIC "-//W3C//DTD SVG 1.1//EN" "http://www.w3.org/Graphics/SVG/1.1/DTD/svg11.dtd">
<svg version="1.1" id="Capa_1" xmlns="http://www.w3.org/2000/svg" xmlns:xlink="http://www.w3.org/1999/xlink" x="0px" y="0px"
	 width="216px" height="146px" viewBox="0 0 216 146" enable-background="new 0 0 216 146" xml:space="preserve">
<g>
	<path d="M97.574,0.001c-1.413,0-2.635,0.516-3.667,1.548c-1.032,1.032-1.548,2.254-1.548,3.666v33.893
		c0,1.412-0.516,2.634-1.548,3.666c-1.033,1.032-2.254,1.548-3.667,1.548s-2.635-0.516-3.667-1.548
		c-1.032-1.032-1.548-2.254-1.548-3.666V5.215c0-1.412-0.516-2.634-1.548-3.666c-1.033-1.032-2.255-1.548-3.667-1.548
		s-2.634,0.516-3.666,1.548C72.016,2.581,71.5,3.803,71.5,5.215v33.893c0,1.412-0.516,2.634-1.548,3.666
		c-1.032,1.032-2.254,1.548-3.666,1.548c-1.413,0-2.635-0.516-3.667-1.548c-1.032-1.032-1.548-2.254-1.548-3.666V5.215
		c0-1.412-0.516-2.634-1.548-3.666c-1.032-1.032-2.253-1.548-3.666-1.548s-2.635,0.516-3.667,1.548
		c-1.032,1.032-1.548,2.254-1.548,3.666v52.143c0,3.313,0.963,6.327,2.892,9.043c1.929,2.716,4.441,4.617,7.537,5.703v63.468
		c0,2.824,1.032,5.267,3.096,7.332C66.231,144.969,68.676,146,71.5,146h10.428c2.825,0,5.269-1.033,7.333-3.098
		c2.064-2.063,3.096-4.508,3.096-7.332V72.103c3.096-1.086,5.607-2.988,7.536-5.703c1.929-2.715,2.893-5.73,2.893-9.043V5.214
		c0-1.412-0.516-2.634-1.546-3.665C100.208,0.517,98.987,0.001,97.574,0.001z"/>
	<path d="M163.809,1.548C162.777,0.516,161.555,0,160.143,0h-20.857c-7.17,0-13.307,2.554-18.412,7.659s-7.659,11.243-7.659,18.413
		V91.25c0,0.707,0.259,1.317,0.774,1.834c0.516,0.516,1.127,0.773,1.832,0.773h18.25v41.715c0,2.824,1.033,5.267,3.097,7.332
		c2.063,2.064,4.509,3.096,7.333,3.096h10.427c2.825,0,5.269-1.031,7.333-3.096s3.098-4.508,3.098-7.332V5.214
		C165.357,3.802,164.841,2.58,163.809,1.548z"/>
</g>
</svg>
