<?xml version="1.0" encoding="utf-8"?>
<!-- Generator: Adobe Illustrator 16.0.4, SVG Export Plug-In . SVG Version: 6.00 Build 0)  -->
<!DOCTYPE svg PUBLIC "-//W3C//DTD SVG 1.1//EN" "http://www.w3.org/Graphics/SVG/1.1/DTD/svg11.dtd">
<svg version="1.1" id="Capa_1" xmlns="http://www.w3.org/2000/svg" xmlns:xlink="http://www.w3.org/1999/xlink" x="0px" y="0px"
	 width="216px" height="146px" viewBox="0 0 216 146" enable-background="new 0 0 216 146" xml:space="preserve">
<g>
	<path d="M92.357,15.642H50.643c-2.825,0-5.269,1.033-7.333,3.097c-2.064,2.062-3.096,4.508-3.096,7.332v31.286
		c0,2.824,1.032,5.269,3.096,7.332c2.064,2.065,4.508,3.097,7.333,3.097h41.714c2.825,0,5.269-1.033,7.333-3.097
		c2.064-2.063,3.096-4.508,3.096-7.332V26.071c0-2.824-1.032-5.269-3.096-7.332C97.626,16.674,95.181,15.642,92.357,15.642z"/>
	<path d="M92.357,78.214H50.643c-2.825,0-5.269,1.033-7.333,3.097s-3.096,4.508-3.096,7.332v31.286c0,2.824,1.032,5.27,3.096,7.332
		c2.064,2.065,4.508,3.097,7.333,3.097h41.714c2.825,0,5.269-1.032,7.333-3.097c2.064-2.062,3.096-4.508,3.096-7.332V88.643
		c0-2.824-1.032-5.269-3.096-7.332C97.626,79.246,95.181,78.214,92.357,78.214z"/>
	<path d="M172.689,18.739c-2.062-2.065-4.508-3.097-7.332-3.097h-41.715c-2.824,0-5.269,1.033-7.332,3.097
		c-2.065,2.062-3.097,4.508-3.097,7.332v31.286c0,2.824,1.032,5.269,3.097,7.332c2.063,2.065,4.508,3.097,7.332,3.097h41.715
		c2.824,0,5.27-1.033,7.332-3.097c2.064-2.063,3.096-4.508,3.096-7.332V26.071C175.785,23.247,174.754,20.803,172.689,18.739z"/>
	<path d="M165.357,78.214h-41.715c-2.824,0-5.269,1.033-7.332,3.097c-2.065,2.063-3.097,4.508-3.097,7.332v31.286
		c0,2.824,1.032,5.27,3.097,7.332c2.063,2.065,4.508,3.097,7.332,3.097h41.715c2.824,0,5.27-1.032,7.332-3.097
		c2.064-2.062,3.096-4.508,3.096-7.332V88.643c0-2.824-1.031-5.269-3.096-7.332C170.627,79.246,168.182,78.214,165.357,78.214z"/>
</g>
</svg>
