<?xml version="1.0" encoding="utf-8"?>
<!-- Generator: Adobe Illustrator 16.0.4, SVG Export Plug-In . SVG Version: 6.00 Build 0)  -->
<!DOCTYPE svg PUBLIC "-//W3C//DTD SVG 1.1//EN" "http://www.w3.org/Graphics/SVG/1.1/DTD/svg11.dtd">
<svg version="1.1" id="Capa_1" xmlns="http://www.w3.org/2000/svg" xmlns:xlink="http://www.w3.org/1999/xlink" x="0px" y="0px"
	 width="216px" height="146px" viewBox="0 0 216 146" enable-background="new 0 0 216 146" xml:space="preserve">
<g>
	<path d="M86.653,58.743c-0.761-0.815-1.738-1.223-2.933-1.223c-1.196,0-2.146,0.409-2.852,1.223l-9.858,9.776
		c-0.761,0.761-1.141,1.711-1.141,2.852c0,1.141,0.381,2.119,1.141,2.934l33.16,33.241c0.652,0.651,1.466,1.032,2.444,1.142
		c0.109,0.054,0.272,0.08,0.489,0.08c1.086,0,2.09-0.408,3.014-1.222l59.476-59.476c0.761-0.816,1.142-1.793,1.142-2.934
		c0-1.141-0.381-2.119-1.142-2.933l-9.776-9.777c-0.814-0.815-1.793-1.222-2.934-1.222s-2.119,0.408-2.933,1.222l-46.766,46.848
		L86.653,58.743z"/>
	<path d="M165.928,62.326l-50.432,50.432c-2.119,2.227-4.807,3.342-8.066,3.342h-2.281l-0.489-0.326
		c-2.01-0.49-3.829-1.494-5.459-3.016l-33.078-33.24c-2.281-2.281-3.422-4.998-3.422-8.147c0-3.204,1.141-5.892,3.422-8.065
		l9.777-9.858c2.227-2.227,4.942-3.341,8.147-3.341c3.096,0,5.785,1.141,8.066,3.422l15.317,15.317l32.425-32.508l-21.59-21.591
		c-2.879-2.878-6.355-4.317-10.429-4.317c-4.074,0-7.55,1.439-10.428,4.317L49.584,62.571C46.705,65.45,45.266,68.926,45.266,73
		s1.44,7.55,4.318,10.429l47.825,47.824c2.878,2.879,6.368,4.317,10.469,4.317c4.101,0,7.563-1.438,10.388-4.317l47.824-47.824
		c2.879-2.879,4.318-6.355,4.318-10.43c0-4.075-1.439-7.55-4.318-10.429L165.928,62.326z"/>
</g>
</svg>
