<?xml version="1.0" encoding="utf-8"?>
<!-- Generator: Adobe Illustrator 16.0.4, SVG Export Plug-In . SVG Version: 6.00 Build 0)  -->
<!DOCTYPE svg PUBLIC "-//W3C//DTD SVG 1.1//EN" "http://www.w3.org/Graphics/SVG/1.1/DTD/svg11.dtd">
<svg version="1.1" id="Capa_1" xmlns="http://www.w3.org/2000/svg" xmlns:xlink="http://www.w3.org/1999/xlink" x="0px" y="0px"
	 width="216px" height="146px" viewBox="0 0 216 146" enable-background="new 0 0 216 146" xml:space="preserve">
<g>
	<path d="M162.18,41.592c-5.595-9.586-13.185-17.176-22.771-22.771c-9.588-5.595-20.055-8.392-31.408-8.392
		c-11.352,0-21.822,2.797-31.408,8.392c-9.587,5.594-17.177,13.184-22.772,22.771C48.225,51.179,45.428,61.649,45.428,73
		c0,11.352,2.798,21.82,8.392,31.408c5.595,9.585,13.185,17.176,22.772,22.771c9.587,5.595,20.056,8.392,31.408,8.392
		c11.352,0,21.822-2.797,31.408-8.392c9.586-5.594,17.176-13.185,22.771-22.771c5.594-9.587,8.391-20.057,8.391-31.408
		C170.57,61.648,167.773,51.178,162.18,41.592z M155.988,93.246c-2.77,6.436-6.477,11.976-11.121,16.62
		c-4.643,4.644-10.184,8.351-16.62,11.12c-6.437,2.771-13.185,4.156-20.246,4.156c-7.061,0-13.809-1.385-20.246-4.156
		c-6.436-2.769-11.977-6.476-16.621-11.12c-4.643-4.644-8.35-10.183-11.121-16.62c-2.77-6.436-4.155-13.186-4.155-20.246
		c0-7.061,1.385-13.809,4.155-20.246c2.77-6.436,6.477-11.976,11.121-16.621c4.644-4.643,10.185-8.35,16.621-11.121
		c6.436-2.769,13.185-4.154,20.246-4.154c7.06,0,13.81,1.384,20.246,4.154s11.976,6.477,16.62,11.121
		c4.644,4.644,8.351,10.184,11.121,16.621c2.77,6.436,4.156,13.184,4.156,20.246C160.145,80.061,158.758,86.811,155.988,93.246z"/>
	<path d="M126.577,84.243c-5.485-4.019-11.679-6.029-18.576-6.029c-6.898,0-13.09,2.009-18.576,6.029
		c-5.486,4.02-9.234,9.315-11.243,15.888c-0.434,1.357-0.326,2.676,0.326,3.951c0.652,1.275,1.683,2.131,3.096,2.566
		c1.358,0.435,2.675,0.326,3.951-0.326c1.276-0.652,2.131-1.684,2.566-3.096c1.358-4.347,3.87-7.863,7.536-10.552
		c3.666-2.688,7.78-4.032,12.343-4.032c4.562,0,8.678,1.345,12.343,4.032c3.667,2.689,6.179,6.205,7.537,10.552
		c0.433,1.412,1.302,2.444,2.606,3.096c1.304,0.652,2.635,0.761,3.992,0.326c1.358-0.435,2.363-1.291,3.015-2.566
		s0.761-2.594,0.325-3.951C135.811,93.559,132.062,88.262,126.577,84.243z"/>
	<path d="M87.143,62.572c2.878,0,5.336-1.02,7.373-3.056c2.037-2.036,3.056-4.494,3.056-7.373s-1.019-5.336-3.056-7.373
		s-4.495-3.056-7.373-3.056c-2.879,0-5.337,1.019-7.374,3.056c-2.036,2.037-3.055,4.494-3.055,7.373
		c0,2.879,1.018,5.337,3.055,7.373C81.807,61.553,84.264,62.572,87.143,62.572z"/>
	<path d="M128.857,41.714c-2.879,0-5.338,1.019-7.375,3.056c-2.035,2.037-3.055,4.494-3.055,7.373c0,2.879,1.02,5.337,3.055,7.373
		c2.037,2.037,4.496,3.056,7.375,3.056c2.877,0,5.336-1.02,7.373-3.056c2.037-2.036,3.056-4.494,3.056-7.373
		s-1.019-5.336-3.056-7.373S131.734,41.714,128.857,41.714z"/>
</g>
</svg>
