<?xml version="1.0" encoding="utf-8"?>
<!-- Generator: Adobe Illustrator 16.0.4, SVG Export Plug-In . SVG Version: 6.00 Build 0)  -->
<!DOCTYPE svg PUBLIC "-//W3C//DTD SVG 1.1//EN" "http://www.w3.org/Graphics/SVG/1.1/DTD/svg11.dtd">
<svg version="1.1" id="Capa_1" xmlns="http://www.w3.org/2000/svg" xmlns:xlink="http://www.w3.org/1999/xlink" x="0px" y="0px"
	 width="216px" height="146px" viewBox="0 0 216 146" enable-background="new 0 0 216 146" xml:space="preserve">
<path d="M161.691,55.809c1.033,1.032,2.254,1.549,3.666,1.549c0.651,0,1.332-0.136,2.037-0.408c2.119-0.923,3.178-2.526,3.178-4.807
	v-36.5c0-1.412-0.516-2.634-1.549-3.666c-1.031-1.032-2.254-1.548-3.666-1.548h-36.5c-2.281,0-3.883,1.086-4.808,3.259
	c-0.922,2.118-0.543,3.992,1.142,5.621l11.731,11.732L108,59.964L79.077,31.04l11.732-11.732c1.684-1.629,2.064-3.503,1.141-5.621
	c-0.924-2.173-2.526-3.259-4.807-3.259h-36.5c-1.413,0-2.635,0.516-3.667,1.548c-1.032,1.032-1.548,2.254-1.548,3.666v36.5
	c0,2.282,1.087,3.884,3.259,4.807c0.652,0.271,1.304,0.408,1.956,0.408c1.412,0,2.634-0.517,3.666-1.549l11.732-11.731L94.964,73
	l-28.923,28.922L54.309,90.189c-1.63-1.684-3.503-2.063-5.622-1.141c-2.173,0.924-3.259,2.527-3.259,4.809v36.5
	c0,1.412,0.516,2.634,1.548,3.666c1.033,1.031,2.255,1.547,3.667,1.547h36.5c2.282,0,3.884-1.086,4.807-3.258
	c0.923-2.119,0.543-3.992-1.141-5.623l-11.732-11.73L108,86.035l28.922,28.925l-11.732,11.731c-1.684,1.629-2.063,3.504-1.141,5.621
	c0.924,2.174,2.527,3.26,4.809,3.26h36.5c1.412,0,2.634-0.517,3.666-1.549c1.031-1.031,1.547-2.254,1.547-3.666v-36.5
	c0-2.281-1.059-3.884-3.178-4.808c-2.226-0.922-4.127-0.543-5.703,1.142l-11.73,11.731L121.036,73l28.923-28.923L161.691,55.809z"/>
</svg>
