<?xml version="1.0" encoding="utf-8"?>
<!-- Generator: Adobe Illustrator 16.0.4, SVG Export Plug-In . SVG Version: 6.00 Build 0)  -->
<!DOCTYPE svg PUBLIC "-//W3C//DTD SVG 1.1//EN" "http://www.w3.org/Graphics/SVG/1.1/DTD/svg11.dtd">
<svg version="1.1" id="Capa_1" xmlns="http://www.w3.org/2000/svg" xmlns:xlink="http://www.w3.org/1999/xlink" x="0px" y="0px"
	 width="216px" height="146px" viewBox="0 0 216 146" enable-background="new 0 0 216 146" xml:space="preserve">
<path d="M173.993,43.507c-8.147-8.147-17.978-12.221-29.493-12.221h-73c-11.514,0-21.347,4.074-29.493,12.221
	C33.859,51.654,29.785,61.485,29.785,73c0,11.516,4.075,21.346,12.222,29.493c8.146,8.147,17.978,12.222,29.493,12.222
	c10.429,0,19.607-3.477,27.538-10.43h17.924c7.931,6.953,17.108,10.43,27.538,10.43c11.514,0,21.346-4.074,29.493-12.222
	S186.215,84.516,186.215,73C186.215,61.485,182.141,51.654,173.993,43.507z M97.571,78.215c0,0.76-0.244,1.385-0.733,1.873
	c-0.489,0.489-1.113,0.733-1.874,0.733H79.321v15.644c0,0.76-0.244,1.385-0.733,1.873c-0.489,0.489-1.113,0.733-1.874,0.733H66.285
	c-0.76,0-1.385-0.244-1.874-0.733c-0.488-0.488-0.732-1.113-0.732-1.873V80.821H48.035c-0.76,0-1.385-0.244-1.874-0.733
	c-0.488-0.488-0.732-1.113-0.732-1.873V67.786c0-0.76,0.244-1.385,0.732-1.874c0.489-0.489,1.114-0.733,1.874-0.733h15.644V49.536
	c0-0.76,0.244-1.385,0.732-1.874c0.489-0.489,1.114-0.733,1.874-0.733h10.429c0.761,0,1.385,0.244,1.874,0.733
	c0.489,0.489,0.733,1.114,0.733,1.874v15.643h15.643c0.761,0,1.385,0.244,1.874,0.733c0.489,0.489,0.733,1.114,0.733,1.874V78.215z
	 M141.445,90.802c-2.037,2.037-4.495,3.056-7.375,3.056c-2.877,0-5.336-1.019-7.372-3.056c-2.037-2.036-3.056-4.495-3.056-7.373
	c0-2.879,1.019-5.337,3.056-7.374C128.734,74.02,131.193,73,134.07,73c2.88,0,5.338,1.02,7.375,3.055
	c2.035,2.037,3.055,4.495,3.055,7.374C144.5,86.307,143.48,88.766,141.445,90.802z M162.301,69.945
	c-2.035,2.036-4.494,3.055-7.373,3.055s-5.337-1.018-7.373-3.055c-2.037-2.038-3.056-4.495-3.056-7.374
	c0-2.878,1.019-5.336,3.056-7.373c2.036-2.037,4.494-3.055,7.373-3.055s5.338,1.018,7.373,3.055
	c2.037,2.037,3.057,4.495,3.057,7.373C165.357,65.45,164.339,67.908,162.301,69.945z"/>
</svg>
