<?xml version="1.0" encoding="utf-8"?>
<!-- Generator: Adobe Illustrator 16.0.4, SVG Export Plug-In . SVG Version: 6.00 Build 0)  -->
<!DOCTYPE svg PUBLIC "-//W3C//DTD SVG 1.1//EN" "http://www.w3.org/Graphics/SVG/1.1/DTD/svg11.dtd">
<svg version="1.1" id="Capa_1" xmlns="http://www.w3.org/2000/svg" xmlns:xlink="http://www.w3.org/1999/xlink" x="0px" y="0px"
	 width="216px" height="146px" viewBox="0 0 216 146" enable-background="new 0 0 216 146" xml:space="preserve">
<g>
	<path d="M164.703,47.092c1.467-4.401,2.201-8.963,2.201-13.688c0-6.301-1.387-12.222-4.156-17.762
		c-5.811,0-10.943,1.06-15.398,3.178c-4.453,2.118-9.531,5.404-15.233,9.858c-7.169-1.738-14.775-2.607-22.813-2.607
		c-8.799,0-17.191,0.951-25.175,2.852c-5.811-4.563-10.944-7.916-15.398-10.062s-9.614-3.219-15.48-3.219
		c-2.77,5.54-4.155,11.461-4.155,17.762c0,4.78,0.733,9.397,2.2,13.85c-7.388,8.637-11.081,19.391-11.081,32.264
		c0,11.299,1.683,20.287,5.051,26.969c1.793,3.529,4.128,6.652,7.007,9.369c2.878,2.715,6.164,4.916,9.858,6.6
		c3.694,1.683,7.414,3.082,11.162,4.195s7.889,1.928,12.425,2.443c4.535,0.518,8.541,0.856,12.017,1.02
		c3.476,0.162,7.332,0.244,11.569,0.244c4.997,0,9.531-0.123,13.606-0.366c4.075-0.244,8.731-0.843,13.973-1.792
		c5.241-0.951,9.858-2.241,13.851-3.87c3.992-1.63,7.822-3.965,11.488-7.007c3.666-3.043,6.531-6.653,8.596-10.836
		c3.312-6.736,4.969-15.726,4.969-26.969C175.785,66.591,172.092,55.782,164.703,47.092z M154.93,106.363
		c-1.738,3.558-3.939,6.354-6.6,8.392c-2.662,2.037-5.975,3.666-9.939,4.89c-3.967,1.221-7.767,2.022-11.406,2.402
		c-3.641,0.38-7.686,0.57-12.141,0.57h-13.688c-4.454,0-8.501-0.19-12.14-0.57c-3.639-0.38-7.441-1.181-11.406-2.402
		c-3.964-1.224-7.277-2.852-9.939-4.89s-4.862-4.834-6.6-8.392c-1.738-3.559-2.607-7.727-2.607-12.506
		c0-6.519,1.874-12.06,5.622-16.621c3.748-4.563,8.826-6.844,15.235-6.844c2.336,0,7.632,0.57,15.888,1.711
		c3.856,0.597,8.12,0.896,12.791,0.896c4.672,0,8.936-0.298,12.791-0.896c8.366-1.141,13.66-1.711,15.889-1.711
		c6.408,0,11.486,2.282,15.234,6.844c3.748,4.562,5.621,10.102,5.621,16.621C157.535,98.637,156.666,102.807,154.93,106.363z"/>
	<path d="M87.835,80.984c-1.657-1.848-3.625-2.771-5.907-2.771c-2.282,0-4.251,0.924-5.907,2.771
		c-1.656,1.846-2.824,3.91-3.503,6.19c-0.68,2.282-1.019,4.509-1.019,6.683c0,2.172,0.34,4.399,1.019,6.681
		c0.678,2.281,1.846,4.344,3.503,6.19c1.657,1.848,3.625,2.771,5.907,2.771c2.282,0,4.251-0.925,5.907-2.771
		c1.656-1.846,2.824-3.909,3.503-6.19c0.679-2.282,1.019-4.509,1.019-6.681s-0.339-4.4-1.019-6.683
		C90.659,84.895,89.492,82.831,87.835,80.984z"/>
	<path d="M139.979,80.984c-1.656-1.848-3.625-2.771-5.906-2.771s-4.25,0.924-5.908,2.771c-1.656,1.846-2.824,3.91-3.502,6.19
		c-0.68,2.282-1.02,4.509-1.02,6.683c0,2.172,0.34,4.399,1.02,6.681c0.678,2.281,1.846,4.344,3.502,6.19
		c1.658,1.848,3.627,2.771,5.908,2.771s4.25-0.925,5.906-2.771c1.655-1.846,2.823-3.909,3.504-6.19
		c0.678-2.282,1.018-4.509,1.018-6.681s-0.34-4.4-1.018-6.683C142.802,84.895,141.634,82.831,139.979,80.984z"/>
</g>
</svg>
