<?xml version="1.0" encoding="utf-8"?>
<!-- Generator: Adobe Illustrator 16.0.4, SVG Export Plug-In . SVG Version: 6.00 Build 0)  -->
<!DOCTYPE svg PUBLIC "-//W3C//DTD SVG 1.1//EN" "http://www.w3.org/Graphics/SVG/1.1/DTD/svg11.dtd">
<svg version="1.1" id="Capa_1" xmlns="http://www.w3.org/2000/svg" xmlns:xlink="http://www.w3.org/1999/xlink" x="0px" y="0px"
	 width="216px" height="146px" viewBox="0 0 216 146" enable-background="new 0 0 216 146" xml:space="preserve">
<g>
	<path d="M90.565,111.048c-0.87,0.163-1.25,0.571-1.141,1.222c0.108,0.652,0.597,0.869,1.466,0.652
		c0.87-0.218,1.25-0.598,1.141-1.141C91.923,111.184,91.434,110.939,90.565,111.048z"/>
	<path d="M85.921,111.7c-0.869,0-1.304,0.298-1.304,0.896c0,0.706,0.462,1.004,1.385,0.896c0.869,0,1.304-0.299,1.304-0.896
		C87.306,111.891,86.844,111.591,85.921,111.7z"/>
	<path d="M79.566,111.454c-0.217,0.598,0.136,1.005,1.059,1.223c0.815,0.325,1.331,0.162,1.548-0.489
		c0.163-0.597-0.19-1.031-1.059-1.304C80.299,110.667,79.783,110.855,79.566,111.454z"/>
	<path d="M163.686,17.313c-4.59-4.589-10.115-6.884-16.58-6.884H68.892c-6.463,0-11.99,2.295-16.58,6.884
		c-4.589,4.59-6.884,10.117-6.884,16.58v78.215c0,6.464,2.295,11.99,6.884,16.579c4.59,4.59,10.117,6.885,16.58,6.885h18.25
		c1.194,0,2.091-0.041,2.688-0.121c0.597-0.082,1.194-0.436,1.792-1.061c0.598-0.624,0.896-1.534,0.896-2.729
		c0-0.162-0.014-2.01-0.041-5.541c-0.028-3.53-0.041-6.328-0.041-8.392l-1.874,0.326c-1.195,0.217-2.702,0.312-4.522,0.285
		c-1.819-0.027-3.707-0.217-5.662-0.57c-1.956-0.353-3.775-1.168-5.459-2.444c-1.683-1.276-2.878-2.946-3.584-5.01l-0.815-1.875
		c-0.543-1.248-1.398-2.634-2.566-4.154c-1.168-1.521-2.349-2.553-3.544-3.096l-0.57-0.408c-0.38-0.271-0.733-0.598-1.059-0.978
		c-0.326-0.38-0.57-0.761-0.733-1.141s-0.028-0.693,0.407-0.938c0.435-0.244,1.222-0.365,2.363-0.365l1.629,0.244
		c1.086,0.217,2.43,0.868,4.033,1.955c1.602,1.086,2.919,2.498,3.951,4.236c1.25,2.227,2.756,3.924,4.522,5.092
		c1.765,1.168,3.544,1.752,5.336,1.752s3.34-0.136,4.644-0.406c1.303-0.272,2.525-0.68,3.666-1.224
		c0.489-3.639,1.82-6.437,3.992-8.392c-3.096-0.326-5.879-0.815-8.351-1.467c-2.471-0.652-5.024-1.711-7.658-3.178
		c-2.635-1.467-4.821-3.285-6.559-5.459c-1.738-2.173-3.164-5.025-4.277-8.555c-1.113-3.531-1.67-7.605-1.67-12.221
		c0-6.572,2.146-12.167,6.437-16.784c-2.01-4.942-1.82-10.482,0.57-16.62c1.575-0.489,3.911-0.122,7.007,1.1
		c3.096,1.223,5.363,2.269,6.803,3.137s2.594,1.602,3.463,2.2c5.052-1.412,10.266-2.118,15.643-2.118s10.592,0.706,15.644,2.118
		l3.096-1.955c2.119-1.304,4.617-2.499,7.496-3.585s5.078-1.385,6.6-0.896c2.443,6.138,2.661,11.678,0.65,16.62
		c4.291,4.617,6.438,10.212,6.438,16.784c0,4.617-0.557,8.705-1.67,12.262s-2.552,6.409-4.318,8.555
		c-1.765,2.146-3.965,3.951-6.599,5.418c-2.635,1.466-5.187,2.526-7.659,3.177c-2.472,0.653-5.255,1.142-8.351,1.468
		c2.823,2.444,4.235,6.3,4.235,11.569v19.472c0,0.924,0.135,1.67,0.407,2.241c0.272,0.57,0.706,0.963,1.304,1.181
		c0.599,0.218,1.127,0.353,1.59,0.407c0.462,0.055,1.127,0.082,1.996,0.082h18.25c6.463,0,11.99-2.295,16.578-6.885
		c4.59-4.59,6.885-10.117,6.885-16.58V33.893C170.57,27.43,168.275,21.902,163.686,17.313z"/>
	<path d="M70.196,101.516c-0.38,0.271-0.326,0.705,0.163,1.303c0.544,0.543,0.978,0.625,1.304,0.244
		c0.38-0.271,0.326-0.705-0.164-1.304C70.956,101.271,70.522,101.189,70.196,101.516z"/>
	<path d="M67.508,99.479c-0.163,0.381,0.027,0.707,0.57,0.978c0.434,0.272,0.788,0.218,1.059-0.163
		c0.163-0.38-0.027-0.706-0.57-0.979C68.024,99.152,67.671,99.207,67.508,99.479z"/>
	<path d="M72.722,104.694c-0.489,0.271-0.489,0.76,0,1.466c0.489,0.706,0.95,0.896,1.385,0.57c0.489-0.381,0.489-0.896,0-1.549
		C73.673,104.477,73.211,104.312,72.722,104.694z"/>
	<path d="M75.574,108.359c-0.489,0.435-0.381,0.949,0.326,1.548c0.651,0.651,1.194,0.733,1.629,0.243
		c0.435-0.434,0.326-0.949-0.326-1.547C76.552,107.952,76.009,107.87,75.574,108.359z"/>
</g>
</svg>
