<?xml version="1.0" encoding="utf-8"?>
<!-- Generator: Adobe Illustrator 16.0.4, SVG Export Plug-In . SVG Version: 6.00 Build 0)  -->
<!DOCTYPE svg PUBLIC "-//W3C//DTD SVG 1.1//EN" "http://www.w3.org/Graphics/SVG/1.1/DTD/svg11.dtd">
<svg version="1.1" id="Capa_1" xmlns="http://www.w3.org/2000/svg" xmlns:xlink="http://www.w3.org/1999/xlink" x="0px" y="0px"
	 width="216px" height="146px" viewBox="0 0 216 146" enable-background="new 0 0 216 146" xml:space="preserve">
<path d="M162.18,41.592c-5.595-9.586-13.185-17.176-22.771-22.771c-9.588-5.595-20.055-8.392-31.408-8.392
	c-11.352,0-21.822,2.797-31.408,8.392c-9.587,5.594-17.177,13.184-22.772,22.771C48.225,51.179,45.428,61.649,45.428,73
	c0,11.352,2.798,21.82,8.392,31.408c5.595,9.585,13.185,17.176,22.772,22.771c9.587,5.595,20.056,8.392,31.408,8.392
	c11.352,0,21.822-2.797,31.408-8.392c9.586-5.594,17.176-13.185,22.771-22.771c5.594-9.587,8.391-20.057,8.391-31.408
	C170.57,61.648,167.773,51.178,162.18,41.592z M138.919,62.734c-0.461,2.01-1.127,3.613-1.996,4.807l-28.515,38.537L79.974,67.541
	c-0.869-1.195-1.534-2.797-1.996-4.807c-0.462-2.01-0.299-4.319,0.489-6.926c0.788-2.607,2.43-4.752,4.929-6.436
	c2.227-1.412,4.509-2.105,6.844-2.078c2.336,0.028,4.332,0.503,5.988,1.426c1.656,0.924,3.136,2.146,4.44,3.666
	c1.955,2.173,4.535,3.26,7.74,3.26c3.259,0,5.865-1.087,7.82-3.26c1.305-1.52,2.785-2.742,4.44-3.666
	c1.656-0.923,3.651-1.399,5.988-1.426c2.336-0.027,4.59,0.666,6.763,2.078c2.553,1.684,4.223,3.83,5.012,6.436
	C139.218,58.416,139.381,60.724,138.919,62.734z"/>
</svg>
