<?xml version="1.0" encoding="utf-8"?>
<!-- Generator: Adobe Illustrator 16.0.4, SVG Export Plug-In . SVG Version: 6.00 Build 0)  -->
<!DOCTYPE svg PUBLIC "-//W3C//DTD SVG 1.1//EN" "http://www.w3.org/Graphics/SVG/1.1/DTD/svg11.dtd">
<svg version="1.1" id="Capa_1" xmlns="http://www.w3.org/2000/svg" xmlns:xlink="http://www.w3.org/1999/xlink" x="0px" y="0px"
	 width="216px" height="146px" viewBox="0 0 216 146" enable-background="new 0 0 216 146" xml:space="preserve">
<g>
	<path d="M118.225,91.536c-1.439-1.929-3.027-3.722-4.766-5.377c-1.738-1.656-3.477-3.164-5.214-4.521
		c-1.738-1.358-3.327-2.662-4.766-3.912c-1.439-1.248-2.607-2.553-3.503-3.91c-0.896-1.358-1.344-2.743-1.344-4.155
		c0-1.956,0.625-3.789,1.874-5.5s2.77-3.367,4.562-4.97s3.584-3.354,5.377-5.255c1.791-1.902,3.312-4.413,4.562-7.537
		c1.248-3.123,1.873-6.694,1.873-10.713c0-4.78-1.059-9.37-3.178-13.769c-2.118-4.4-5.105-7.822-8.962-10.266h10.999l10.998-6.437
		H91.135c-5.051,0-10.13,0.544-15.234,1.632c-7.549,1.684-13.904,5.527-19.064,11.528c-5.16,6.002-7.74,12.805-7.74,20.409
		c0,8.039,2.893,14.72,8.677,20.042c5.784,5.322,12.723,7.984,20.816,7.984c1.629,0,3.53-0.136,5.703-0.407
		c-0.109,0.434-0.298,1.018-0.57,1.751s-0.489,1.318-0.652,1.752c-0.163,0.434-0.299,0.963-0.407,1.588
		c-0.109,0.625-0.163,1.264-0.163,1.915c0,3.585,1.737,7.632,5.214,12.14c-4.128,0.11-8.201,0.476-12.221,1.101
		c-4.019,0.625-8.228,1.603-12.628,2.934c-4.399,1.33-8.337,3.259-11.813,5.784c-3.476,2.526-6.083,5.526-7.821,9.003
		c-2.01,4.02-3.015,7.686-3.015,10.999c0,3.639,0.815,6.938,2.444,9.899c1.629,2.959,3.72,5.377,6.273,7.25
		c2.553,1.875,5.5,3.449,8.84,4.727c3.34,1.275,6.653,2.186,9.939,2.729s6.531,0.814,9.736,0.814
		c14.556,0,25.963-3.557,34.218-10.672c7.604-6.627,11.406-14.286,11.406-22.977c0-3.097-0.448-5.988-1.345-8.677
		C120.832,95.771,119.665,93.464,118.225,91.536z M86.817,61.922c-2.77,0-5.404-0.706-7.903-2.119
		c-2.499-1.413-4.617-3.246-6.355-5.5c-1.737-2.254-3.258-4.793-4.562-7.618c-1.303-2.824-2.267-5.648-2.892-8.473
		c-0.625-2.824-0.937-5.513-0.937-8.066c0-5.214,1.385-9.695,4.155-13.443c2.77-3.748,6.681-5.622,11.732-5.622
		c3.585,0,6.83,1.113,9.736,3.34c2.906,2.227,5.187,5.051,6.844,8.473c1.656,3.422,2.933,6.965,3.829,10.632
		c0.896,3.666,1.344,7.129,1.344,10.388c0,5.432-1.181,9.793-3.544,13.079C95.901,60.279,92.086,61.922,86.817,61.922z
		 M109.344,123.105c-1.493,2.553-3.516,4.549-6.069,5.987c-2.553,1.44-5.282,2.499-8.188,3.179c-2.906,0.68-5.961,1.019-9.166,1.019
		c-3.476,0-6.926-0.408-10.347-1.222c-3.421-0.814-6.694-2.052-9.817-3.707c-3.123-1.656-5.649-3.938-7.577-6.845
		c-1.928-2.905-2.892-6.205-2.892-9.899c0-3.258,0.733-6.164,2.2-8.717c1.467-2.553,3.341-4.591,5.622-6.11
		c2.281-1.521,4.942-2.771,7.984-3.747c3.042-0.979,5.975-1.657,8.799-2.037c2.824-0.381,5.703-0.57,8.636-0.57
		c1.793,0,3.151,0.055,4.074,0.162c0.326,0.219,1.154,0.788,2.485,1.711c1.331,0.924,2.227,1.549,2.689,1.875
		c0.461,0.325,1.303,0.95,2.525,1.873c1.222,0.924,2.091,1.616,2.607,2.078c0.515,0.461,1.262,1.154,2.24,2.077
		c0.977,0.924,1.697,1.724,2.159,2.403c0.461,0.679,1.032,1.507,1.711,2.484c0.679,0.979,1.154,1.916,1.426,2.812
		c0.271,0.897,0.529,1.874,0.773,2.933c0.244,1.061,0.366,2.16,0.366,3.301C111.585,117.566,110.838,120.553,109.344,123.105z"/>
	<polygon points="154.93,26.071 154.93,5.214 144.5,5.214 144.5,26.071 123.643,26.071 123.643,36.5 144.5,36.5 144.5,57.357 
		154.93,57.357 154.93,36.5 175.785,36.5 175.785,26.071 	"/>
</g>
</svg>
