<?xml version="1.0" encoding="utf-8"?>
<!-- Generator: Adobe Illustrator 16.0.4, SVG Export Plug-In . SVG Version: 6.00 Build 0)  -->
<!DOCTYPE svg PUBLIC "-//W3C//DTD SVG 1.1//EN" "http://www.w3.org/Graphics/SVG/1.1/DTD/svg11.dtd">
<svg version="1.1" id="Capa_1" xmlns="http://www.w3.org/2000/svg" xmlns:xlink="http://www.w3.org/1999/xlink" x="0px" y="0px"
	 width="216px" height="146px" viewBox="0 0 216 146" enable-background="new 0 0 216 146" xml:space="preserve">
<path d="M149.714,41.714V20.858h-10.428v20.856H118.43v10.429h20.856V73h10.428V52.143h20.856v59.964
	c0,6.463-2.295,11.99-6.885,16.58c-4.588,4.59-10.115,6.885-16.578,6.885h-38.129c2.117-3.965,3.176-8.229,3.176-12.791
	c0-3.586-0.598-6.912-1.791-9.98c-1.195-3.068-2.703-5.595-4.522-7.577c-1.82-1.981-3.775-3.911-5.866-5.784
	c-2.091-1.873-4.046-3.49-5.866-4.849c-1.819-1.356-3.327-2.838-4.521-4.438c-1.195-1.604-1.792-3.22-1.792-4.849
	c0-1.956,0.625-3.803,1.874-5.541c1.25-1.737,2.771-3.407,4.562-5.01c1.792-1.603,3.571-3.354,5.337-5.256
	c1.765-1.9,3.272-4.426,4.521-7.576c1.25-3.15,1.874-6.708,1.874-10.674c0-3.965-0.72-7.916-2.159-11.854
	c-1.439-3.938-3.49-7.156-6.151-9.655c-0.326-0.325-0.706-0.624-1.141-0.896c-0.434-0.271-0.774-0.476-1.018-0.611
	c-0.245-0.136-0.516-0.394-0.815-0.774c-0.299-0.38-0.584-0.842-0.855-1.385h10.999l11-5.214H80.218
	c-7.496,0-14.136,1.045-19.92,3.137c-5.784,2.091-10.741,5.717-14.869,10.876c0-6.844,2.2-12.628,6.599-17.354
	c4.4-4.726,10.021-7.088,16.865-7.088h78.214c6.463,0,11.99,2.295,16.578,6.884c4.59,4.59,6.885,10.117,6.885,16.58v7.821H149.714z
	 M61.643,69.945c1.737,2.255,3.856,4.088,6.354,5.5s5.132,2.117,7.903,2.117c5.269,0,9.084-1.644,11.447-4.93
	c2.363-3.285,3.544-7.644,3.544-13.076c0-3.314-0.435-6.789-1.302-10.427c-0.87-3.639-2.146-7.169-3.83-10.591
	c-1.684-3.422-3.965-6.247-6.844-8.474c-2.878-2.227-6.11-3.341-9.695-3.341c-5.051,0-8.976,1.874-11.773,5.622
	c-2.797,3.748-4.196,8.228-4.196,13.443c0,2.552,0.312,5.24,0.937,8.065c0.625,2.825,1.589,5.65,2.893,8.474
	C58.384,65.152,59.905,67.691,61.643,69.945z M71.663,89.05c0-1.357,0.57-3.694,1.711-7.007c-2.064,0.271-3.965,0.408-5.703,0.408
	c-9.233,0-16.647-3.205-22.242-9.614v35.278c8.201-4.238,18.657-6.545,31.367-6.926C73.374,96.734,71.663,92.689,71.663,89.05z
	 M99.524,123.553c-0.272-0.896-0.747-1.832-1.426-2.811c-0.679-0.977-1.249-1.805-1.711-2.484c-0.461-0.679-1.181-1.479-2.159-2.403
	c-0.977-0.923-1.724-1.615-2.24-2.077c-0.516-0.462-1.385-1.154-2.607-2.078c-1.221-0.923-2.064-1.548-2.525-1.873
	c-0.461-0.326-1.357-0.951-2.688-1.874c-1.331-0.924-2.159-1.494-2.485-1.711c-0.923-0.108-2.254-0.163-3.992-0.163
	c-2.987,0-5.893,0.189-8.717,0.57c-2.825,0.38-5.731,1.031-8.718,1.955c-2.987,0.924-5.703,2.267-8.147,4.033
	c-2.444,1.765-4.318,3.869-5.622,6.313c1.467,4.942,4.278,8.948,8.433,12.017c4.156,3.07,8.813,4.604,13.973,4.604h30.96
	c0.543-1.792,0.814-3.722,0.814-5.784c0-1.141-0.122-2.241-0.369-3.3C100.054,125.428,99.795,124.449,99.524,123.553z"/>
</svg>
