<?xml version="1.0" encoding="utf-8"?>
<!-- Generator: Adobe Illustrator 16.0.4, SVG Export Plug-In . SVG Version: 6.00 Build 0)  -->
<!DOCTYPE svg PUBLIC "-//W3C//DTD SVG 1.1//EN" "http://www.w3.org/Graphics/SVG/1.1/DTD/svg11.dtd">
<svg version="1.1" id="Capa_1" xmlns="http://www.w3.org/2000/svg" xmlns:xlink="http://www.w3.org/1999/xlink" x="0px" y="0px"
	 width="216px" height="146px" viewBox="0 0 216 146" enable-background="new 0 0 216 146" xml:space="preserve">
<path d="M148.818,96.019c-0.488-0.517-1.113-0.774-1.873-0.774h-13.199c-0.762,0-1.387,0.258-1.875,0.774
	c-0.488,0.516-0.732,1.127-0.732,1.833v14.746H97.409V81.719h24.849c0.706,0,1.317-0.257,1.833-0.773
	c0.517-0.516,0.774-1.127,0.774-1.833V68.439c0-0.761-0.258-1.385-0.774-1.874c-0.516-0.488-1.127-0.733-1.833-0.733H97.409V48.315
	c0-4.127,1.412-7.467,4.236-10.021c2.825-2.553,6.545-3.829,11.162-3.829c2.444,0,4.971,0.489,7.577,1.467
	c2.607,0.977,4.481,1.846,5.622,2.607c1.141,0.76,1.848,1.277,2.118,1.548c0.543,0.488,1.167,0.678,1.874,0.57
	c0.706-0.055,1.303-0.38,1.792-0.978l8.392-10.348c0.436-0.543,0.625-1.154,0.57-1.833c-0.055-0.679-0.326-1.235-0.814-1.67
	c-8.146-6.789-17.244-10.185-27.293-10.185c-10.374,0-18.916,3.015-25.624,9.044c-6.708,6.03-10.062,13.688-10.062,22.976v18.168
	h-7.74c-0.76,0-1.385,0.245-1.874,0.733c-0.489,0.489-0.733,1.113-0.733,1.874v10.673c0,0.705,0.244,1.316,0.733,1.832
	c0.489,0.517,1.114,0.774,1.874,0.774h7.74v31.204h-7.903c-0.706,0-1.317,0.258-1.833,0.774c-0.516,0.516-0.774,1.127-0.774,1.833
	v12.221c0,0.761,0.244,1.385,0.733,1.874c0.489,0.488,1.114,0.733,1.874,0.733h77.889c0.761,0,1.386-0.245,1.873-0.733
	c0.488-0.489,0.732-1.113,0.732-1.874v-29.9C149.551,97.145,149.307,96.532,148.818,96.019z"/>
</svg>
