<?xml version="1.0" encoding="utf-8"?>
<!-- Generator: Adobe Illustrator 16.0.4, SVG Export Plug-In . SVG Version: 6.00 Build 0)  -->
<!DOCTYPE svg PUBLIC "-//W3C//DTD SVG 1.1//EN" "http://www.w3.org/Graphics/SVG/1.1/DTD/svg11.dtd">
<svg version="1.1" id="Capa_1" xmlns="http://www.w3.org/2000/svg" xmlns:xlink="http://www.w3.org/1999/xlink" x="0px" y="0px"
	 width="216px" height="146px" viewBox="0 0 216 146" enable-background="new 0 0 216 146" xml:space="preserve">
<g>
	<path d="M61.072,41.714c5.758,0,10.673-2.036,14.746-6.11c4.074-4.074,6.111-8.99,6.111-14.747c0-5.757-2.037-10.673-6.111-14.747
		c-4.073-4.074-8.988-6.111-14.746-6.111c-5.758,0-10.673,2.037-14.747,6.111c-4.073,4.074-6.11,8.989-6.11,14.747
		c0,5.758,2.037,10.673,6.11,14.747C50.399,39.677,55.314,41.714,61.072,41.714z"/>
	<path d="M85.88,74.264c6.11,6.109,13.483,9.165,22.12,9.165c8.637,0,16.01-3.056,22.12-9.165c6.11-6.112,9.165-13.485,9.165-22.121
		c0-8.636-3.055-16.009-9.165-22.12s-13.483-9.166-22.12-9.166c-8.637,0-16.01,3.056-22.12,9.166
		c-6.11,6.11-9.166,13.483-9.166,22.12C76.714,60.78,79.77,68.153,85.88,74.264z"/>
	<path d="M154.93,41.714c5.756,0,10.672-2.036,14.746-6.11c4.073-4.074,6.109-8.99,6.109-14.747c0-5.757-2.036-10.673-6.109-14.747
		c-4.074-4.074-8.99-6.111-14.746-6.111c-5.759,0-10.674,2.037-14.748,6.111c-4.072,4.074-6.109,8.989-6.109,14.747
		c0,5.758,2.037,10.673,6.109,14.747C144.256,39.677,149.171,41.714,154.93,41.714z"/>
	<path d="M176.111,41.715c-0.325,0-1.506,0.57-3.543,1.711c-2.036,1.141-4.685,2.295-7.943,3.463
		c-3.258,1.167-6.491,1.751-9.695,1.751c-3.64,0-7.25-0.624-10.836-1.874c0.271,2.009,0.407,3.802,0.407,5.377
		c0,7.55-2.2,14.502-6.601,20.857c8.8,0.272,15.996,3.748,21.592,10.43h10.917c4.454,0,8.202-1.102,11.243-3.301
		s4.562-5.418,4.562-9.654C186.215,51.301,182.848,41.714,176.111,41.715z"/>
	<path d="M163.934,107.585c-0.57-3.178-1.291-6.125-2.16-8.84c-0.869-2.716-2.037-5.363-3.502-7.943
		c-1.467-2.579-3.151-4.78-5.053-6.6c-1.902-1.82-4.224-3.272-6.966-4.359c-2.743-1.086-5.772-1.629-9.084-1.629
		c-0.544,0-1.711,0.584-3.504,1.752c-1.793,1.167-3.774,2.472-5.947,3.91s-5.077,2.742-8.718,3.91s-7.307,1.752-10.999,1.752
		c-3.693,0-7.36-0.584-10.999-1.752c-3.64-1.168-6.545-2.472-8.718-3.91c-2.173-1.438-4.155-2.743-5.947-3.91
		c-1.793-1.168-2.96-1.752-3.504-1.752c-3.313,0-6.341,0.543-9.084,1.629c-2.743,1.087-5.065,2.539-6.966,4.359
		c-1.902,1.819-3.585,4.021-5.052,6.6c-1.466,2.58-2.634,5.226-3.503,7.943c-0.869,2.715-1.588,5.662-2.159,8.84
		c-0.571,3.178-0.951,6.137-1.141,8.881c-0.19,2.743-0.285,5.554-0.285,8.433c0,6.517,1.982,11.664,5.947,15.438
		c3.966,3.774,9.235,5.662,15.806,5.662h71.208c6.572,0,11.84-1.888,15.807-5.662c3.965-3.774,5.947-8.921,5.947-15.438
		c0-2.879-0.096-5.689-0.283-8.433C164.883,113.722,164.503,110.763,163.934,107.585z"/>
	<path d="M78.099,73c-4.4-6.355-6.599-13.307-6.598-20.857c0-1.575,0.136-3.367,0.407-5.377c-3.585,1.249-7.197,1.874-10.836,1.874
		c-3.205,0-6.436-0.584-9.695-1.751c-3.258-1.168-5.907-2.322-7.943-3.463c-2.037-1.141-3.219-1.711-3.545-1.711
		c-6.735,0-10.103,9.587-10.103,28.76c0,4.236,1.521,7.455,4.562,9.654c3.042,2.199,6.79,3.3,11.243,3.3h10.918
		C62.104,76.748,69.3,73.272,78.099,73z"/>
</g>
</svg>
