<?xml version="1.0" encoding="utf-8"?>
<!-- Generator: Adobe Illustrator 16.0.4, SVG Export Plug-In . SVG Version: 6.00 Build 0)  -->
<!DOCTYPE svg PUBLIC "-//W3C//DTD SVG 1.1//EN" "http://www.w3.org/Graphics/SVG/1.1/DTD/svg11.dtd">
<svg version="1.1" id="Capa_1" xmlns="http://www.w3.org/2000/svg" xmlns:xlink="http://www.w3.org/1999/xlink" x="0px" y="0px"
	 width="216px" height="146px" viewBox="0 0 216 146" enable-background="new 0 0 216 146" xml:space="preserve">
<path d="M164.951,52.063c-3.205-8.907-4.807-14.963-4.807-18.168V10.431c0-2.879-1.021-5.337-3.057-7.374
	c-2.037-2.036-4.495-3.055-7.374-3.055H97.572c-2.879,0-5.337,1.019-7.374,3.055c-2.036,2.038-3.055,4.496-3.055,7.374v23.464
	c0,0.543-0.122,1.126-0.367,1.751c-0.245,0.625-0.625,1.264-1.141,1.915c-0.516,0.651-1.005,1.263-1.466,1.833
	c-0.461,0.57-1.072,1.222-1.833,1.955c-0.76,0.733-1.344,1.289-1.751,1.67c-0.407,0.381-0.991,0.896-1.752,1.548
	c-0.76,0.652-1.222,1.033-1.385,1.141c-4.019,3.53-7.523,6.246-10.51,8.147c-1.14,0.706-2.824,1.602-5.051,2.688
	c-2.227,1.087-4.182,2.092-5.866,3.015c-1.684,0.924-3.395,2.024-5.133,3.3c-1.738,1.276-3.082,2.77-4.033,4.481
	s-1.426,3.598-1.426,5.662c0,6.789,1.833,12.398,5.5,16.824c3.666,4.427,8.785,6.642,15.357,6.642c4.02,0,7.496-0.599,10.429-1.793
	v30.471c0,5.648,2.064,10.537,6.192,14.666c4.128,4.127,8.989,6.19,14.584,6.19c5.703,0,10.619-2.05,14.745-6.149
	c4.13-4.103,6.193-9.004,6.193-14.707v-13.77c3.529-0.38,6.76-1.386,9.694-3.015c1.142,0.163,2.31,0.243,3.504,0.243
	c5.539,0,10.373-1.656,14.502-4.969l0.407,0.08c7.605,0.055,13.511-2.308,17.72-7.088c4.21-4.779,6.313-11.025,6.313-18.738
	C170.57,70.991,168.698,62.381,164.951,52.063z M140.834,11.976c1.032-1.032,2.254-1.548,3.666-1.548s2.634,0.516,3.667,1.548
	c1.031,1.033,1.547,2.255,1.547,3.667s-0.516,2.634-1.547,3.666c-1.033,1.032-2.255,1.548-3.667,1.548s-2.634-0.516-3.666-1.548
	c-1.032-1.032-1.548-2.253-1.548-3.666C139.286,14.23,139.802,13.008,140.834,11.976z M156.805,89.254
	c-2.229,2.635-5.65,3.951-10.267,3.951c-1.738,0-3.259-0.107-4.562-0.326c-0.869,1.631-2.295,2.92-4.277,3.871
	c-1.982,0.949-3.979,1.426-5.988,1.426s-3.884-0.489-5.622-1.467c-2.715,2.879-5.946,4.318-9.694,4.318
	c-3.097,0-5.895-0.953-8.393-2.853v26.967c0,2.824-1.032,5.269-3.096,7.333c-2.064,2.064-4.509,3.098-7.333,3.098
	c-2.771,0-5.201-1.062-7.292-3.179c-2.092-2.118-3.137-4.534-3.137-7.252V78.214c-1.087,0-2.404,0.407-3.952,1.222
	c-1.548,0.815-3.042,1.711-4.481,2.688s-3.286,1.874-5.54,2.688c-2.255,0.815-4.549,1.221-6.885,1.221
	c-3.639,0-6.286-1.207-7.943-3.625c-1.657-2.416-2.485-5.554-2.485-9.409c0-0.434,0.312-0.938,0.937-1.507s1.453-1.153,2.485-1.751
	c1.032-0.597,1.996-1.14,2.892-1.629c0.896-0.488,1.874-0.991,2.933-1.507s1.67-0.801,1.833-0.855
	c2.499-1.304,4.346-2.335,5.541-3.096c3.476-2.172,7.414-5.214,11.813-9.125c0.272-0.217,0.652-0.543,1.141-0.978
	c1.792-1.575,3.258-2.906,4.399-3.992s2.39-2.444,3.748-4.074c1.358-1.63,2.362-3.326,3.014-5.092
	c0.652-1.766,0.978-3.599,0.978-5.5v-2.607h52.143v2.607c0,3.911,0.869,8.446,2.607,13.606s3.477,10.429,5.215,15.806
	c1.738,5.377,2.607,10.348,2.607,14.91C160.145,82.939,159.029,86.619,156.805,89.254z"/>
</svg>
