<?xml version="1.0" encoding="utf-8"?>
<!-- Generator: Adobe Illustrator 16.0.4, SVG Export Plug-In . SVG Version: 6.00 Build 0)  -->
<!DOCTYPE svg PUBLIC "-//W3C//DTD SVG 1.1//EN" "http://www.w3.org/Graphics/SVG/1.1/DTD/svg11.dtd">
<svg version="1.1" id="Capa_1" xmlns="http://www.w3.org/2000/svg" xmlns:xlink="http://www.w3.org/1999/xlink" x="0px" y="0px"
	 width="216px" height="146px" viewBox="0 0 216 146" enable-background="new 0 0 216 146" xml:space="preserve">
<path d="M177.945,55.202c-2.037-2.037-4.495-3.056-7.375-3.056h-23.463c-0.543,0-1.127-0.122-1.752-0.366
	c-0.625-0.245-1.264-0.625-1.914-1.141c-0.652-0.517-1.264-1.005-1.834-1.467c-0.57-0.462-1.223-1.072-1.955-1.833
	c-0.733-0.761-1.291-1.345-1.67-1.752c-0.381-0.407-0.897-0.991-1.549-1.752c-0.652-0.76-1.033-1.222-1.142-1.385
	c-3.528-4.02-6.246-7.523-8.146-10.51c-0.707-1.141-1.603-2.824-2.689-5.052c-1.086-2.226-2.091-4.181-3.014-5.866
	c-0.924-1.684-2.024-3.395-3.301-5.133c-1.275-1.737-2.77-3.082-4.48-4.032c-1.711-0.951-3.598-1.426-5.662-1.426
	c-6.789,0-12.397,1.819-16.824,5.458c-4.427,3.639-6.64,8.772-6.64,15.398c0,3.695,0.597,7.17,1.792,10.429H55.857
	c-5.648,0-10.537,2.064-14.665,6.192S35,56.897,35,62.492c0,5.703,2.05,10.618,6.151,14.746s9.003,6.191,14.706,6.191h13.769
	c0.218,3.367,1.223,6.599,3.015,9.695c-0.163,1.141-0.245,2.309-0.245,3.503c0,5.54,1.657,10.374,4.97,14.502l-0.082,0.408
	c-0.054,7.604,2.308,13.511,7.088,17.72c4.78,4.21,11.026,6.314,18.739,6.314c6.898,0,15.508-1.874,25.827-5.622
	c8.908-3.204,14.965-4.808,18.17-4.808h23.463c2.88,0,5.338-1.019,7.375-3.055c2.035-2.037,3.055-4.495,3.055-7.374V62.571
	C181,59.692,179.98,57.234,177.945,55.202z M149.714,114.714h-2.606c-3.912,0-8.446,0.869-13.604,2.604
	c-5.16,1.738-10.429,3.478-15.806,5.215c-5.377,1.738-10.348,2.606-14.91,2.606c-4.726,0-8.406-1.112-11.04-3.34
	c-2.635-2.228-3.952-5.649-3.952-10.266c0-1.738,0.109-3.259,0.326-4.562c-1.629-0.868-2.919-2.295-3.87-4.276
	c-0.951-1.982-1.426-3.979-1.426-5.988s0.489-3.884,1.467-5.622c-2.879-2.716-4.318-5.946-4.318-9.694
	c0-1.357,0.272-2.865,0.815-4.521c0.543-1.657,1.223-2.947,2.037-3.87H55.858c-2.825,0-5.269-1.033-7.333-3.096
	c-2.064-2.064-3.096-4.509-3.096-7.333c0-2.771,1.059-5.2,3.177-7.292c2.118-2.091,4.536-3.137,7.251-3.137h46.928
	c0-1.086-0.407-2.403-1.222-3.951c-0.814-1.547-1.711-3.042-2.688-4.481c-0.977-1.439-1.874-3.286-2.688-5.54
	c-0.815-2.254-1.222-4.549-1.222-6.885c0-3.638,1.208-6.286,3.625-7.943c2.417-1.656,5.554-2.484,9.41-2.484
	c0.435,0,0.938,0.312,1.508,0.937s1.154,1.453,1.751,2.485c0.599,1.032,1.142,1.996,1.63,2.892c0.488,0.897,0.991,1.874,1.508,2.934
	c0.516,1.059,0.801,1.67,0.854,1.833c1.304,2.498,2.336,4.345,3.097,5.54c2.172,3.476,5.215,7.414,9.125,11.813
	c0.107,0.108,0.23,0.244,0.366,0.407c0.136,0.163,0.244,0.285,0.325,0.367c0.082,0.081,0.178,0.203,0.285,0.366
	c1.576,1.793,2.906,3.258,3.992,4.399c1.086,1.141,2.445,2.391,4.074,3.748c1.629,1.359,3.325,2.363,5.092,3.015
	c1.766,0.652,3.599,0.979,5.5,0.979h2.606V114.714z M169.023,113.166c-1.032,1.032-2.254,1.548-3.666,1.548
	s-2.635-0.516-3.666-1.548c-1.033-1.032-1.549-2.254-1.549-3.666s0.516-2.635,1.549-3.666c1.031-1.032,2.254-1.549,3.666-1.549
	s2.634,0.517,3.666,1.549c1.031,1.031,1.547,2.254,1.547,3.666S170.055,112.134,169.023,113.166z"/>
</svg>
