<?xml version="1.0" encoding="utf-8"?>
<!-- Generator: Adobe Illustrator 16.0.4, SVG Export Plug-In . SVG Version: 6.00 Build 0)  -->
<!DOCTYPE svg PUBLIC "-//W3C//DTD SVG 1.1//EN" "http://www.w3.org/Graphics/SVG/1.1/DTD/svg11.dtd">
<svg version="1.1" id="Capa_1" xmlns="http://www.w3.org/2000/svg" xmlns:xlink="http://www.w3.org/1999/xlink" x="0px" y="0px"
	 width="216px" height="146px" viewBox="0 0 216 146" enable-background="new 0 0 216 146" xml:space="preserve">
<path d="M164.012,49.209c-4.371-4.671-10.332-6.979-17.883-6.925c-4.184-3.259-9.018-4.888-14.502-4.888
	c-1.195,0-2.363,0.081-3.504,0.244c-3.096-1.792-6.328-2.797-9.695-3.014V20.857c0-5.703-2.062-10.605-6.191-14.706
	C108.109,2.051,103.193,0,97.49,0c-5.595,0-10.456,2.064-14.584,6.192c-4.128,4.129-6.192,9.017-6.192,14.666v30.471
	c-3.259-1.194-6.735-1.792-10.429-1.792c-6.626,0-11.759,2.214-15.398,6.64c-3.639,4.427-5.458,10.035-5.458,16.824
	c0,2.063,0.475,3.952,1.426,5.662s2.295,3.205,4.033,4.481c1.738,1.276,3.449,2.375,5.133,3.3c1.684,0.924,3.639,1.928,5.866,3.014
	c2.227,1.086,3.91,1.983,5.051,2.688c2.987,1.9,6.49,4.617,10.51,8.146c0.163,0.11,0.625,0.491,1.385,1.141
	c0.761,0.653,1.345,1.168,1.752,1.549c0.407,0.381,0.991,0.938,1.751,1.671c0.76,0.732,1.371,1.385,1.833,1.954
	c0.461,0.57,0.95,1.183,1.466,1.834c0.516,0.651,0.896,1.289,1.141,1.914c0.245,0.625,0.367,1.209,0.367,1.752v23.465
	c0,2.879,1.018,5.336,3.055,7.373c2.037,2.037,4.495,3.056,7.374,3.056h52.141c2.879,0,5.337-1.019,7.374-3.056
	c2.036-2.036,3.056-4.494,3.056-7.373v-23.465c0-3.205,1.603-9.261,4.808-18.168c3.748-10.266,5.62-19.012,5.62-26.234
	C170.57,60.046,168.387,53.881,164.012,49.209z M148.167,134.023c-1.033,1.031-2.255,1.549-3.667,1.549s-2.634-0.518-3.666-1.549
	s-1.548-2.254-1.548-3.666s0.516-2.635,1.548-3.666c1.032-1.032,2.254-1.549,3.666-1.549s2.634,0.517,3.667,1.549
	c1.031,1.031,1.547,2.254,1.547,3.666S149.198,132.992,148.167,134.023z M157.537,82.737c-1.738,5.35-3.477,10.605-5.215,15.766
	c-1.738,5.159-2.607,9.695-2.607,13.604v2.607H97.573v-2.607c0-3.855-1.548-7.657-4.644-11.405
	c-1.358-1.629-4.237-4.374-8.636-8.229c-4.399-3.91-8.337-6.953-11.813-9.125c-1.141-0.707-2.906-1.711-5.296-3.016
	c-7.55-3.584-11.325-6.028-11.325-7.332c0-3.856,0.828-6.993,2.485-9.41c1.656-2.417,4.304-3.625,7.943-3.625
	c2.336,0,4.631,0.407,6.885,1.222c2.254,0.814,4.101,1.71,5.54,2.688s2.933,1.874,4.481,2.689c1.549,0.815,2.866,1.222,3.952,1.222
	V20.858c0-2.715,1.046-5.132,3.137-7.251c2.091-2.118,4.521-3.177,7.292-3.177c2.825,0,5.269,1.032,7.333,3.096
	c2.064,2.064,3.096,4.508,3.096,7.333v26.967c0.924-0.815,2.213-1.494,3.87-2.037c1.656-0.543,3.164-0.815,4.521-0.815
	c3.748,0,6.979,1.439,9.694,4.318c1.738-0.978,3.613-1.467,5.622-1.467c2.01,0,4.006,0.476,5.988,1.426
	c1.982,0.951,3.408,2.241,4.277,3.87c1.629-0.271,3.149-0.407,4.562-0.407c9.069,0,13.606,5.132,13.606,15.398
	C160.145,72.511,159.275,77.387,157.537,82.737z"/>
</svg>
