<?xml version="1.0" encoding="utf-8"?>
<!-- Generator: Adobe Illustrator 16.0.4, SVG Export Plug-In . SVG Version: 6.00 Build 0)  -->
<!DOCTYPE svg PUBLIC "-//W3C//DTD SVG 1.1//EN" "http://www.w3.org/Graphics/SVG/1.1/DTD/svg11.dtd">
<svg version="1.1" id="Capa_1" xmlns="http://www.w3.org/2000/svg" xmlns:xlink="http://www.w3.org/1999/xlink" x="0px" y="0px"
	 width="216px" height="146px" viewBox="0 0 216 146" enable-background="new 0 0 216 146" xml:space="preserve">
<g>
	<path d="M169.27,79.925l-16.052-49.372c-0.924-2.879-2.635-5.215-5.133-7.007c-2.499-1.792-5.242-2.688-8.229-2.688H76.144
		c-2.988,0-5.73,0.895-8.229,2.688c-2.499,1.792-4.21,4.128-5.133,7.007l-16.05,49.372c-0.869,2.716-1.304,4.753-1.304,6.11v26.072
		c0,3.584,1.276,6.652,3.829,9.205c2.553,2.554,5.622,3.83,9.207,3.83h99.072c3.584,0,6.653-1.276,9.206-3.83
		c2.553-2.553,3.828-5.621,3.828-9.205V86.035C170.57,84.678,170.139,82.641,169.27,79.925z M72.722,33.729
		c0.218-0.706,0.652-1.29,1.304-1.751c0.652-0.462,1.358-0.693,2.118-0.693h63.711c0.761,0,1.468,0.231,2.119,0.693
		c0.651,0.461,1.086,1.045,1.303,1.751L156.068,73H59.931L72.722,33.729z M160.145,112.107c0,0.705-0.26,1.316-0.775,1.832
		c-0.518,0.516-1.127,0.773-1.833,0.773H58.464c-0.706,0-1.317-0.257-1.833-0.773c-0.516-0.517-0.774-1.127-0.774-1.832V86.035
		c0-0.706,0.258-1.316,0.774-1.833c0.516-0.515,1.127-0.772,1.833-0.772h99.073c0.706,0,1.316,0.256,1.833,0.772
		c0.515,0.517,0.774,1.127,0.774,1.833V112.107z"/>
	<path d="M123.643,92.553c-1.793,0-3.328,0.637-4.604,1.914s-1.915,2.812-1.915,4.604s0.638,3.327,1.915,4.604
		s2.811,1.914,4.604,1.914s3.328-0.637,4.604-1.914c1.275-1.276,1.915-2.812,1.915-4.604s-0.638-3.328-1.915-4.604
		C126.969,93.191,125.436,92.553,123.643,92.553z"/>
	<path d="M144.5,92.553c-1.792,0-3.328,0.639-4.604,1.914c-1.276,1.277-1.914,2.812-1.914,4.604s0.638,3.327,1.914,4.604
		s2.812,1.914,4.604,1.914s3.328-0.637,4.604-1.914c1.276-1.276,1.916-2.812,1.916-4.604s-0.639-3.328-1.916-4.604
		C147.827,93.191,146.292,92.553,144.5,92.553z"/>
</g>
</svg>
