<?xml version="1.0" encoding="utf-8"?>
<!-- Generator: Adobe Illustrator 16.0.4, SVG Export Plug-In . SVG Version: 6.00 Build 0)  -->
<!DOCTYPE svg PUBLIC "-//W3C//DTD SVG 1.1//EN" "http://www.w3.org/Graphics/SVG/1.1/DTD/svg11.dtd">
<svg version="1.1" id="Capa_1" xmlns="http://www.w3.org/2000/svg" xmlns:xlink="http://www.w3.org/1999/xlink" x="0px" y="0px"
	 width="216px" height="146px" viewBox="0 0 216 146" enable-background="new 0 0 216 146" xml:space="preserve">
<path d="M170.652,20.533c-6.898-6.736-16.43-10.103-28.598-10.103c-3.367,0-6.803,0.584-10.306,1.751
	c-3.504,1.168-6.763,2.744-9.776,4.726c-3.015,1.982-5.607,3.843-7.781,5.581c-2.172,1.738-4.236,3.585-6.191,5.54
	c-1.956-1.955-4.02-3.802-6.192-5.54c-2.173-1.738-4.766-3.598-7.781-5.581c-3.015-1.983-6.274-3.558-9.777-4.726
	c-3.503-1.167-6.939-1.751-10.306-1.751c-12.167,0-21.699,3.368-28.597,10.103S35,36.61,35,48.559c0,3.639,0.639,7.388,1.915,11.243
	c1.276,3.856,2.73,7.143,4.359,9.858c1.629,2.715,3.476,5.363,5.54,7.943s3.572,4.359,4.522,5.336
	c0.95,0.978,1.697,1.684,2.24,2.119l50.839,49.047c0.978,0.978,2.173,1.467,3.585,1.467s2.607-0.489,3.585-1.467l50.758-48.885
	C174.781,72.783,181,60.562,181,48.558C181,36.608,177.551,27.267,170.652,20.533z M155.254,77.562L108,123.105L60.665,77.48
	C50.508,67.325,45.43,57.683,45.43,48.558c0-4.399,0.584-8.283,1.751-11.65c1.168-3.367,2.662-6.043,4.481-8.025
	c1.82-1.983,4.033-3.598,6.64-4.848c2.608-1.249,5.161-2.091,7.659-2.525c2.498-0.434,5.159-0.651,7.984-0.651
	c2.824,0,5.866,0.692,9.125,2.077c3.258,1.385,6.259,3.123,9.002,5.214c2.743,2.092,5.092,4.047,7.048,5.866
	c1.955,1.821,3.584,3.49,4.888,5.011c0.977,1.195,2.309,1.793,3.992,1.793c1.684,0,3.014-0.598,3.992-1.793
	c1.304-1.521,2.934-3.191,4.889-5.011c1.955-1.819,4.305-3.773,7.047-5.866c2.743-2.091,5.744-3.829,9.004-5.214
	c3.258-1.385,6.301-2.077,9.125-2.077s5.484,0.217,7.983,0.651s5.052,1.276,7.659,2.525c2.607,1.25,4.82,2.866,6.64,4.848
	c1.819,1.982,3.313,4.658,4.481,8.025c1.166,3.367,1.75,7.251,1.75,11.65C170.57,57.683,165.466,67.352,155.254,77.562z"/>
</svg>
