<?xml version="1.0" encoding="utf-8"?>
<!-- Generator: Adobe Illustrator 16.0.4, SVG Export Plug-In . SVG Version: 6.00 Build 0)  -->
<!DOCTYPE svg PUBLIC "-//W3C//DTD SVG 1.1//EN" "http://www.w3.org/Graphics/SVG/1.1/DTD/svg11.dtd">
<svg version="1.1" id="Capa_1" xmlns="http://www.w3.org/2000/svg" xmlns:xlink="http://www.w3.org/1999/xlink" x="0px" y="0px"
	 width="216px" height="146px" viewBox="0 0 216 146" enable-background="new 0 0 216 146" xml:space="preserve">
<path d="M170.652,20.532c-6.898-6.736-16.43-10.103-28.598-10.103c-3.367,0-6.803,0.584-10.306,1.751
	c-3.504,1.168-6.763,2.744-9.776,4.726c-3.015,1.982-5.607,3.843-7.781,5.581c-2.172,1.738-4.236,3.585-6.191,5.54
	c-1.956-1.955-4.02-3.802-6.192-5.54c-2.173-1.738-4.766-3.598-7.781-5.581c-3.015-1.983-6.274-3.558-9.777-4.726
	c-3.503-1.167-6.939-1.751-10.306-1.751c-12.167,0-21.699,3.368-28.597,10.103S35,36.609,35,48.558
	c0,3.639,0.639,7.388,1.915,11.243c1.276,3.856,2.73,7.143,4.359,9.858c1.629,2.715,3.476,5.364,5.54,7.944s3.572,4.358,4.522,5.336
	c0.95,0.977,1.697,1.683,2.24,2.117l50.839,49.047c0.978,0.979,2.173,1.468,3.585,1.468s2.607-0.489,3.585-1.466l50.758-48.885
	C174.781,72.783,181,60.562,181,48.558C181,36.609,177.55,27.267,170.652,20.532z"/>
</svg>
