<?xml version="1.0" encoding="utf-8"?>
<!-- Generator: Adobe Illustrator 16.0.4, SVG Export Plug-In . SVG Version: 6.00 Build 0)  -->
<!DOCTYPE svg PUBLIC "-//W3C//DTD SVG 1.1//EN" "http://www.w3.org/Graphics/SVG/1.1/DTD/svg11.dtd">
<svg version="1.1" id="Capa_1" xmlns="http://www.w3.org/2000/svg" xmlns:xlink="http://www.w3.org/1999/xlink" x="0px" y="0px"
	 width="216px" height="146px" viewBox="0 0 216 146" enable-background="new 0 0 216 146" xml:space="preserve">
<g>
	<path d="M163.807,32.834c-1.031-1.032-2.254-1.548-3.666-1.548h-26.07V7.822c0-2.173-0.76-4.021-2.281-5.541
		C130.27,0.761,128.421,0,126.249,0h-36.5c-2.172,0-4.019,0.76-5.54,2.281c-1.521,1.521-2.281,3.368-2.281,5.541v23.464H55.857
		c-1.413,0-2.635,0.516-3.667,1.548c-1.032,1.032-1.548,2.254-1.548,3.666v104.285c0,1.413,0.516,2.635,1.548,3.667
		c1.033,1.032,2.255,1.548,3.667,1.548h104.286c1.412,0,2.635-0.516,3.666-1.548s1.549-2.254,1.549-3.667V36.5
		C165.357,35.088,164.841,33.866,163.807,32.834z M92.359,13.035c0-0.706,0.258-1.317,0.774-1.833
		c0.516-0.516,1.127-0.774,1.833-0.774h5.214c0.706,0,1.317,0.258,1.833,0.774c0.516,0.516,0.774,1.127,0.774,1.833v7.822h10.428
		v-7.822c0-0.706,0.258-1.317,0.773-1.833c0.517-0.516,1.128-0.774,1.834-0.774h5.214c0.707,0,1.317,0.258,1.834,0.774
		c0.515,0.516,0.772,1.127,0.772,1.833v26.072c0,0.706-0.258,1.317-0.772,1.833c-0.517,0.516-1.127,0.774-1.834,0.774h-5.214
		c-0.706,0-1.318-0.258-1.834-0.774c-0.514-0.516-0.773-1.127-0.773-1.833v-7.822h-10.428v7.822c0,0.706-0.258,1.317-0.774,1.833
		c-0.516,0.516-1.127,0.774-1.833,0.774h-5.214c-0.706,0-1.317-0.258-1.833-0.774c-0.516-0.516-0.774-1.127-0.774-1.833V13.035z
		 M154.928,135.572h-31.285v-18.25c0-0.707-0.258-1.318-0.773-1.834c-0.518-0.516-1.127-0.773-1.834-0.773H94.964
		c-0.706,0-1.317,0.258-1.833,0.773c-0.516,0.516-0.774,1.127-0.774,1.834v18.25H61.071V41.714H81.93v2.607
		c0,2.172,0.76,4.019,2.281,5.54c1.521,1.521,3.368,2.281,5.54,2.281h36.5c2.172,0,4.021-0.76,5.54-2.281
		c1.52-1.521,2.281-3.368,2.281-5.54v-2.607h20.855V135.572z"/>
	<path d="M79.321,104.286h-5.214c-0.706,0-1.317,0.258-1.833,0.774s-0.774,1.127-0.774,1.832v5.215c0,0.707,0.258,1.316,0.774,1.834
		c0.516,0.516,1.127,0.773,1.833,0.773h5.214c0.706,0,1.317-0.257,1.833-0.773c0.516-0.518,0.774-1.127,0.774-1.834v-5.215
		c0-0.705-0.258-1.316-0.774-1.832C80.638,104.545,80.027,104.286,79.321,104.286z"/>
	<path d="M79.321,83.429h-5.214c-0.706,0-1.317,0.259-1.833,0.774S71.5,85.33,71.5,86.035v5.215c0,0.707,0.258,1.316,0.774,1.834
		c0.516,0.515,1.127,0.773,1.833,0.773h5.214c0.706,0,1.317-0.258,1.833-0.773c0.516-0.518,0.774-1.127,0.774-1.834v-5.215
		c0-0.705-0.258-1.317-0.774-1.832C80.638,83.688,80.027,83.429,79.321,83.429z"/>
	<path d="M100.179,83.429h-5.214c-0.706,0-1.317,0.259-1.833,0.774c-0.516,0.516-0.774,1.127-0.774,1.832v5.215
		c0,0.707,0.258,1.316,0.774,1.834c0.516,0.515,1.127,0.773,1.833,0.773h5.214c0.706,0,1.317-0.258,1.833-0.773
		c0.516-0.518,0.774-1.127,0.774-1.834v-5.215c0-0.705-0.259-1.316-0.774-1.832C101.496,83.688,100.885,83.429,100.179,83.429z"/>
	<path d="M79.321,62.572h-5.214c-0.706,0-1.317,0.258-1.833,0.774c-0.516,0.516-0.774,1.127-0.774,1.833v5.214
		c0,0.706,0.258,1.317,0.774,1.833S73.401,73,74.107,73h5.214c0.706,0,1.317-0.258,1.833-0.774c0.516-0.516,0.774-1.127,0.774-1.833
		v-5.214c0-0.706-0.258-1.317-0.774-1.833C80.638,62.83,80.027,62.572,79.321,62.572z"/>
	<path d="M141.893,104.286h-5.215c-0.705,0-1.316,0.258-1.832,0.774s-0.773,1.127-0.773,1.832v5.215
		c0,0.707,0.257,1.316,0.773,1.834c0.516,0.516,1.127,0.773,1.832,0.773h5.215c0.707,0,1.317-0.257,1.834-0.773
		c0.516-0.518,0.773-1.127,0.773-1.834v-5.215c0-0.705-0.258-1.316-0.773-1.832C143.21,104.545,142.6,104.286,141.893,104.286z"/>
	<path d="M121.036,83.429h-5.214c-0.706,0-1.318,0.259-1.834,0.774c-0.514,0.516-0.773,1.127-0.773,1.832v5.215
		c0,0.707,0.258,1.316,0.773,1.834c0.517,0.515,1.128,0.773,1.834,0.773h5.214c0.707,0,1.317-0.258,1.834-0.773
		c0.515-0.518,0.772-1.127,0.772-1.834v-5.215c0-0.705-0.258-1.316-0.772-1.832C122.354,83.688,121.743,83.429,121.036,83.429z"/>
	<path d="M100.179,62.572h-5.214c-0.706,0-1.317,0.258-1.833,0.774c-0.516,0.516-0.774,1.127-0.774,1.833v5.214
		c0,0.706,0.258,1.317,0.774,1.833C93.648,72.742,94.259,73,94.965,73h5.214c0.706,0,1.317-0.258,1.833-0.774
		c0.516-0.516,0.774-1.127,0.774-1.833v-5.214c0-0.706-0.259-1.316-0.774-1.833C101.496,62.83,100.885,62.572,100.179,62.572z"/>
	<path d="M141.893,83.429h-5.215c-0.705,0-1.316,0.259-1.832,0.774s-0.773,1.127-0.773,1.832v5.215c0,0.707,0.257,1.316,0.773,1.834
		c0.516,0.515,1.127,0.773,1.832,0.773h5.215c0.707,0,1.317-0.258,1.834-0.773c0.516-0.518,0.773-1.127,0.773-1.834v-5.215
		c0-0.705-0.258-1.316-0.773-1.832C143.21,83.688,142.6,83.429,141.893,83.429z"/>
	<path d="M121.036,62.572h-5.214c-0.706,0-1.318,0.258-1.834,0.774c-0.514,0.516-0.773,1.127-0.773,1.833v5.214
		c0,0.706,0.258,1.317,0.773,1.833c0.517,0.516,1.128,0.774,1.834,0.774h5.214c0.707,0,1.317-0.258,1.834-0.774
		c0.515-0.516,0.772-1.127,0.772-1.833v-5.214c0-0.706-0.258-1.316-0.772-1.833C122.354,62.83,121.743,62.572,121.036,62.572z"/>
	<path d="M134.072,70.393c0,0.706,0.257,1.317,0.773,1.833c0.516,0.516,1.127,0.774,1.832,0.774h5.215
		c0.707,0,1.317-0.258,1.834-0.774c0.516-0.516,0.773-1.127,0.773-1.833v-5.214c0-0.706-0.258-1.316-0.773-1.833
		c-0.517-0.516-1.127-0.774-1.834-0.774h-5.215c-0.705,0-1.316,0.258-1.832,0.774c-0.516,0.516-0.773,1.127-0.773,1.833V70.393z"/>
</g>
</svg>
