<?xml version="1.0" encoding="utf-8"?>
<!-- Generator: Adobe Illustrator 16.0.4, SVG Export Plug-In . SVG Version: 6.00 Build 0)  -->
<!DOCTYPE svg PUBLIC "-//W3C//DTD SVG 1.1//EN" "http://www.w3.org/Graphics/SVG/1.1/DTD/svg11.dtd">
<svg version="1.1" id="Capa_1" xmlns="http://www.w3.org/2000/svg" xmlns:xlink="http://www.w3.org/1999/xlink" x="0px" y="0px"
	 width="216px" height="146px" viewBox="0 0 216 146" enable-background="new 0 0 216 146" xml:space="preserve">
<path d="M168.534,70.637l-19.392-44.973c-0.543-1.359-1.533-2.499-2.973-3.422c-1.439-0.924-2.865-1.385-4.277-1.385H74.107
	c-1.412,0-2.838,0.461-4.277,1.385c-1.439,0.923-2.431,2.063-2.974,3.422L47.465,70.637c-1.358,3.313-2.037,6.654-2.037,10.021
	v39.271c0,1.412,0.516,2.634,1.548,3.666c1.033,1.032,2.255,1.548,3.667,1.548h114.714c1.412,0,2.634-0.516,3.666-1.548
	c1.031-1.032,1.547-2.254,1.547-3.666V80.658C170.57,77.291,169.893,73.95,168.534,70.637z M128.775,78.214l-7.738,15.644H94.965
	l-7.74-15.644H61.479c0.055-0.108,0.122-0.325,0.204-0.651c0.082-0.325,0.15-0.543,0.204-0.651l17.272-40.41h57.683l17.271,40.41
	c0.056,0.163,0.123,0.381,0.203,0.651c0.082,0.271,0.149,0.488,0.205,0.651H128.775z"/>
</svg>
