<?xml version="1.0" encoding="utf-8"?>
<!-- Generator: Adobe Illustrator 16.0.4, SVG Export Plug-In . SVG Version: 6.00 Build 0)  -->
<!DOCTYPE svg PUBLIC "-//W3C//DTD SVG 1.1//EN" "http://www.w3.org/Graphics/SVG/1.1/DTD/svg11.dtd">
<svg version="1.1" id="Capa_1" xmlns="http://www.w3.org/2000/svg" xmlns:xlink="http://www.w3.org/1999/xlink" x="0px" y="0px"
	 width="216px" height="146px" viewBox="0 0 216 146" enable-background="new 0 0 216 146" xml:space="preserve">
<g>
	<path d="M97.571,41.714h20.859c1.411,0,2.633-0.516,3.666-1.548c1.031-1.031,1.547-2.254,1.547-3.666V20.857
		c0-1.412-0.516-2.634-1.549-3.667c-1.031-1.031-2.254-1.548-3.666-1.548H97.571c-1.412,0-2.634,0.517-3.666,1.548
		c-1.032,1.032-1.548,2.255-1.548,3.667V36.5c0,1.412,0.516,2.635,1.548,3.666C94.937,41.198,96.159,41.714,97.571,41.714z"/>
	<path d="M132.523,111.048c-1.031-1.032-2.254-1.548-3.666-1.548h-5.215V62.571c0-1.412-0.516-2.634-1.547-3.666
		c-1.033-1.032-2.255-1.548-3.666-1.548H87.143c-1.412,0-2.634,0.516-3.666,1.548c-1.032,1.032-1.548,2.254-1.548,3.666V73
		c0,1.412,0.516,2.635,1.548,3.666c1.032,1.032,2.254,1.548,3.666,1.548h5.215V109.5h-5.215c-1.412,0-2.634,0.516-3.666,1.548
		c-1.032,1.032-1.548,2.254-1.548,3.666v10.429c0,1.412,0.516,2.635,1.548,3.668c1.032,1.03,2.254,1.547,3.666,1.547h41.714
		c1.412,0,2.634-0.517,3.666-1.547c1.031-1.033,1.547-2.256,1.547-3.668v-10.429C134.07,113.302,133.557,112.08,132.523,111.048z"/>
</g>
</svg>
