<?xml version="1.0" encoding="utf-8"?>
<!-- Generator: Adobe Illustrator 16.0.4, SVG Export Plug-In . SVG Version: 6.00 Build 0)  -->
<!DOCTYPE svg PUBLIC "-//W3C//DTD SVG 1.1//EN" "http://www.w3.org/Graphics/SVG/1.1/DTD/svg11.dtd">
<svg version="1.1" id="Capa_1" xmlns="http://www.w3.org/2000/svg" xmlns:xlink="http://www.w3.org/1999/xlink" x="0px" y="0px"
	 width="216px" height="146px" viewBox="0 0 216 146" enable-background="new 0 0 216 146" xml:space="preserve">
<path d="M165.846,15.155c-3.15-3.151-6.926-4.726-11.324-4.726H61.479c-4.4,0-8.174,1.576-11.325,4.726
	c-3.151,3.15-4.726,6.925-4.726,11.324v93.042c0,4.399,1.575,8.174,4.726,11.324c3.151,3.151,6.926,4.727,11.325,4.727h93.042
	c4.398,0,8.174-1.576,11.324-4.727c3.151-3.15,4.725-6.925,4.725-11.324V26.479C170.57,22.079,168.996,18.306,165.846,15.155z
	 M90.362,55.524c4.915-4.752,10.822-7.129,17.72-7.129c6.952,0,12.886,2.377,17.802,7.129c4.915,4.753,7.373,10.497,7.373,17.232
	c0,6.734-2.458,12.479-7.373,17.23c-4.916,4.753-10.849,7.13-17.802,7.13c-6.898,0-12.804-2.378-17.72-7.13
	s-7.374-10.496-7.374-17.23C82.988,66.021,85.446,60.277,90.362,55.524z M156.396,116.182c0,1.411-0.49,2.592-1.467,3.543
	c-0.979,0.951-2.146,1.426-3.505,1.426H64.331c-1.412,0-2.594-0.475-3.544-1.426c-0.951-0.949-1.426-2.132-1.426-3.543V63.386
	h11.487c-1.086,3.422-1.629,6.98-1.629,10.673c0,10.43,3.802,19.324,11.406,26.684c7.605,7.359,16.757,11.04,27.457,11.04
	c7.061,0,13.579-1.685,19.555-5.052c5.975-3.369,10.698-7.944,14.176-13.729c3.477-5.785,5.215-12.1,5.215-18.943
	c0-3.693-0.545-7.25-1.631-10.673h11V116.182z M156.396,43.425c0,1.575-0.543,2.906-1.631,3.992c-1.086,1.087-2.416,1.63-3.992,1.63
	h-14.176c-1.574,0-2.906-0.543-3.992-1.63c-1.086-1.086-1.629-2.417-1.629-3.992V29.983c0-1.521,0.543-2.838,1.629-3.952
	c1.086-1.113,2.418-1.67,3.992-1.67h14.176c1.576,0,2.906,0.557,3.992,1.67c1.088,1.114,1.631,2.431,1.631,3.952V43.425z"/>
</svg>
