<?xml version="1.0" encoding="utf-8"?>
<!-- Generator: Adobe Illustrator 16.0.4, SVG Export Plug-In . SVG Version: 6.00 Build 0)  -->
<!DOCTYPE svg PUBLIC "-//W3C//DTD SVG 1.1//EN" "http://www.w3.org/Graphics/SVG/1.1/DTD/svg11.dtd">
<svg version="1.1" id="Capa_1" xmlns="http://www.w3.org/2000/svg" xmlns:xlink="http://www.w3.org/1999/xlink" x="0px" y="0px"
	 width="216px" height="146px" viewBox="0 0 216 146" enable-background="new 0 0 216 146" xml:space="preserve">
<path d="M146.782,10.631c-1.9,0.136-3.748,0.259-5.541,0.367c-8.039,0.488-13.851,0.733-17.435,0.733
	c-1.847,0-3.83-0.055-5.947-0.163l-25.827-1.141l-1.548,8.392c0.543,0.108,1.575,0.217,3.096,0.326
	c5.594,0.325,9.505,1.086,11.732,2.281v3.096l-0.652,4.073l-1.792,10.999l-1.304,5.133l-2.363,12.791
	c0,0.055-0.095,0.368-0.285,0.938c-0.19,0.57-0.435,1.398-0.733,2.484c-0.299,1.087-0.638,2.35-1.019,3.789
	s-0.815,3.259-1.304,5.459c-0.489,2.199-0.951,4.494-1.385,6.884l-0.978,5.215l-4.562,21.835l-2.2,11.323
	c-0.652,3.478-1.765,6.221-3.34,8.229c-2.173,1.087-5.323,2.146-9.451,3.179c-3.965,1.031-6.056,1.574-6.273,1.629l-1.385,6.926
	c1.303-0.108,3.964-0.352,7.984-0.734c7.224-0.652,11.949-0.951,14.176-0.896l16.132,0.162c6.843,0.707,10.781,1.168,11.812,1.387
	c1.032,0.162,1.793,0.244,2.281,0.244c0.979,0,2.118-0.055,3.422-0.163c0.271-0.054,0.896-0.081,1.874-0.081
	c0.108-0.543,0.353-1.657,0.733-3.342c0.324-1.575,0.515-3.15,0.57-4.726c-1.631-0.271-3.422-0.543-5.379-0.813
	c-2.985-0.326-6.218-0.897-9.694-1.711c-0.162-1.086-0.189-1.819-0.081-2.2l0.979-3.666l3.504-19.146l3.096-12.873l4.97-25.338
	c1.194-5.812,2.987-14.121,5.378-24.931c0.217-2.064,0.57-4.291,1.059-6.681c0.652-3.096,1.305-5.485,1.955-7.17
	c2.01-0.814,4.754-1.656,8.229-2.525c2.935-0.651,5.894-1.493,8.881-2.525c0.327-1.195,0.681-2.58,1.06-4.155
	c0.219-1.033,0.381-2.064,0.489-3.096C149.661,10.428,148.682,10.495,146.782,10.631z"/>
</svg>
