<?xml version="1.0" encoding="utf-8"?>
<!-- Generator: Adobe Illustrator 16.0.4, SVG Export Plug-In . SVG Version: 6.00 Build 0)  -->
<!DOCTYPE svg PUBLIC "-//W3C//DTD SVG 1.1//EN" "http://www.w3.org/Graphics/SVG/1.1/DTD/svg11.dtd">
<svg version="1.1" id="Capa_1" xmlns="http://www.w3.org/2000/svg" xmlns:xlink="http://www.w3.org/1999/xlink" x="0px" y="0px"
	 width="216px" height="146px" viewBox="0 0 216 146" enable-background="new 0 0 216 146" xml:space="preserve">
<path d="M169.796,56.016c-0.487-4.263-1.168-7.481-2.037-9.654c-0.106-0.326-0.284-0.788-0.528-1.386
	c-0.244-0.597-0.42-1.031-0.529-1.303c-0.109-0.271-0.217-0.639-0.326-1.101c-0.107-0.461-0.189-0.923-0.244-1.385
	s-0.082-0.964-0.082-1.507c0-1.25,0.137-3.097,0.408-5.541c0.271-2.443,0.406-4.29,0.406-5.54c0-4.562-1.006-8.215-3.014-10.958
	c-2.01-2.743-5.216-4.114-9.613-4.114c-1.086,0-2.663,0.136-4.728,0.407c-2.063,0.271-3.612,0.407-4.643,0.407
	c-3.151,0-7.863-0.651-14.138-1.955c-6.273-1.304-11.039-1.955-14.297-1.955c-6.627,0-15.209,2.118-25.747,6.354
	c-8.365,3.313-14.666,6.572-18.902,9.777c-4.671,3.53-8.744,7.767-12.221,12.709c-3.476,4.944-6.206,10.212-8.188,15.807
	c-1.982,5.593-3.462,11.283-4.44,17.068c-0.977,5.784-1.466,11.692-1.466,17.721c0,2.226,0.34,5.525,1.019,9.898
	c0.679,4.373,1.018,7.645,1.018,9.816c0,1.25-0.298,3.068-0.896,5.459c-0.598,2.391-0.896,4.236-0.896,5.54
	c0,3.965,1.371,7.455,4.114,10.47c2.743,3.014,6.097,4.521,10.062,4.521c1.358,0,3.354-0.395,5.988-1.182
	c2.635-0.787,4.603-1.182,5.907-1.182c3.041,0,7.631,0.395,13.769,1.182c6.138,0.787,10.754,1.182,13.85,1.182
	c10.973,0,19.826-1.195,26.561-3.585c8.418-2.987,16.052-7.89,22.896-14.706c6.844-6.817,12.166-14.639,15.969-23.465
	c3.801-8.826,5.703-17.721,5.703-26.683C170.531,63.983,170.284,60.279,169.796,56.016z M155.256,89.705
	c-3.232,7.495-7.74,14.162-13.523,20.001c-5.785,5.84-12.182,9.981-19.188,12.425c-5.595,1.956-13.307,2.934-23.139,2.934
	c-3.096,0-7.699-0.42-13.81-1.263c-6.111-0.842-10.714-1.264-13.81-1.264c-1.358,0-3.353,0.299-5.988,0.896
	c-2.635,0.598-4.604,0.896-5.907,0.896c-1.195,0-2.119-0.395-2.77-1.182c-0.652-0.787-0.978-1.779-0.978-2.975
	s0.298-2.974,0.896-5.337c0.597-2.362,0.896-4.168,0.896-5.418c0-2.226-0.34-5.513-1.019-9.856
	c-0.679-4.346-1.018-7.604-1.018-9.777c0-7.008,0.665-13.756,1.996-20.246c1.33-6.491,3.72-12.9,7.169-19.228
	c3.449-6.328,7.781-11.473,12.995-15.439c3.531-2.662,9.017-5.458,16.458-8.392c3.042-1.195,5.472-2.119,7.292-2.77
	c1.819-0.652,4.128-1.29,6.924-1.915c2.797-0.625,5.363-0.937,7.699-0.937c3.205,0,7.957,0.651,14.258,1.955
	c6.301,1.304,11.08,1.955,14.34,1.955c1.086,0,2.689-0.122,4.807-0.366c2.12-0.245,3.693-0.367,4.727-0.367
	c0.49,0,0.843,0.027,1.06,0.082c0.543,0.977,0.813,2.47,0.813,4.479c0,1.195-0.137,3.028-0.408,5.5
	c-0.271,2.471-0.405,4.331-0.405,5.581c0,1.412,0.106,2.729,0.326,3.951c0.216,1.222,0.46,2.213,0.731,2.974
	c0.272,0.761,0.735,1.955,1.385,3.585c0.599,1.466,1.086,4.087,1.468,7.862c0.381,3.774,0.569,6.857,0.569,9.247
	C160.102,74.738,158.486,82.206,155.256,89.705z"/>
</svg>
