<?xml version="1.0" encoding="utf-8"?>
<!-- Generator: Adobe Illustrator 16.0.4, SVG Export Plug-In . SVG Version: 6.00 Build 0)  -->
<!DOCTYPE svg PUBLIC "-//W3C//DTD SVG 1.1//EN" "http://www.w3.org/Graphics/SVG/1.1/DTD/svg11.dtd">
<svg version="1.1" id="Capa_1" xmlns="http://www.w3.org/2000/svg" xmlns:xlink="http://www.w3.org/1999/xlink" x="0px" y="0px"
	 width="216px" height="146px" viewBox="0 0 216 146" enable-background="new 0 0 216 146" xml:space="preserve">
<path d="M123.236,86.85c10.863,0,19.729-3.312,26.601-9.938c6.87-6.627,10.306-15.182,10.306-25.664
	c0-10.483-3.436-19.038-10.305-25.663c-6.872-6.627-15.738-9.94-26.602-9.94H79.322c-0.76,0-1.385,0.245-1.874,0.733
	c-0.488,0.489-0.733,1.113-0.733,1.874v51.247h-18.25c-0.761,0-1.385,0.257-1.874,0.773c-0.488,0.517-0.733,1.127-0.733,1.833v12.14
	c0,0.761,0.244,1.385,0.733,1.874c0.489,0.489,1.114,0.733,1.874,0.733h18.25v9.612h-18.25c-0.761,0-1.385,0.245-1.874,0.733
	c-0.488,0.488-0.733,1.113-0.733,1.874V109.5c0,0.761,0.244,1.385,0.733,1.874c0.489,0.488,1.114,0.733,1.874,0.733h18.25v15.643
	c0,0.761,0.244,1.385,0.733,1.874c0.489,0.488,1.114,0.733,1.874,0.733h13.606c0.706,0,1.317-0.245,1.833-0.733
	c0.516-0.489,0.774-1.113,0.774-1.874v-15.643h41.145c0.76,0,1.385-0.245,1.873-0.733c0.488-0.489,0.733-1.113,0.733-1.874V99.07
	c0-0.76-0.245-1.385-0.733-1.875c-0.488-0.487-1.113-0.732-1.873-0.732H95.535V86.85H123.236z M95.535,32.997h26.07
	c5.758,0,10.402,1.684,13.933,5.051c3.53,3.368,5.296,7.767,5.296,13.199c0,5.432-1.764,9.831-5.295,13.198
	c-3.531,3.367-8.176,5.052-13.932,5.052H95.535V32.997z"/>
</svg>
