<?xml version="1.0" encoding="utf-8"?>
<!-- Generator: Adobe Illustrator 16.0.4, SVG Export Plug-In . SVG Version: 6.00 Build 0)  -->
<!DOCTYPE svg PUBLIC "-//W3C//DTD SVG 1.1//EN" "http://www.w3.org/Graphics/SVG/1.1/DTD/svg11.dtd">
<svg version="1.1" id="Capa_1" xmlns="http://www.w3.org/2000/svg" xmlns:xlink="http://www.w3.org/1999/xlink" x="0px" y="0px"
	 width="216px" height="146px" viewBox="0 0 216 146" enable-background="new 0 0 216 146" xml:space="preserve">
<path d="M148.449,48.761l-26.071-31.286c-0.978-1.194-2.31-1.792-3.991-1.792c-1.684,0-3.015,0.597-3.992,1.792L88.323,48.761
	c-1.412,1.685-1.656,3.53-0.733,5.54c0.978,2.01,2.554,3.015,4.726,3.015h15.644v52.143H81.888c-0.869,0-1.548,0.298-2.037,0.896
	l-13.036,15.643c-0.652,0.814-0.76,1.766-0.326,2.852c0.435,0.979,1.222,1.467,2.363,1.467h57.357c0.762,0,1.385-0.243,1.874-0.732
	s0.733-1.113,0.733-1.874V57.317h15.643c2.173,0,3.747-1.005,4.727-3.015C150.162,52.347,149.917,50.5,148.449,48.761z"/>
</svg>
