<?xml version="1.0" encoding="utf-8"?>
<!-- Generator: Adobe Illustrator 16.0.4, SVG Export Plug-In . SVG Version: 6.00 Build 0)  -->
<!DOCTYPE svg PUBLIC "-//W3C//DTD SVG 1.1//EN" "http://www.w3.org/Graphics/SVG/1.1/DTD/svg11.dtd">
<svg version="1.1" id="Capa_1" xmlns="http://www.w3.org/2000/svg" xmlns:xlink="http://www.w3.org/1999/xlink" x="0px" y="0px"
	 width="216px" height="146px" viewBox="0 0 216 146" enable-background="new 0 0 216 146" xml:space="preserve">
<g>
	<path d="M146.087,31.897c-2.416-4.643-5.593-8.5-9.53-11.569c-3.938-3.068-8.393-5.485-13.361-7.251
		C118.225,11.313,113.16,10.43,108,10.43s-10.225,0.882-15.195,2.647c-4.97,1.766-9.424,4.183-13.362,7.251
		c-3.937,3.069-7.115,6.925-9.532,11.569s-3.625,9.654-3.625,15.032c0,8.419,2.798,15.697,8.392,21.835
		c2.445,2.661,4.468,5.024,6.07,7.088c1.603,2.063,3.219,4.657,4.848,7.78c1.629,3.123,2.553,6.043,2.77,8.759
		c-2.553,1.521-3.829,3.748-3.829,6.682c0,2.01,0.679,3.748,2.037,5.214c-1.358,1.467-2.037,3.205-2.037,5.215
		c0,2.825,1.223,5.024,3.667,6.601c-0.707,1.248-1.06,2.524-1.06,3.828c0,2.498,0.855,4.428,2.566,5.784
		c1.71,1.358,3.815,2.037,6.314,2.037c1.086,2.39,2.716,4.291,4.888,5.703s4.535,2.118,7.088,2.118c2.553,0,4.916-0.706,7.088-2.118
		c2.173-1.412,3.803-3.313,4.889-5.703c2.498,0,4.604-0.679,6.314-2.037c1.711-1.356,2.566-3.286,2.566-5.784
		c0-1.304-0.354-2.58-1.061-3.828c2.444-1.576,3.667-3.776,3.667-6.601c0-2.01-0.68-3.748-2.037-5.215
		c1.357-1.466,2.037-3.204,2.037-5.214c0-2.934-1.276-5.16-3.83-6.682c0.218-2.716,1.142-5.636,2.771-8.759
		c1.631-3.123,3.246-5.717,4.849-7.78c1.603-2.064,3.626-4.427,6.069-7.088c5.594-6.138,8.393-13.416,8.393-21.835
		C149.715,41.551,148.506,36.541,146.087,31.897z M133.745,61.594c-0.544,0.597-1.372,1.493-2.485,2.688
		c-1.113,1.195-1.941,2.09-2.484,2.688c-6.952,8.311-10.781,16.403-11.487,24.279H98.712c-0.706-7.876-4.535-15.968-11.488-24.279
		c-0.543-0.597-1.371-1.493-2.485-2.688c-1.113-1.195-1.942-2.09-2.485-2.688c-3.693-4.291-5.54-9.18-5.54-14.665
		c0-3.911,0.937-7.55,2.811-10.918c1.875-3.368,4.319-6.124,7.333-8.27c3.014-2.146,6.354-3.829,10.021-5.051
		c3.666-1.223,7.373-1.833,11.121-1.833s7.455,0.61,11.121,1.833c3.666,1.222,7.006,2.905,10.021,5.051
		c3.014,2.146,5.459,4.903,7.332,8.27c1.873,3.368,2.811,7.007,2.811,10.918C139.285,52.414,137.439,57.303,133.745,61.594z"/>
	<path d="M116.107,35.198c-2.688-0.869-5.391-1.304-8.106-1.304c-0.706,0-1.317,0.257-1.833,0.774
		c-0.516,0.516-0.774,1.127-0.774,1.833s0.258,1.317,0.774,1.833c0.516,0.515,1.127,0.774,1.833,0.774
		c2.825,0,5.703,0.679,8.638,2.036c2.932,1.358,4.397,3.286,4.397,5.785c0,0.706,0.257,1.318,0.774,1.833
		c0.517,0.515,1.127,0.773,1.832,0.773c0.707,0,1.317-0.257,1.834-0.773c0.516-0.516,0.773-1.127,0.773-1.833
		c0-2.825-1.02-5.269-3.055-7.332C121.159,37.534,118.795,36.066,116.107,35.198z"/>
</g>
</svg>
