<?xml version="1.0" encoding="utf-8"?>
<!-- Generator: Adobe Illustrator 16.0.4, SVG Export Plug-In . SVG Version: 6.00 Build 0)  -->
<!DOCTYPE svg PUBLIC "-//W3C//DTD SVG 1.1//EN" "http://www.w3.org/Graphics/SVG/1.1/DTD/svg11.dtd">
<svg version="1.1" id="Capa_1" xmlns="http://www.w3.org/2000/svg" xmlns:xlink="http://www.w3.org/1999/xlink" x="0px" y="0px"
	 width="216px" height="146px" viewBox="0 0 216 146" enable-background="new 0 0 216 146" xml:space="preserve">
<path d="M143.6,40.899c-0.814-0.814-1.738-1.221-2.77-1.223c-0.219,0-0.543,0.055-0.979,0.163l-32.263,7.984l13.931-37.722
	c0.271-0.543,0.408-1.031,0.408-1.466c0-0.923-0.354-1.724-1.06-2.403c-0.706-0.68-1.575-1.019-2.606-1.019H91.538
	c-0.869,0-1.629,0.244-2.281,0.733C88.605,6.435,88.17,7.06,87.953,7.82L71.577,75.036c-0.272,1.303,0.081,2.363,1.059,3.178
	c0.706,0.599,1.547,0.896,2.525,0.896c0.435,0,0.761-0.026,0.978-0.081l33.078-8.229l-16.05,65.831
	c-0.217,0.869-0.095,1.684,0.367,2.443c0.462,0.762,1.155,1.277,2.078,1.549c0.543,0.107,0.924,0.162,1.141,0.162
	c1.575,0,2.715-0.678,3.422-2.036l43.995-94.265C144.768,43.18,144.579,41.985,143.6,40.899z"/>
</svg>
