<?xml version="1.0" encoding="utf-8"?>
<!-- Generator: Adobe Illustrator 16.0.4, SVG Export Plug-In . SVG Version: 6.00 Build 0)  -->
<!DOCTYPE svg PUBLIC "-//W3C//DTD SVG 1.1//EN" "http://www.w3.org/Graphics/SVG/1.1/DTD/svg11.dtd">
<svg version="1.1" id="Capa_1" xmlns="http://www.w3.org/2000/svg" xmlns:xlink="http://www.w3.org/1999/xlink" x="0px" y="0px"
	 width="216px" height="146px" viewBox="0 0 216 146" enable-background="new 0 0 216 146" xml:space="preserve">
<path d="M167.637,87.665l-16.947-16.946c-4.562-4.562-10.101-6.844-16.619-6.844c-6.627,0-12.274,2.39-16.946,7.17l-7.17-7.17
	c4.78-4.671,7.17-10.346,7.17-17.028c0-6.518-2.254-12.03-6.763-16.539L93.578,13.444C89.07,8.827,83.53,6.518,76.958,6.518
	c-6.518,0-12.031,2.255-16.539,6.763L48.442,25.176c-4.617,4.509-6.925,10.021-6.925,16.539c0,6.518,2.282,12.059,6.844,16.621
	l16.946,16.946c4.563,4.562,10.103,6.844,16.621,6.844c6.626,0,12.275-2.39,16.946-7.17l7.17,7.17
	c-4.78,4.671-7.17,10.346-7.17,17.028c0,6.518,2.254,12.029,6.762,16.539l16.785,16.863c4.509,4.617,10.047,6.926,16.619,6.926
	c6.519,0,12.03-2.254,16.539-6.763l11.978-11.895c4.616-4.509,6.926-10.021,6.926-16.539
	C174.482,97.768,172.201,92.229,167.637,87.665z M98.875,52.797c-0.163-0.163-0.666-0.679-1.507-1.548
	c-0.841-0.869-1.425-1.453-1.751-1.752c-0.326-0.299-0.842-0.706-1.548-1.223c-0.707-0.516-1.399-0.869-2.078-1.059
	c-0.679-0.19-1.426-0.285-2.241-0.285c-2.172,0-4.019,0.761-5.54,2.281s-2.281,3.367-2.281,5.54c0,0.814,0.095,1.561,0.285,2.24
	c0.19,0.68,0.543,1.372,1.059,2.078c0.516,0.706,0.924,1.222,1.222,1.548c0.298,0.326,0.882,0.91,1.751,1.752
	s1.385,1.344,1.548,1.507c-1.63,1.683-3.585,2.525-5.866,2.525c-2.227,0-4.074-0.733-5.54-2.199L59.441,47.256
	c-1.52-1.521-2.281-3.368-2.281-5.541c0-2.118,0.76-3.937,2.281-5.458l11.977-11.896c1.576-1.467,3.422-2.199,5.541-2.199
	c2.172,0,4.019,0.76,5.54,2.281l16.783,16.864c1.521,1.521,2.281,3.368,2.281,5.54C101.563,49.128,100.667,51.111,98.875,52.797z
	 M156.561,109.742l-11.978,11.896c-1.521,1.412-3.367,2.118-5.541,2.118c-2.228,0-4.072-0.732-5.539-2.199l-16.783-16.865
	c-1.521-1.521-2.28-3.367-2.28-5.539c0-2.281,0.895-4.264,2.688-5.948c0.164,0.163,0.666,0.68,1.508,1.548
	c0.842,0.869,1.426,1.453,1.752,1.752s0.842,0.706,1.547,1.223c0.707,0.517,1.398,0.87,2.078,1.06c0.68,0.19,1.426,0.284,2.24,0.284
	c2.174,0,4.02-0.76,5.541-2.28c1.52-1.521,2.281-3.367,2.281-5.54c0-0.814-0.096-1.561-0.285-2.24
	c-0.191-0.679-0.543-1.372-1.061-2.078c-0.517-0.705-0.922-1.222-1.222-1.548c-0.299-0.325-0.883-0.909-1.752-1.752
	c-0.869-0.842-1.385-1.344-1.549-1.507c1.631-1.738,3.586-2.607,5.866-2.607c2.173,0,4.02,0.76,5.539,2.281l16.947,16.946
	c1.521,1.521,2.281,3.368,2.281,5.541C158.84,106.404,158.08,108.225,156.561,109.742z"/>
</svg>
