<?xml version="1.0" encoding="utf-8"?>
<!-- Generator: Adobe Illustrator 16.0.4, SVG Export Plug-In . SVG Version: 6.00 Build 0)  -->
<!DOCTYPE svg PUBLIC "-//W3C//DTD SVG 1.1//EN" "http://www.w3.org/Graphics/SVG/1.1/DTD/svg11.dtd">
<svg version="1.1" id="Capa_1" xmlns="http://www.w3.org/2000/svg" xmlns:xlink="http://www.w3.org/1999/xlink" x="0px" y="0px"
	 width="216px" height="146px" viewBox="0 0 216 146" enable-background="new 0 0 216 146" xml:space="preserve">
<g>
	<rect x="46.977" y="52.062" width="26.886" height="80.739"/>
	<path d="M162.098,59.437c-5.647-6.165-13.117-9.248-22.404-9.248c-3.422,0-6.532,0.421-9.33,1.263
		c-2.797,0.842-5.159,2.023-7.088,3.544c-1.928,1.521-3.463,2.933-4.603,4.236c-1.084,1.238-2.143,2.679-3.178,4.31V52.061H88.69
		l0.082,3.911c0.055,2.608,0.082,10.646,0.082,24.116c0,13.471-0.054,31.041-0.163,52.713h26.804V87.746
		c0-2.77,0.298-4.969,0.896-6.6c1.142-2.771,2.864-5.092,5.174-6.965c2.309-1.875,5.174-2.812,8.596-2.812
		c4.671,0,8.107,1.616,10.307,4.848c2.199,3.231,3.299,7.699,3.299,13.402v43.18h26.805V86.525
		C170.57,74.629,167.747,65.6,162.098,59.437z"/>
	<path d="M60.583,13.199c-4.508,0-8.16,1.318-10.958,3.952c-2.798,2.634-4.196,5.96-4.196,9.98c0,3.964,1.358,7.278,4.074,9.939
		c2.715,2.661,6.3,3.992,10.754,3.992h0.163c4.563,0,8.243-1.33,11.04-3.992c2.797-2.661,4.168-5.974,4.114-9.939
		c-0.054-4.02-1.44-7.346-4.155-9.98C68.704,14.516,65.091,13.199,60.583,13.199z"/>
</g>
</svg>
