<?xml version="1.0" encoding="utf-8"?>
<!-- Generator: Adobe Illustrator 16.0.4, SVG Export Plug-In . SVG Version: 6.00 Build 0)  -->
<!DOCTYPE svg PUBLIC "-//W3C//DTD SVG 1.1//EN" "http://www.w3.org/Graphics/SVG/1.1/DTD/svg11.dtd">
<svg version="1.1" id="Capa_1" xmlns="http://www.w3.org/2000/svg" xmlns:xlink="http://www.w3.org/1999/xlink" x="0px" y="0px"
	 width="216px" height="146px" viewBox="0 0 216 146" enable-background="new 0 0 216 146" xml:space="preserve">
<path d="M163.686,17.313c-4.588-4.589-10.115-6.884-16.578-6.884H68.893c-6.463,0-11.99,2.295-16.58,6.884
	c-4.589,4.59-6.884,10.117-6.884,16.58v78.214c0,6.463,2.295,11.99,6.884,16.58c4.59,4.59,10.117,6.885,16.58,6.885h78.214
	c6.463,0,11.99-2.295,16.578-6.885c4.59-4.59,6.885-10.117,6.885-16.58V33.893C170.57,27.43,168.275,21.902,163.686,17.313z
	 M83.558,115.203h-18.82V58.66h18.82V115.203z M81.848,48.192c-1.955,1.874-4.535,2.811-7.74,2.811h-0.082
	c-3.096,0-5.607-0.937-7.536-2.811c-1.929-1.874-2.893-4.196-2.893-6.966c0-2.824,0.992-5.16,2.974-7.007
	c1.983-1.847,4.549-2.771,7.699-2.771s5.676,0.924,7.577,2.771c1.901,1.847,2.879,4.183,2.933,7.007
	C84.78,43.995,83.803,46.317,81.848,48.192z M151.262,115.203h-18.82V84.977c0-8.526-3.15-12.791-9.451-12.791
	c-2.389,0-4.399,0.665-6.028,1.996c-1.631,1.33-2.853,2.947-3.667,4.848c-0.38,0.978-0.57,2.498-0.57,4.562v31.611h-18.82
	c0.163-34.11,0.163-52.958,0-56.543h18.82v7.983c3.957-6.187,9.576-9.287,16.865-9.287c6.518,0,11.76,2.146,15.725,6.436
	c3.965,4.291,5.947,10.619,5.947,18.982V115.203z"/>
</svg>
