<?xml version="1.0" encoding="utf-8"?>
<!-- Generator: Adobe Illustrator 16.0.4, SVG Export Plug-In . SVG Version: 6.00 Build 0)  -->
<!DOCTYPE svg PUBLIC "-//W3C//DTD SVG 1.1//EN" "http://www.w3.org/Graphics/SVG/1.1/DTD/svg11.dtd">
<svg version="1.1" id="Capa_1" xmlns="http://www.w3.org/2000/svg" xmlns:xlink="http://www.w3.org/1999/xlink" x="0px" y="0px"
	 width="216px" height="146px" viewBox="0 0 216 146" enable-background="new 0 0 216 146" xml:space="preserve">
<g>
	<path d="M50.643,57.358c-4.346,0-8.039,1.52-11.081,4.562C36.521,64.961,35,68.654,35,73c0,4.345,1.521,8.039,4.563,11.08
		s6.736,4.562,11.081,4.562c4.345,0,8.038-1.521,11.08-4.562c3.041-3.041,4.562-6.735,4.562-11.08c0-4.346-1.521-8.039-4.563-11.08
		C58.682,58.879,54.989,57.358,50.643,57.358z"/>
	<path d="M50.644,15.643c-4.346,0-8.039,1.521-11.081,4.562c-3.041,3.042-4.562,6.735-4.562,11.08c0,4.346,1.52,8.039,4.562,11.081
		c3.042,3.041,6.736,4.562,11.081,4.562c4.345,0,8.038-1.521,11.08-4.562c3.041-3.042,4.562-6.735,4.562-11.081
		c0-4.345-1.521-8.038-4.562-11.08C58.683,17.164,54.99,15.643,50.644,15.643z"/>
	<path d="M50.644,99.072c-4.346,0-8.04,1.52-11.081,4.562s-4.562,6.735-4.562,11.08c0,4.347,1.52,8.039,4.562,11.081
		c3.042,3.041,6.736,4.562,11.081,4.562c4.345,0,8.038-1.521,11.08-4.562c3.041-3.042,4.562-6.734,4.562-11.081
		c0-4.345-1.521-8.039-4.562-11.08S54.99,99.072,50.644,99.072z"/>
	<path d="M180.227,21.631c-0.518-0.515-1.127-0.773-1.834-0.773H79.321c-0.706,0-1.317,0.257-1.833,0.773
		c-0.516,0.517-0.774,1.127-0.774,1.833v15.644c0,0.706,0.258,1.316,0.774,1.833c0.516,0.515,1.127,0.773,1.833,0.773h99.072
		c0.707,0,1.317-0.257,1.834-0.773c0.516-0.517,0.773-1.127,0.773-1.833V23.464C181,22.758,180.742,22.147,180.227,21.631z"/>
	<path d="M178.393,62.572H79.321c-0.706,0-1.317,0.257-1.833,0.774c-0.516,0.516-0.774,1.127-0.774,1.833v15.644
		c0,0.705,0.258,1.316,0.774,1.832c0.516,0.517,1.127,0.774,1.833,0.774h99.072c0.707,0,1.317-0.257,1.834-0.774
		c0.516-0.516,0.773-1.127,0.773-1.832V65.179c0-0.706-0.258-1.318-0.773-1.833C179.709,62.83,179.1,62.572,178.393,62.572z"/>
	<path d="M178.393,104.286H79.321c-0.706,0-1.317,0.258-1.833,0.774c-0.516,0.516-0.774,1.127-0.774,1.832v15.644
		c0,0.707,0.258,1.317,0.774,1.834c0.516,0.515,1.127,0.772,1.833,0.772h99.072c0.707,0,1.317-0.257,1.834-0.772
		c0.516-0.517,0.773-1.127,0.773-1.834v-15.644c0-0.705-0.258-1.317-0.773-1.832C179.709,104.545,179.1,104.286,178.393,104.286z"/>
</g>
</svg>
