<?xml version="1.0" encoding="utf-8"?>
<!-- Generator: Adobe Illustrator 16.0.4, SVG Export Plug-In . SVG Version: 6.00 Build 0)  -->
<!DOCTYPE svg PUBLIC "-//W3C//DTD SVG 1.1//EN" "http://www.w3.org/Graphics/SVG/1.1/DTD/svg11.dtd">
<svg version="1.1" id="Capa_1" xmlns="http://www.w3.org/2000/svg" xmlns:xlink="http://www.w3.org/1999/xlink" x="0px" y="0px"
	 width="216px" height="146px" viewBox="0 0 216 146" enable-background="new 0 0 216 146" xml:space="preserve">
<g>
	<path d="M177.171,19.472c-2.553-2.553-5.622-3.829-9.206-3.829H48.036c-3.585,0-6.654,1.276-9.207,3.829
		C36.276,22.026,35,25.094,35,28.679v88.644c0,3.585,1.276,6.652,3.829,9.207c2.553,2.553,5.622,3.828,9.207,3.828h119.929
		c3.584,0,6.653-1.275,9.206-3.828c2.554-2.555,3.829-5.623,3.829-9.207V28.679C181,25.094,179.725,22.025,177.171,19.472z
		 M170.57,117.321c0,0.706-0.258,1.317-0.773,1.833s-1.127,0.773-1.832,0.773H48.036c-0.706,0-1.317-0.257-1.833-0.773
		c-0.516-0.516-0.774-1.127-0.774-1.833V49.536c0-0.706,0.258-1.317,0.774-1.834c0.516-0.515,1.127-0.773,1.833-0.773h119.929
		c0.705,0,1.316,0.257,1.832,0.773c0.516,0.517,0.773,1.128,0.773,1.834V117.321z"/>
	<path d="M63.679,99.072h-5.214c-0.706,0-1.317,0.257-1.833,0.773c-0.516,0.516-0.774,1.127-0.774,1.833v5.214
		c0,0.707,0.258,1.317,0.774,1.834c0.516,0.516,1.127,0.773,1.833,0.773h5.214c0.706,0,1.317-0.257,1.833-0.773
		c0.516-0.517,0.774-1.127,0.774-1.834v-5.214c0-0.706-0.258-1.317-0.774-1.833C64.996,99.33,64.385,99.072,63.679,99.072z"/>
	<path d="M63.679,78.214h-5.214c-0.706,0-1.317,0.259-1.833,0.774c-0.516,0.516-0.774,1.127-0.774,1.833v5.215
		c0,0.706,0.258,1.315,0.774,1.833c0.516,0.515,1.127,0.773,1.833,0.773h5.214c0.706,0,1.317-0.258,1.833-0.773
		c0.516-0.518,0.774-1.127,0.774-1.833v-5.215c0-0.706-0.258-1.318-0.774-1.833C64.996,78.473,64.385,78.214,63.679,78.214z"/>
	<path d="M63.679,57.358h-5.214c-0.706,0-1.317,0.257-1.833,0.773c-0.516,0.517-0.774,1.127-0.774,1.833v5.215
		c0,0.706,0.258,1.317,0.774,1.833c0.516,0.515,1.127,0.774,1.833,0.774h5.214c0.706,0,1.317-0.258,1.833-0.774
		c0.516-0.516,0.774-1.127,0.774-1.833v-5.215c0-0.706-0.258-1.317-0.774-1.833C64.996,57.616,64.385,57.358,63.679,57.358z"/>
	<path d="M157.535,99.072H79.321c-0.706,0-1.317,0.257-1.833,0.773c-0.516,0.516-0.774,1.127-0.774,1.833v5.214
		c0,0.707,0.258,1.317,0.774,1.834c0.516,0.516,1.127,0.773,1.833,0.773h78.215c0.707,0,1.317-0.257,1.834-0.773
		c0.515-0.517,0.772-1.127,0.772-1.834v-5.214c0-0.706-0.258-1.317-0.773-1.833S158.242,99.072,157.535,99.072z"/>
	<path d="M157.535,78.214H79.321c-0.706,0-1.317,0.259-1.833,0.774c-0.516,0.516-0.774,1.127-0.774,1.833v5.215
		c0,0.706,0.258,1.315,0.774,1.833c0.516,0.515,1.127,0.773,1.833,0.773h78.215c0.707,0,1.317-0.258,1.834-0.773
		c0.515-0.518,0.772-1.127,0.772-1.833v-5.215c0-0.706-0.258-1.318-0.773-1.833C158.854,78.473,158.242,78.214,157.535,78.214z"/>
	<path d="M157.535,57.358H79.321c-0.706,0-1.317,0.257-1.833,0.773c-0.516,0.517-0.774,1.127-0.774,1.833v5.215
		c0,0.706,0.258,1.318,0.774,1.833c0.516,0.515,1.127,0.774,1.833,0.774h78.215c0.707,0,1.319-0.258,1.834-0.774
		c0.515-0.516,0.772-1.127,0.772-1.833v-5.215c0-0.706-0.258-1.317-0.773-1.833C158.854,57.616,158.242,57.358,157.535,57.358z"/>
</g>
</svg>
