<?xml version="1.0" encoding="utf-8"?>
<!-- Generator: Adobe Illustrator 16.0.4, SVG Export Plug-In . SVG Version: 6.00 Build 0)  -->
<!DOCTYPE svg PUBLIC "-//W3C//DTD SVG 1.1//EN" "http://www.w3.org/Graphics/SVG/1.1/DTD/svg11.dtd">
<svg version="1.1" id="Capa_1" xmlns="http://www.w3.org/2000/svg" xmlns:xlink="http://www.w3.org/1999/xlink" x="0px" y="0px"
	 width="216px" height="146px" viewBox="0 0 216 146" enable-background="new 0 0 216 146" xml:space="preserve">
<path d="M165.292,20.002c-0.19-1.115-0.694-2.051-1.508-2.812c-0.978-1.031-2.199-1.548-3.666-1.548
	c-0.869,0-1.656,0.189-2.363,0.57L53.47,68.355c-1.087,0.544-1.874,1.357-2.363,2.444c-0.489,1.087-0.597,2.228-0.326,3.421
	c0.271,1.196,0.883,2.159,1.833,2.894c0.95,0.733,2.023,1.1,3.218,1.1h46.927v46.929c0,1.196,0.367,2.269,1.1,3.22
	c0.734,0.95,1.698,1.562,2.893,1.833c0.543,0.107,0.951,0.162,1.222,0.162c2.172,0,3.721-0.951,4.644-2.852L164.762,23.22
	C165.305,22.188,165.48,21.115,165.292,20.002z"/>
</svg>
