<?xml version="1.0" encoding="utf-8"?>
<!-- Generator: Adobe Illustrator 16.0.4, SVG Export Plug-In . SVG Version: 6.00 Build 0)  -->
<!DOCTYPE svg PUBLIC "-//W3C//DTD SVG 1.1//EN" "http://www.w3.org/Graphics/SVG/1.1/DTD/svg11.dtd">
<svg version="1.1" id="Capa_1" xmlns="http://www.w3.org/2000/svg" xmlns:xlink="http://www.w3.org/1999/xlink" x="0px" y="0px"
	 width="216px" height="146px" viewBox="0 0 216 146" enable-background="new 0 0 216 146" xml:space="preserve">
<path d="M177.578,70.888l-31.285-28.516c-0.87-0.706-1.82-0.842-2.852-0.407c-1.032,0.435-1.549,1.222-1.549,2.363v18.25H40.214
	c-0.761,0-1.386,0.244-1.874,0.733c-0.488,0.489-0.733,1.114-0.733,1.874v15.643c0,0.76,0.244,1.385,0.733,1.873
	c0.489,0.488,1.114,0.732,1.874,0.732h101.679v18.25c0,1.088,0.518,1.875,1.549,2.363c1.033,0.436,1.983,0.271,2.853-0.488
	l31.285-28.843c0.543-0.543,0.813-1.194,0.813-1.955C178.393,72.055,178.121,71.431,177.578,70.888z"/>
</svg>
