<?xml version="1.0" encoding="utf-8"?>
<!-- Generator: Adobe Illustrator 16.0.4, SVG Export Plug-In . SVG Version: 6.00 Build 0)  -->
<!DOCTYPE svg PUBLIC "-//W3C//DTD SVG 1.1//EN" "http://www.w3.org/Graphics/SVG/1.1/DTD/svg11.dtd">
<svg version="1.1" id="Capa_1" xmlns="http://www.w3.org/2000/svg" xmlns:xlink="http://www.w3.org/1999/xlink" x="0px" y="0px"
	 width="216px" height="146px" viewBox="0 0 216 146" enable-background="new 0 0 216 146" xml:space="preserve">
<path d="M138.637,34.708L109.713,3.422c-0.543-0.543-1.195-0.814-1.956-0.814c-0.707,0-1.331,0.271-1.874,0.814L77.367,34.708
	c-0.706,0.87-0.842,1.82-0.408,2.852c0.435,1.032,1.222,1.548,2.363,1.548h18.25v101.679c0,0.76,0.244,1.385,0.733,1.874
	c0.489,0.487,1.113,0.731,1.874,0.731h15.643c0.761,0,1.386-0.244,1.873-0.731c0.488-0.489,0.734-1.114,0.734-1.874V39.108h18.25
	c1.086,0,1.873-0.516,2.361-1.548C139.477,36.527,139.34,35.577,138.637,34.708z"/>
</svg>
