<?xml version="1.0" encoding="utf-8"?>
<!-- Generator: Adobe Illustrator 16.0.4, SVG Export Plug-In . SVG Version: 6.00 Build 0)  -->
<!DOCTYPE svg PUBLIC "-//W3C//DTD SVG 1.1//EN" "http://www.w3.org/Graphics/SVG/1.1/DTD/svg11.dtd">
<svg version="1.1" id="Capa_1" xmlns="http://www.w3.org/2000/svg" xmlns:xlink="http://www.w3.org/1999/xlink" x="0px" y="0px"
	 width="216px" height="146px" viewBox="0 0 216 146" enable-background="new 0 0 216 146" xml:space="preserve">
<path d="M177.659,63.298c-0.489-0.489-1.113-0.733-1.874-0.733H74.107v-18.25c0-1.087-0.517-1.874-1.548-2.363
	c-1.033-0.434-1.984-0.271-2.852,0.489L38.421,71.282c-0.543,0.544-0.814,1.196-0.814,1.956c0,0.706,0.271,1.331,0.814,1.874
	l31.286,28.516c0.869,0.706,1.82,0.843,2.852,0.407c1.031-0.434,1.548-1.221,1.548-2.362v-18.25h101.679
	c0.761,0,1.385-0.245,1.874-0.733c0.488-0.488,0.732-1.112,0.732-1.873V65.173C178.393,64.413,178.148,63.787,177.659,63.298z"/>
</svg>
