<?xml version="1.0" encoding="utf-8"?>
<!-- Generator: Adobe Illustrator 16.0.4, SVG Export Plug-In . SVG Version: 6.00 Build 0)  -->
<!DOCTYPE svg PUBLIC "-//W3C//DTD SVG 1.1//EN" "http://www.w3.org/Graphics/SVG/1.1/DTD/svg11.dtd">
<svg version="1.1" id="Capa_1" xmlns="http://www.w3.org/2000/svg" xmlns:xlink="http://www.w3.org/1999/xlink" x="0px" y="0px"
	 width="216px" height="146px" viewBox="0 0 216 146" enable-background="new 0 0 216 146" xml:space="preserve">
<path d="M139.041,108.441c-0.434-1.032-1.223-1.549-2.364-1.549h-18.25V5.214c0-0.761-0.245-1.386-0.733-1.874
	c-0.487-0.489-1.112-0.733-1.873-0.733h-15.644c-0.761,0-1.385,0.244-1.874,0.733c-0.488,0.488-0.733,1.113-0.733,1.874v101.679
	H79.32c-1.086,0-1.874,0.517-2.363,1.549c-0.434,1.031-0.298,1.982,0.408,2.852l28.923,31.285c0.543,0.543,1.195,0.814,1.956,0.814
	c0.707,0,1.331-0.271,1.874-0.814l28.516-31.285C139.34,110.423,139.477,109.473,139.041,108.441z"/>
</svg>
