<?xml version="1.0" encoding="utf-8"?>
<!-- Generator: Adobe Illustrator 16.0.4, SVG Export Plug-In . SVG Version: 6.00 Build 0)  -->
<!DOCTYPE svg PUBLIC "-//W3C//DTD SVG 1.1//EN" "http://www.w3.org/Graphics/SVG/1.1/DTD/svg11.dtd">
<svg version="1.1" id="Capa_1" xmlns="http://www.w3.org/2000/svg" xmlns:xlink="http://www.w3.org/1999/xlink" x="0px" y="0px"
	 width="216px" height="146px" viewBox="0 0 216 146" enable-background="new 0 0 216 146" xml:space="preserve">
<g>
	<path d="M172.484,29.778c0-1.466-0.487-2.688-1.465-3.665L154.887,9.981c-0.978-0.978-2.199-1.467-3.666-1.467
		s-2.688,0.489-3.666,1.467L42.781,114.755c-0.979,0.978-1.467,2.2-1.467,3.667s0.488,2.688,1.467,3.666l16.131,16.132
		c0.979,0.978,2.2,1.466,3.667,1.466c1.466,0,2.688-0.487,3.666-1.466L171.02,33.445C171.997,32.466,172.484,31.245,172.484,29.778z
		 M136.066,53.65l-8.717-8.718l23.871-23.872l8.717,8.718L136.066,53.65z"/>
	<polygon points="59.972,27.171 62.416,19.187 70.4,16.743 62.416,14.299 59.972,6.315 57.528,14.299 49.544,16.743 57.528,19.187 	
		"/>
	<polygon points="81.154,37.275 86.043,53.244 90.932,37.275 106.901,32.386 90.932,27.497 86.043,11.528 81.154,27.497 
		65.185,32.386 	"/>
	<polygon points="166.701,66.441 164.257,58.457 161.814,66.441 153.83,68.885 161.814,71.329 164.257,79.312 166.701,71.329 
		174.686,68.885 	"/>
	<polygon points="112.115,27.171 114.559,19.187 122.543,16.743 114.559,14.299 112.115,6.315 109.671,14.299 101.687,16.743 
		109.671,19.187 	"/>
</g>
</svg>
