<?xml version="1.0" encoding="utf-8"?>
<!-- Generator: Adobe Illustrator 16.0.4, SVG Export Plug-In . SVG Version: 6.00 Build 0)  -->
<!DOCTYPE svg PUBLIC "-//W3C//DTD SVG 1.1//EN" "http://www.w3.org/Graphics/SVG/1.1/DTD/svg11.dtd">
<svg version="1.1" id="Capa_1" xmlns="http://www.w3.org/2000/svg" xmlns:xlink="http://www.w3.org/1999/xlink" x="0px" y="0px"
	 width="216px" height="146px" viewBox="0 0 216 146" enable-background="new 0 0 216 146" xml:space="preserve">
<path d="M178.659,47.133c-1.142-5.187-3.341-9.763-6.601-13.728c-3.205-3.966-7.209-7.048-12.017-9.248
	c-4.808-2.199-9.954-3.299-15.438-3.299H40.643L53.108,47.5l-16.621,77.645h27.211L80.319,47.5h23.302L87,125.145h27.212
	l16.62-77.645h13.77c3.041,0,5.295,0.895,6.762,2.688c1.523,1.738,1.93,4.128,1.224,7.17l-14.502,67.785h27.211l13.362-62.164
	C179.799,57.602,179.799,52.319,178.659,47.133z"/>
</svg>
