<?xml version="1.0" encoding="utf-8"?>
<!-- Generator: Adobe Illustrator 16.0.4, SVG Export Plug-In . SVG Version: 6.00 Build 0)  -->
<!DOCTYPE svg PUBLIC "-//W3C//DTD SVG 1.1//EN" "http://www.w3.org/Graphics/SVG/1.1/DTD/svg11.dtd">
<svg version="1.1" id="Capa_1" xmlns="http://www.w3.org/2000/svg" xmlns:xlink="http://www.w3.org/1999/xlink" x="0px" y="0px"
	 width="216px" height="146px" viewBox="0 0 216 146" enable-background="new 0 0 216 146" xml:space="preserve">
<path d="M136.189,23.953c-2.063-2.065-4.508-3.096-7.332-3.096H87.143c-2.825,0-5.269,1.032-7.333,3.096
	c-2.064,2.063-3.096,4.508-3.096,7.332v83.429c0,2.825,1.032,5.269,3.096,7.333s4.508,3.096,7.333,3.096h41.714
	c2.824,0,5.269-1.033,7.332-3.096c2.064-2.064,3.096-4.508,3.096-7.333V31.285C139.285,28.461,138.254,26.017,136.189,23.953z
	 M101.482,31.285h13.036c0.869,0,1.303,0.435,1.303,1.304s-0.434,1.304-1.303,1.304h-13.036c-0.869,0-1.304-0.435-1.304-1.304
	C100.178,31.72,100.613,31.285,101.482,31.285z M112.604,119.318c-1.277,1.275-2.811,1.914-4.604,1.914
	c-1.792,0-3.326-0.638-4.603-1.914c-1.277-1.277-1.915-2.812-1.915-4.604c0-1.792,0.639-3.327,1.915-4.603
	c1.276-1.276,2.811-1.916,4.603-1.916c1.793,0,3.327,0.64,4.604,1.916s1.914,2.811,1.914,4.603
	C114.518,116.507,113.88,118.041,112.604,119.318z M131.465,101.679c0,0.706-0.258,1.318-0.775,1.833
	c-0.517,0.516-1.127,0.773-1.832,0.773H87.143c-0.706,0-1.317-0.258-1.833-0.773s-0.774-1.127-0.774-1.833V44.322
	c0-0.706,0.258-1.317,0.774-1.833c0.516-0.515,1.127-0.774,1.833-0.774h41.714c0.707,0,1.317,0.258,1.834,0.774
	c0.516,0.516,0.773,1.127,0.773,1.833V101.679z"/>
</svg>
