<?xml version="1.0" encoding="utf-8"?>
<!-- Generator: Adobe Illustrator 16.0.4, SVG Export Plug-In . SVG Version: 6.00 Build 0)  -->
<!DOCTYPE svg PUBLIC "-//W3C//DTD SVG 1.1//EN" "http://www.w3.org/Graphics/SVG/1.1/DTD/svg11.dtd">
<svg version="1.1" id="Capa_1" xmlns="http://www.w3.org/2000/svg" xmlns:xlink="http://www.w3.org/1999/xlink" x="0px" y="0px"
	 width="216px" height="146px" viewBox="0 0 216 146" enable-background="new 0 0 216 146" xml:space="preserve">
<g>
	<path d="M184.666,22.405c-1.031-1.032-2.254-1.548-3.666-1.548H35c-1.412,0-2.635,0.516-3.667,1.548
		c-1.031,1.032-1.548,2.254-1.548,3.666v93.856c0,1.412,0.517,2.635,1.548,3.666c1.032,1.032,2.255,1.549,3.667,1.549h146
		c1.412,0,2.635-0.517,3.666-1.549c1.032-1.031,1.549-2.254,1.549-3.666V26.071C186.215,24.659,185.698,23.438,184.666,22.405z
		 M175.785,93.857c-5.758,0-10.672,2.037-14.747,6.109c-4.074,4.073-6.11,8.989-6.11,14.746H61.071
		c0-5.757-2.037-10.673-6.11-14.746c-4.074-4.074-8.989-6.109-14.747-6.109V52.142c5.758,0,10.673-2.037,14.747-6.11
		c4.073-4.073,6.11-8.989,6.11-14.747h93.859c0,5.758,2.035,10.674,6.109,14.747c4.074,4.073,8.988,6.11,14.746,6.11V93.857z"/>
	<path d="M127.512,50.514c-2.091-3.368-4.848-6.111-8.27-8.229s-7.169-3.177-11.243-3.177s-7.821,1.059-11.243,3.177
		c-3.422,2.118-6.179,4.861-8.27,8.229c-2.092,3.367-3.707,7.006-4.848,10.917c-1.141,3.911-1.711,7.768-1.711,11.569
		s0.57,7.658,1.711,11.568c1.141,3.91,2.756,7.551,4.848,10.918c2.091,3.369,4.848,6.11,8.27,8.229
		c3.422,2.119,7.169,3.178,11.243,3.178s7.821-1.059,11.243-3.178s6.179-4.861,8.27-8.229c2.092-3.367,3.707-7.008,4.848-10.918
		c1.142-3.91,1.711-7.767,1.711-11.568s-0.569-7.658-1.711-11.569C131.219,57.52,129.604,53.881,127.512,50.514z M123.643,93.857
		H92.356v-7.822h10.427V62.571h-0.163c-0.706,1.086-2.199,2.635-4.48,4.644l-6.273-6.518l12.058-11.162h9.289v36.5h10.429V93.857z"
		/>
</g>
</svg>
