<?xml version="1.0" encoding="utf-8"?>
<!-- Generator: Adobe Illustrator 16.0.4, SVG Export Plug-In . SVG Version: 6.00 Build 0)  -->
<!DOCTYPE svg PUBLIC "-//W3C//DTD SVG 1.1//EN" "http://www.w3.org/Graphics/SVG/1.1/DTD/svg11.dtd">
<svg version="1.1" id="Capa_1" xmlns="http://www.w3.org/2000/svg" xmlns:xlink="http://www.w3.org/1999/xlink" x="0px" y="0px"
	 width="216px" height="146px" viewBox="0 0 216 146" enable-background="new 0 0 216 146" xml:space="preserve">
<path d="M167.818,96.103c-0.19-1.087-0.666-2.01-1.426-2.771c-1.684-1.685-3.639-2.038-5.865-1.061
	c-5.975,2.771-12.168,4.155-18.576,4.155c-8.039,0-15.453-1.981-22.242-5.947c-6.789-3.965-12.166-9.342-16.131-16.132
	c-3.966-6.789-5.948-14.203-5.948-22.242c0-6.246,1.236-12.18,3.707-17.802c2.471-5.622,6.043-10.551,10.714-14.788
	c1.792-1.683,2.2-3.639,1.223-5.866c-0.924-2.226-2.58-3.285-4.97-3.177c-8.31,0.326-16.186,2.187-23.627,5.581
	c-7.441,3.394-13.837,7.861-19.187,13.402c-5.35,5.54-9.587,12.099-12.71,19.676c-3.123,7.577-4.685,15.521-4.685,23.831
	c0,8.473,1.657,16.566,4.97,24.279c3.314,7.713,7.767,14.366,13.362,19.961c5.594,5.593,12.248,10.047,19.961,13.361
	c7.713,3.313,15.805,4.97,24.278,4.97c12.167,0,23.396-3.3,33.688-9.899c10.293-6.599,17.992-15.412,23.099-26.438
	C167.887,98.22,168.009,97.188,167.818,96.103z M132.949,120.093c-7.034,3.341-14.461,5.011-22.283,5.011
	c-7.061,0-13.809-1.384-20.246-4.154c-6.436-2.77-11.977-6.477-16.621-11.121c-4.643-4.644-8.35-10.184-11.121-16.62
	c-2.77-6.437-4.155-13.185-4.155-20.246c0-11.678,3.463-22.106,10.388-31.286c6.925-9.179,15.847-15.398,26.764-18.657
	c-5.649,8.962-8.474,18.657-8.474,29.086c0,9.886,2.444,19.038,7.333,27.458c4.888,8.418,11.542,15.071,19.961,19.961
	c8.418,4.888,17.569,7.332,27.456,7.332c3.041,0,6.029-0.244,8.962-0.733C145.971,112.098,139.982,116.755,132.949,120.093z"/>
</svg>
