<?xml version="1.0" encoding="utf-8"?>
<!-- Generator: Adobe Illustrator 16.0.4, SVG Export Plug-In . SVG Version: 6.00 Build 0)  -->
<!DOCTYPE svg PUBLIC "-//W3C//DTD SVG 1.1//EN" "http://www.w3.org/Graphics/SVG/1.1/DTD/svg11.dtd">
<svg version="1.1" id="Capa_1" xmlns="http://www.w3.org/2000/svg" xmlns:xlink="http://www.w3.org/1999/xlink" x="0px" y="0px"
	 width="216px" height="146px" viewBox="0 0 216 146" enable-background="new 0 0 216 146" xml:space="preserve">
<path d="M179.451,69.334l-20.857-20.857c-1.031-1.032-2.254-1.548-3.666-1.548s-2.634,0.516-3.667,1.548
	c-1.03,1.033-1.547,2.255-1.547,3.667v10.429h-31.286V31.287h10.43c1.412,0,2.634-0.516,3.666-1.548
	c1.031-1.032,1.547-2.253,1.547-3.666c0-1.413-0.516-2.635-1.547-3.667L111.666,1.549c-1.031-1.032-2.253-1.548-3.666-1.548
	s-2.635,0.516-3.667,1.548L83.476,22.406c-1.032,1.033-1.548,2.255-1.548,3.667c0,1.412,0.516,2.634,1.548,3.666
	c1.033,1.032,2.254,1.548,3.667,1.548h10.429v31.286H66.286V52.144c0-1.413-0.516-2.635-1.548-3.667
	c-1.033-1.032-2.255-1.548-3.667-1.548c-1.412,0-2.634,0.516-3.666,1.548L36.548,69.334C35.516,70.366,35,71.588,35,73
	s0.516,2.635,1.548,3.666l20.857,20.857c1.032,1.031,2.253,1.549,3.666,1.549c1.413,0,2.635-0.518,3.667-1.549
	c1.032-1.031,1.548-2.254,1.548-3.666v-10.43h31.286v31.286H87.144c-1.413,0-2.635,0.517-3.667,1.548
	c-1.032,1.032-1.548,2.254-1.548,3.666s0.516,2.635,1.548,3.668l20.857,20.855c1.033,1.031,2.255,1.548,3.667,1.548
	s2.636-0.517,3.666-1.548l20.856-20.855c1.033-1.033,1.549-2.256,1.549-3.668s-0.516-2.634-1.549-3.666
	c-1.031-1.031-2.254-1.548-3.666-1.548H118.43V83.428h31.285v10.43c0,1.412,0.516,2.635,1.547,3.666
	c1.033,1.031,2.256,1.549,3.668,1.549c1.411,0,2.633-0.518,3.666-1.549l20.856-20.857C180.484,75.635,181,74.412,181,73
	S180.484,70.366,179.451,69.334z"/>
</svg>
