<?xml version="1.0" encoding="utf-8"?>
<!-- Generator: Adobe Illustrator 16.0.4, SVG Export Plug-In . SVG Version: 6.00 Build 0)  -->
<!DOCTYPE svg PUBLIC "-//W3C//DTD SVG 1.1//EN" "http://www.w3.org/Graphics/SVG/1.1/DTD/svg11.dtd">
<svg version="1.1" id="Capa_1" xmlns="http://www.w3.org/2000/svg" xmlns:xlink="http://www.w3.org/1999/xlink" x="0px" y="0px"
	 width="216px" height="146px" viewBox="0 0 216 146" enable-background="new 0 0 216 146" xml:space="preserve">
<path d="M170.327,53.69c-3.642-7.604-8.502-14.19-14.584-19.757c-6.084-5.567-13.31-10.008-21.673-13.321
	c-8.364-3.313-17.053-4.97-26.071-4.97c-9.016,0-17.706,1.658-26.071,4.97c-8.365,3.312-15.588,7.753-21.672,13.321
	S49.311,46.086,45.672,53.69c-3.639,7.605-5.458,15.508-5.458,23.708c0,9.018,1.629,17.545,4.888,25.584l1.63,3.992l15.072,2.688
	c1.195,4.508,3.653,8.215,7.374,11.121c3.72,2.904,7.97,4.357,12.75,4.357v2.607c0,0.761,0.244,1.385,0.733,1.874
	c0.489,0.488,1.114,0.733,1.874,0.733h5.214c0.76,0,1.385-0.245,1.874-0.733c0.488-0.489,0.733-1.113,0.733-1.874V80.819
	c0-0.761-0.244-1.386-0.733-1.874c-0.489-0.488-1.114-0.733-1.874-0.733h-5.214c-0.761,0-1.385,0.245-1.874,0.733
	c-0.489,0.488-0.733,1.113-0.733,1.874v2.606c-3.857,0-7.387,0.965-10.592,2.894c-3.205,1.927-5.73,4.521-7.577,7.78l-5.541-0.979
	c-1.574-5.161-2.362-10.402-2.362-15.725c0-8.038,2.389-15.615,7.169-22.73c4.78-7.115,11.203-12.792,19.269-17.028
	s16.634-6.354,25.705-6.354c9.069,0,17.638,2.118,25.705,6.354s14.489,9.913,19.269,17.028c4.78,7.115,7.17,14.692,7.17,22.73
	c0,5.324-0.787,10.564-2.361,15.725L152.24,94.1c-1.848-3.26-4.373-5.853-7.576-7.78c-3.205-1.929-6.737-2.894-10.592-2.894v-2.606
	c0-0.761-0.244-1.386-0.734-1.874c-0.488-0.488-1.113-0.733-1.873-0.733h-5.215c-0.76,0-1.385,0.245-1.873,0.733
	c-0.49,0.488-0.734,1.113-0.734,1.874v46.929c0,0.761,0.244,1.385,0.734,1.874c0.488,0.488,1.113,0.733,1.873,0.733h5.215
	c0.76,0,1.385-0.245,1.873-0.733c0.49-0.489,0.734-1.113,0.734-1.874v-2.607c4.779,0,9.029-1.453,12.75-4.357
	c3.721-2.906,6.178-6.613,7.373-11.121l15.072-2.688l1.631-3.992c3.258-8.039,4.887-16.566,4.887-25.584
	C175.785,69.198,173.967,61.295,170.327,53.69z"/>
</svg>
