<?xml version="1.0" encoding="utf-8"?>
<!-- Generator: Adobe Illustrator 16.0.4, SVG Export Plug-In . SVG Version: 6.00 Build 0)  -->
<!DOCTYPE svg PUBLIC "-//W3C//DTD SVG 1.1//EN" "http://www.w3.org/Graphics/SVG/1.1/DTD/svg11.dtd">
<svg version="1.1" id="Capa_1" xmlns="http://www.w3.org/2000/svg" xmlns:xlink="http://www.w3.org/1999/xlink" x="0px" y="0px"
	 width="216px" height="146px" viewBox="0 0 216 146" enable-background="new 0 0 216 146" xml:space="preserve">
<g>
	<path d="M121.035,99.072H94.964c-2.173,0-4.019,0.76-5.54,2.281c-1.521,1.521-2.281,3.367-2.281,5.539v15.645
		c0,2.172,0.76,4.02,2.281,5.54c1.52,1.521,3.367,2.28,5.54,2.28h26.071c2.174,0,4.02-0.76,5.541-2.28
		c1.52-1.521,2.281-3.368,2.281-5.54v-15.645c0-2.172-0.76-4.019-2.281-5.539S123.209,99.072,121.035,99.072z"/>
	<path d="M68.893,99.072H42.821c-2.172,0-4.019,0.76-5.54,2.281C35.76,102.874,35,104.721,35,106.893v15.645
		c0,2.172,0.76,4.02,2.281,5.54c1.521,1.521,3.368,2.28,5.54,2.28h26.072c2.172,0,4.019-0.76,5.54-2.28s2.281-3.368,2.281-5.54
		v-15.645c0-2.172-0.76-4.019-2.281-5.539S71.065,99.072,68.893,99.072z"/>
	<path d="M68.893,15.642H42.821c-2.172,0-4.019,0.76-5.54,2.281C35.76,19.444,35,21.291,35,23.463v15.644
		c0,2.173,0.76,4.021,2.281,5.541c1.521,1.52,3.368,2.281,5.54,2.281h26.072c2.172,0,4.019-0.761,5.54-2.281s2.281-3.367,2.281-5.54
		V23.464c0-2.172-0.76-4.019-2.281-5.541C72.912,16.403,71.065,15.642,68.893,15.642z"/>
	<path d="M121.035,57.358H94.964c-2.173,0-4.019,0.76-5.54,2.281s-2.281,3.367-2.281,5.54v15.644c0,2.173,0.76,4.019,2.281,5.539
		c1.52,1.521,3.367,2.281,5.54,2.281h26.071c2.174,0,4.02-0.76,5.541-2.281c1.52-1.52,2.281-3.366,2.281-5.539V65.179
		c0-2.173-0.76-4.02-2.281-5.54S123.209,57.358,121.035,57.358z"/>
	<path d="M68.893,57.358H42.821c-2.172,0-4.019,0.76-5.54,2.281C35.76,61.159,35,63.006,35,65.179v15.644
		c0,2.173,0.76,4.019,2.281,5.539c1.521,1.521,3.368,2.281,5.54,2.281h26.072c2.172,0,4.019-0.76,5.54-2.281
		c1.521-1.52,2.281-3.366,2.281-5.539V65.179c0-2.173-0.76-4.02-2.281-5.54S71.065,57.358,68.893,57.358z"/>
	<path d="M178.719,17.924c-1.521-1.52-3.367-2.281-5.539-2.281h-26.072c-2.172,0-4.02,0.76-5.541,2.281
		c-1.52,1.521-2.28,3.368-2.28,5.54v15.644c0,2.173,0.76,4.019,2.28,5.54c1.521,1.52,3.369,2.281,5.541,2.281h26.072
		c2.172,0,4.018-0.761,5.539-2.281S181,41.281,181,39.108V23.464C181,21.292,180.24,19.445,178.719,17.924z"/>
	<path d="M121.035,15.643H94.964c-2.173,0-4.019,0.76-5.54,2.281s-2.281,3.368-2.281,5.54v15.644c0,2.173,0.76,4.019,2.281,5.54
		c1.52,1.52,3.367,2.281,5.54,2.281h26.071c2.174,0,4.02-0.76,5.541-2.281c1.52-1.52,2.281-3.367,2.281-5.54V23.464
		c0-2.172-0.76-4.019-2.281-5.54C125.055,16.404,123.209,15.643,121.035,15.643z"/>
	<path d="M173.18,57.358h-26.072c-2.172,0-4.02,0.76-5.541,2.281c-1.52,1.521-2.28,3.367-2.28,5.54v15.644
		c0,2.173,0.76,4.019,2.28,5.539c1.521,1.521,3.369,2.281,5.541,2.281h26.072c2.172,0,4.019-0.76,5.539-2.281
		c1.521-1.52,2.281-3.366,2.281-5.539V65.179c0-2.173-0.76-4.02-2.281-5.54C177.198,58.118,175.352,57.358,173.18,57.358z"/>
	<path d="M173.18,99.072h-26.072c-2.172,0-4.02,0.76-5.541,2.281c-1.52,1.521-2.28,3.367-2.28,5.539v15.645
		c0,2.172,0.76,4.02,2.28,5.54c1.521,1.521,3.369,2.28,5.541,2.28h26.072c2.172,0,4.019-0.76,5.539-2.28
		c1.521-1.521,2.281-3.368,2.281-5.54v-15.645c0-2.172-0.76-4.019-2.281-5.539C177.198,99.833,175.352,99.072,173.18,99.072z"/>
</g>
</svg>
