<?xml version="1.0" encoding="utf-8"?>
<!-- Generator: Adobe Illustrator 16.0.4, SVG Export Plug-In . SVG Version: 6.00 Build 0)  -->
<!DOCTYPE svg PUBLIC "-//W3C//DTD SVG 1.1//EN" "http://www.w3.org/Graphics/SVG/1.1/DTD/svg11.dtd">
<svg version="1.1" id="Capa_1" xmlns="http://www.w3.org/2000/svg" xmlns:xlink="http://www.w3.org/1999/xlink" x="0px" y="0px"
	 width="216px" height="146px" viewBox="0 0 216 146" enable-background="new 0 0 216 146" xml:space="preserve">
<g>
	<path d="M56.877,0.367H48.24L37.16,10.714l5.784,6.192c2.281-2.009,3.639-3.477,4.074-4.399h0.163v0.978
		c0,2.172-0.014,5.458-0.041,9.858c-0.027,4.399-0.041,7.712-0.041,9.939h-8.718v8.066h27.294v-8.066h-8.798V0.367z"/>
	<path d="M179.615,21.265c-0.518-0.516-1.127-0.774-1.834-0.774H78.71c-0.706,0-1.316,0.258-1.833,0.774
		c-0.515,0.516-0.773,1.127-0.773,1.833v15.643c0,0.706,0.257,1.317,0.773,1.833c0.517,0.516,1.127,0.774,1.833,0.774h99.072
		c0.707,0,1.317-0.258,1.834-0.774c0.515-0.516,0.772-1.127,0.772-1.833V23.098C180.389,22.392,180.131,21.781,179.615,21.265z"/>
	<path d="M56.388,120.458l7.74-9.369v-7.17H36.997v12.384h8.636v-4.318c0.869,0,2.186-0.025,3.952-0.08
		c1.764-0.055,3.082-0.082,3.951-0.082v0.082c-1.033,0.978-2.037,2.023-3.015,3.137s-2.132,2.58-3.463,4.398
		c-1.33,1.82-2.212,3.002-2.647,3.545l2.118,4.562c5.703-0.436,8.555,1.085,8.555,4.562c0,1.521-0.584,2.675-1.752,3.461
		c-1.167,0.789-2.539,1.183-4.114,1.183c-3.096,0-5.975-1.222-8.636-3.667l-4.645,7.17c3.585,3.585,8.256,5.377,14.014,5.377
		c4.399,0,8.079-1.248,11.04-3.747c2.96-2.499,4.44-5.921,4.44-10.266c0-2.771-0.816-5.16-2.443-7.171
		C61.358,122.441,59.159,121.109,56.388,120.458z"/>
	<path d="M57.038,85.425H46.691c0.055-1.358,1.019-2.784,2.893-4.276c1.874-1.494,3.923-2.865,6.151-4.115
		c2.226-1.25,4.263-3,6.11-5.254c1.847-2.254,2.77-4.739,2.77-7.455c0-3.856-1.357-6.912-4.073-9.166
		c-2.715-2.254-6.056-3.381-10.021-3.381c-3.151,0-6.016,0.774-8.596,2.322c-2.58,1.548-4.521,3.707-5.825,6.478l6.926,4.807
		c1.901-3.151,4.101-4.726,6.599-4.726c1.359,0,2.431,0.367,3.219,1.1c0.787,0.734,1.182,1.779,1.182,3.137
		c0,1.249-0.639,2.471-1.915,3.666c-1.277,1.195-2.811,2.376-4.604,3.544c-1.792,1.168-3.585,2.458-5.377,3.87
		c-1.792,1.413-3.328,3.259-4.604,5.54s-1.914,4.807-1.914,7.577c0,0.978,0.163,2.444,0.488,4.399h29.493V80.536v-0.001h-8.555
		V85.425z"/>
	<path d="M177.781,103.919H78.71c-0.76,0-1.385,0.245-1.873,0.733c-0.489,0.488-0.733,1.113-0.733,1.873v15.644
		c0,0.706,0.257,1.317,0.773,1.833c0.517,0.516,1.127,0.773,1.833,0.773h99.072c0.707,0,1.317-0.256,1.834-0.773
		c0.515-0.516,0.772-1.127,0.772-1.833v-15.644c0-0.705-0.258-1.316-0.773-1.832C179.098,104.178,178.488,103.919,177.781,103.919z"
		/>
	<path d="M177.781,62.205H78.71c-0.76,0-1.385,0.244-1.873,0.733c-0.489,0.489-0.733,1.114-0.733,1.874v15.643
		c0,0.706,0.257,1.316,0.773,1.833c0.517,0.516,1.127,0.774,1.833,0.774h99.072c0.707,0,1.317-0.258,1.834-0.774
		c0.515-0.517,0.772-1.127,0.772-1.833V64.812c0-0.706-0.258-1.317-0.773-1.833C179.098,62.463,178.488,62.205,177.781,62.205z"/>
</g>
</svg>
