<?xml version="1.0" encoding="utf-8"?>
<!-- Generator: Adobe Illustrator 16.0.4, SVG Export Plug-In . SVG Version: 6.00 Build 0)  -->
<!DOCTYPE svg PUBLIC "-//W3C//DTD SVG 1.1//EN" "http://www.w3.org/Graphics/SVG/1.1/DTD/svg11.dtd">
<svg version="1.1" id="Capa_1" xmlns="http://www.w3.org/2000/svg" xmlns:xlink="http://www.w3.org/1999/xlink" x="0px" y="0px"
	 width="216px" height="146px" viewBox="0 0 216 146" enable-background="new 0 0 216 146" xml:space="preserve">
<g>
	<path d="M63.679,104.285h88.643c3.585,0,6.652-1.275,9.205-3.829c2.554-2.554,3.83-5.621,3.83-9.206V33.893
		c0-3.585-1.276-6.653-3.83-9.206c-2.553-2.553-5.62-3.829-9.205-3.829H63.679c-3.585,0-6.654,1.276-9.207,3.829
		c-2.553,2.553-3.829,5.621-3.829,9.206V91.25c0,3.585,1.276,6.653,3.829,9.206C57.025,103.009,60.094,104.285,63.679,104.285z
		 M61.071,33.893c0-0.706,0.258-1.318,0.774-1.833c0.517-0.515,1.128-0.774,1.834-0.774h88.641c0.707,0,1.318,0.258,1.834,0.774
		c0.515,0.516,0.773,1.127,0.773,1.833V91.25c0,0.706-0.258,1.318-0.773,1.833s-1.127,0.774-1.834,0.774H63.678
		c-0.706,0-1.317-0.258-1.834-0.774c-0.515-0.517-0.773-1.127-0.773-1.833V33.893z"/>
	<path d="M173.18,109.5H42.821H29.785v7.821c0,2.173,1.276,4.019,3.829,5.54c2.554,1.521,5.622,2.281,9.207,2.281H173.18
		c3.584,0,6.652-0.761,9.205-2.281s3.83-3.367,3.83-5.54V109.5H173.18z M114.518,117.321h-13.036c-0.868,0-1.303-0.436-1.303-1.304
		c0-0.869,0.435-1.305,1.303-1.305h13.036c0.869,0,1.305,0.436,1.305,1.305C115.822,116.886,115.387,117.321,114.518,117.321z"/>
</g>
</svg>
