<?xml version="1.0" encoding="utf-8"?>
<!-- Generator: Adobe Illustrator 16.0.4, SVG Export Plug-In . SVG Version: 6.00 Build 0)  -->
<!DOCTYPE svg PUBLIC "-//W3C//DTD SVG 1.1//EN" "http://www.w3.org/Graphics/SVG/1.1/DTD/svg11.dtd">
<svg version="1.1" id="Capa_1" xmlns="http://www.w3.org/2000/svg" xmlns:xlink="http://www.w3.org/1999/xlink" x="0px" y="0px"
	 width="216px" height="146px" viewBox="0 0 216 146" enable-background="new 0 0 216 146" xml:space="preserve">
<g>
	<path d="M99.73,57.887L44.247,113.37c-2.064,2.063-3.096,4.535-3.096,7.414c0,2.933,1.032,5.377,3.096,7.333l8.636,8.799
		c2.119,2.01,4.59,3.014,7.414,3.014c2.879,0,5.323-1.004,7.333-3.014l55.563-55.564c-5.321-2.119-10.033-5.229-14.135-9.329
		C104.958,67.922,101.849,63.21,99.73,57.887z M69.178,119.236c-1.033,1.031-2.255,1.548-3.667,1.548
		c-1.412,0-2.634-0.517-3.666-1.548c-1.032-1.032-1.548-2.254-1.548-3.666s0.516-2.635,1.548-3.668
		c1.032-1.031,2.253-1.547,3.666-1.547c1.413,0,2.635,0.516,3.667,1.547c1.032,1.033,1.548,2.256,1.548,3.668
		S70.21,118.204,69.178,119.236z"/>
	<path d="M174.157,43.873c-0.462-0.544-1.101-0.815-1.915-0.815c-0.488,0-2.402,0.965-5.743,2.893
		c-3.341,1.928-7.021,4.127-11.04,6.599c-4.02,2.472-6.165,3.789-6.436,3.952l-15.726-8.718v-18.25l23.871-13.77
		c0.869-0.597,1.304-1.358,1.304-2.281s-0.435-1.683-1.304-2.281c-2.39-1.63-5.31-2.893-8.758-3.789
		c-3.449-0.896-6.749-1.344-9.899-1.344c-10.048,0-18.643,3.572-25.785,10.714c-7.144,7.142-10.714,15.738-10.714,25.786
		c0,10.048,3.572,18.644,10.714,25.786c7.142,7.142,15.737,10.714,25.785,10.714c7.66,0,14.68-2.269,21.062-6.804
		c6.381-4.535,10.849-10.442,13.402-17.72c1.248-3.639,1.873-6.518,1.873-8.636C174.85,45.096,174.618,44.417,174.157,43.873z"/>
</g>
</svg>
