<?xml version="1.0" encoding="utf-8"?>
<!-- Generator: Adobe Illustrator 16.0.4, SVG Export Plug-In . SVG Version: 6.00 Build 0)  -->
<!DOCTYPE svg PUBLIC "-//W3C//DTD SVG 1.1//EN" "http://www.w3.org/Graphics/SVG/1.1/DTD/svg11.dtd">
<svg version="1.1" id="Capa_1" xmlns="http://www.w3.org/2000/svg" xmlns:xlink="http://www.w3.org/1999/xlink" x="0px" y="0px"
	 width="216px" height="146px" viewBox="0 0 216 146" enable-background="new 0 0 216 146" xml:space="preserve">
<path d="M184.543,75.523c-1.193-2.498-3.016-4.413-5.458-5.742c-2.444-1.331-5.132-1.996-8.065-1.996h-15.644V54.749
	c0-4.997-1.793-9.288-5.377-12.873c-3.586-3.585-7.877-5.377-12.873-5.377H92.805v-2.607c0-4.997-1.793-9.288-5.377-12.872
	c-3.585-3.585-7.876-5.378-12.873-5.378H48.484c-4.997,0-9.288,1.793-12.873,5.378c-3.585,3.584-5.377,7.875-5.377,12.872v78.215
	c0,4.996,1.792,9.287,5.377,12.871c3.585,3.586,7.876,5.379,12.873,5.379h88.644c3.638,0,7.44-0.938,11.406-2.812
	c3.965-1.873,7.114-4.25,9.45-7.129l24.035-29.574c2.498-3.15,3.746-6.408,3.746-9.777
	C185.766,79.109,185.359,77.264,184.543,75.523z M40.663,33.893c0-2.172,0.76-4.019,2.281-5.54c1.52-1.52,3.367-2.281,5.54-2.281
	h26.072c2.173,0,4.019,0.76,5.54,2.281c1.52,1.521,2.281,3.368,2.281,5.54v5.215c0,2.173,0.761,4.02,2.281,5.54
	s3.367,2.281,5.54,2.281h46.929c2.172,0,4.02,0.761,5.54,2.281s2.281,3.367,2.281,5.54v13.036H82.377
	c-3.693,0-7.496,0.937-11.407,2.811c-3.911,1.874-7.061,4.25-9.451,7.13L40.663,103.39V33.893z M173.871,84.243l-23.953,29.575
	c-1.357,1.683-3.286,3.123-5.785,4.316c-2.498,1.195-4.834,1.793-7.006,1.793H48.484c-2.879,0-4.318-0.951-4.318-2.852
	c0-0.869,0.489-1.955,1.467-3.26l23.953-29.574c1.412-1.684,3.353-3.109,5.825-4.277c2.471-1.168,4.793-1.752,6.966-1.752h88.643
	c2.879,0,4.318,0.952,4.318,2.852C175.338,81.989,174.85,83.049,173.871,84.243z"/>
</svg>
