<?xml version="1.0" encoding="utf-8"?>
<!-- Generator: Adobe Illustrator 16.0.4, SVG Export Plug-In . SVG Version: 6.00 Build 0)  -->
<!DOCTYPE svg PUBLIC "-//W3C//DTD SVG 1.1//EN" "http://www.w3.org/Graphics/SVG/1.1/DTD/svg11.dtd">
<svg version="1.1" id="Capa_1" xmlns="http://www.w3.org/2000/svg" xmlns:xlink="http://www.w3.org/1999/xlink" x="0px" y="0px"
	 width="216px" height="146px" viewBox="0 0 216 146" enable-background="new 0 0 216 146" xml:space="preserve">
<path d="M156.883,93.698l-47.336-47.336c-3.314-3.422-7.36-5.133-12.14-5.133c-4.454,0-8.228,1.548-11.324,4.644
	c-3.097,3.096-4.645,6.871-4.645,11.325c0,4.78,1.711,8.827,5.133,12.14l33.404,33.404c0.543,0.543,1.142,0.814,1.793,0.814
	c0.869,0,2.146-0.842,3.828-2.525c1.684-1.684,2.525-2.961,2.525-3.83c0-0.65-0.271-1.248-0.814-1.792L93.904,62.005
	c-1.358-1.467-2.037-3.069-2.037-4.807c0-1.576,0.516-2.879,1.548-3.911s2.336-1.548,3.911-1.548c1.847,0,3.476,0.651,4.889,1.955
	l47.335,47.336c3.423,3.421,5.134,7.358,5.134,11.812c0,3.478-1.141,6.356-3.422,8.637c-2.283,2.281-5.16,3.423-8.637,3.423
	c-4.454,0-8.391-1.712-11.812-5.134L67.588,56.463c-4.128-4.128-6.191-9.044-6.191-14.747c0-5.758,1.982-10.674,5.947-14.747
	c3.965-4.073,8.826-6.11,14.584-6.11c5.54,0,10.455,2.091,14.746,6.272l49.373,49.454c0.543,0.544,1.167,0.814,1.874,0.814
	c0.869,0,2.132-0.828,3.788-2.485c1.657-1.656,2.484-2.919,2.484-3.788c0-0.651-0.271-1.249-0.813-1.792l-49.292-49.373
	c-6.246-6.138-13.66-9.207-22.242-9.207c-8.636,0-15.941,3.015-21.916,9.044c-5.975,6.029-8.962,13.362-8.962,21.998
	c0,8.473,3.068,15.833,9.206,22.079l63.305,63.224c5.432,5.43,11.813,8.147,19.146,8.147c6.355,0,11.678-2.147,15.969-6.438
	c4.291-4.289,6.438-9.613,6.438-15.969C165.031,105.398,162.314,99.018,156.883,93.698z"/>
</svg>
