<?xml version="1.0" encoding="utf-8"?>
<!-- Generator: Adobe Illustrator 16.0.4, SVG Export Plug-In . SVG Version: 6.00 Build 0)  -->
<!DOCTYPE svg PUBLIC "-//W3C//DTD SVG 1.1//EN" "http://www.w3.org/Graphics/SVG/1.1/DTD/svg11.dtd">
<svg version="1.1" id="Capa_1" xmlns="http://www.w3.org/2000/svg" xmlns:xlink="http://www.w3.org/1999/xlink" x="0px" y="0px"
	 width="216px" height="146px" viewBox="0 0 216 146" enable-background="new 0 0 216 146" xml:space="preserve">
<path d="M148.532,75.811c-4.265-5.351-9.084-8.025-14.462-8.025V26.071c2.824,0,5.27-1.032,7.332-3.096
	c2.065-2.064,3.098-4.509,3.098-7.333c0-2.825-1.033-5.269-3.098-7.333c-2.062-2.064-4.508-3.096-7.332-3.096H81.928
	c-2.825,0-5.269,1.032-7.333,3.096s-3.096,4.508-3.096,7.333c0,2.825,1.032,5.269,3.096,7.333s4.509,3.096,7.333,3.096v41.714
	c-5.377,0-10.197,2.675-14.461,8.025c-4.264,5.351-6.396,11.365-6.396,18.047c0,1.412,0.516,2.635,1.548,3.666
	c1.033,1.031,2.255,1.548,3.667,1.548h32.915l6.192,39.515c0.271,1.467,1.14,2.199,2.607,2.199h0.083c0.649,0,1.208-0.23,1.67-0.691
	c0.46-0.462,0.746-1.02,0.854-1.671l4.154-39.352h34.952c1.412,0,2.636-0.517,3.666-1.548c1.033-1.031,1.55-2.254,1.55-3.666
	C154.93,87.176,152.796,81.161,148.532,75.811z M100.178,65.179c0,0.76-0.244,1.384-0.733,1.874
	c-0.489,0.489-1.114,0.733-1.874,0.733c-0.76,0-1.385-0.244-1.874-0.733c-0.489-0.489-0.733-1.114-0.733-1.874v-36.5
	c0-0.76,0.244-1.386,0.733-1.874c0.489-0.488,1.114-0.733,1.874-0.733c0.76,0,1.385,0.244,1.874,0.733
	c0.489,0.489,0.733,1.114,0.733,1.874V65.179z"/>
</svg>
