<?xml version="1.0" encoding="utf-8"?>
<!-- Generator: Adobe Illustrator 16.0.4, SVG Export Plug-In . SVG Version: 6.00 Build 0)  -->
<!DOCTYPE svg PUBLIC "-//W3C//DTD SVG 1.1//EN" "http://www.w3.org/Graphics/SVG/1.1/DTD/svg11.dtd">
<svg version="1.1" id="Capa_1" xmlns="http://www.w3.org/2000/svg" xmlns:xlink="http://www.w3.org/1999/xlink" x="0px" y="0px"
	 width="216px" height="146px" viewBox="0 0 216 146" enable-background="new 0 0 216 146" xml:space="preserve">
<path d="M179.371,76.261c-1.087-2.608-2.391-4.672-3.911-6.193l-33.241-33.241c-0.814-0.815-1.793-1.575-2.934-2.281V7.823
	c0-2.173-0.76-4.021-2.281-5.541c-1.52-1.521-3.367-2.281-5.539-2.281H42.821c-2.172,0-4.019,0.76-5.54,2.281
	C35.76,3.803,35,5.65,35,7.823v109.5c0,2.172,0.76,4.018,2.281,5.538c1.521,1.521,3.368,2.281,5.54,2.281h44.322v13.036
	c0,2.173,0.76,4.02,2.281,5.54c1.52,1.521,3.367,2.281,5.54,2.281h78.216c2.172,0,4.019-0.76,5.539-2.281
	c1.521-1.52,2.281-3.367,2.281-5.54v-54.75C181,81.256,180.457,78.866,179.371,76.261z M139.285,48.64L163.646,73h-24.361V48.64z
	 M58.464,20.857c-0.706,0-1.317-0.258-1.833-0.774c-0.516-0.516-0.774-1.126-0.774-1.833v-5.214c0-0.706,0.258-1.317,0.774-1.833
	c0.516-0.516,1.127-0.774,1.833-0.774h57.358c0.705,0,1.316,0.258,1.832,0.774c0.516,0.516,0.775,1.127,0.775,1.833v5.214
	c0,0.707-0.26,1.317-0.775,1.833s-1.127,0.774-1.834,0.774H58.464z M170.57,135.572h-73V41.714h31.287v33.894
	c0,2.172,0.76,4.019,2.281,5.539c1.52,1.521,3.366,2.281,5.539,2.281h33.893V135.572z"/>
</svg>
