<?xml version="1.0" encoding="utf-8"?>
<!-- Generator: Adobe Illustrator 16.0.4, SVG Export Plug-In . SVG Version: 6.00 Build 0)  -->
<!DOCTYPE svg PUBLIC "-//W3C//DTD SVG 1.1//EN" "http://www.w3.org/Graphics/SVG/1.1/DTD/svg11.dtd">
<svg version="1.1" id="Capa_1" xmlns="http://www.w3.org/2000/svg" xmlns:xlink="http://www.w3.org/1999/xlink" x="0px" y="0px"
	 width="216px" height="146px" viewBox="0 0 216 146" enable-background="new 0 0 216 146" xml:space="preserve">
<g>
	<path d="M180.104,32.181c-4.074-4.073-8.988-6.11-14.746-6.11h-18.25l-4.154-11.08c-1.032-2.661-2.919-4.956-5.663-6.885
		c-2.743-1.928-5.554-2.893-8.433-2.893H87.143c-2.879,0-5.69,0.965-8.433,2.893c-2.743,1.929-4.63,4.224-5.662,6.885l-4.155,11.08
		h-18.25c-5.758,0-10.673,2.037-14.747,6.11c-4.073,4.074-6.11,8.989-6.11,14.747v73c0,5.758,2.037,10.674,6.11,14.746
		c4.074,4.074,8.989,6.111,14.747,6.111h114.714c5.758,0,10.672-2.037,14.746-6.111c4.073-4.072,6.11-8.988,6.11-14.746v-73
		C186.214,41.17,184.177,36.255,180.104,32.181z M133.786,109.215c-7.142,7.143-15.737,10.714-25.786,10.714
		s-18.643-3.571-25.786-10.714C75.071,102.073,71.5,93.477,71.5,83.429c0-10.049,3.572-18.643,10.714-25.786
		S97.951,46.929,108,46.929s18.643,3.572,25.786,10.714S144.5,73.38,144.5,83.429C144.5,93.477,140.928,102.072,133.786,109.215z"/>
	<path d="M108,59.964c-6.464,0-11.99,2.295-16.58,6.885c-4.59,4.59-6.885,10.116-6.885,16.58s2.295,11.99,6.885,16.58
		c4.59,4.589,10.116,6.884,16.58,6.884c6.463,0,11.99-2.295,16.58-6.884c4.59-4.59,6.885-10.116,6.885-16.58
		s-2.295-11.99-6.885-16.58C119.99,62.259,114.463,59.964,108,59.964z"/>
</g>
</svg>
