<?xml version="1.0" encoding="utf-8"?>
<!-- Generator: Adobe Illustrator 16.0.4, SVG Export Plug-In . SVG Version: 6.00 Build 0)  -->
<!DOCTYPE svg PUBLIC "-//W3C//DTD SVG 1.1//EN" "http://www.w3.org/Graphics/SVG/1.1/DTD/svg11.dtd">
<svg version="1.1" id="Capa_1" xmlns="http://www.w3.org/2000/svg" xmlns:xlink="http://www.w3.org/1999/xlink" x="0px" y="0px"
	 width="216px" height="146px" viewBox="0 0 216 146" enable-background="new 0 0 216 146" xml:space="preserve">
<path d="M162.184,41.592c-5.595-9.586-13.185-17.176-22.771-22.771c-9.587-5.595-20.055-8.392-31.408-8.392
	c-11.352,0-21.822,2.797-31.408,8.392c-9.587,5.594-17.177,13.184-22.772,22.771C48.229,51.179,45.432,61.648,45.432,73
	c0,12.655,3.449,24.145,10.347,34.463c6.898,10.321,15.941,17.952,27.13,22.895c-0.217-5.812,0.136-10.618,1.059-14.42l8.066-34.057
	c-1.358-2.662-2.037-5.974-2.037-9.94c0-4.616,1.167-8.472,3.503-11.569c2.336-3.096,5.187-4.644,8.555-4.644
	c2.715,0,4.806,0.896,6.273,2.688c1.467,1.793,2.199,4.047,2.199,6.763c0,1.683-0.313,3.734-0.938,6.151s-1.439,5.214-2.444,8.392
	c-1.005,3.177-1.725,5.718-2.159,7.617c-0.76,3.313-0.136,6.151,1.874,8.515c2.009,2.362,4.672,3.545,7.985,3.545
	c5.812,0,10.577-3.232,14.299-9.695c3.721-6.465,5.58-14.313,5.58-23.546c0-7.116-2.295-12.901-6.885-17.354
	c-4.59-4.454-10.986-6.682-19.188-6.682c-9.178,0-16.606,2.947-22.282,8.84c-5.676,5.894-8.514,12.942-8.514,21.143
	c0,4.889,1.385,8.99,4.155,12.303c0.923,1.086,1.222,2.254,0.896,3.504c-0.109,0.326-0.326,1.14-0.652,2.443
	c-0.325,1.303-0.543,2.146-0.651,2.525c-0.434,1.738-1.467,2.281-3.096,1.63c-4.182-1.737-7.36-4.753-9.532-9.044
	c-2.173-4.29-3.259-9.262-3.259-14.909c0-3.639,0.584-7.278,1.752-10.917c1.167-3.64,2.987-7.156,5.458-10.551
	c2.472-3.396,5.432-6.397,8.881-9.003c3.448-2.607,7.644-4.698,12.587-6.273c4.943-1.575,10.265-2.363,15.969-2.363
	c7.713,0,14.637,1.711,20.774,5.133c6.139,3.422,10.823,7.848,14.055,13.28c3.232,5.432,4.848,11.244,4.848,17.436
	c0,8.147-1.412,15.479-4.236,21.998c-2.824,6.517-6.816,11.636-11.977,15.356c-5.161,3.722-11.026,5.582-17.6,5.582
	c-3.312,0-6.408-0.774-9.288-2.322c-2.878-1.548-4.861-3.381-5.947-5.499c-2.444,9.612-3.911,15.343-4.4,17.19
	c-1.032,3.855-3.15,8.31-6.355,13.36c5.812,1.738,11.732,2.606,17.761,2.606c11.352,0,21.822-2.797,31.408-8.392
	c9.586-5.594,17.176-13.185,22.771-22.771c5.594-9.587,8.391-20.057,8.391-31.408C170.57,61.648,167.777,51.178,162.184,41.592z"/>
</svg>
