<?xml version="1.0" encoding="utf-8"?>
<!-- Generator: Adobe Illustrator 16.0.4, SVG Export Plug-In . SVG Version: 6.00 Build 0)  -->
<!DOCTYPE svg PUBLIC "-//W3C//DTD SVG 1.1//EN" "http://www.w3.org/Graphics/SVG/1.1/DTD/svg11.dtd">
<svg version="1.1" id="Capa_1" xmlns="http://www.w3.org/2000/svg" xmlns:xlink="http://www.w3.org/1999/xlink" x="0px" y="0px"
	 width="216px" height="146px" viewBox="0 0 216 146" enable-background="new 0 0 216 146" xml:space="preserve">
<path d="M163.686,17.313c-4.588-4.589-10.115-6.884-16.578-6.884v-0.001H68.894c-6.463,0-11.99,2.295-16.58,6.884
	c-4.589,4.59-6.884,10.117-6.884,16.58v78.215c0,6.463,2.295,11.99,6.884,16.579c4.59,4.59,10.117,6.885,16.58,6.885h14.91
	c-0.924-8.363-0.734-15.262,0.57-20.693l7.984-33.729c-1.304-2.662-1.956-5.948-1.956-9.858c0-4.508,1.154-8.297,3.463-11.365
	c2.308-3.07,5.119-4.604,8.432-4.604c2.661,0,4.712,0.882,6.151,2.647c1.438,1.766,2.159,3.979,2.159,6.641
	c0,1.683-0.299,3.707-0.896,6.069c-0.598,2.364-1.398,5.133-2.403,8.311s-1.724,5.689-2.159,7.536
	c-0.76,3.259-0.136,6.069,1.874,8.433c2.009,2.362,4.643,3.545,7.903,3.545c5.758,0,10.469-3.205,14.137-9.615
	c3.666-6.408,5.498-14.176,5.498-23.3c0-7.006-2.268-12.71-6.804-17.109c-4.534-4.4-10.848-6.6-18.942-6.6
	c-9.069,0-16.416,2.893-22.038,8.677c-5.622,5.785-8.433,12.751-8.433,20.898c0,4.78,1.358,8.854,4.074,12.222
	c0.923,1.031,1.222,2.172,0.896,3.422c-0.272,0.924-0.679,2.58-1.222,4.97c-0.218,0.761-0.611,1.276-1.182,1.548
	c-0.571,0.271-1.209,0.271-1.915,0c-4.182-1.737-7.347-4.727-9.492-8.962c-2.145-4.236-3.218-9.125-3.218-14.665
	c0-3.585,0.584-7.185,1.752-10.795c1.168-3.613,2.974-7.089,5.418-10.429c2.444-3.341,5.363-6.315,8.758-8.922
	c3.394-2.606,7.55-4.684,12.465-6.232c4.915-1.548,10.198-2.322,15.845-2.322c5.759,0,11.108,0.993,16.052,2.975
	c4.942,1.982,9.084,4.616,12.425,7.902c3.34,3.286,5.961,7.061,7.861,11.325c1.902,4.263,2.852,8.677,2.852,13.239
	c0,12.276-3.109,22.419-9.328,30.43c-6.219,8.012-14.244,12.018-24.074,12.018c-3.261,0-6.314-0.76-9.167-2.28
	c-2.851-1.521-4.847-3.341-5.988-5.459c-2.39,9.506-3.829,15.18-4.318,17.027c-1.249,4.78-4.182,10.482-8.799,17.109h59.068
	c6.463,0,11.99-2.295,16.578-6.885c4.59-4.59,6.885-10.117,6.885-16.58V33.893C170.57,27.43,168.275,21.903,163.686,17.313z"/>
</svg>
