<?xml version="1.0" encoding="utf-8"?>
<!-- Generator: Adobe Illustrator 16.0.4, SVG Export Plug-In . SVG Version: 6.00 Build 0)  -->
<!DOCTYPE svg PUBLIC "-//W3C//DTD SVG 1.1//EN" "http://www.w3.org/Graphics/SVG/1.1/DTD/svg11.dtd">
<svg version="1.1" id="Capa_1" xmlns="http://www.w3.org/2000/svg" xmlns:xlink="http://www.w3.org/1999/xlink" x="0px" y="0px"
	 width="216px" height="146px" viewBox="0 0 216 146" enable-background="new 0 0 216 146" xml:space="preserve">
<path d="M180.348,38.976c-0.435-3.15-1.086-6.519-1.955-10.104c-0.869-3.584-2.158-6.626-3.869-9.125
	c-1.711-2.498-3.627-3.748-5.744-3.748c-0.244-1.059-1.426-0.937-3.545,0.367c-2.118,1.304-3.11,1.739-2.973,1.304
	c0.135-0.435-0.599,0.108-2.201,1.629c-1.602,1.521-2.402,2.281-2.402,2.281l-2.404,2.403c-2.117,2.01-5.199,3.544-9.246,4.603
	c-4.047,1.061-8.486,1.711-13.32,1.956c-4.834,0.245-9.682,0.408-14.543,0.489c-4.862,0.081-9.737,0.326-14.625,0.733
	c-4.888,0.408-8.826,1.1-11.813,2.078c-5.921,1.955-11.461,4.549-16.621,7.781c-5.16,3.232-9.79,7.007-13.891,11.325
	s-7.333,9.329-9.695,15.032c-2.362,5.701-3.544,11.677-3.544,17.923c0,2.879,0.244,5.703,0.733,8.474
	c0.109,0.543,0.543,1.738,1.304,3.585c0.761,1.847,1.141,2.879,1.141,3.097c0,1.031-0.842,2.336-2.526,3.91
	c-1.684,1.575-3.53,3.096-5.54,4.562c-2.01,1.466-3.856,3.245-5.54,5.336c-1.684,2.092-2.526,4.088-2.526,5.988
	c0,0.381,0.04,0.746,0.122,1.101c0.082,0.353,0.164,0.61,0.245,0.772c0.081,0.164,0.231,0.435,0.448,0.814
	c0.218,0.38,0.38,0.68,0.489,0.896c0.924,1.574,1.657,2.716,2.2,3.422c0.543,0.705,1.384,1.357,2.525,1.955
	c1.14,0.597,2.526,0.896,4.155,0.896c1.576,0,3.205-0.869,4.889-2.606c1.683-1.737,3.109-3.64,4.277-5.703
	c1.167-2.063,2.39-3.965,3.666-5.703c1.276-1.737,2.349-2.606,3.218-2.606c1.249,0,3.856,1.005,7.821,3.015
	c3.965,2.011,6.355,3.151,7.17,3.423c7.495,2.553,15.262,3.829,23.301,3.829c12.167,0,24.061-2.935,35.685-8.801
	c11.896-5.92,21.604-13.197,29.127-21.834s12.533-19.037,15.032-31.205C180.457,57.197,181,51.956,181,46.796
	C181,44.732,180.783,42.125,180.348,38.976z M137.738,66.594c-1.033,1.032-2.256,1.548-3.668,1.548
	c-9.885,0-18.398,1.412-25.541,4.236c-7.142,2.824-14.434,7.604-21.875,14.339c-1.085,1.032-2.905,2.824-5.458,5.377
	c-2.553,2.553-4.563,4.481-6.029,5.784c-1.141,1.032-2.363,1.549-3.667,1.549c-1.413,0-2.635-0.517-3.667-1.549
	c-1.032-1.03-1.548-2.254-1.548-3.666c0-1.304,0.516-2.524,1.548-3.666c6.626-7.333,13.022-13.294,19.187-17.883
	s13.213-8.228,21.143-10.917c7.929-2.689,16.565-4.033,25.907-4.033c1.412,0,2.635,0.516,3.668,1.548
	c1.031,1.033,1.547,2.255,1.547,3.667C139.285,64.34,138.77,65.562,137.738,66.594z"/>
</svg>
