<?xml version="1.0" encoding="utf-8"?>
<!-- Generator: Adobe Illustrator 16.0.4, SVG Export Plug-In . SVG Version: 6.00 Build 0)  -->
<!DOCTYPE svg PUBLIC "-//W3C//DTD SVG 1.1//EN" "http://www.w3.org/Graphics/SVG/1.1/DTD/svg11.dtd">
<svg version="1.1" id="Capa_1" xmlns="http://www.w3.org/2000/svg" xmlns:xlink="http://www.w3.org/1999/xlink" x="0px" y="0px"
	 width="216px" height="146px" viewBox="0 0 216 146" enable-background="new 0 0 216 146" xml:space="preserve">
<path d="M163.998,30.042c1.738-5.214,1.412-9.233-0.979-12.058c-2.824-2.39-6.844-2.715-12.059-0.98
	c-5.215,1.738-9.886,4.671-14.014,8.799l-13.036,13.036L69.732,25.885c-0.869-0.272-1.684-0.055-2.444,0.651L56.859,36.965
	c-0.597,0.598-0.842,1.331-0.733,2.2c0.163,0.87,0.625,1.521,1.385,1.956L98.9,63.852L77.798,84.954l-15.806-4.317
	c-0.108-0.055-0.325-0.082-0.651-0.082c-0.761,0-1.385,0.244-1.874,0.733l-7.821,7.903c-0.543,0.65-0.787,1.33-0.733,2.035
	c0.108,0.869,0.461,1.494,1.059,1.875l20.531,15.397l15.398,20.531c0.489,0.598,1.141,0.95,1.956,1.06h0.163
	c0.761,0,1.385-0.244,1.874-0.732l7.821-7.821c0.706-0.761,0.923-1.603,0.652-2.526l-4.318-15.806l21.102-21.103l22.731,41.39
	c0.325,0.706,0.896,1.141,1.711,1.304c0.162,0.055,0.353,0.081,0.57,0.081c0.651,0,1.167-0.163,1.547-0.488l10.431-7.821
	c0.922-0.76,1.248-1.656,0.977-2.688l-13.035-56.705l13.117-13.117C159.327,39.928,162.26,35.256,163.998,30.042z"/>
</svg>
