<?xml version="1.0" encoding="utf-8"?>
<!-- Generator: Adobe Illustrator 16.0.4, SVG Export Plug-In . SVG Version: 6.00 Build 0)  -->
<!DOCTYPE svg PUBLIC "-//W3C//DTD SVG 1.1//EN" "http://www.w3.org/Graphics/SVG/1.1/DTD/svg11.dtd">
<svg version="1.1" id="Capa_1" xmlns="http://www.w3.org/2000/svg" xmlns:xlink="http://www.w3.org/1999/xlink" x="0px" y="0px"
	 width="216px" height="146px" viewBox="0 0 216 146" enable-background="new 0 0 216 146" xml:space="preserve">
<g>
	<path d="M162.18,41.592c-5.595-9.586-13.185-17.176-22.771-22.771c-9.588-5.595-20.055-8.392-31.408-8.392
		c-11.352,0-21.822,2.797-31.408,8.392c-9.587,5.594-17.177,13.184-22.772,22.771C48.225,51.179,45.428,61.649,45.428,73
		c0,11.352,2.798,21.82,8.392,31.408c5.595,9.585,13.185,17.176,22.772,22.771c9.587,5.595,20.056,8.392,31.408,8.392
		c11.352,0,21.822-2.797,31.408-8.392c9.586-5.594,17.176-13.185,22.771-22.771c5.594-9.587,8.391-20.057,8.391-31.408
		C170.57,61.648,167.773,51.178,162.18,41.592z M146.374,95.242c-3.965,6.789-9.342,12.167-16.132,16.132
		c-6.789,3.965-14.203,5.946-22.242,5.946c-8.038,0-15.452-1.981-22.242-5.946c-6.789-3.965-12.166-9.343-16.131-16.132
		C65.661,88.453,63.679,81.039,63.679,73s1.983-15.453,5.948-22.242c3.964-6.789,9.342-12.167,16.131-16.132
		S99.961,28.679,108,28.679s15.453,1.982,22.242,5.947c6.79,3.965,12.167,9.343,16.132,16.132
		c3.965,6.789,5.946,14.203,5.946,22.242S150.339,88.453,146.374,95.242z"/>
	<path d="M139.287,68.518L94.965,42.447c-1.683-1.032-3.422-1.059-5.214-0.081c-1.738,1.032-2.607,2.552-2.607,4.562v52.143
		c0,2.009,0.869,3.53,2.607,4.562c0.869,0.434,1.738,0.651,2.607,0.651c0.923,0,1.793-0.244,2.607-0.732l44.322-26.071
		c1.738-0.978,2.607-2.471,2.607-4.48S141.023,69.496,139.287,68.518z"/>
</g>
</svg>
