<?xml version="1.0" encoding="utf-8"?>
<!-- Generator: Adobe Illustrator 16.0.4, SVG Export Plug-In . SVG Version: 6.00 Build 0)  -->
<!DOCTYPE svg PUBLIC "-//W3C//DTD SVG 1.1//EN" "http://www.w3.org/Graphics/SVG/1.1/DTD/svg11.dtd">
<svg version="1.1" id="Capa_1" xmlns="http://www.w3.org/2000/svg" xmlns:xlink="http://www.w3.org/1999/xlink" x="0px" y="0px"
	 width="216px" height="146px" viewBox="0 0 216 146" enable-background="new 0 0 216 146" xml:space="preserve">
<path d="M162.18,41.592c-5.595-9.586-13.185-17.176-22.771-22.771c-9.588-5.595-20.055-8.392-31.408-8.392
	c-11.352,0-21.821,2.797-31.408,8.392c-9.587,5.594-17.177,13.184-22.772,22.771C48.225,51.179,45.428,61.649,45.428,73
	c0,11.351,2.798,21.82,8.392,31.408c5.595,9.584,13.185,17.176,22.772,22.771c9.587,5.595,20.056,8.392,31.408,8.392
	c11.352,0,21.822-2.797,31.408-8.392c9.586-5.594,17.176-13.185,22.771-22.771c5.594-9.588,8.391-20.058,8.391-31.408
	C170.57,61.649,167.773,51.178,162.18,41.592z M139.286,77.48l-44.322,26.072c-0.815,0.488-1.684,0.732-2.607,0.732
	c-0.869,0-1.738-0.217-2.607-0.651c-1.738-1.032-2.607-2.552-2.607-4.562V46.929c0-2.009,0.869-3.53,2.607-4.562
	c1.792-0.978,3.53-0.951,5.214,0.081l44.322,26.071c1.737,0.977,2.606,2.472,2.606,4.481S141.023,76.502,139.286,77.48z"/>
</svg>
