<?xml version="1.0" encoding="utf-8"?>
<!-- Generator: Adobe Illustrator 16.0.4, SVG Export Plug-In . SVG Version: 6.00 Build 0)  -->
<!DOCTYPE svg PUBLIC "-//W3C//DTD SVG 1.1//EN" "http://www.w3.org/Graphics/SVG/1.1/DTD/svg11.dtd">
<svg version="1.1" id="Capa_1" xmlns="http://www.w3.org/2000/svg" xmlns:xlink="http://www.w3.org/1999/xlink" x="0px" y="0px"
	 width="216px" height="146px" viewBox="0 0 216 146" enable-background="new 0 0 216 146" xml:space="preserve">
<g>
	<path d="M163.686,17.313c-4.588-4.589-10.115-6.884-16.578-6.884H68.893c-6.463,0-11.99,2.295-16.58,6.884
		c-4.589,4.59-6.884,10.117-6.884,16.58v78.214c0,6.463,2.295,11.99,6.884,16.58c4.59,4.59,10.117,6.885,16.58,6.885h78.214
		c6.463,0,11.99-2.295,16.578-6.885c4.59-4.59,6.885-10.117,6.885-16.58V33.893C170.57,27.43,168.275,21.902,163.686,17.313z
		 M149.714,112.107c0,0.76-0.243,1.385-0.733,1.873c-0.488,0.488-1.112,0.732-1.873,0.732H68.893c-0.76,0-1.385-0.244-1.874-0.732
		c-0.488-0.488-0.733-1.113-0.733-1.873V33.892c0-0.76,0.244-1.385,0.733-1.874c0.489-0.488,1.114-0.733,1.874-0.733h78.214
		c0.762,0,1.386,0.245,1.875,0.733c0.488,0.489,0.731,1.114,0.731,1.874V112.107z"/>
	<path d="M131.872,68.761l-36.5-26.072c-1.684-1.249-3.476-1.385-5.377-0.407c-1.901,0.924-2.852,2.472-2.852,4.645V99.07
		c0,2.173,0.951,3.721,2.852,4.644c1.901,0.979,3.693,0.843,5.377-0.407l36.5-26.07c1.467-1.032,2.198-2.444,2.198-4.236
		C134.07,71.207,133.339,69.795,131.872,68.761z"/>
</g>
</svg>
