<?xml version="1.0" encoding="utf-8"?>
<!-- Generator: Adobe Illustrator 16.0.4, SVG Export Plug-In . SVG Version: 6.00 Build 0)  -->
<!DOCTYPE svg PUBLIC "-//W3C//DTD SVG 1.1//EN" "http://www.w3.org/Graphics/SVG/1.1/DTD/svg11.dtd">
<svg version="1.1" id="Capa_1" xmlns="http://www.w3.org/2000/svg" xmlns:xlink="http://www.w3.org/1999/xlink" x="0px" y="0px"
	 width="216px" height="146px" viewBox="0 0 216 146" enable-background="new 0 0 216 146" xml:space="preserve">
<path d="M171.184,67.175c-3.07-3.07-6.75-4.604-11.041-4.604h-5.213V41.714c0-2.172-0.545-4.563-1.631-7.169
	c-1.086-2.607-2.389-4.671-3.91-6.192l-12.385-12.384c-1.52-1.52-3.584-2.824-6.191-3.911c-2.607-1.086-4.996-1.629-7.17-1.629
	h-54.75c-2.173,0-4.02,0.76-5.541,2.281c-1.52,1.52-2.281,3.367-2.281,5.54v44.321h-5.214c-4.291,0-7.971,1.535-11.04,4.604
	c-3.069,3.068-4.603,6.748-4.603,11.039v33.894c0,0.707,0.258,1.316,0.774,1.834c0.516,0.515,1.127,0.772,1.833,0.772h18.25v13.036
	c0,2.173,0.76,4.02,2.281,5.54s3.368,2.281,5.541,2.281h78.214c2.172,0,4.021-0.761,5.541-2.281c1.52-1.521,2.281-3.367,2.281-5.54
	v-13.036h18.25c0.705,0,1.316-0.257,1.832-0.772c0.516-0.518,0.773-1.127,0.773-1.834V78.214
	C175.785,73.923,174.252,70.243,171.184,67.175z M144.5,125.143h-73v-20.856h73V125.143z M144.5,73h-73V20.858h52.143v13.035
	c0,2.173,0.762,4.019,2.281,5.54c1.521,1.521,3.367,2.281,5.541,2.281H144.5V73z M163.809,81.881
	c-1.031,1.031-2.254,1.548-3.666,1.548s-2.634-0.517-3.666-1.548c-1.031-1.031-1.547-2.255-1.547-3.667s0.516-2.634,1.547-3.666
	c1.032-1.032,2.254-1.548,3.666-1.548s2.635,0.516,3.666,1.548c1.032,1.032,1.549,2.254,1.549,3.666S164.842,80.85,163.809,81.881z"
	/>
</svg>
