<?xml version="1.0" encoding="utf-8"?>
<!-- Generator: Adobe Illustrator 16.0.4, SVG Export Plug-In . SVG Version: 6.00 Build 0)  -->
<!DOCTYPE svg PUBLIC "-//W3C//DTD SVG 1.1//EN" "http://www.w3.org/Graphics/SVG/1.1/DTD/svg11.dtd">
<svg version="1.1" id="Capa_1" xmlns="http://www.w3.org/2000/svg" xmlns:xlink="http://www.w3.org/1999/xlink" x="0px" y="0px"
	 width="216px" height="146px" viewBox="0 0 216 146" enable-background="new 0 0 216 146" xml:space="preserve">
<path d="M172.08,86.77c-2.471-3.204-5.934-4.808-10.387-4.808c-2.336,0-4.59,0.408-6.762,1.222c-2.175,0.815-3.927,1.725-5.257,2.73
	c-1.329,1.004-2.769,1.915-4.317,2.729c-1.547,0.815-2.92,1.224-4.113,1.224c-2.445,0-4.861-1.25-7.252-3.748
	c-1.901-2.01-2.852-5.187-2.852-9.532c0-5.16,0.651-11.814,1.954-19.961c0.056-0.163,0.15-0.747,0.285-1.752
	c0.138-1.004,0.271-1.928,0.408-2.77c0.135-0.842,0.229-1.317,0.284-1.426v-0.163c-2.551,0.109-6.979,0.57-13.28,1.385
	c-6.301,0.815-11.188,1.222-14.665,1.222c-3.313,0-6.111-0.719-8.392-2.159c-2.281-1.439-3.422-3.707-3.422-6.803
	c0-2.01,0.476-3.938,1.426-5.785c0.95-1.847,1.982-3.382,3.096-4.604c1.114-1.223,2.146-2.825,3.096-4.807
	c0.951-1.981,1.426-4.087,1.426-6.313c0-4.291-1.466-7.646-4.399-10.062s-6.572-3.625-10.917-3.625
	c-4.617,0-8.527,1.236-11.732,3.707c-3.204,2.471-4.807,5.934-4.807,10.388c0,2.335,0.407,4.589,1.222,6.762
	c0.814,2.172,1.724,3.924,2.729,5.255c1.005,1.331,1.915,2.77,2.729,4.318c0.815,1.549,1.222,2.92,1.222,4.115
	c0,2.444-1.249,4.861-3.748,7.251c-2.01,1.901-5.187,2.853-9.532,2.853c-5.16,0-11.814-0.652-19.961-1.956
	C46,51.6,45.416,51.505,44.411,51.369c-1.005-0.136-1.928-0.271-2.77-0.407c-0.842-0.136-1.318-0.23-1.426-0.285v83.429
	c0,0.055,0.054,0.082,0.163,0.082c0.108,0.054,0.19,0.08,0.244,0.08l1.059,0.164c0.49,0.107,1.236,0.218,2.241,0.325
	c1.005,0.108,1.752,0.218,2.241,0.325c8.147,1.305,14.801,1.956,19.961,1.956c4.345,0,7.522-0.951,9.532-2.853
	c2.499-2.39,3.748-4.808,3.748-7.25c0-1.195-0.407-2.566-1.222-4.115c-0.814-1.547-1.725-2.986-2.729-4.317
	s-1.914-3.083-2.729-5.255c-0.815-2.173-1.222-4.427-1.222-6.763c0-4.454,1.603-7.917,4.807-10.388
	c3.204-2.472,7.088-3.707,11.65-3.707c4.4,0,8.066,1.209,10.999,3.625s4.399,5.771,4.399,10.062c0,2.226-0.475,4.332-1.426,6.313
	c-0.95,1.983-1.983,3.584-3.096,4.808c-1.114,1.223-2.145,2.756-3.096,4.604c-0.951,1.846-1.426,3.774-1.426,5.783
	c0,3.098,1.14,5.365,3.422,6.805c2.282,1.438,5.079,2.157,8.392,2.157c2.499,0,5.16-0.135,7.984-0.407
	c2.824-0.271,5.961-0.638,9.41-1.1s6.096-0.775,7.943-0.938c0.598-0.055,1.495-0.082,2.688-0.082v-0.406
	c0.055-2.118-0.352-5.241-1.221-9.37c-0.869-4.127-1.305-7.25-1.305-9.369c0-6.735,2.988-10.103,8.963-10.103
	c2.01,0,3.938,0.476,5.785,1.426c1.846,0.951,3.381,1.984,4.602,3.097c1.224,1.114,2.828,2.146,4.81,3.097
	c1.981,0.949,4.085,1.426,6.312,1.426c4.291,0,7.646-1.467,10.062-4.4c2.418-2.934,3.625-6.599,3.625-10.998
	C175.785,93.857,174.551,89.975,172.08,86.77z"/>
</svg>
