<?xml version="1.0" encoding="utf-8"?>
<!-- Generator: Adobe Illustrator 16.0.4, SVG Export Plug-In . SVG Version: 6.00 Build 0)  -->
<!DOCTYPE svg PUBLIC "-//W3C//DTD SVG 1.1//EN" "http://www.w3.org/Graphics/SVG/1.1/DTD/svg11.dtd">
<svg version="1.1" id="Capa_1" xmlns="http://www.w3.org/2000/svg" xmlns:xlink="http://www.w3.org/1999/xlink" x="0px" y="0px"
	 width="216px" height="146px" viewBox="0 0 216 146" enable-background="new 0 0 216 146" xml:space="preserve">
<g>
	<path d="M50.643,130.357h52.143V78.214H50.643V130.357z M61.071,88.643h31.286v31.205H61.071V88.643z"/>
	<rect x="71.5" y="99.071" width="10.428" height="10.429"/>
	<rect x="134.07" y="119.929" width="10.43" height="10.429"/>
	<rect x="154.927" y="119.929" width="10.431" height="10.429"/>
	<polygon points="154.928,88.643 144.5,88.643 144.5,78.213 113.213,78.213 113.213,130.357 123.643,130.357 123.643,99.071 
		134.07,99.071 134.07,109.5 165.357,109.5 165.357,78.214 165.357,78.213 154.928,78.213 	"/>
	<path d="M50.643,67.787h52.143V15.643H50.643V67.787z M61.071,26.071h31.286v31.286H61.071V26.071z"/>
	<rect x="71.5" y="36.5" width="10.428" height="10.429"/>
	<path d="M113.213,15.643v52.144h52.145V15.643H113.213z M154.928,57.357h-31.285V26.071h31.285V57.357z"/>
	<rect x="134.07" y="36.5" width="10.43" height="10.429"/>
</g>
</svg>
