<?xml version="1.0" encoding="utf-8"?>
<!-- Generator: Adobe Illustrator 16.0.4, SVG Export Plug-In . SVG Version: 6.00 Build 0)  -->
<!DOCTYPE svg PUBLIC "-//W3C//DTD SVG 1.1//EN" "http://www.w3.org/Graphics/SVG/1.1/DTD/svg11.dtd">
<svg version="1.1" id="Capa_1" xmlns="http://www.w3.org/2000/svg" xmlns:xlink="http://www.w3.org/1999/xlink" x="0px" y="0px"
	 width="216px" height="146px" viewBox="0 0 216 146" enable-background="new 0 0 216 146" xml:space="preserve">
<g>
	<path d="M87.142,67.786h-18.25c-2.173,0-4.02-0.76-5.541-2.281c-1.52-1.521-2.281-3.368-2.281-5.541v-2.606
		c0-5.758,2.037-10.673,6.111-14.747c4.074-4.073,8.99-6.11,14.747-6.11h5.214c1.412,0,2.634-0.516,3.666-1.548
		c1.032-1.032,1.548-2.254,1.548-3.666V20.858c0-1.412-0.516-2.635-1.548-3.667c-1.032-1.031-2.254-1.548-3.666-1.548h-5.214
		c-5.649,0-11.039,1.101-16.172,3.3c-5.133,2.2-9.573,5.174-13.321,8.922c-3.748,3.747-6.721,8.187-8.921,13.32
		c-2.2,5.133-3.3,10.524-3.3,16.173v57.356c0,4.347,1.52,8.039,4.562,11.081c3.042,3.041,6.736,4.562,11.081,4.562h31.287
		c4.345,0,8.038-1.521,11.08-4.562c3.041-3.042,4.562-6.734,4.562-11.081V83.429c0-4.346-1.521-8.038-4.564-11.081
		C95.181,69.307,91.487,67.786,87.142,67.786z"/>
	<path d="M171.225,72.348c-3.041-3.041-6.734-4.562-11.08-4.562h-18.25c-2.172,0-4.02-0.76-5.539-2.281
		c-1.521-1.521-2.281-3.368-2.281-5.541v-2.606c0-5.758,2.037-10.673,6.109-14.747c4.073-4.073,8.989-6.11,14.748-6.11h5.213
		c1.412,0,2.635-0.516,3.666-1.548c1.032-1.032,1.549-2.254,1.549-3.666V20.858c0-1.412-0.517-2.635-1.549-3.667
		c-1.031-1.031-2.254-1.548-3.666-1.548h-5.213c-5.652,0-11.041,1.101-16.175,3.3c-5.132,2.2-9.571,5.174-13.319,8.922
		c-3.748,3.747-6.722,8.187-8.922,13.32c-2.199,5.133-3.3,10.524-3.3,16.173v57.356c0,4.347,1.521,8.039,4.562,11.081
		c3.041,3.041,6.734,4.562,11.08,4.562h31.285c4.347,0,8.039-1.521,11.08-4.562c3.043-3.042,4.562-6.734,4.562-11.081V83.429
		C175.785,79.083,174.266,75.391,171.225,72.348z"/>
</g>
</svg>
