<?xml version="1.0" encoding="utf-8"?>
<!-- Generator: Adobe Illustrator 16.0.4, SVG Export Plug-In . SVG Version: 6.00 Build 0)  -->
<!DOCTYPE svg PUBLIC "-//W3C//DTD SVG 1.1//EN" "http://www.w3.org/Graphics/SVG/1.1/DTD/svg11.dtd">
<svg version="1.1" id="Capa_1" xmlns="http://www.w3.org/2000/svg" xmlns:xlink="http://www.w3.org/1999/xlink" x="0px" y="0px"
	 width="216px" height="146px" viewBox="0 0 216 146" enable-background="new 0 0 216 146" xml:space="preserve">
<path d="M167.393,16.048c-2.227-0.922-4.127-0.543-5.703,1.141L151.098,27.7c-5.812-5.486-12.451-9.736-19.921-12.751
	c-7.468-3.014-15.194-4.521-23.179-4.521c-8.473,0-16.566,1.657-24.279,4.97c-7.713,3.313-14.367,7.766-19.961,13.361
	c-5.595,5.595-10.049,12.248-13.362,19.961c-3.313,7.713-4.97,15.805-4.97,24.279c0,8.472,1.657,16.566,4.97,24.279
	c3.314,7.713,7.767,14.366,13.362,19.961c5.594,5.593,12.248,10.047,19.961,13.36c7.713,3.314,15.806,4.971,24.279,4.971
	c9.342,0,18.225-1.969,26.643-5.907c8.418-3.937,15.588-9.491,21.51-16.661c0.433-0.543,0.637-1.154,0.609-1.833
	c-0.025-0.679-0.285-1.235-0.773-1.67l-11.161-11.243c-0.599-0.488-1.276-0.732-2.037-0.732c-0.869,0.108-1.493,0.435-1.874,0.978
	c-3.965,5.161-8.826,9.153-14.584,11.978c-5.757,2.824-11.867,4.235-18.331,4.235c-5.648,0-11.039-1.1-16.172-3.3
	c-5.133-2.199-9.574-5.173-13.321-8.921s-6.721-8.188-8.921-13.321s-3.3-10.523-3.3-16.172c0-5.649,1.101-11.041,3.3-16.173
	c2.199-5.132,5.173-9.573,8.921-13.32c3.748-3.748,8.188-6.722,13.321-8.922c5.132-2.199,10.524-3.3,16.172-3.3
	c10.918,0,20.396,3.721,28.435,11.162L125.189,53.69c-1.684,1.63-2.063,3.504-1.141,5.622c0.924,2.173,2.527,3.259,4.809,3.259h36.5
	c1.412,0,2.634-0.516,3.666-1.548c1.031-1.032,1.547-2.254,1.547-3.666v-36.5C170.57,18.576,169.514,16.974,167.393,16.048z"/>
</svg>
