<?xml version="1.0" encoding="utf-8"?>
<!-- Generator: Adobe Illustrator 16.0.4, SVG Export Plug-In . SVG Version: 6.00 Build 0)  -->
<!DOCTYPE svg PUBLIC "-//W3C//DTD SVG 1.1//EN" "http://www.w3.org/Graphics/SVG/1.1/DTD/svg11.dtd">
<svg version="1.1" id="Capa_1" xmlns="http://www.w3.org/2000/svg" xmlns:xlink="http://www.w3.org/1999/xlink" x="0px" y="0px"
	 width="216px" height="146px" viewBox="0 0 216 146" enable-background="new 0 0 216 146" xml:space="preserve">
<g>
	<path d="M97.409,50.514V10.999c-9.723,1.629-18.549,5.35-26.48,11.162c-7.93,5.812-14.163,13.131-18.698,21.957
		c-4.535,8.828-6.803,18.319-6.803,28.476c0,15.208,4.916,28.651,14.747,40.329c11.081-5.377,20.056-13.7,26.927-24.972
		S97.409,64.202,97.409,50.514z"/>
	<path d="M163.768,44.116c-4.535-8.826-10.767-16.146-18.697-21.957c-7.93-5.812-16.758-9.532-26.479-11.161v39.515
		c0,13.688,3.437,26.166,10.306,37.438c6.871,11.271,15.849,19.595,26.929,24.972c9.831-11.678,14.745-25.121,14.745-40.329
		C170.57,62.436,168.305,52.944,163.768,44.116z"/>
	<path d="M118.551,110.152c-5.295-6.734-8.895-14.014-10.795-21.836c-1.847,7.822-5.418,15.102-10.714,21.836
		s-11.691,12.465-19.187,17.19c9.288,5.105,19.255,7.658,29.901,7.658c10.7,0,20.694-2.553,29.98-7.658
		C130.242,122.617,123.848,116.887,118.551,110.152z"/>
</g>
</svg>
