<?xml version="1.0" encoding="utf-8"?>
<!-- Generator: Adobe Illustrator 16.0.4, SVG Export Plug-In . SVG Version: 6.00 Build 0)  -->
<!DOCTYPE svg PUBLIC "-//W3C//DTD SVG 1.1//EN" "http://www.w3.org/Graphics/SVG/1.1/DTD/svg11.dtd">
<svg version="1.1" id="Capa_1" xmlns="http://www.w3.org/2000/svg" xmlns:xlink="http://www.w3.org/1999/xlink" x="0px" y="0px"
	 width="216px" height="146px" viewBox="0 0 216 146" enable-background="new 0 0 216 146" xml:space="preserve">
<g>
	<path d="M167.23,52.428c-10.211-10.483-26.479-16.484-48.803-18.005V13.077c0-2.281-1.06-3.883-3.178-4.807
		c-2.227-0.922-4.128-0.543-5.703,1.141L67.833,51.125c-1.032,1.033-1.548,2.255-1.548,3.667s0.516,2.634,1.548,3.666l41.714,41.714
		c0.979,1.032,2.2,1.548,3.667,1.548c0.651,0,1.33-0.136,2.036-0.407c2.118-0.924,3.178-2.525,3.178-4.807v-20.45
		c8.745,0.706,16.008,2.132,21.795,4.277c5.785,2.146,10.414,5.147,13.891,9.003c8.094,8.962,10.973,24.305,8.637,46.032
		c-0.107,1.413,0.516,2.336,1.874,2.771c0.163,0.055,0.407,0.081,0.733,0.081c1.086,0,1.846-0.462,2.281-1.385l1.629-3.259
		c0.76-1.521,1.86-3.979,3.299-7.374c1.439-3.396,2.744-6.79,3.912-10.185c1.168-3.394,2.213-7.142,3.137-11.242
		c0.923-4.103,1.385-7.728,1.385-10.877C181,75.648,176.41,61.825,167.23,52.428z"/>
	<path d="M53.249,54.792c0-1.413,0.516-2.635,1.548-3.667l32.345-32.426v-5.622c0-2.281-1.06-3.883-3.178-4.807
		c-2.227-0.922-4.128-0.543-5.703,1.141L36.547,51.125c-1.032,1.033-1.548,2.255-1.548,3.667s0.516,2.634,1.548,3.666l41.714,41.714
		c0.978,1.032,2.2,1.548,3.667,1.548c0.652,0,1.331-0.136,2.037-0.407c2.118-0.924,3.178-2.525,3.178-4.807v-5.703L54.797,58.458
		C53.765,57.426,53.249,56.205,53.249,54.792z"/>
</g>
</svg>
