<?xml version="1.0" encoding="utf-8"?>
<!-- Generator: Adobe Illustrator 16.0.4, SVG Export Plug-In . SVG Version: 6.00 Build 0)  -->
<!DOCTYPE svg PUBLIC "-//W3C//DTD SVG 1.1//EN" "http://www.w3.org/Graphics/SVG/1.1/DTD/svg11.dtd">
<svg version="1.1" id="Capa_1" xmlns="http://www.w3.org/2000/svg" xmlns:xlink="http://www.w3.org/1999/xlink" x="0px" y="0px"
	 width="216px" height="146px" viewBox="0 0 216 146" enable-background="new 0 0 216 146" xml:space="preserve">
<path d="M176.682,66.727c-8.8-21.889-32.563-32.834-71.29-32.834h-18.25V13.036c0-1.413-0.516-2.635-1.548-3.667
	c-1.032-1.032-2.253-1.548-3.666-1.548c-1.413,0-2.635,0.516-3.667,1.548L36.547,51.083c-1.032,1.033-1.548,2.255-1.548,3.667
	s0.516,2.634,1.548,3.666l41.714,41.715c1.033,1.031,2.255,1.549,3.667,1.549c1.412,0,2.634-0.518,3.666-1.549
	c1.032-1.031,1.548-2.254,1.548-3.666V75.607h18.25c5.322,0,10.088,0.162,14.297,0.488s8.393,0.91,12.547,1.752
	c4.156,0.842,7.768,1.996,10.837,3.463c3.069,1.468,5.934,3.354,8.596,5.662c2.662,2.31,4.835,5.051,6.519,8.229
	c1.683,3.178,3,6.938,3.951,11.284c0.95,4.345,1.426,9.261,1.426,14.746c0,2.986-0.137,6.328-0.407,10.021
	c0,0.325-0.067,0.963-0.204,1.914c-0.135,0.951-0.203,1.67-0.203,2.159c0,0.813,0.23,1.493,0.691,2.036
	c0.463,0.543,1.102,0.814,1.916,0.814c0.869,0,1.629-0.462,2.281-1.386c0.379-0.488,0.731-1.086,1.059-1.792
	c0.326-0.706,0.693-1.52,1.1-2.443c0.408-0.925,0.693-1.574,0.855-1.955C177.551,115.121,181,102.873,181,93.857
	C181,83.049,179.561,74.005,176.682,66.727z"/>
</svg>
