<?xml version="1.0" encoding="utf-8"?>
<!-- Generator: Adobe Illustrator 16.0.4, SVG Export Plug-In . SVG Version: 6.00 Build 0)  -->
<!DOCTYPE svg PUBLIC "-//W3C//DTD SVG 1.1//EN" "http://www.w3.org/Graphics/SVG/1.1/DTD/svg11.dtd">
<svg version="1.1" id="Capa_1" xmlns="http://www.w3.org/2000/svg" xmlns:xlink="http://www.w3.org/1999/xlink" x="0px" y="0px"
	 width="216px" height="146px" viewBox="0 0 216 146" enable-background="new 0 0 216 146" xml:space="preserve">
<g>
	<path d="M120.465,99.967c-0.488-0.598-1.167-0.896-2.035-0.896H71.5V67.784h15.642c1.412,0,2.635-0.516,3.666-1.548
		c1.032-1.032,1.548-2.254,1.548-3.667c0-1.303-0.408-2.417-1.222-3.34L65.063,27.943c-1.032-1.194-2.363-1.792-3.992-1.792
		c-1.63,0-2.96,0.597-3.992,1.792L31.008,59.229c-0.816,0.923-1.223,2.037-1.223,3.34c0,1.413,0.517,2.635,1.548,3.667
		c1.032,1.032,2.255,1.548,3.667,1.548h15.643v33.894v13.035v0.896v1.06c0,0.163,0.027,0.476,0.081,0.938
		c0.055,0.462,0.137,0.774,0.245,0.937c0.108,0.164,0.258,0.381,0.448,0.652c0.189,0.271,0.434,0.462,0.732,0.57
		c0.299,0.108,0.666,0.162,1.101,0.162h78.215c0.705,0,1.316-0.257,1.832-0.773c0.516-0.516,0.773-1.127,0.773-1.833
		c0-0.544-0.189-1.113-0.569-1.712L120.465,99.967z"/>
	<path d="M184.666,79.763c-1.031-1.03-2.254-1.547-3.666-1.547h-15.643V44.322V31.286V30.39v-1.059c0-0.163-0.027-0.475-0.082-0.938
		c-0.055-0.462-0.137-0.774-0.244-0.937c-0.108-0.163-0.258-0.381-0.448-0.652s-0.435-0.461-0.733-0.57
		c-0.299-0.108-0.664-0.163-1.1-0.163H84.535c-0.706,0-1.316,0.258-1.833,0.774c-0.515,0.516-0.773,1.127-0.773,1.833
		c0,0.597,0.189,1.14,0.57,1.629l13.035,15.643c0.489,0.652,1.168,0.978,2.037,0.978H144.5v31.286h-15.643
		c-1.412,0-2.635,0.516-3.666,1.547c-1.032,1.033-1.549,2.256-1.549,3.667c0,1.304,0.409,2.417,1.224,3.341l26.071,31.285
		c1.086,1.25,2.416,1.874,3.992,1.874c1.574,0,2.904-0.624,3.991-1.874l26.071-31.285c0.814-0.924,1.223-2.037,1.223-3.341
		C186.215,82.018,185.698,80.795,184.666,79.763z"/>
</g>
</svg>
