<?xml version="1.0" encoding="utf-8"?>
<!-- Generator: Adobe Illustrator 16.0.4, SVG Export Plug-In . SVG Version: 6.00 Build 0)  -->
<!DOCTYPE svg PUBLIC "-//W3C//DTD SVG 1.1//EN" "http://www.w3.org/Graphics/SVG/1.1/DTD/svg11.dtd">
<svg version="1.1" id="Capa_1" xmlns="http://www.w3.org/2000/svg" xmlns:xlink="http://www.w3.org/1999/xlink" x="0px" y="0px"
	 width="216px" height="146px" viewBox="0 0 216 146" enable-background="new 0 0 216 146" xml:space="preserve">
<g>
	<path d="M87.144,15.644H55.858c-4.346,0-8.039,1.521-11.081,4.562c-3.041,3.042-4.562,6.735-4.562,11.081v31.285
		c0,4.346,1.52,8.039,4.562,11.08s6.736,4.562,11.081,4.562h18.25c2.172,0,4.019,0.761,5.54,2.281s2.281,3.368,2.281,5.541v2.606
		c0,5.758-2.037,10.672-6.11,14.746c-4.074,4.073-8.989,6.11-14.747,6.11h-5.214c-1.413,0-2.635,0.517-3.667,1.548
		c-1.032,1.032-1.548,2.254-1.548,3.666v10.43c0,1.411,0.516,2.635,1.548,3.666c1.033,1.031,2.254,1.549,3.667,1.549h5.214
		c5.649,0,11.04-1.102,16.173-3.301c5.133-2.199,9.573-5.174,13.321-8.922c3.747-3.747,6.721-8.187,8.921-13.32
		c2.199-5.133,3.299-10.523,3.299-16.172V31.286c0-4.346-1.521-8.039-4.562-11.08S91.489,15.644,87.144,15.644z"/>
	<path d="M171.223,20.206c-3.041-3.041-6.734-4.562-11.08-4.562h-31.285c-4.346,0-8.039,1.521-11.08,4.562
		c-3.041,3.042-4.562,6.735-4.562,11.081v31.285c0,4.346,1.521,8.039,4.562,11.08s6.734,4.562,11.08,4.562h18.25
		c2.172,0,4.02,0.761,5.541,2.281c1.519,1.521,2.281,3.368,2.281,5.541v2.606c0,5.758-2.037,10.672-6.111,14.746
		c-4.074,4.073-8.988,6.11-14.746,6.11h-5.215c-1.412,0-2.635,0.517-3.666,1.548c-1.033,1.032-1.549,2.254-1.549,3.666v10.43
		c0,1.411,0.516,2.635,1.549,3.666c1.031,1.031,2.254,1.549,3.666,1.549h5.215c5.648,0,11.039-1.102,16.172-3.301
		c5.132-2.199,9.572-5.174,13.32-8.922c3.748-3.747,6.723-8.188,8.922-13.32s3.299-10.523,3.299-16.172V31.286
		C175.785,26.94,174.266,23.247,171.223,20.206z"/>
</g>
</svg>
