<?xml version="1.0" encoding="utf-8"?>
<!-- Generator: Adobe Illustrator 16.0.4, SVG Export Plug-In . SVG Version: 6.00 Build 0)  -->
<!DOCTYPE svg PUBLIC "-//W3C//DTD SVG 1.1//EN" "http://www.w3.org/Graphics/SVG/1.1/DTD/svg11.dtd">
<svg version="1.1" id="Capa_1" xmlns="http://www.w3.org/2000/svg" xmlns:xlink="http://www.w3.org/1999/xlink" x="0px" y="0px"
	 width="216px" height="146px" viewBox="0 0 216 146" enable-background="new 0 0 216 146" xml:space="preserve">
<path d="M180.021,109.744l-33.975-85.058c-0.434-1.032-1.14-1.928-2.117-2.688c-0.979-0.761-2.011-1.141-3.097-1.141h-27.62
	c0.706,0,1.331,0.257,1.874,0.773c0.542,0.517,0.841,1.127,0.896,1.833l1.223,15.644c0.055,0.76-0.163,1.385-0.65,1.873
	c-0.49,0.489-1.087,0.733-1.794,0.733h-13.524c-0.706,0-1.303-0.244-1.792-0.733c-0.489-0.488-0.706-1.113-0.651-1.873l1.222-15.644
	c0.054-0.706,0.352-1.316,0.896-1.833c0.543-0.515,1.167-0.773,1.874-0.773h-27.62c-1.086,0-2.118,0.38-3.096,1.141
	c-0.977,0.759-1.683,1.656-2.118,2.688l-33.975,85.058c-1.412,3.367-2.118,6.517-2.118,9.451c0,3.965,1.249,5.947,3.748,5.947
	h57.357c-0.706,0-1.303-0.258-1.792-0.773c-0.489-0.518-0.706-1.127-0.651-1.834l1.629-20.855c0.054-0.707,0.353-1.317,0.896-1.834
	c0.543-0.516,1.168-0.773,1.874-0.773h22.16c0.706,0,1.33,0.257,1.874,0.773c0.543,0.517,0.842,1.127,0.896,1.834l1.631,20.855
	c0.055,0.707-0.164,1.316-0.651,1.834c-0.489,0.515-1.086,0.773-1.793,0.773h57.356c2.498,0,3.748-1.982,3.748-5.947
	C182.141,116.262,181.434,113.112,180.021,109.744z M120.303,81.146c0.053,0.652-0.164,1.195-0.652,1.629
	c-0.488,0.435-1.06,0.652-1.711,0.652H98.06c-0.652,0-1.223-0.217-1.711-0.652c-0.489-0.435-0.706-0.978-0.652-1.629V80.82
	l1.956-26.07c0.054-0.706,0.353-1.317,0.896-1.833c0.543-0.516,1.168-0.774,1.874-0.774h15.153c0.707,0,1.331,0.257,1.875,0.774
	c0.543,0.516,0.842,1.127,0.896,1.833l1.955,26.07V81.146z"/>
</svg>
