<?xml version="1.0" encoding="utf-8"?>
<!-- Generator: Adobe Illustrator 16.0.4, SVG Export Plug-In . SVG Version: 6.00 Build 0)  -->
<!DOCTYPE svg PUBLIC "-//W3C//DTD SVG 1.1//EN" "http://www.w3.org/Graphics/SVG/1.1/DTD/svg11.dtd">
<svg version="1.1" id="Capa_1" xmlns="http://www.w3.org/2000/svg" xmlns:xlink="http://www.w3.org/1999/xlink" x="0px" y="0px"
	 width="216px" height="146px" viewBox="0 0 216 146" enable-background="new 0 0 216 146" xml:space="preserve">
<path d="M163.686,17.313c-4.588-4.589-10.115-6.884-16.578-6.884H68.893c-6.463,0-11.99,2.295-16.58,6.884
	c-4.589,4.59-6.884,10.117-6.884,16.58v78.214c0,6.463,2.295,11.99,6.884,16.58c4.59,4.59,10.117,6.885,16.58,6.885h78.214
	c6.463,0,11.99-2.295,16.578-6.885c4.59-4.59,6.885-10.117,6.885-16.58V33.893C170.57,27.43,168.275,21.902,163.686,17.313z
	 M84.088,111.659c-2.038,2.036-4.495,3.055-7.374,3.055c-2.878,0-5.336-1.019-7.373-3.055c-2.037-2.037-3.056-4.495-3.056-7.374
	c0-2.878,1.019-5.336,3.056-7.373c2.037-2.037,4.495-3.055,7.373-3.055c2.879,0,5.337,1.018,7.374,3.055
	c2.036,2.037,3.055,4.495,3.055,7.373C87.143,107.164,86.125,109.622,84.088,111.659z M115.005,113.898
	c-0.543,0.543-1.168,0.813-1.874,0.813h-10.428c-0.706,0-1.303-0.229-1.792-0.692c-0.489-0.461-0.761-1.045-0.815-1.752
	c-0.597-8.363-3.883-15.533-9.858-21.509c-5.975-5.974-13.144-9.26-21.509-9.858c-0.706-0.053-1.29-0.324-1.751-0.813
	c-0.462-0.488-0.693-1.086-0.693-1.792V67.866c0-0.706,0.272-1.331,0.815-1.874c0.543-0.543,1.195-0.787,1.956-0.733
	c12.601,0.706,23.355,5.514,32.263,14.421c8.908,8.909,13.715,19.662,14.421,32.264
	C115.795,112.704,115.548,113.355,115.005,113.898z M146.291,113.898c-0.543,0.543-1.167,0.814-1.873,0.814h-10.429
	c-0.706,0-1.304-0.244-1.792-0.732c-0.489-0.488-0.76-1.086-0.815-1.793c-0.38-11.08-3.409-21.346-9.084-30.797
	c-5.675-9.451-13.239-17.014-22.69-22.689c-9.451-5.676-19.716-8.704-30.797-9.084c-0.706-0.054-1.303-0.326-1.792-0.814
	c-0.488-0.489-0.733-1.087-0.733-1.793V36.581c0-0.706,0.272-1.33,0.815-1.874c0.489-0.543,1.113-0.787,1.874-0.732
	c8.364,0.271,16.444,1.791,24.238,4.562c7.794,2.769,14.855,6.558,21.184,11.365c6.328,4.806,11.895,10.374,16.701,16.702
	s8.596,13.389,11.366,21.183c2.769,7.795,4.291,15.874,4.562,24.238C147.134,112.786,146.891,113.41,146.291,113.898z"/>
</svg>
