<?xml version="1.0" encoding="utf-8"?>
<!-- Generator: Adobe Illustrator 16.0.4, SVG Export Plug-In . SVG Version: 6.00 Build 0)  -->
<!DOCTYPE svg PUBLIC "-//W3C//DTD SVG 1.1//EN" "http://www.w3.org/Graphics/SVG/1.1/DTD/svg11.dtd">
<svg version="1.1" id="Capa_1" xmlns="http://www.w3.org/2000/svg" xmlns:xlink="http://www.w3.org/1999/xlink" x="0px" y="0px"
	 width="216px" height="146px" viewBox="0 0 216 146" enable-background="new 0 0 216 146" xml:space="preserve">
<path d="M143.848,41.633c-0.488-0.489-1.113-0.733-1.873-0.733h-13.932c-0.924-4.507-2.662-8.419-5.215-11.732h18.982
	c0.762,0,1.385-0.244,1.875-0.732c0.487-0.489,0.731-1.114,0.731-1.874V18.25c0-0.761-0.244-1.385-0.731-1.874
	c-0.49-0.488-1.113-0.733-1.875-0.733H74.025c-0.761,0-1.385,0.245-1.874,0.733c-0.488,0.489-0.733,1.113-0.733,1.874v10.836
	c0,0.706,0.258,1.317,0.774,1.833s1.127,0.774,1.833,0.774h11.814c11.46,0,18.738,3.068,21.834,9.206H74.025
	c-0.761,0-1.386,0.244-1.874,0.733c-0.488,0.489-0.733,1.113-0.733,1.874v8.311c0,0.76,0.244,1.385,0.733,1.873
	c0.489,0.489,1.114,0.733,1.874,0.733h34.79c-1.195,4.455-3.979,7.849-8.352,10.185S90.32,68.112,83.15,68.112h-9.125
	c-0.706,0-1.317,0.258-1.833,0.774c-0.516,0.516-0.774,1.127-0.774,1.833v10.348c0,0.707,0.244,1.304,0.733,1.793
	c10.428,11.08,23.953,26.586,40.574,46.521c0.489,0.652,1.168,0.978,2.037,0.978h15.887c1.141,0,1.929-0.488,2.363-1.467
	c0.543-0.978,0.436-1.901-0.326-2.771c-15.859-19.444-28.325-34.001-37.396-43.669c9.234-1.087,16.729-4.074,22.487-8.962
	c5.757-4.888,9.26-11.244,10.51-19.065h13.688c0.76,0,1.385-0.244,1.873-0.733c0.489-0.488,0.734-1.113,0.734-1.873v-8.311
	C144.582,42.746,144.337,42.122,143.848,41.633z"/>
</svg>
