<?xml version="1.0" encoding="utf-8"?>
<!-- Generator: Adobe Illustrator 16.0.4, SVG Export Plug-In . SVG Version: 6.00 Build 0)  -->
<!DOCTYPE svg PUBLIC "-//W3C//DTD SVG 1.1//EN" "http://www.w3.org/Graphics/SVG/1.1/DTD/svg11.dtd">
<svg version="1.1" id="Capa_1" xmlns="http://www.w3.org/2000/svg" xmlns:xlink="http://www.w3.org/1999/xlink" x="0px" y="0px"
	 width="216px" height="146px" viewBox="0 0 216 146" enable-background="new 0 0 216 146" xml:space="preserve">
<path d="M168.941,44.972c-1.086-2.606-2.391-4.67-3.912-6.191l-22.812-22.812c-1.52-1.52-3.585-2.824-6.192-3.911
	c-2.606-1.086-4.996-1.629-7.168-1.629H53.25c-2.172,0-4.019,0.76-5.54,2.281c-1.521,1.52-2.281,3.367-2.281,5.54v109.5
	c0,2.173,0.76,4.02,2.281,5.54s3.368,2.281,5.54,2.281h109.5c2.173,0,4.02-0.761,5.54-2.281s2.28-3.367,2.28-5.54V52.143
	C170.57,49.97,170.027,47.58,168.941,44.972z M97.572,23.464c0-0.706,0.258-1.316,0.774-1.833c0.516-0.515,1.127-0.773,1.833-0.773
	h15.644c0.704,0,1.315,0.257,1.831,0.773c0.517,0.517,0.775,1.127,0.775,1.833v26.071c0,0.707-0.259,1.318-0.775,1.834
	c-0.516,0.515-1.127,0.773-1.831,0.773h-15.644c-0.706,0-1.317-0.257-1.833-0.773c-0.516-0.517-0.774-1.127-0.774-1.834V23.464z
	 M139.286,125.143H76.714V93.857h62.572V125.143z M160.145,125.143h-10.431h-0.001V91.249c0-2.173-0.76-4.019-2.281-5.54
	c-1.52-1.521-3.367-2.281-5.539-2.281H74.107c-2.173,0-4.02,0.76-5.541,2.281c-1.52,1.52-2.281,3.367-2.281,5.54v33.894H55.857
	V20.857h10.428V54.75c0,2.173,0.76,4.019,2.281,5.54c1.521,1.52,3.368,2.281,5.541,2.281h46.929c2.172,0,4.021-0.761,5.54-2.281
	s2.281-3.367,2.281-5.54V20.857c0.814,0,1.873,0.271,3.177,0.814c1.305,0.543,2.228,1.086,2.771,1.629l22.895,22.895
	c0.544,0.543,1.087,1.481,1.63,2.811c0.544,1.331,0.815,2.377,0.815,3.137V125.143z"/>
</svg>
