<?xml version="1.0" encoding="utf-8"?>
<!-- Generator: Adobe Illustrator 16.0.4, SVG Export Plug-In . SVG Version: 6.00 Build 0)  -->
<!DOCTYPE svg PUBLIC "-//W3C//DTD SVG 1.1//EN" "http://www.w3.org/Graphics/SVG/1.1/DTD/svg11.dtd">
<svg version="1.1" id="Capa_1" xmlns="http://www.w3.org/2000/svg" xmlns:xlink="http://www.w3.org/1999/xlink" x="0px" y="0px"
	 width="216px" height="146px" viewBox="0 0 216 146" enable-background="new 0 0 216 146" xml:space="preserve">
<path d="M169.023,64.119c-1.032-1.032-2.254-1.548-3.666-1.548h-11.651c-2.011-8.745-6.206-16.308-12.587-22.69
	c-6.381-6.382-13.946-10.578-22.689-12.588v-11.65c0-1.412-0.518-2.634-1.549-3.666s-2.254-1.548-3.666-1.548h-10.429
	c-1.412,0-2.634,0.516-3.666,1.548c-1.032,1.032-1.548,2.254-1.548,3.666v11.65c-8.745,2.01-16.308,6.206-22.69,12.588
	c-6.382,6.381-10.578,13.945-12.588,22.69h-11.65c-1.413,0-2.635,0.516-3.667,1.548c-1.032,1.032-1.548,2.254-1.548,3.666v10.429
	c0,1.412,0.516,2.636,1.548,3.667c1.033,1.031,2.255,1.548,3.667,1.548h11.65c2.01,8.744,6.206,16.308,12.588,22.69
	c6.381,6.382,13.945,10.576,22.69,12.587v11.651c0,1.412,0.516,2.634,1.548,3.666c1.032,1.031,2.254,1.547,3.666,1.547h10.429
	c1.412,0,2.635-0.516,3.666-1.547c1.031-1.032,1.549-2.254,1.549-3.666v-11.651c8.743-2.011,16.307-6.205,22.689-12.587
	c6.382-6.383,10.576-13.946,12.587-22.69h11.651c1.412,0,2.634-0.517,3.666-1.548c1.031-1.031,1.547-2.255,1.547-3.667V67.785
	C170.57,66.373,170.055,65.151,169.023,64.119z M130.404,81.881c1.033,1.031,2.255,1.548,3.666,1.548h8.882
	c-1.738,5.866-4.793,10.985-9.166,15.357c-4.372,4.372-9.491,7.428-15.356,9.166v-8.881c0-1.412-0.518-2.634-1.549-3.666
	s-2.254-1.548-3.666-1.548h-10.429c-1.412,0-2.634,0.516-3.666,1.548c-1.032,1.032-1.548,2.254-1.548,3.666v8.881
	c-5.866-1.738-10.985-4.794-15.358-9.166s-7.428-9.491-9.166-15.357h8.88c1.413,0,2.635-0.517,3.667-1.548
	c1.032-1.031,1.548-2.255,1.548-3.667V67.785c0-1.412-0.516-2.634-1.548-3.666c-1.033-1.032-2.255-1.548-3.667-1.548h-8.88
	c1.738-5.866,4.793-10.985,9.166-15.357c4.373-4.373,9.492-7.428,15.358-9.166v8.881c0,1.412,0.516,2.634,1.548,3.666
	c1.032,1.032,2.254,1.548,3.666,1.548h10.429c1.412,0,2.635-0.516,3.666-1.548c1.031-1.032,1.549-2.254,1.549-3.666v-8.881
	c5.865,1.738,10.984,4.793,15.356,9.166c4.373,4.372,7.428,9.491,9.166,15.357h-8.882c-1.411,0-2.633,0.516-3.666,1.548
	c-1.031,1.032-1.547,2.254-1.547,3.666v10.429C128.857,79.626,129.373,80.85,130.404,81.881z"/>
</svg>
