<?xml version="1.0" encoding="utf-8"?>
<!-- Generator: Adobe Illustrator 16.0.4, SVG Export Plug-In . SVG Version: 6.00 Build 0)  -->
<!DOCTYPE svg PUBLIC "-//W3C//DTD SVG 1.1//EN" "http://www.w3.org/Graphics/SVG/1.1/DTD/svg11.dtd">
<svg version="1.1" id="Capa_1" xmlns="http://www.w3.org/2000/svg" xmlns:xlink="http://www.w3.org/1999/xlink" x="0px" y="0px"
	 width="216px" height="146px" viewBox="0 0 216 146" enable-background="new 0 0 216 146" xml:space="preserve">
<g>
	<path d="M174.239,43.263l-31.285-31.286c-1.033-1.032-2.256-1.548-3.668-1.548c-0.649,0-1.33,0.136-2.035,0.407
		c-2.119,0.924-3.178,2.526-3.178,4.807v15.644h-13.037c-5.757,0-11.095,0.299-16.009,0.896c-4.915,0.597-9.247,1.425-12.995,2.485
		c-3.748,1.058-7.129,2.376-10.144,3.951c-3.014,1.575-5.58,3.245-7.699,5.011c-2.119,1.765-3.979,3.775-5.581,6.029
		c-1.603,2.254-2.879,4.467-3.83,6.64c-0.95,2.173-1.71,4.563-2.281,7.17c-0.571,2.607-0.951,5.051-1.141,7.332
		c-0.19,2.281-0.285,4.753-0.285,7.414c0,3.042,0.476,6.355,1.426,9.94c0.951,3.585,1.996,6.681,3.137,9.288
		c1.14,2.605,2.485,5.308,4.033,8.105c1.548,2.797,2.62,4.657,3.218,5.581c0.597,0.922,1.168,1.765,1.711,2.525
		c0.543,0.706,1.249,1.059,2.118,1.059c0.218,0,0.543-0.054,0.978-0.162c1.249-0.598,1.792-1.521,1.629-2.771
		c-2.444-18.25-0.434-31.096,6.029-38.537c6.247-7.115,18.142-10.673,35.685-10.673h13.037v15.643c0,2.282,1.059,3.884,3.178,4.808
		c0.705,0.271,1.385,0.407,2.035,0.407c1.467,0,2.689-0.516,3.668-1.548l31.285-31.286c1.031-1.033,1.548-2.254,1.548-3.666
		C175.786,45.517,175.27,44.294,174.239,43.263z"/>
	<path d="M153.218,88.643c-1.034-0.436-1.983-0.218-2.852,0.651c-1.412,1.304-2.88,2.31-4.4,3.015
		c-0.979,0.543-1.467,1.33-1.467,2.362v17.437c0,3.585-1.274,6.652-3.828,9.206c-2.553,2.553-5.623,3.829-9.207,3.829H63.678
		c-3.585,0-6.654-1.276-9.207-3.829c-2.553-2.554-3.829-5.621-3.829-9.206V44.321c0-3.585,1.276-6.653,3.829-9.206
		c2.553-2.553,5.622-3.829,9.207-3.829h9.125c0.326,0,0.761-0.109,1.304-0.326c3.042-1.847,6.653-3.477,10.836-4.889
		c1.412-0.271,2.118-1.14,2.118-2.607c0-0.706-0.258-1.316-0.774-1.833c-0.516-0.515-1.126-0.773-1.833-0.773H63.679
		c-6.463,0-11.99,2.295-16.58,6.884c-4.589,4.59-6.884,10.117-6.884,16.58v67.785c0,6.464,2.295,11.99,6.884,16.58
		c4.59,4.59,10.117,6.885,16.58,6.885h67.786c6.463,0,11.99-2.295,16.58-6.885s6.885-10.116,6.885-16.58V91.006
		C154.93,89.919,154.359,89.132,153.218,88.643z"/>
</g>
</svg>
