<?xml version="1.0" encoding="utf-8"?>
<!-- Generator: Adobe Illustrator 16.0.4, SVG Export Plug-In . SVG Version: 6.00 Build 0)  -->
<!DOCTYPE svg PUBLIC "-//W3C//DTD SVG 1.1//EN" "http://www.w3.org/Graphics/SVG/1.1/DTD/svg11.dtd">
<svg version="1.1" id="Capa_1" xmlns="http://www.w3.org/2000/svg" xmlns:xlink="http://www.w3.org/1999/xlink" x="0px" y="0px"
	 width="216px" height="146px" viewBox="0 0 216 146" enable-background="new 0 0 216 146" xml:space="preserve">
<path d="M179.453,51.082L137.739,9.368c-1.033-1.032-2.255-1.548-3.667-1.548s-2.635,0.516-3.666,1.548
	c-1.032,1.033-1.549,2.255-1.549,3.667v20.857h-18.25c-38.728,0-62.49,10.945-71.29,32.834C36.439,74.004,35,83.048,35,93.857
	c0,9.016,3.449,21.264,10.347,36.744c0.163,0.381,0.447,1.031,0.855,1.954c0.408,0.923,0.774,1.738,1.1,2.444
	c0.327,0.706,0.68,1.304,1.06,1.792c0.651,0.924,1.412,1.386,2.281,1.386c0.815,0,1.453-0.271,1.915-0.814
	c0.461-0.543,0.692-1.223,0.692-2.036c0-0.489-0.068-1.208-0.204-2.159c-0.136-0.951-0.204-1.589-0.204-1.914
	c-0.272-3.693-0.408-7.035-0.408-10.021c0-5.485,0.476-10.401,1.426-14.746c0.951-4.346,2.268-8.106,3.952-11.284
	c1.684-3.179,3.856-5.921,6.518-8.229c2.661-2.308,5.526-4.195,8.595-5.662c3.069-1.467,6.681-2.621,10.836-3.463
	c4.155-0.842,8.337-1.426,12.547-1.752s8.976-0.488,14.299-0.488h18.25v20.857c0,1.412,0.516,2.635,1.547,3.666
	c1.033,1.031,2.255,1.548,3.666,1.548c1.412,0,2.635-0.517,3.668-1.548l41.714-41.715c1.032-1.032,1.548-2.254,1.548-3.666
	S180.484,52.116,179.453,51.082z"/>
</svg>
