<?xml version="1.0" encoding="utf-8"?>
<!-- Generator: Adobe Illustrator 16.0.4, SVG Export Plug-In . SVG Version: 6.00 Build 0)  -->
<!DOCTYPE svg PUBLIC "-//W3C//DTD SVG 1.1//EN" "http://www.w3.org/Graphics/SVG/1.1/DTD/svg11.dtd">
<svg version="1.1" id="Capa_1" xmlns="http://www.w3.org/2000/svg" xmlns:xlink="http://www.w3.org/1999/xlink" x="0px" y="0px"
	 width="216px" height="146px" viewBox="0 0 216 146" enable-background="new 0 0 216 146" xml:space="preserve">
<path d="M163.686,17.313c-4.588-4.589-10.115-6.884-16.578-6.884H68.893c-6.463,0-11.99,2.295-16.58,6.884
	c-4.589,4.59-6.884,10.117-6.884,16.58v78.214c0,6.463,2.295,11.99,6.884,16.58c4.59,4.59,10.117,6.885,16.58,6.885h78.214
	c6.463,0,11.99-2.295,16.578-6.885c4.59-4.59,6.885-10.117,6.885-16.58V33.893C170.57,27.43,168.275,21.902,163.686,17.313z
	 M155.988,61.023l-28.678,28.679c-1.033,1.032-2.254,1.548-3.666,1.55c-0.651,0-1.305-0.137-1.955-0.408
	c-2.174-0.924-3.26-2.526-3.26-4.808V73.001c-7.604,0-13.688,0.637-18.25,1.914c-4.562,1.277-8.092,3.327-10.591,6.151
	c-5.758,6.464-7.442,19.309-5.052,38.537c0.163,1.303-0.353,2.199-1.548,2.688c-0.326,0.163-0.679,0.244-1.059,0.244
	c-0.815,0-1.494-0.326-2.037-0.979c-9.07-12.111-13.606-23.084-13.606-32.914c0-3.26,0.137-6.26,0.408-9.004
	c0.271-2.741,0.855-5.771,1.751-9.083c0.896-3.314,2.104-6.274,3.625-8.881c1.521-2.606,3.599-5.199,6.233-7.78
	c2.634-2.581,5.73-4.726,9.288-6.437c3.557-1.711,7.97-3.095,13.239-4.155c5.268-1.059,11.134-1.589,17.599-1.589V28.678
	c0-2.282,1.086-3.884,3.258-4.808c2.119-0.922,3.992-0.543,5.623,1.141l28.678,28.679c1.033,1.032,1.549,2.255,1.549,3.667
	C157.537,58.769,157.021,59.991,155.988,61.023z"/>
</svg>
