<?xml version="1.0" encoding="utf-8"?>
<!-- Generator: Adobe Illustrator 16.0.4, SVG Export Plug-In . SVG Version: 6.00 Build 0)  -->
<!DOCTYPE svg PUBLIC "-//W3C//DTD SVG 1.1//EN" "http://www.w3.org/Graphics/SVG/1.1/DTD/svg11.dtd">
<svg version="1.1" id="Capa_1" xmlns="http://www.w3.org/2000/svg" xmlns:xlink="http://www.w3.org/1999/xlink" x="0px" y="0px"
	 width="216px" height="146px" viewBox="0 0 216 146" enable-background="new 0 0 216 146" xml:space="preserve">
<path d="M158.598,11.977c-1.033-1.032-2.256-1.548-3.668-1.548H61.073c-1.413,0-2.635,0.516-3.667,1.548
	c-1.032,1.032-1.548,2.254-1.548,3.666v62.571c0,4.672,0.909,9.302,2.729,13.892c1.819,4.59,4.073,8.664,6.762,12.222
	s5.893,7.021,9.614,10.388c3.721,3.369,7.156,6.165,10.306,8.393c3.15,2.227,6.436,4.332,9.858,6.313s5.853,3.327,7.292,4.032
	c1.439,0.707,2.593,1.25,3.462,1.63c0.652,0.325,1.358,0.489,2.119,0.489c0.762,0,1.467-0.164,2.119-0.489
	c0.869-0.38,2.023-0.923,3.462-1.63c1.438-0.705,3.871-2.051,7.292-4.032s6.708-4.086,9.857-6.313
	c3.151-2.228,6.586-5.024,10.307-8.393c3.72-3.367,6.925-6.83,9.613-10.388c2.689-3.558,4.943-7.632,6.764-12.222
	s2.729-9.22,2.729-13.892V15.643C160.143,14.23,159.627,13.009,158.598,11.977z M144.5,78.214c0,9.56-6.382,19.337-19.146,29.331
	c-5.105,4.018-10.891,7.739-17.354,11.161V26.071h36.5V78.214z"/>
</svg>
