<?xml version="1.0" encoding="utf-8"?>
<!-- Generator: Adobe Illustrator 16.0.4, SVG Export Plug-In . SVG Version: 6.00 Build 0)  -->
<!DOCTYPE svg PUBLIC "-//W3C//DTD SVG 1.1//EN" "http://www.w3.org/Graphics/SVG/1.1/DTD/svg11.dtd">
<svg version="1.1" id="Capa_1" xmlns="http://www.w3.org/2000/svg" xmlns:xlink="http://www.w3.org/1999/xlink" x="0px" y="0px"
	 width="216px" height="146px" viewBox="0 0 216 146" enable-background="new 0 0 216 146" xml:space="preserve">
<g>
	<path d="M144.499,119.929c0,2.88,1.021,5.337,3.056,7.373c2.036,2.037,4.495,3.056,7.375,3.056c2.877,0,5.336-1.019,7.372-3.056
		c2.037-2.036,3.056-4.493,3.056-7.373c0-2.879-1.018-5.337-3.056-7.374c-2.036-2.035-4.495-3.055-7.372-3.055
		c-2.88,0-5.339,1.02-7.375,3.055C145.52,114.592,144.499,117.05,144.499,119.929z"/>
	<path d="M174.238,27.617c-1.033-1.032-2.254-1.548-3.666-1.548h-97.85c-0.055-0.38-0.177-1.072-0.367-2.077
		s-0.339-1.806-0.448-2.404c-0.109-0.596-0.312-1.316-0.611-2.158c-0.299-0.842-0.652-1.508-1.059-1.996
		c-0.407-0.49-0.95-0.91-1.629-1.264c-0.679-0.352-1.453-0.529-2.322-0.529H45.429c-1.413,0-2.635,0.517-3.667,1.548
		c-1.032,1.032-1.548,2.255-1.548,3.667s0.516,2.634,1.548,3.666c1.033,1.032,2.255,1.548,3.667,1.548h16.619l14.42,67.053
		c-0.108,0.217-0.665,1.249-1.67,3.096c-1.005,1.848-1.806,3.463-2.403,4.848c-0.597,1.386-0.896,2.459-0.896,3.219
		c0,1.412,0.516,2.635,1.548,3.667c1.033,1.03,2.255,1.548,3.667,1.548h5.214h73.001h5.211c1.412,0,2.635-0.518,3.666-1.548
		c1.033-1.032,1.549-2.255,1.549-3.667s-0.516-2.635-1.549-3.666c-1.031-1.032-2.254-1.549-3.666-1.549H85.186
		c1.304-2.607,1.956-4.344,1.956-5.213c0-0.545-0.068-1.142-0.204-1.793s-0.299-1.371-0.489-2.16c-0.19-0.786-0.312-1.37-0.366-1.75
		l85.06-9.94c1.357-0.163,2.471-0.746,3.34-1.751s1.303-2.159,1.303-3.463V31.285C175.785,29.873,175.27,28.651,174.238,27.617z"/>
	<path d="M71.499,119.929c0,2.88,1.018,5.337,3.055,7.373c2.038,2.037,4.495,3.056,7.374,3.056c2.878,0,5.336-1.019,7.373-3.056
		c2.037-2.036,3.056-4.493,3.056-7.373c0-2.879-1.018-5.337-3.056-7.374c-2.037-2.035-4.495-3.055-7.373-3.055
		c-2.879,0-5.337,1.02-7.374,3.055C72.518,114.592,71.499,117.05,71.499,119.929z"/>
</g>
</svg>
