<?xml version="1.0" encoding="utf-8"?>
<!-- Generator: Adobe Illustrator 16.0.4, SVG Export Plug-In . SVG Version: 6.00 Build 0)  -->
<!DOCTYPE svg PUBLIC "-//W3C//DTD SVG 1.1//EN" "http://www.w3.org/Graphics/SVG/1.1/DTD/svg11.dtd">
<svg version="1.1" id="Capa_1" xmlns="http://www.w3.org/2000/svg" xmlns:xlink="http://www.w3.org/1999/xlink" x="0px" y="0px"
	 width="216px" height="146px" viewBox="0 0 216 146" enable-background="new 0 0 216 146" xml:space="preserve">
<g>
	<path d="M53.25,114.714H37.607c-0.761,0-1.385,0.245-1.874,0.733c-0.488,0.488-0.733,1.113-0.733,1.874v15.643
		c0,0.761,0.244,1.386,0.733,1.874c0.489,0.489,1.114,0.733,1.874,0.733H53.25c0.76,0,1.385-0.244,1.874-0.733
		c0.489-0.488,0.733-1.113,0.733-1.874v-15.643c0-0.761-0.244-1.384-0.733-1.874C54.635,114.959,54.01,114.714,53.25,114.714z"/>
	<path d="M115.822,83.429h-15.643c-0.761,0-1.385,0.244-1.874,0.733c-0.488,0.488-0.733,1.113-0.733,1.873v46.929
		c0,0.761,0.244,1.386,0.733,1.874c0.489,0.489,1.113,0.733,1.874,0.733h15.643c0.761,0,1.386-0.244,1.873-0.733
		c0.488-0.488,0.734-1.113,0.734-1.874V86.035c0-0.76-0.246-1.385-0.734-1.873C117.208,83.673,116.583,83.429,115.822,83.429z"/>
	<path d="M84.536,104.286H68.893c-0.761,0-1.385,0.245-1.874,0.733c-0.488,0.488-0.733,1.113-0.733,1.873v26.071
		c0,0.761,0.244,1.386,0.733,1.874c0.489,0.489,1.113,0.733,1.874,0.733h15.643c0.76,0,1.385-0.244,1.874-0.733
		c0.488-0.488,0.733-1.113,0.733-1.874v-26.071c0-0.76-0.245-1.385-0.733-1.873C85.921,104.531,85.296,104.286,84.536,104.286z"/>
	<path d="M147.107,52.143h-15.643c-0.761,0-1.386,0.244-1.875,0.733c-0.488,0.489-0.732,1.113-0.732,1.874v78.214
		c0,0.761,0.244,1.386,0.732,1.874c0.489,0.489,1.114,0.733,1.875,0.733h15.643c0.761,0,1.386-0.244,1.873-0.733
		c0.49-0.488,0.734-1.113,0.734-1.874V54.75c0-0.761-0.244-1.385-0.734-1.874C148.493,52.387,147.868,52.143,147.107,52.143z"/>
	<path d="M180.268,11.162c-0.49-0.489-1.113-0.733-1.875-0.733H162.75c-0.76,0-1.385,0.244-1.874,0.733
		c-0.489,0.488-0.733,1.113-0.733,1.873v119.929c0,0.761,0.244,1.386,0.733,1.874c0.489,0.489,1.114,0.733,1.874,0.733h15.643
		c0.762,0,1.385-0.244,1.875-0.733c0.488-0.488,0.732-1.113,0.732-1.874V13.035C181,12.275,180.756,11.65,180.268,11.162z"/>
</g>
</svg>
