<?xml version="1.0" encoding="utf-8"?>
<!-- Generator: Adobe Illustrator 16.0.4, SVG Export Plug-In . SVG Version: 6.00 Build 0)  -->
<!DOCTYPE svg PUBLIC "-//W3C//DTD SVG 1.1//EN" "http://www.w3.org/Graphics/SVG/1.1/DTD/svg11.dtd">
<svg version="1.1" id="Capa_1" xmlns="http://www.w3.org/2000/svg" xmlns:xlink="http://www.w3.org/1999/xlink" x="0px" y="0px"
	 width="216px" height="146px" viewBox="0 0 216 146" enable-background="new 0 0 216 146" xml:space="preserve">
<path d="M164.055,85.221c0.868-4.182,1.303-8.256,1.303-12.221c0-7.767-1.506-15.195-4.521-22.283
	c-3.014-7.088-7.088-13.198-12.221-18.331s-11.243-9.207-18.331-12.222c-7.089-3.013-14.515-4.521-22.283-4.521
	c-3.965,0-8.039,0.435-12.221,1.304c-5.649-4.345-12.004-6.518-19.065-6.518c-8.636,0-16.009,3.055-22.12,9.165
	c-6.111,6.111-9.166,13.484-9.166,22.12c0,7.061,2.173,13.416,6.518,19.065c-0.869,4.182-1.304,8.256-1.304,12.221
	c0,7.766,1.507,15.194,4.521,22.283c3.014,7.088,7.088,13.198,12.221,18.331c5.133,5.133,11.244,9.206,18.332,12.221
	c7.088,3.015,14.516,4.522,22.283,4.522c3.965,0,8.039-0.436,12.223-1.305c5.647,4.346,12.002,6.519,19.063,6.519
	c8.636,0,16.01-3.056,22.118-9.166c6.111-6.11,9.166-13.483,9.166-22.12C170.57,97.225,168.398,90.87,164.055,85.221z
	 M138.307,97.32c-1.791,3.178-4.195,5.717-7.209,7.618c-3.015,1.901-6.341,3.353-9.98,4.358c-3.639,1.004-7.441,1.508-11.406,1.508
	c-9.179,0-17.081-1.779-23.708-5.338c-6.627-3.558-9.94-7.834-9.94-12.832c0-2.443,0.693-4.479,2.078-6.109
	c1.385-1.63,3.435-2.444,6.151-2.444c1.575,0,3.041,0.435,4.399,1.304s2.607,1.916,3.748,3.138s2.376,2.444,3.707,3.666
	c1.33,1.223,3.095,2.268,5.295,3.137c2.2,0.869,4.685,1.304,7.456,1.304c3.53,0,6.381-0.691,8.555-2.076
	c2.173-1.387,3.259-3.138,3.259-5.256c0-2.173-0.869-3.803-2.606-4.889c-1.194-0.762-4.236-1.739-9.125-2.934l-11.896-2.934
	c-3.259-0.76-6.056-1.642-8.392-2.646c-2.336-1.006-4.509-2.322-6.518-3.952c-2.009-1.629-3.53-3.679-4.562-6.151
	c-1.032-2.471-1.548-5.364-1.548-8.677c0-3.965,0.91-7.454,2.729-10.469s4.237-5.378,7.251-7.089s6.259-2.987,9.736-3.829
	c3.476-0.842,7.061-1.263,10.754-1.263c5.215,0,10.156,0.625,14.828,1.874c4.671,1.249,8.527,3.082,11.568,5.499
	c3.041,2.418,4.562,5.12,4.562,8.107c0,2.443-0.773,4.535-2.322,6.273c-1.546,1.737-3.597,2.606-6.15,2.606
	c-1.412,0-2.715-0.326-3.91-0.978c-1.195-0.651-2.281-1.439-3.26-2.362c-0.978-0.923-2.01-1.833-3.097-2.729
	c-1.086-0.896-2.552-1.67-4.397-2.322c-1.849-0.652-3.939-0.978-6.274-0.978c-7.821,0-11.732,2.09-11.732,6.273
	c0,0.923,0.204,1.738,0.611,2.444s0.856,1.276,1.344,1.711c0.488,0.435,1.303,0.869,2.444,1.304s2.092,0.748,2.852,0.937
	c0.76,0.19,1.956,0.475,3.585,0.855l8.473,1.955c2.662,0.598,5.037,1.223,7.13,1.874c2.091,0.653,4.331,1.576,6.721,2.771
	c2.39,1.195,4.373,2.525,5.947,3.992c1.576,1.467,2.892,3.326,3.952,5.58c1.06,2.255,1.589,4.74,1.589,7.455
	C140.997,90.571,140.102,94.143,138.307,97.32z"/>
</svg>
