<?xml version="1.0" encoding="utf-8"?>
<!-- Generator: Adobe Illustrator 16.0.4, SVG Export Plug-In . SVG Version: 6.00 Build 0)  -->
<!DOCTYPE svg PUBLIC "-//W3C//DTD SVG 1.1//EN" "http://www.w3.org/Graphics/SVG/1.1/DTD/svg11.dtd">
<svg version="1.1" id="Capa_1" xmlns="http://www.w3.org/2000/svg" xmlns:xlink="http://www.w3.org/1999/xlink" x="0px" y="0px"
	 width="216px" height="146px" viewBox="0 0 216 146" enable-background="new 0 0 216 146" xml:space="preserve">
<path d="M173.704,7.291c-0.544-0.515-1.195-0.774-1.956-0.774c-14.176,0-25.881,1.928-35.114,5.785s-18.956,10.864-29.167,21.02
	c-4.345,4.4-9.125,9.696-14.339,15.888L62.25,50.839c-0.869,0.11-1.575,0.544-2.118,1.304L41.882,83.43
	c-0.652,1.086-0.516,2.146,0.407,3.178l5.214,5.214c0.489,0.489,1.113,0.733,1.874,0.733c0.326,0,0.57-0.027,0.733-0.082
	l22.487-6.926l22.894,22.895l-6.925,22.486c-0.271,0.978-0.054,1.846,0.652,2.606l5.214,5.215c0.598,0.488,1.223,0.733,1.874,0.733
	c0.49,0,0.924-0.109,1.304-0.326l31.287-18.25c0.761-0.543,1.195-1.249,1.304-2.118l1.629-30.879
	c6.192-5.214,11.489-9.993,15.888-14.339c9.67-9.724,16.553-19.513,20.653-29.371c4.101-9.858,6.151-21.55,6.151-35.074
	C174.521,8.419,174.25,7.808,173.704,7.291z M153.99,38.13c-1.52,1.52-3.367,2.281-5.54,2.281s-4.019-0.76-5.54-2.281
	c-1.52-1.521-2.281-3.368-2.281-5.541c0-2.172,0.76-4.019,2.281-5.54c1.52-1.52,3.367-2.281,5.54-2.281s4.019,0.76,5.54,2.281
	c1.52,1.521,2.281,3.368,2.281,5.54C156.271,34.762,155.512,36.608,153.99,38.13z"/>
</svg>
