<?xml version="1.0" encoding="utf-8"?>
<!-- Generator: Adobe Illustrator 16.0.4, SVG Export Plug-In . SVG Version: 6.00 Build 0)  -->
<!DOCTYPE svg PUBLIC "-//W3C//DTD SVG 1.1//EN" "http://www.w3.org/Graphics/SVG/1.1/DTD/svg11.dtd">
<svg version="1.1" id="Capa_1" xmlns="http://www.w3.org/2000/svg" xmlns:xlink="http://www.w3.org/1999/xlink" x="0px" y="0px"
	 width="216px" height="146px" viewBox="0 0 216 146" enable-background="new 0 0 216 146" xml:space="preserve">
<g>
	<path d="M162.18,41.592c-5.595-9.586-13.185-17.176-22.771-22.771c-9.589-5.595-20.056-8.392-31.408-8.392
		c-11.352,0-21.822,2.797-31.408,8.392c-9.587,5.594-17.177,13.184-22.772,22.771C48.225,51.179,45.428,61.649,45.428,73
		c0,11.352,2.798,21.82,8.392,31.408c5.595,9.585,13.185,17.176,22.772,22.771c9.587,5.594,20.056,8.391,31.408,8.391
		c11.352,0,21.822-2.797,31.408-8.391c9.586-5.595,17.176-13.186,22.771-22.771c5.594-9.588,8.391-20.057,8.391-31.408
		C170.57,61.648,167.773,51.178,162.18,41.592z M155.988,93.246c-2.771,6.436-6.477,11.977-11.121,16.62
		c-4.643,4.644-10.184,8.351-16.62,11.12c-6.437,2.771-13.185,4.156-20.246,4.156c-7.061,0-13.809-1.386-20.246-4.156
		c-6.436-2.77-11.977-6.477-16.621-11.12c-4.643-4.644-8.35-10.183-11.121-16.62c-2.77-6.436-4.155-13.186-4.155-20.246
		c0-7.061,1.385-13.809,4.155-20.246c2.77-6.436,6.477-11.976,11.121-16.621c4.644-4.643,10.185-8.35,16.621-11.121
		c6.436-2.769,13.185-4.154,20.246-4.154c7.06,0,13.81,1.384,20.246,4.154s11.976,6.477,16.62,11.121s8.351,10.184,11.121,16.621
		c2.77,6.436,4.156,13.184,4.156,20.246C160.145,80.061,158.758,86.811,155.988,93.246z"/>
	<path d="M134.479,81.066c-1.357-0.437-2.688-0.325-3.992,0.326c-1.305,0.65-2.174,1.684-2.606,3.096
		c-1.356,4.346-3.87,7.863-7.537,10.551c-3.665,2.688-7.78,4.033-12.343,4.033c-4.562,0-8.676-1.346-12.343-4.033
		c-3.666-2.689-6.178-6.205-7.536-10.551c-0.434-1.412-1.29-2.445-2.566-3.096c-1.276-0.651-2.593-0.763-3.951-0.326
		c-1.412,0.434-2.444,1.289-3.096,2.564c-0.652,1.276-0.761,2.596-0.326,3.952c2.009,6.573,5.757,11.868,11.243,15.888
		c5.486,4.02,11.678,6.028,18.576,6.028c6.897,0,13.091-2.009,18.576-6.028c5.483-4.021,9.231-9.314,11.241-15.888
		c0.437-1.356,0.328-2.676-0.325-3.952C136.84,82.355,135.835,81.501,134.479,81.066z"/>
	<path d="M87.143,62.572c2.878,0,5.336-1.02,7.373-3.056c2.037-2.036,3.056-4.494,3.056-7.373s-1.019-5.336-3.056-7.373
		s-4.495-3.056-7.373-3.056c-2.879,0-5.337,1.019-7.374,3.056c-2.036,2.037-3.055,4.494-3.055,7.373s1.018,5.337,3.055,7.373
		C81.807,61.553,84.264,62.572,87.143,62.572z"/>
	<path d="M128.857,41.714c-2.879,0-5.338,1.019-7.375,3.056c-2.035,2.037-3.056,4.494-3.056,7.373s1.021,5.337,3.056,7.373
		c2.037,2.037,4.496,3.056,7.375,3.056c2.877,0,5.336-1.02,7.373-3.056c2.037-2.036,3.056-4.494,3.056-7.373
		s-1.019-5.336-3.056-7.373S131.734,41.714,128.857,41.714z"/>
</g>
</svg>
