<?xml version="1.0" encoding="utf-8"?>
<!-- Generator: Adobe Illustrator 16.0.4, SVG Export Plug-In . SVG Version: 6.00 Build 0)  -->
<!DOCTYPE svg PUBLIC "-//W3C//DTD SVG 1.1//EN" "http://www.w3.org/Graphics/SVG/1.1/DTD/svg11.dtd">
<svg version="1.1" id="Capa_1" xmlns="http://www.w3.org/2000/svg" xmlns:xlink="http://www.w3.org/1999/xlink" x="0px" y="0px"
	 width="216px" height="146px" viewBox="0 0 216 146" enable-background="new 0 0 216 146" xml:space="preserve">
<g>
	<path d="M103.551,114.714H87.908V2.607c0-0.76-0.244-1.386-0.733-1.874C86.686,0.245,86.062,0,85.301,0H69.658
		c-0.76,0-1.386,0.244-1.874,0.733c-0.488,0.489-0.733,1.114-0.733,1.874v112.107H51.408c-1.194,0-2.009,0.543-2.444,1.629
		c-0.435,1.033-0.244,1.983,0.57,2.853l26.071,26.072c0.598,0.487,1.222,0.731,1.874,0.731c0.706,0,1.331-0.244,1.874-0.731
		l25.99-25.99c0.544-0.651,0.815-1.305,0.815-1.954c0-0.763-0.244-1.386-0.733-1.878
		C104.936,114.958,104.312,114.714,103.551,114.714z"/>
	<path d="M151.375,83.43L151.375,83.43h-10.021L125.71,98.502l6.683,7.006l5.051-4.725c0.978-0.979,1.684-1.82,2.117-2.526
		l0.57-0.978h0.163v1.303c0,0.273-0.015,0.734-0.041,1.386c-0.026,0.652-0.041,1.168-0.041,1.548v35.197h-13.604V146h38.211v-9.287
		h-13.443V83.43z"/>
	<path d="M160.58,7.698c-4.454-5.133-10.021-7.699-16.702-7.699c-5.921,0-10.836,1.983-14.747,5.948
		c-3.91,3.965-5.865,8.799-5.865,14.502c0,5.486,1.818,10.171,5.459,14.054c3.641,3.884,8.336,5.826,14.094,5.826
		c2.393,0,4.688-0.381,6.887-1.141c2.197-0.761,3.87-1.766,5.011-3.015h0.163c-0.869,4.725-2.676,8.676-5.418,11.854
		c-2.743,3.177-6.396,4.766-10.959,4.766c-2.062,0-4.1-0.353-6.107-1.059c-0.869-0.217-1.711-0.516-2.526-0.896l-3.177,9.207
		c0.977,0.38,2.117,0.787,3.422,1.222c2.498,0.869,5.432,1.304,8.799,1.304c3.748,0,7.21-0.665,10.388-1.996
		c3.177-1.331,5.853-3.11,8.024-5.337c2.174-2.227,4.02-4.82,5.541-7.78s2.634-6.056,3.34-9.288
		c0.707-3.232,1.061-6.531,1.061-9.899C167.264,19.689,165.035,12.832,160.58,7.698z M153.005,29.086
		c-1.901,1.467-4.21,2.2-6.925,2.2c-3.693,0-6.532-1.032-8.516-3.096c-1.982-2.064-2.975-4.644-2.975-7.74
		c0-3.096,0.842-5.648,2.525-7.658s3.938-3.015,6.763-3.015c3.204,0,6.002,1.439,8.394,4.318c2.39,2.879,3.584,6.029,3.584,9.451
		C155.855,25.773,154.906,27.62,153.005,29.086z"/>
</g>
</svg>
