<?xml version="1.0" encoding="utf-8"?>
<!-- Generator: Adobe Illustrator 16.0.4, SVG Export Plug-In . SVG Version: 6.00 Build 0)  -->
<!DOCTYPE svg PUBLIC "-//W3C//DTD SVG 1.1//EN" "http://www.w3.org/Graphics/SVG/1.1/DTD/svg11.dtd">
<svg version="1.1" id="Capa_1" xmlns="http://www.w3.org/2000/svg" xmlns:xlink="http://www.w3.org/1999/xlink" x="0px" y="0px"
	 width="216px" height="146px" viewBox="0 0 216 146" enable-background="new 0 0 216 146" xml:space="preserve">
<g>
	<path d="M96.422,114.714H80.779V2.607c0-0.76-0.244-1.386-0.733-1.874C79.557,0.245,78.933,0,78.172,0H62.529
		c-0.76,0-1.386,0.244-1.874,0.733c-0.488,0.489-0.733,1.114-0.733,1.874v112.107H44.279c-1.194,0-2.009,0.543-2.444,1.629
		c-0.435,1.033-0.244,1.983,0.57,2.853l26.071,26.072c0.598,0.487,1.222,0.731,1.874,0.731c0.706,0,1.331-0.244,1.874-0.731
		l25.99-25.99c0.544-0.651,0.815-1.305,0.815-1.954c0-0.763-0.244-1.386-0.733-1.878C97.807,114.958,97.183,114.714,96.422,114.714z
		"/>
	<path d="M157.284,136.713h-20.206c-1.141,0-1.955,0.055-2.443,0.162l-1.141,0.163v-0.163l0.896-0.896
		c0.813-0.976,1.385-1.683,1.711-2.115l30.062-43.184v-7.25h-46.195v18.656h9.777v-9.369h18.901c0.977,0,1.793-0.082,2.442-0.244
		c0.163,0,0.367-0.014,0.611-0.041c0.243-0.025,0.421-0.041,0.528-0.041v0.244l-0.896,0.734c-0.487,0.488-1.06,1.22-1.711,2.199
		l-30.062,43.1V146h47.58v-18.982h-9.856V136.713z"/>
	<path d="M168.688,53.936L149.949,0h-13.198l-18.739,53.936h-5.701v8.636h23.381v-8.636h-6.109l3.829-11.732h19.799l3.828,11.732
		h-6.108v8.636h23.465v-8.636H168.688z M136.1,33.241l5.948-17.761c0.216-0.652,0.421-1.44,0.611-2.363
		c0.188-0.923,0.284-1.412,0.284-1.466l0.244-1.629h0.326c0,0.217,0.055,0.76,0.161,1.629l0.979,3.829l5.865,17.761H136.1z"/>
</g>
</svg>
