<?xml version="1.0" encoding="utf-8"?>
<!-- Generator: Adobe Illustrator 16.0.4, SVG Export Plug-In . SVG Version: 6.00 Build 0)  -->
<!DOCTYPE svg PUBLIC "-//W3C//DTD SVG 1.1//EN" "http://www.w3.org/Graphics/SVG/1.1/DTD/svg11.dtd">
<svg version="1.1" id="Capa_1" xmlns="http://www.w3.org/2000/svg" xmlns:xlink="http://www.w3.org/1999/xlink" x="0px" y="0px"
	 width="216px" height="146px" viewBox="0 0 216 146" enable-background="new 0 0 216 146" xml:space="preserve">
<g>
	<path d="M103.551,114.714H87.908V2.607c0-0.76-0.244-1.386-0.733-1.874C86.686,0.245,86.062,0,85.301,0H69.658
		c-0.76,0-1.386,0.244-1.874,0.733c-0.488,0.489-0.733,1.114-0.733,1.874v112.107H51.408c-1.194,0-2.009,0.543-2.444,1.629
		c-0.435,1.033-0.244,1.983,0.57,2.853l26.071,26.072c0.598,0.487,1.222,0.731,1.874,0.731c0.706,0,1.331-0.244,1.874-0.731
		l25.99-25.99c0.544-0.651,0.815-1.305,0.815-1.954c0-0.763-0.244-1.386-0.733-1.878
		C104.936,114.958,104.312,114.714,103.551,114.714z"/>
	<path d="M160.58,91.126c-4.454-5.133-10.021-7.698-16.702-7.698c-5.921,0-10.836,1.981-14.747,5.947
		c-3.91,3.965-5.865,8.799-5.865,14.502c0,5.486,1.818,10.17,5.459,14.055c3.641,3.883,8.336,5.824,14.094,5.824
		c2.393,0,4.688-0.38,6.887-1.141c2.197-0.76,3.87-1.766,5.011-3.014h0.163c-0.869,4.725-2.676,8.676-5.418,11.854
		c-2.743,3.178-6.396,4.766-10.959,4.766c-2.062,0-4.1-0.353-6.107-1.059c-0.869-0.217-1.711-0.516-2.526-0.896l-3.177,9.207
		c0.977,0.381,2.117,0.787,3.422,1.225c2.498,0.867,5.432,1.303,8.799,1.303c3.748,0,7.21-0.665,10.388-1.996
		c3.177-1.33,5.853-3.107,8.024-5.336c2.174-2.229,4.02-4.818,5.541-7.781c1.521-2.96,2.634-6.057,3.34-9.285
		c0.707-3.232,1.061-6.533,1.061-9.9C167.264,103.118,165.035,96.261,160.58,91.126z M153.005,112.516
		c-1.901,1.467-4.21,2.2-6.925,2.2c-3.693,0-6.533-1.032-8.516-3.096s-2.975-4.646-2.975-7.74s0.842-5.647,2.525-7.657
		c1.684-2.011,3.938-3.017,6.763-3.017c3.204,0,6.002,1.438,8.394,4.317c2.39,2.879,3.584,6.028,3.584,9.451
		C155.855,109.201,154.907,111.05,153.005,112.516z"/>
	<path d="M137.443,17.355c0.977-0.978,1.683-1.819,2.117-2.526l0.569-0.978h0.163v1.304c0,0.271-0.016,0.733-0.041,1.385
		s-0.041,1.168-0.041,1.548v35.196h-13.604v9.288h38.211v-9.288h-13.443V0h-10.021L125.71,15.074l6.683,7.007L137.443,17.355z"/>
</g>
</svg>
