<?xml version="1.0" encoding="utf-8"?>
<!-- Generator: Adobe Illustrator 16.0.4, SVG Export Plug-In . SVG Version: 6.00 Build 0)  -->
<!DOCTYPE svg PUBLIC "-//W3C//DTD SVG 1.1//EN" "http://www.w3.org/Graphics/SVG/1.1/DTD/svg11.dtd">
<svg version="1.1" id="Capa_1" xmlns="http://www.w3.org/2000/svg" xmlns:xlink="http://www.w3.org/1999/xlink" x="0px" y="0px"
	 width="216px" height="146px" viewBox="0 0 216 146" enable-background="new 0 0 216 146" xml:space="preserve">
<g>
	<path d="M96.422,114.714H80.779V2.607c0-0.76-0.244-1.386-0.733-1.874C79.557,0.245,78.933,0,78.172,0H62.529
		c-0.76,0-1.386,0.244-1.874,0.733c-0.488,0.489-0.733,1.114-0.733,1.874v112.107H44.279c-1.194,0-2.009,0.543-2.444,1.629
		c-0.435,1.033-0.244,1.983,0.57,2.853l26.071,26.072c0.598,0.487,1.222,0.731,1.874,0.731c0.706,0,1.331-0.244,1.874-0.731
		l25.99-25.99c0.544-0.651,0.815-1.305,0.815-1.954c0-0.763-0.244-1.386-0.733-1.878C97.807,114.958,97.183,114.714,96.422,114.714z
		"/>
	<path d="M168.688,137.363L149.95,83.427h-13.198l-18.738,53.937h-5.701V146h23.381v-8.637h-6.11l3.829-11.731h19.799l3.828,11.731
		h-6.109V146h23.465v-8.637H168.688z M136.1,116.67l5.948-17.762c0.216-0.651,0.421-1.439,0.611-2.362
		c0.188-0.923,0.284-1.412,0.284-1.466l0.244-1.631h0.326c0,0.219,0.055,0.762,0.161,1.631l0.979,3.828l5.865,17.762H136.1z"/>
	<path d="M167.141,43.588h-9.855v9.695h-20.206c-1.142,0-1.955,0.028-2.442,0.082l-1.142,0.244v-0.244l0.896-0.815
		c0.814-0.977,1.385-1.683,1.711-2.118l30.062-43.181V0h-46.195v18.659h9.777v-9.37h18.9c0.978,0,1.793-0.082,2.443-0.245
		c0.163,0,0.367-0.014,0.611-0.041s0.421-0.041,0.529-0.041v0.244l-0.896,0.733c-0.488,0.489-1.059,1.222-1.711,2.2l-30.062,43.099
		v7.333h47.58V43.588z"/>
</g>
</svg>
