<?xml version="1.0" encoding="utf-8"?>
<!-- Generator: Adobe Illustrator 16.0.4, SVG Export Plug-In . SVG Version: 6.00 Build 0)  -->
<!DOCTYPE svg PUBLIC "-//W3C//DTD SVG 1.1//EN" "http://www.w3.org/Graphics/SVG/1.1/DTD/svg11.dtd">
<svg version="1.1" id="Capa_1" xmlns="http://www.w3.org/2000/svg" xmlns:xlink="http://www.w3.org/1999/xlink" x="0px" y="0px"
	 width="216px" height="146px" viewBox="0 0 216 146" enable-background="new 0 0 216 146" xml:space="preserve">
<g>
	<path d="M121.159,93.486c8.825-3.721,15.792-8.786,20.897-15.195s7.658-13.388,7.658-20.938s-2.553-14.53-7.66-20.939
		c-5.104-6.409-12.07-11.474-20.896-15.195c-8.826-3.721-18.426-5.581-28.801-5.581c-10.374,0-19.974,1.861-28.801,5.581
		c-8.826,3.721-15.792,8.786-20.897,15.195C37.553,42.824,35,49.803,35,57.353c0,6.463,1.931,12.549,5.787,18.252
		c3.856,5.702,9.152,10.51,15.887,14.42c-0.543,1.305-1.1,2.498-1.67,3.586c-0.571,1.086-1.249,2.131-2.037,3.137
		c-0.788,1.005-1.398,1.792-1.833,2.361c-0.435,0.57-1.141,1.373-2.119,2.403c-0.978,1.032-1.603,1.711-1.874,2.037
		c0-0.056-0.109,0.067-0.326,0.366c-0.218,0.299-0.34,0.434-0.367,0.408c-0.027-0.028-0.136,0.107-0.326,0.406
		s-0.285,0.448-0.285,0.448l-0.204,0.407c-0.081,0.163-0.136,0.324-0.163,0.488c-0.027,0.162-0.041,0.34-0.041,0.529
		s0.027,0.366,0.082,0.529c0.109,0.706,0.421,1.275,0.937,1.711c0.516,0.434,1.072,0.651,1.67,0.651h0.245
		c2.715-0.38,5.051-0.815,7.006-1.304c8.365-2.172,15.915-5.649,22.65-10.429c4.888,0.869,9.668,1.304,14.339,1.304
		C102.732,99.066,112.333,97.206,121.159,93.486z"/>
	<path d="M175.215,96.5C179.072,90.824,181,84.729,181,78.21c0-6.681-2.039-12.931-6.111-18.742
		c-4.074-5.811-9.615-10.646-16.621-14.502c1.248,4.073,1.873,8.201,1.873,12.384c0,7.278-1.818,14.176-5.459,20.694
		c-3.639,6.517-8.854,12.274-15.643,17.272c-6.301,4.562-13.471,8.065-21.51,10.51c-8.037,2.443-16.429,3.666-25.174,3.666
		c-1.629,0-4.019-0.108-7.169-0.325c10.917,7.169,23.736,10.754,38.455,10.754c4.672,0,9.451-0.435,14.34-1.304
		c6.734,4.781,14.285,8.256,22.649,10.429c1.955,0.49,4.291,0.924,7.007,1.304c0.651,0.055,1.25-0.135,1.793-0.57
		c0.543-0.435,0.896-1.031,1.059-1.791c-0.026-0.326,0-0.504,0.082-0.53c0.08-0.026,0.066-0.203-0.041-0.529
		c-0.108-0.326-0.163-0.489-0.163-0.489l-0.203-0.406c-0.056-0.108-0.149-0.258-0.285-0.448c-0.136-0.188-0.244-0.325-0.326-0.407
		c-0.081-0.081-0.202-0.217-0.366-0.406c-0.162-0.189-0.271-0.312-0.326-0.367c-0.271-0.325-0.895-1.004-1.873-2.036
		c-0.978-1.032-1.684-1.833-2.118-2.403s-1.046-1.357-1.833-2.363c-0.787-1.004-1.467-2.05-2.037-3.137
		c-0.57-1.086-1.127-2.281-1.67-3.584C166.064,106.97,171.359,102.177,175.215,96.5z"/>
</g>
</svg>
