<?xml version="1.0" encoding="utf-8"?>
<!-- Generator: Adobe Illustrator 16.0.4, SVG Export Plug-In . SVG Version: 6.00 Build 0)  -->
<!DOCTYPE svg PUBLIC "-//W3C//DTD SVG 1.1//EN" "http://www.w3.org/Graphics/SVG/1.1/DTD/svg11.dtd">
<svg version="1.1" id="Capa_1" xmlns="http://www.w3.org/2000/svg" xmlns:xlink="http://www.w3.org/1999/xlink" x="0px" y="0px"
	 width="216px" height="146px" viewBox="0 0 216 146" enable-background="new 0 0 216 146" xml:space="preserve">
<g>
	<path d="M74.107,100.374c-3.26,0-6.03,1.14-8.311,3.422c-2.281,2.282-3.422,5.052-3.422,8.312s1.14,6.029,3.422,8.312
		c2.282,2.281,5.052,3.422,8.311,3.422c3.205,0,5.961-1.141,8.27-3.422c2.308-2.28,3.462-5.052,3.462-8.312
		s-1.154-6.028-3.462-8.312C80.068,101.516,77.312,100.374,74.107,100.374z"/>
	<path d="M71.5,75.607c0-3.585-1.276-6.653-3.829-9.208c-2.553-2.553-5.622-3.829-9.207-3.829s-6.654,1.276-9.207,3.829
		c-2.553,2.553-3.829,5.622-3.829,9.208c0,3.584,1.276,6.651,3.829,9.205c2.553,2.554,5.622,3.83,9.207,3.83s6.654-1.276,9.207-3.83
		C70.224,82.26,71.5,79.191,71.5,75.607z"/>
	<path d="M147.107,45.626c1.791,0,3.328-0.639,4.603-1.915c1.276-1.277,1.915-2.812,1.915-4.604c0-1.793-0.639-3.327-1.915-4.603
		c-1.276-1.277-2.812-1.915-4.603-1.915c-1.793,0-3.328,0.639-4.604,1.915s-1.915,2.81-1.915,4.603s0.639,3.327,1.915,4.604
		S145.314,45.626,147.107,45.626z"/>
	<path d="M74.108,24.768c-3.966,0-7.347,1.399-10.144,4.196c-2.798,2.797-4.196,6.178-4.196,10.143
		c0,3.966,1.398,7.346,4.196,10.144c2.798,2.798,6.179,4.196,10.144,4.196c3.965,0,7.346-1.399,10.143-4.196
		c2.797-2.798,4.196-6.179,4.196-10.144s-1.399-7.346-4.196-10.143S78.073,24.768,74.108,24.768z"/>
	<path d="M168.29,70.066c-1.521-1.521-3.367-2.281-5.54-2.281s-4.02,0.76-5.54,2.281s-2.28,3.368-2.28,5.542
		c0,2.172,0.76,4.021,2.28,5.539c1.521,1.521,3.367,2.281,5.54,2.281s4.02-0.76,5.54-2.281c1.521-1.52,2.28-3.367,2.28-5.539
		C170.57,73.435,169.812,71.588,168.29,70.066z"/>
	<path d="M147.107,102.982c-2.5,0-4.646,0.896-6.438,2.688s-2.688,3.938-2.688,6.438c0,2.498,0.896,4.645,2.688,6.437
		c1.793,1.793,3.938,2.688,6.438,2.688c2.498,0,4.644-0.896,6.437-2.688c1.792-1.792,2.688-3.938,2.688-6.437
		c0-2.5-0.896-4.645-2.688-6.438C151.751,103.878,149.605,102.982,147.107,102.982z"/>
	<path d="M110.607,117.32c-2.879,0-5.337,1.02-7.375,3.057c-2.036,2.037-3.055,4.494-3.055,7.373s1.018,5.336,3.055,7.373
		c2.038,2.037,4.495,3.057,7.375,3.057c2.879,0,5.336-1.02,7.373-3.057s3.056-4.494,3.056-7.373s-1.019-5.336-3.056-7.373
		S113.486,117.32,110.607,117.32z"/>
	<path d="M110.607,7.821c-4.345,0-8.04,1.52-11.082,4.562c-3.041,3.042-4.562,6.736-4.562,11.081c0,4.345,1.52,8.038,4.562,11.08
		c3.042,3.041,6.736,4.562,11.082,4.562c4.347,0,8.039-1.52,11.08-4.562c3.041-3.041,4.562-6.735,4.562-11.08
		c0-4.345-1.521-8.038-4.562-11.081C118.646,9.342,114.954,7.821,110.607,7.821z"/>
</g>
</svg>
