<?xml version="1.0" encoding="utf-8"?>
<!-- Generator: Adobe Illustrator 16.0.4, SVG Export Plug-In . SVG Version: 6.00 Build 0)  -->
<!DOCTYPE svg PUBLIC "-//W3C//DTD SVG 1.1//EN" "http://www.w3.org/Graphics/SVG/1.1/DTD/svg11.dtd">
<svg version="1.1" id="Capa_1" xmlns="http://www.w3.org/2000/svg" xmlns:xlink="http://www.w3.org/1999/xlink" x="0px" y="0px"
	 width="216px" height="146px" viewBox="0 0 216 146" enable-background="new 0 0 216 146" xml:space="preserve">
<g>
	<rect x="57.568" y="65.097" width="100.864" height="20.776"/>
	<path d="M57.567,91.657v5.378c0,4.615,1.562,8.54,4.685,11.771s6.885,4.848,11.284,4.848h43.101v21.916l21.182-21.916h4.646
		c4.399,0,8.162-1.616,11.285-4.848c3.123-3.23,4.685-7.156,4.685-11.771v-5.378H57.567z"/>
	<rect x="57.568" y="38.374" width="100.864" height="20.775"/>
	<path d="M158.432,26.968c0-4.563-1.561-8.459-4.684-11.691s-6.885-4.848-11.285-4.848H73.537c-4.399,0-8.161,1.616-11.284,4.848
		s-4.685,7.129-4.685,11.691v5.458h100.864V26.968z"/>
</g>
</svg>
