<?xml version="1.0" encoding="utf-8"?>
<!-- Generator: Adobe Illustrator 16.0.4, SVG Export Plug-In . SVG Version: 6.00 Build 0)  -->
<!DOCTYPE svg PUBLIC "-//W3C//DTD SVG 1.1//EN" "http://www.w3.org/Graphics/SVG/1.1/DTD/svg11.dtd">
<svg version="1.1" id="Capa_1" xmlns="http://www.w3.org/2000/svg" xmlns:xlink="http://www.w3.org/1999/xlink" x="0px" y="0px"
	 width="216px" height="146px" viewBox="0 0 216 146" enable-background="new 0 0 216 146" xml:space="preserve">
<path d="M175.621,57.52c-0.488-1.494-1.955-2.431-4.398-2.811l-40.899-5.947l-18.33-37.07c-1.142-2.227-2.472-3.34-3.992-3.34
	c-1.575,0-2.906,1.113-3.992,3.34l-18.332,37.07l-40.899,5.947c-2.444,0.38-3.911,1.317-4.399,2.811
	c-0.488,1.494,0.136,3.11,1.874,4.848l29.656,28.841l-7.006,40.736c-0.271,1.793-0.109,3.189,0.489,4.195
	c0.597,1.006,1.521,1.508,2.77,1.508c0.924,0,2.01-0.326,3.259-0.979l36.582-19.229l36.581,19.229
	c1.249,0.652,2.336,0.979,3.259,0.979c1.25,0,2.175-0.502,2.771-1.508s0.759-2.402,0.487-4.195l-7.006-40.736l29.573-28.841
	C175.462,60.63,176.113,59.014,175.621,57.52z M136.843,83.714l-3.993,3.829l0.979,5.377l4.888,28.924l-25.908-13.688l-4.807-2.526
	V27.172l12.954,26.234l2.442,4.888l5.379,0.815l29.005,4.236L136.843,83.714z"/>
</svg>
