<?xml version="1.0" encoding="utf-8"?>
<!-- Generator: Adobe Illustrator 16.0.4, SVG Export Plug-In . SVG Version: 6.00 Build 0)  -->
<!DOCTYPE svg PUBLIC "-//W3C//DTD SVG 1.1//EN" "http://www.w3.org/Graphics/SVG/1.1/DTD/svg11.dtd">
<svg version="1.1" id="Capa_1" xmlns="http://www.w3.org/2000/svg" xmlns:xlink="http://www.w3.org/1999/xlink" x="0px" y="0px"
	 width="216px" height="146px" viewBox="0 0 216 146" enable-background="new 0 0 216 146" xml:space="preserve">
<path d="M175.785,58.457c0-2.01-1.52-3.259-4.564-3.748l-40.897-5.947l-18.331-37.07c-1.031-2.227-2.363-3.34-3.992-3.34
	s-2.96,1.113-3.992,3.34l-18.332,37.07l-40.899,5.947c-3.041,0.489-4.562,1.738-4.562,3.748c0,1.141,0.679,2.445,2.037,3.911
	l29.656,28.841l-7.006,40.736c-0.109,0.761-0.163,1.305-0.163,1.63c0,1.141,0.285,2.104,0.855,2.893
	c0.57,0.788,1.425,1.181,2.566,1.181c0.978,0,2.064-0.324,3.259-0.977L108,117.443l36.582,19.228
	c1.141,0.652,2.227,0.978,3.258,0.978c2.229,0,3.342-1.356,3.342-4.072c0-0.706-0.027-1.249-0.082-1.631l-7.006-40.735
	l29.574-28.841C175.08,60.956,175.785,59.652,175.785,58.457z M132.85,87.543l5.865,34.301L108,105.63l-30.797,16.214l5.948-34.301
	L58.22,63.345l34.382-5.051L108,27.171l15.398,31.123l34.384,5.051L132.85,87.543z"/>
</svg>
