<?xml version="1.0" encoding="utf-8"?>
<!-- Generator: Adobe Illustrator 16.0.4, SVG Export Plug-In . SVG Version: 6.00 Build 0)  -->
<!DOCTYPE svg PUBLIC "-//W3C//DTD SVG 1.1//EN" "http://www.w3.org/Graphics/SVG/1.1/DTD/svg11.dtd">
<svg version="1.1" id="Capa_1" xmlns="http://www.w3.org/2000/svg" xmlns:xlink="http://www.w3.org/1999/xlink" x="0px" y="0px"
	 width="216px" height="146px" viewBox="0 0 216 146" enable-background="new 0 0 216 146" xml:space="preserve">
<path d="M148.166,11.977c-1.031-1.032-2.254-1.548-3.666-1.548h-10.428c-1.412,0-2.635,0.516-3.666,1.548
	c-1.032,1.033-1.549,2.255-1.549,3.667v55.239c-0.271-0.597-0.625-1.113-1.061-1.548L69.952,11.489
	c-1.032-1.032-1.901-1.385-2.607-1.059c-0.706,0.326-1.059,1.195-1.059,2.607v119.928c0,1.412,0.353,2.281,1.059,2.607
	c0.706,0.326,1.575-0.028,2.607-1.062l57.845-57.845c0.436-0.488,0.789-1.005,1.061-1.548v55.237c0,1.412,0.517,2.636,1.547,3.666
	c1.033,1.033,2.256,1.549,3.666,1.549h10.431c1.412,0,2.636-0.516,3.666-1.549c1.031-1.03,1.549-2.254,1.549-3.666V15.644
	C149.715,14.231,149.197,13.009,148.166,11.977z"/>
</svg>
