<?xml version="1.0" encoding="utf-8"?>
<!-- Generator: Adobe Illustrator 16.0.4, SVG Export Plug-In . SVG Version: 6.00 Build 0)  -->
<!DOCTYPE svg PUBLIC "-//W3C//DTD SVG 1.1//EN" "http://www.w3.org/Graphics/SVG/1.1/DTD/svg11.dtd">
<svg version="1.1" id="Capa_1" xmlns="http://www.w3.org/2000/svg" xmlns:xlink="http://www.w3.org/1999/xlink" x="0px" y="0px"
	 width="216px" height="146px" viewBox="0 0 216 146" enable-background="new 0 0 216 146" xml:space="preserve">
<path d="M160.793,46.276c-3.042-3.041-6.736-4.562-11.081-4.562s-8.038,1.521-11.08,4.562c-3.041,3.042-4.562,6.735-4.562,11.081
	c0,3.367,0.964,6.382,2.892,9.043c1.929,2.662,4.44,4.562,7.537,5.703v32.182c0,5.758-2.554,10.674-7.658,14.747
	c-5.106,4.073-11.243,6.11-18.414,6.11c-7.169,0-13.307-2.037-18.413-6.11c-5.105-4.073-7.658-8.989-7.658-14.747V93.531
	c8.908-1.086,16.349-4.563,22.324-10.43c5.975-5.865,8.963-12.709,8.963-20.531V20.857c0-1.412-0.517-2.635-1.549-3.667
	c-1.031-1.031-2.255-1.548-3.667-1.548c-0.325,0-0.76,0.055-1.303,0.163c-0.924-1.63-2.2-2.932-3.83-3.911
	c-1.628-0.978-3.394-1.466-5.295-1.466c-2.878,0-5.336,1.019-7.373,3.055c-2.037,2.037-3.055,4.495-3.055,7.374
	c0,2.878,1.018,5.336,3.055,7.373s4.495,3.055,7.373,3.055c1.792,0,3.53-0.488,5.214-1.466v32.752
	c0,5.758-2.553,10.673-7.658,14.748c-5.106,4.072-11.244,6.108-18.413,6.108s-13.307-2.036-18.413-6.108
	c-5.105-4.074-7.658-8.989-7.658-14.748V29.819c1.683,0.978,3.422,1.466,5.214,1.466c2.878,0,5.336-1.018,7.373-3.055
	c2.037-2.037,3.055-4.495,3.055-7.373c0-2.879-1.018-5.337-3.055-7.374c-2.037-2.036-4.495-3.055-7.373-3.055
	c-1.901,0-3.667,0.488-5.296,1.466c-1.629,0.978-2.906,2.281-3.829,3.911c-0.544-0.108-0.978-0.163-1.304-0.163
	c-1.413,0-2.635,0.517-3.667,1.548c-1.032,1.032-1.548,2.255-1.548,3.667v41.714c0,7.821,2.987,14.664,8.962,20.531
	c5.975,5.866,13.416,9.344,22.324,10.43v10.754c0,8.637,3.571,16.01,10.714,22.119c7.143,6.111,15.738,9.166,25.786,9.166
	c10.05,0,18.644-3.055,25.787-9.166c7.144-6.109,10.713-13.482,10.713-22.119V72.103c3.097-1.141,5.608-3.041,7.537-5.703
	c1.929-2.661,2.894-5.676,2.894-9.043C165.357,53.012,163.836,49.318,160.793,46.276z M153.381,61.023
	c-1.033,1.032-2.255,1.548-3.667,1.548s-2.634-0.516-3.666-1.548c-1.032-1.032-1.548-2.254-1.548-3.666s0.516-2.635,1.548-3.667
	c1.032-1.031,2.254-1.548,3.666-1.548s2.634,0.517,3.667,1.548c1.031,1.032,1.547,2.255,1.547,3.667
	C154.928,58.77,154.412,59.991,153.381,61.023z"/>
</svg>
