<?xml version="1.0" encoding="utf-8"?>
<!-- Generator: Adobe Illustrator 16.0.4, SVG Export Plug-In . SVG Version: 6.00 Build 0)  -->
<!DOCTYPE svg PUBLIC "-//W3C//DTD SVG 1.1//EN" "http://www.w3.org/Graphics/SVG/1.1/DTD/svg11.dtd">
<svg version="1.1" id="Capa_1" xmlns="http://www.w3.org/2000/svg" xmlns:xlink="http://www.w3.org/1999/xlink" x="0px" y="0px"
	 width="216px" height="146px" viewBox="0 0 216 146" enable-background="new 0 0 216 146" xml:space="preserve">
<g>
	<path d="M74.352,67.785h60.533c-2.01-1.302-4.59-2.715-7.74-4.236c-5.647-2.498-10.348-4.291-14.096-5.377
		c-11.568-3.367-19.145-6.871-22.73-10.51c-3.585-3.639-5.377-7.441-5.377-11.406c0-4.781,1.82-8.746,5.459-11.896
		c3.693-3.204,8.636-4.807,14.828-4.807c6.626,0,12.33,2.471,17.11,7.414c2.878,3.041,5.677,8.608,8.392,16.702l1.142,0.162
		l6.844,0.489l0.979-0.244c0.271-1.467,0.408-2.688,0.408-3.667c0-3.259-0.381-8.228-1.143-14.909
		c-0.6-4.344-1.168-7.55-1.711-9.614c-6.027-1.955-10.836-3.259-14.421-3.91c-6.354-1.032-10.892-1.548-13.604-1.548
		c-14.124,0-24.796,3.45-32.021,10.347c-7.278,6.952-10.917,15.345-10.917,25.176c0,4.942,1.304,10.047,3.911,15.316
		C71.446,63.712,72.831,65.885,74.352,67.785z"/>
	<path d="M115.658,88.643c5.595,2.281,9.316,4.211,11.162,5.784c4.4,3.966,6.6,8.229,6.6,12.791c0,3.694-1.277,7.197-3.83,10.511
		c-2.443,3.258-5.756,5.596-9.939,7.006c-4.072,1.469-7.848,2.201-11.323,2.201c-3.964,0-7.549-0.599-10.754-1.793
		c-3.367-1.142-6.219-2.688-8.555-4.645c-2.444-2.01-4.617-4.562-6.518-7.659c-0.272-0.433-0.612-1.167-1.019-2.198
		c-0.407-1.033-1.019-2.553-1.833-4.562c-0.815-2.01-1.629-3.938-2.444-5.785l-8.31,0.163v3.585l-0.163,3.016
		c-0.054,2.063-0.054,3.91,0,5.539c0.108,2.607,0.163,6.844,0.163,12.711v1.06c0,0.761,0.217,1.356,0.651,1.793
		c0.815,0.649,2.77,1.411,5.866,2.28l11.406,3.259c4.399,1.25,9.695,1.875,15.887,1.875c6.681,0,12.192-0.57,16.539-1.712
		c3.966-0.979,8.118-2.771,12.466-5.377c3.91-2.5,6.871-4.698,8.881-6.601c2.605-2.661,4.535-5.485,5.784-8.474
		c2.228-5.485,3.341-11.243,3.341-17.271c0-2.879-0.189-5.377-0.568-7.496H115.658z"/>
	<path d="M180.268,73.732c-0.49-0.488-1.113-0.732-1.875-0.732H37.607c-0.761,0-1.385,0.244-1.874,0.732
		C35.245,74.221,35,74.846,35,75.607v5.213c0,0.762,0.244,1.386,0.733,1.875c0.489,0.488,1.114,0.731,1.874,0.731h140.786
		c0.762,0,1.385-0.243,1.875-0.731c0.488-0.489,0.732-1.113,0.732-1.875v-5.213C181,74.846,180.756,74.221,180.268,73.732z"/>
</g>
</svg>
