<?xml version="1.0" encoding="utf-8"?>
<!-- Generator: Adobe Illustrator 16.0.4, SVG Export Plug-In . SVG Version: 6.00 Build 0)  -->
<!DOCTYPE svg PUBLIC "-//W3C//DTD SVG 1.1//EN" "http://www.w3.org/Graphics/SVG/1.1/DTD/svg11.dtd">
<svg version="1.1" id="Capa_1" xmlns="http://www.w3.org/2000/svg" xmlns:xlink="http://www.w3.org/1999/xlink" x="0px" y="0px"
	 width="216px" height="146px" viewBox="0 0 216 146" enable-background="new 0 0 216 146" xml:space="preserve">
<g>
	<path d="M40.377,36.663C36.792,40.248,35,44.539,35,49.535v67.785c0,4.998,1.792,9.289,5.377,12.873
		c3.585,3.586,7.876,5.377,12.873,5.377h5.214V31.285H53.25C48.252,31.285,43.961,33.078,40.377,36.663z"/>
	<path d="M139.285,18.25c0-2.173-0.76-4.019-2.281-5.54c-1.52-1.521-3.367-2.281-5.539-2.281H84.536c-2.172,0-4.019,0.76-5.54,2.281
		c-1.521,1.52-2.281,3.367-2.281,5.54v13.035H66.286V135.57h83.429V31.285h-10.43V18.25z M128.857,31.285H87.143V20.857h41.714
		V31.285z"/>
	<path d="M175.623,36.663c-3.585-3.585-7.876-5.378-12.873-5.378h-5.215V135.57h5.215c4.997,0,9.288-1.791,12.873-5.377
		c3.584-3.584,5.377-7.875,5.377-12.873V49.535C181,44.539,179.207,40.248,175.623,36.663z"/>
</g>
</svg>
