<?xml version="1.0" encoding="utf-8"?>
<!-- Generator: Adobe Illustrator 16.0.4, SVG Export Plug-In . SVG Version: 6.00 Build 0)  -->
<!DOCTYPE svg PUBLIC "-//W3C//DTD SVG 1.1//EN" "http://www.w3.org/Graphics/SVG/1.1/DTD/svg11.dtd">
<svg version="1.1" id="Capa_1" xmlns="http://www.w3.org/2000/svg" xmlns:xlink="http://www.w3.org/1999/xlink" x="0px" y="0px"
	 width="216px" height="146px" viewBox="0 0 216 146" enable-background="new 0 0 216 146" xml:space="preserve">
<path d="M177.09,93.165l-14.666-20.206l14.666-20.205c0.488-0.706,0.596-1.493,0.325-2.362c-0.218-0.816-0.761-1.359-1.63-1.63
	l-23.789-7.821V16.01c0-0.869-0.354-1.575-1.061-2.118c-0.814-0.543-1.603-0.652-2.361-0.326l-23.791,7.658L110.118,1.019
	c-0.489-0.652-1.194-0.978-2.118-0.978c-0.923,0-1.629,0.327-2.118,0.978L91.216,21.224l-23.79-7.658
	c-0.76-0.326-1.548-0.217-2.363,0.326c-0.706,0.543-1.059,1.249-1.059,2.118v24.931l-23.79,7.821
	c-0.869,0.272-1.412,0.815-1.629,1.63c-0.271,0.869-0.163,1.656,0.326,2.362l14.665,20.205L38.911,93.165
	c-0.489,0.651-0.597,1.438-0.326,2.362c0.217,0.813,0.76,1.357,1.629,1.63l23.79,7.821v24.931c0,0.868,0.353,1.575,1.059,2.118
	c0.815,0.543,1.603,0.652,2.363,0.326l23.79-7.658l14.666,20.205c0.543,0.705,1.249,1.059,2.118,1.059s1.575-0.354,2.118-1.059
	l14.665-20.205l23.791,7.658c0.759,0.326,1.547,0.217,2.361-0.326c0.707-0.543,1.061-1.25,1.061-2.118v-24.931l23.789-7.821
	c0.869-0.272,1.412-0.816,1.63-1.63C177.688,94.604,177.578,93.816,177.09,93.165z M151.223,91.169
	c-2.472,5.784-5.812,10.781-10.021,14.991c-4.21,4.209-9.206,7.55-14.991,10.021c-5.783,2.471-11.854,3.707-18.209,3.707
	c-6.355,0-12.424-1.236-18.209-3.707c-5.784-2.472-10.782-5.812-14.991-10.021c-4.209-4.21-7.549-9.207-10.021-14.991
	c-2.471-5.785-3.707-11.854-3.707-18.21c0-6.355,1.236-12.424,3.707-18.209c2.471-5.784,5.812-10.781,10.021-14.991
	c4.21-4.209,9.207-7.55,14.991-10.021c5.784-2.472,11.854-3.707,18.209-3.707c6.354,0,12.426,1.235,18.209,3.707
	c5.785,2.471,10.781,5.812,14.991,10.021c4.209,4.21,7.549,9.207,10.021,14.991c2.471,5.785,3.707,11.855,3.707,18.209
	C154.93,79.314,153.693,85.384,151.223,91.169z"/>
</svg>
