<?xml version="1.0" encoding="utf-8"?>
<!-- Generator: Adobe Illustrator 16.0.4, SVG Export Plug-In . SVG Version: 6.00 Build 0)  -->
<!DOCTYPE svg PUBLIC "-//W3C//DTD SVG 1.1//EN" "http://www.w3.org/Graphics/SVG/1.1/DTD/svg11.dtd">
<svg version="1.1" id="Capa_1" xmlns="http://www.w3.org/2000/svg" xmlns:xlink="http://www.w3.org/1999/xlink" x="0px" y="0px"
	 width="216px" height="146px" viewBox="0 0 216 146" enable-background="new 0 0 216 146" xml:space="preserve">
<g>
	<path d="M92.885,91.779l14.991-21.752h10.185V56.339H97.122L85.716,74.915l-2.037,3.422c-0.434,0.651-0.733,1.222-0.896,1.711
		h-0.244c-0.163-0.651-0.461-1.223-0.896-1.711c-1.141-2.065-1.766-3.205-1.874-3.422L68.444,56.339H45.958v13.688h11.161
		l15.073,22.161l-16.05,23.709H45.713v13.605h21.02l12.628-20.368c0.815-1.304,1.494-2.499,2.037-3.585l0.733-1.711h0.245
		c0.163,0.65,0.462,1.223,0.896,1.711l1.956,3.422l12.954,20.531h20.207v-13.605h-8.884L92.885,91.779z"/>
	<path d="M160.021,60.576v6.518h-18.902c0.162-1.792,0.99-3.503,2.484-5.133c1.494-1.629,3.272-3.027,5.336-4.195
		s4.291-2.538,6.682-4.114c2.391-1.576,4.604-3.165,6.641-4.767c2.037-1.602,3.721-3.679,5.051-6.232
		c1.33-2.553,1.996-5.351,1.996-8.392c0-5.378-1.848-9.682-5.541-12.914c-3.691-3.232-8.525-4.848-14.502-4.848
		c-5.703,0-10.808,1.766-15.314,5.296c-2.012,1.575-3.723,3.368-5.135,5.377l8.557,7.496c1.195-1.467,2.172-2.499,2.936-3.096
		c2.498-2.119,5.131-3.178,7.9-3.178c2.227,0,4.141,0.665,5.744,1.996c1.602,1.331,2.4,3.029,2.4,5.092
		c0,1.793-0.705,3.53-2.117,5.215c-1.41,1.683-3.178,3.15-5.297,4.399c-2.115,1.249-4.397,2.729-6.844,4.44
		c-2.443,1.711-4.725,3.476-6.844,5.295c-2.117,1.82-3.883,4.169-5.295,7.048s-2.119,6.056-2.119,9.532
		c0,0.977,0.109,2.228,0.326,3.748l0.244,2.198h41.879V60.576H160.021z"/>
</g>
</svg>
