<?xml version="1.0" encoding="utf-8"?>
<!-- Generator: Adobe Illustrator 16.0.4, SVG Export Plug-In . SVG Version: 6.00 Build 0)  -->
<!DOCTYPE svg PUBLIC "-//W3C//DTD SVG 1.1//EN" "http://www.w3.org/Graphics/SVG/1.1/DTD/svg11.dtd">
<svg version="1.1" id="Capa_1" xmlns="http://www.w3.org/2000/svg" xmlns:xlink="http://www.w3.org/1999/xlink" x="0px" y="0px"
	 width="216px" height="146px" viewBox="0 0 216 146" enable-background="new 0 0 216 146" xml:space="preserve">
<path d="M171.957,19.472c-2.553-2.553-5.621-3.829-9.207-3.829H53.25c-3.585,0-6.654,1.276-9.207,3.829
	c-2.553,2.554-3.829,5.622-3.829,9.207v88.644c0,3.585,1.276,6.651,3.829,9.206c2.553,2.554,5.622,3.828,9.207,3.828h109.5
	c3.586,0,6.654-1.274,9.207-3.828c2.553-2.555,3.828-5.622,3.828-9.206V28.679C175.785,25.094,174.51,22.025,171.957,19.472z
	 M81.929,117.32c0,0.762-0.245,1.386-0.734,1.875c-0.489,0.488-1.113,0.731-1.874,0.731H53.25c-0.76,0-1.385-0.243-1.874-0.731
	c-0.489-0.489-0.733-1.113-0.733-1.875v-15.644c0-0.761,0.244-1.385,0.733-1.872c0.489-0.49,1.114-0.734,1.874-0.734h26.072
	c0.761,0,1.386,0.244,1.874,0.734c0.488,0.487,0.733,1.111,0.733,1.872V117.32z M81.929,86.036c0,0.76-0.245,1.385-0.734,1.873
	c-0.489,0.489-1.113,0.733-1.874,0.733H53.25c-0.76,0-1.385-0.244-1.874-0.733c-0.489-0.488-0.733-1.113-0.733-1.873V70.392
	c0-0.76,0.244-1.385,0.733-1.874c0.489-0.488,1.114-0.732,1.874-0.732h26.072c0.761,0,1.385,0.244,1.874,0.732
	c0.488,0.489,0.733,1.114,0.733,1.874V86.036z M81.929,54.75c0,0.761-0.245,1.385-0.734,1.874c-0.489,0.488-1.113,0.733-1.874,0.733
	H53.25c-0.76,0-1.385-0.245-1.874-0.733c-0.489-0.489-0.733-1.113-0.733-1.874V39.107c0-0.761,0.244-1.386,0.733-1.874
	c0.489-0.489,1.114-0.733,1.874-0.733h26.072c0.761,0,1.385,0.244,1.874,0.733c0.488,0.488,0.733,1.113,0.733,1.874V54.75z
	 M123.643,117.32c0,0.762-0.244,1.386-0.731,1.875c-0.488,0.488-1.113,0.731-1.875,0.731H94.964c-0.76,0-1.385-0.243-1.874-0.731
	c-0.489-0.489-0.733-1.113-0.733-1.875v-15.644c0-0.761,0.244-1.385,0.733-1.872c0.489-0.49,1.114-0.734,1.874-0.734h26.072
	c0.762,0,1.387,0.244,1.875,0.734c0.487,0.487,0.731,1.111,0.731,1.872V117.32z M123.643,86.036c0,0.76-0.244,1.385-0.731,1.873
	c-0.488,0.489-1.113,0.733-1.875,0.733H94.964c-0.76,0-1.385-0.244-1.874-0.733c-0.489-0.488-0.733-1.113-0.733-1.873V70.392
	c0-0.76,0.244-1.385,0.733-1.874c0.489-0.488,1.114-0.732,1.874-0.732h26.072c0.762,0,1.387,0.244,1.875,0.732
	c0.487,0.489,0.731,1.114,0.731,1.874V86.036z M123.643,54.75c0,0.761-0.244,1.385-0.731,1.874
	c-0.488,0.488-1.113,0.733-1.875,0.733H94.964c-0.76,0-1.385-0.245-1.874-0.733c-0.489-0.489-0.733-1.113-0.733-1.874V39.107
	c0-0.761,0.244-1.386,0.733-1.874c0.489-0.489,1.114-0.733,1.874-0.733h26.072c0.762,0,1.387,0.244,1.875,0.733
	c0.487,0.488,0.731,1.113,0.731,1.874V54.75z M165.357,117.32c0,0.762-0.244,1.386-0.732,1.875c-0.49,0.488-1.115,0.731-1.875,0.731
	h-26.07c-0.762,0-1.387-0.243-1.875-0.731c-0.488-0.489-0.73-1.113-0.73-1.875v-15.644c0-0.761,0.242-1.385,0.73-1.872
	c0.488-0.49,1.113-0.734,1.875-0.734h26.07c0.76,0,1.385,0.244,1.875,0.734c0.488,0.487,0.732,1.111,0.732,1.872V117.32z
	 M165.357,86.036c0,0.76-0.244,1.385-0.732,1.873c-0.49,0.489-1.115,0.733-1.875,0.733h-26.07c-0.762,0-1.387-0.244-1.875-0.733
	c-0.488-0.488-0.73-1.113-0.73-1.873V70.392c0-0.76,0.242-1.385,0.73-1.874c0.488-0.488,1.113-0.732,1.875-0.732h26.07
	c0.76,0,1.385,0.244,1.875,0.732c0.488,0.489,0.732,1.114,0.732,1.874V86.036z M165.357,54.75c0,0.761-0.244,1.385-0.732,1.874
	c-0.49,0.488-1.115,0.733-1.875,0.733h-26.07c-0.762,0-1.387-0.245-1.875-0.733c-0.488-0.489-0.73-1.113-0.73-1.874V39.107
	c0-0.761,0.242-1.386,0.73-1.874c0.488-0.489,1.113-0.733,1.875-0.733h26.07c0.76,0,1.385,0.244,1.875,0.733
	c0.488,0.488,0.732,1.113,0.732,1.874V54.75z"/>
</svg>
