<?xml version="1.0" encoding="utf-8"?>
<!-- Generator: Adobe Illustrator 16.0.4, SVG Export Plug-In . SVG Version: 6.00 Build 0)  -->
<!DOCTYPE svg PUBLIC "-//W3C//DTD SVG 1.1//EN" "http://www.w3.org/Graphics/SVG/1.1/DTD/svg11.dtd">
<svg version="1.1" id="Capa_1" xmlns="http://www.w3.org/2000/svg" xmlns:xlink="http://www.w3.org/1999/xlink" x="0px" y="0px"
	 width="216px" height="146px" viewBox="0 0 216 146" enable-background="new 0 0 216 146" xml:space="preserve">
<path d="M163.686,17.313c-4.588-4.589-10.115-6.884-16.578-6.884H68.893c-6.463,0-11.99,2.295-16.58,6.884
	c-4.589,4.59-6.884,10.117-6.884,16.58v78.214c0,6.463,2.295,11.99,6.884,16.58c4.59,4.59,10.117,6.885,16.58,6.885h78.214
	c6.463,0,11.99-2.295,16.578-6.885c4.59-4.59,6.885-10.117,6.885-16.58V33.893C170.57,27.43,168.275,21.902,163.686,17.313z
	 M147.919,105.42c-1.14,2.498-3.707,4.672-7.698,6.519c-3.992,1.847-7.537,2.771-10.633,2.771c-0.87,0-1.794-0.067-2.771-0.203
	c-0.977-0.137-1.805-0.271-2.484-0.407c-0.678-0.136-1.575-0.38-2.688-0.733c-1.114-0.353-1.916-0.625-2.404-0.814
	c-0.489-0.19-1.385-0.53-2.688-1.018c-1.303-0.49-2.119-0.789-2.443-0.896c-8.908-3.26-17.613-9.139-26.113-17.639
	c-8.5-8.502-14.38-17.205-17.639-26.112c-0.108-0.326-0.407-1.141-0.896-2.444c-0.489-1.303-0.829-2.2-1.019-2.688
	c-0.189-0.489-0.461-1.29-0.814-2.403c-0.353-1.114-0.597-2.009-0.733-2.689c-0.136-0.678-0.271-1.506-0.407-2.484
	c-0.136-0.978-0.204-1.902-0.204-2.771c0-3.096,0.924-6.64,2.771-10.632c1.847-3.992,4.019-6.558,6.518-7.699
	c2.879-1.195,5.622-1.793,8.229-1.793c0.597,0,1.032,0.055,1.303,0.163c0.272,0.11,0.72,0.598,1.345,1.467
	c0.625,0.869,1.304,1.969,2.037,3.3c0.733,1.331,1.453,2.621,2.159,3.87s1.385,2.484,2.037,3.707
	c0.652,1.221,1.059,1.996,1.222,2.321c0.163,0.273,0.516,0.788,1.059,1.549c0.543,0.76,0.951,1.438,1.222,2.036
	c0.271,0.598,0.407,1.168,0.407,1.711c0,0.816-0.557,1.807-1.67,2.974c-1.114,1.168-2.336,2.241-3.667,3.219
	s-2.553,2.024-3.666,3.137c-1.113,1.113-1.67,2.023-1.67,2.729c0,0.38,0.095,0.828,0.285,1.344c0.19,0.517,0.367,0.938,0.53,1.263
	c0.163,0.326,0.421,0.788,0.774,1.386c0.353,0.598,0.584,0.978,0.692,1.141c2.987,5.377,6.423,10.008,10.306,13.891
	c3.884,3.885,8.514,7.32,13.892,10.308c0.162,0.108,0.543,0.339,1.142,0.692c0.597,0.353,1.06,0.61,1.385,0.773
	c0.326,0.163,0.746,0.34,1.263,0.529s0.965,0.285,1.346,0.285c0.867,0,2.062-0.896,3.584-2.688c1.521-1.794,3.07-3.572,4.645-5.338
	c1.575-1.764,2.85-2.646,3.829-2.646c0.543,0,1.113,0.135,1.712,0.406c0.598,0.272,1.275,0.68,2.036,1.223
	c0.761,0.544,1.276,0.896,1.548,1.061l4.317,2.361c2.879,1.521,5.282,2.865,7.211,4.033c1.928,1.168,2.974,1.968,3.137,2.402
	c0.108,0.272,0.162,0.707,0.162,1.305C149.714,99.805,149.117,102.548,147.919,105.42z"/>
</svg>
