<?xml version="1.0" encoding="utf-8"?>
<!-- Generator: Adobe Illustrator 16.0.4, SVG Export Plug-In . SVG Version: 6.00 Build 0)  -->
<!DOCTYPE svg PUBLIC "-//W3C//DTD SVG 1.1//EN" "http://www.w3.org/Graphics/SVG/1.1/DTD/svg11.dtd">
<svg version="1.1" id="Capa_1" xmlns="http://www.w3.org/2000/svg" xmlns:xlink="http://www.w3.org/1999/xlink" x="0px" y="0px"
	 width="216px" height="146px" viewBox="0 0 216 146" enable-background="new 0 0 216 146" xml:space="preserve">
<path d="M165.111,104.527c-0.325-0.978-2.389-2.418-6.192-4.318c-1.03-0.598-2.498-1.412-4.397-2.444
	c-1.902-1.032-3.627-1.983-5.174-2.853c-1.549-0.868-3.002-1.711-4.359-2.524c-0.217-0.163-0.896-0.638-2.037-1.426
	c-1.141-0.787-2.104-1.371-2.893-1.752c-0.787-0.38-1.561-0.57-2.322-0.57c-1.086,0-2.443,0.774-4.072,2.322
	s-3.123,3.231-4.48,5.052c-1.358,1.82-2.797,3.503-4.317,5.051c-1.521,1.549-2.771,2.322-3.748,2.322
	c-0.489,0-1.101-0.136-1.834-0.406c-0.732-0.271-1.289-0.504-1.671-0.692c-0.379-0.191-1.03-0.57-1.954-1.142
	c-0.925-0.57-1.44-0.883-1.548-0.938c-7.441-4.128-13.823-8.854-19.146-14.176c-5.322-5.323-10.048-11.705-14.176-19.146
	c-0.054-0.109-0.367-0.625-0.937-1.548c-0.571-0.924-0.951-1.575-1.141-1.956c-0.19-0.38-0.421-0.937-0.692-1.67
	c-0.271-0.733-0.407-1.344-0.407-1.833c0-0.977,0.774-2.227,2.322-3.748c1.548-1.52,3.232-2.96,5.051-4.317
	c1.82-1.357,3.503-2.851,5.051-4.48c1.548-1.63,2.322-2.987,2.322-4.073c0-0.76-0.19-1.535-0.57-2.322
	c-0.38-0.789-0.964-1.752-1.752-2.893c-0.788-1.141-1.263-1.819-1.426-2.037c-0.814-1.357-1.655-2.81-2.525-4.358
	c-0.87-1.548-1.82-3.273-2.852-5.174c-1.032-1.9-1.846-3.367-2.444-4.399c-1.901-3.801-3.34-5.866-4.318-6.191
	c-0.38-0.163-0.951-0.245-1.711-0.245c-1.467,0-3.381,0.271-5.744,0.815c-2.363,0.543-4.223,1.113-5.581,1.711
	c-2.716,1.14-5.594,4.453-8.636,9.938c-2.77,5.105-4.155,10.157-4.155,15.154c0,1.465,0.095,2.891,0.285,4.277
	c0.19,1.385,0.53,2.947,1.019,4.685c0.489,1.738,0.883,3.029,1.181,3.87s0.855,2.348,1.67,4.521
	c0.814,2.173,1.303,3.503,1.466,3.992c1.901,5.323,4.155,10.075,6.762,14.258C67.318,85.816,73.171,93,80.585,100.414
	s14.597,13.267,21.55,17.558c4.182,2.606,8.936,4.861,14.258,6.763c0.489,0.162,1.82,0.651,3.992,1.467
	c2.172,0.814,3.68,1.371,4.521,1.67s2.132,0.693,3.869,1.182c1.74,0.489,3.301,0.829,4.686,1.02
	c1.385,0.188,2.811,0.285,4.277,0.285c4.996,0,10.048-1.386,15.154-4.155c5.484-3.042,8.797-5.921,9.938-8.638
	c0.599-1.356,1.168-3.217,1.711-5.58c0.544-2.362,0.815-4.276,0.815-5.743C165.357,105.48,165.275,104.91,165.111,104.527z"/>
</svg>
