<?xml version="1.0" encoding="utf-8"?>
<!-- Generator: Adobe Illustrator 16.0.4, SVG Export Plug-In . SVG Version: 6.00 Build 0)  -->
<!DOCTYPE svg PUBLIC "-//W3C//DTD SVG 1.1//EN" "http://www.w3.org/Graphics/SVG/1.1/DTD/svg11.dtd">
<svg version="1.1" id="Capa_1" xmlns="http://www.w3.org/2000/svg" xmlns:xlink="http://www.w3.org/1999/xlink" x="0px" y="0px"
	 width="216px" height="146px" viewBox="0 0 216 146" enable-background="new 0 0 216 146" xml:space="preserve">
<g>
	<path d="M174.523,107.097c-0.488-0.489-1.113-0.733-1.873-0.733H94.435c-0.76,0-1.385,0.244-1.874,0.733
		c-0.488,0.489-0.732,1.113-0.732,1.874v5.215c0,0.76,0.244,1.385,0.732,1.873c0.489,0.488,1.114,0.733,1.874,0.733h78.215
		c0.76,0,1.385-0.245,1.873-0.733s0.732-1.113,0.732-1.873v-5.215C175.256,108.21,175.012,107.586,174.523,107.097z"/>
	<path d="M49.38,30.022c-0.543-0.543-1.168-0.815-1.874-0.815s-1.33,0.272-1.873,0.815l-4.074,4.074
		c-0.543,0.543-0.814,1.167-0.814,1.874s0.271,1.331,0.814,1.874l32.02,32.019l-32.02,32.02c-0.543,0.543-0.814,1.168-0.814,1.873
		c0,0.707,0.271,1.331,0.814,1.874l4.074,4.073c0.543,0.544,1.167,0.814,1.873,0.814s1.331-0.271,1.874-0.814l37.967-37.966
		c0.543-0.543,0.814-1.169,0.814-1.875s-0.271-1.331-0.814-1.874L49.38,30.022z"/>
</g>
</svg>
