<?xml version="1.0" encoding="utf-8"?>
<!-- Generator: Adobe Illustrator 16.0.4, SVG Export Plug-In . SVG Version: 6.00 Build 0)  -->
<!DOCTYPE svg PUBLIC "-//W3C//DTD SVG 1.1//EN" "http://www.w3.org/Graphics/SVG/1.1/DTD/svg11.dtd">
<svg version="1.1" id="Capa_1" xmlns="http://www.w3.org/2000/svg" xmlns:xlink="http://www.w3.org/1999/xlink" x="0px" y="0px"
	 width="216px" height="146px" viewBox="0 0 216 146" enable-background="new 0 0 216 146" xml:space="preserve">
<g>
	<path d="M139.254,19.024V10.51c-0.707-0.054-1.467-0.081-2.281-0.081l-3.422,0.081l-0.57,0.652
		c-0.381,0.435-0.951,0.869-1.711,1.303c-0.76,0.434-1.521,0.625-2.281,0.57l-2.771-0.162h-23.872l-17.517-0.082l-9.37,0.082
		l-1.548,0.244H63.32c-10.375,0-16.105-0.136-17.191-0.407l-4.4-2.2l-6.598,0.086v7.006V41.8c0.651,0.923,2.172,2.118,4.562,3.585
		c0.38,0,0.937-0.354,1.67-1.061c0.733-0.706,1.262-1.575,1.588-2.607c0.598-1.792,1.25-4.073,1.956-6.844
		c0.706-2.769,1.304-4.807,1.792-6.11c0.488-1.303,1.085-2.199,1.792-2.688c0.868-0.598,2.851-1.263,5.947-1.996
		c3.096-0.734,5.812-1.1,8.147-1.1c5.975,0,9.994,0.163,12.058,0.488c0.435,0.054,0.815,0.218,1.141,0.489
		c0.218,0.217,0.38,0.625,0.489,1.222c0.108,0.598,0.163,2.146,0.163,4.645c0,2.498-0.014,5.283-0.041,8.351
		c-0.027,3.069-0.014,6.287,0.041,9.654l0.407,34.871c0.108,13.09-0.054,24.85-0.489,35.277c-0.163,1.9-0.489,3.421-0.978,4.562
		c-1.086,0.651-5.404,2.01-12.954,4.073c-3.151,0.869-5.296,2.199-6.437,3.992v0.733l0.082,2.117c0,0.218,0.055,0.924,0.163,2.119
		c1.195,0,3.096-0.108,5.703-0.326c7.876-0.761,14.203-1.142,18.983-1.142c9.016,0,15.48,0.217,19.391,0.652
		c4.182,0.543,9.261,0.813,15.236,0.813c1.086,0,2.01-0.027,2.77-0.081c0.164-1.032,0.246-1.819,0.246-2.362
		c0-0.271-0.137-1.629-0.408-4.073c-1.086-0.544-2.443-1.032-4.073-1.468c-0.815-0.217-1.983-0.543-3.503-0.978
		s-2.716-0.789-3.585-1.06c-0.869-0.271-1.358-0.407-1.466-0.407c-2.172-0.38-4.589-1.249-7.251-2.607
		c-0.652-2.118-0.95-4.426-0.896-6.925l0.082-11.977l-0.245-29.25V47.336l-0.082-12.384c-0.108-2.118,0.109-5.811,0.652-11.081
		c1.792-0.271,3.612-0.407,5.459-0.407c2.336,0,5.35-0.026,9.044-0.081c3.694-0.055,6.504-0.082,8.433-0.082
		c1.928,0,3.082,0.055,3.463,0.163c0.76,0.218,1.493,0.734,2.199,1.548c0.108,0.109,0.271,0.896,0.488,2.363
		c0.218,1.467,0.531,3.245,0.938,5.336c0.408,2.092,0.828,3.789,1.264,5.093c1.574,4.617,3.041,8.093,4.398,10.429
		c1.575-0.163,3.422-0.653,5.541-1.467c0.217-1.032,0.325-2.417,0.325-4.155l0.081-4.726l-0.081-8.146
		C139.281,22.595,139.254,19.024,139.254,19.024z"/>
	<path d="M177.221,114.714h-6.519V31.285h6.519c1.793,0,2.934-0.502,3.422-1.507c0.489-1.005,0.19-2.213-0.896-3.626L169.48,12.954
		c-1.086-1.412-2.418-2.118-3.992-2.118s-2.905,0.706-3.991,2.118L151.23,26.152c-1.084,1.413-1.383,2.621-0.896,3.626
		c0.487,1.005,1.629,1.507,3.422,1.507h6.519v83.429h-6.519c-1.793,0-2.933,0.503-3.422,1.509c-0.489,1.004-0.19,2.213,0.896,3.625
		l10.267,13.198c1.086,1.412,2.417,2.118,3.991,2.118s2.906-0.706,3.992-2.118l10.267-13.198c1.085-1.412,1.384-2.621,0.896-3.625
		C180.154,115.217,179.014,114.714,177.221,114.714z"/>
</g>
</svg>
