<?xml version="1.0" encoding="utf-8"?>
<!-- Generator: Adobe Illustrator 16.0.4, SVG Export Plug-In . SVG Version: 6.00 Build 0)  -->
<!DOCTYPE svg PUBLIC "-//W3C//DTD SVG 1.1//EN" "http://www.w3.org/Graphics/SVG/1.1/DTD/svg11.dtd">
<svg version="1.1" id="Capa_1" xmlns="http://www.w3.org/2000/svg" xmlns:xlink="http://www.w3.org/1999/xlink" x="0px" y="0px"
	 width="216px" height="146px" viewBox="0 0 216 146" enable-background="new 0 0 216 146" xml:space="preserve">
<g>
	<path d="M168.046,116.066l-13.198-10.266c-1.412-1.086-2.621-1.385-3.625-0.896c-1.006,0.489-1.509,1.63-1.509,3.422v6.518H66.286
		v-6.518c0-1.792-0.503-2.933-1.507-3.422c-1.005-0.49-2.213-0.191-3.626,0.896l-13.198,10.266
		c-1.413,1.086-2.119,2.418-2.119,3.992c0,1.575,0.706,2.905,2.119,3.992l13.198,10.266c1.413,1.086,2.621,1.386,3.626,0.896
		c1.005-0.488,1.507-1.629,1.507-3.422v-6.518h83.428v6.518c0,1.793,0.503,2.934,1.509,3.422c1.004,0.489,2.213,0.189,3.625-0.896
		l13.198-10.266c1.412-1.087,2.118-2.417,2.118-3.992C170.164,118.484,169.458,117.153,168.046,116.066z"/>
	<path d="M170.49,29.87c-0.055-7.143-0.081-10.714-0.081-10.714v-8.514c-0.707-0.055-1.468-0.082-2.281-0.082l-3.422,0.082
		l-0.57,0.652c-0.381,0.434-0.95,0.869-1.711,1.303c-0.76,0.434-1.521,0.625-2.28,0.57l-2.771-0.163h-25.909l-36.336-0.082
		l-9.37,0.082l-1.548,0.244H73.619c-10.375,0-16.105-0.136-17.191-0.407l-4.4-2.2l-6.599,0.089v7.006v24.198
		c0.651,0.923,2.172,2.118,4.562,3.585c0.38,0,0.937-0.353,1.67-1.059c0.733-0.706,1.262-1.575,1.588-2.607
		c0.598-1.793,1.25-4.074,1.956-6.844s1.304-4.807,1.792-6.11c0.488-1.303,1.085-2.199,1.792-2.688
		c0.76-0.544,4.358-1.195,10.795-1.956c6.437-0.761,11.013-1.141,13.729-1.141c5.975,0,9.994,0.163,12.058,0.489
		c0.435,0.055,0.815,0.218,1.141,0.489c0.217,0.217,0.38,0.625,0.489,1.222c0.109,0.706,0.163,8.255,0.163,22.649l0.408,3.585
		c0,16.077-0.163,27.836-0.489,35.278c-0.163,1.901-0.489,3.421-0.978,4.562c-1.086,0.65-5.404,2.01-12.954,4.072
		c-3.151,0.869-5.296,2.2-6.437,3.992v0.733l0.082,2.118c0,0.218,0.054,0.924,0.163,2.117c1.358,0,3.259-0.136,5.703-0.406
		c8.202-0.706,14.529-1.059,18.983-1.059c9.017,0,15.48,0.215,19.391,0.65c4.181,0.543,9.26,0.814,15.235,0.814
		c1.086,0,2.01-0.026,2.771-0.082c0.162-1.031,0.244-1.818,0.244-2.361c0-0.271-0.138-1.631-0.408-4.074
		c-1.086-0.543-2.442-1.032-4.073-1.467c-0.814-0.217-1.982-0.543-3.503-0.979c-1.522-0.435-2.716-0.787-3.585-1.059
		s-1.359-0.407-1.467-0.407c-2.173-0.38-4.589-1.25-7.251-2.606c-0.651-2.119-0.951-4.428-0.896-6.927l0.08-11.977l-0.244-29.249
		v4.236l-0.082-12.384c-0.108-2.119,0.108-5.812,0.651-11.081c1.793-0.271,5.242-0.407,10.349-0.407
		c2.227,0,5.703-0.027,10.429-0.082c4.724-0.055,8.485-0.082,11.282-0.082c2.799,0,4.388,0.055,4.768,0.163
		c0.762,0.217,1.493,0.734,2.2,1.548c0.108,0.109,0.271,0.897,0.487,2.363c0.219,1.466,0.531,3.245,0.938,5.336
		c0.408,2.091,0.828,3.788,1.263,5.092c1.575,4.617,3.043,8.094,4.399,10.429c1.575-0.163,3.422-0.652,5.54-1.467
		c0.218-1.032,0.326-2.417,0.326-4.155l0.08-4.726L170.49,29.87z"/>
</g>
</svg>
