<?xml version="1.0" encoding="utf-8"?>
<!-- Generator: Adobe Illustrator 16.0.4, SVG Export Plug-In . SVG Version: 6.00 Build 0)  -->
<!DOCTYPE svg PUBLIC "-//W3C//DTD SVG 1.1//EN" "http://www.w3.org/Graphics/SVG/1.1/DTD/svg11.dtd">
<svg version="1.1" id="Capa_1" xmlns="http://www.w3.org/2000/svg" xmlns:xlink="http://www.w3.org/1999/xlink" x="0px" y="0px"
	 width="216px" height="146px" viewBox="0 0 216 146" enable-background="new 0 0 216 146" xml:space="preserve">
<g>
	<path d="M106.126,80.252c0.543,0.543,1.168,0.814,1.874,0.814s1.33-0.271,1.873-0.814l37.968-37.967
		c0.543-0.543,0.813-1.168,0.813-1.874s-0.271-1.331-0.813-1.874l-4.073-4.074c-0.543-0.543-1.168-0.814-1.875-0.814
		c-0.705,0-1.33,0.271-1.873,0.814L108,66.482L75.981,34.463c-0.543-0.543-1.168-0.814-1.874-0.814s-1.331,0.271-1.874,0.814
		l-4.073,4.074c-0.544,0.543-0.815,1.167-0.815,1.874s0.272,1.331,0.815,1.874L106.126,80.252z"/>
	<path d="M143.768,65.749c-0.543-0.543-1.168-0.814-1.875-0.814c-0.705,0-1.33,0.271-1.873,0.814L108,97.768l-32.019-32.02
		c-0.543-0.543-1.168-0.814-1.874-0.814s-1.331,0.271-1.874,0.814l-4.073,4.074c-0.544,0.543-0.815,1.168-0.815,1.874
		s0.272,1.331,0.815,1.875l37.966,37.967c0.543,0.543,1.168,0.814,1.874,0.814s1.33-0.271,1.873-0.814l37.968-37.967
		c0.543-0.543,0.813-1.168,0.813-1.874s-0.271-1.33-0.813-1.874L143.768,65.749z"/>
</g>
</svg>
