<?xml version="1.0" encoding="utf-8"?>
<!-- Generator: Adobe Illustrator 16.0.4, SVG Export Plug-In . SVG Version: 6.00 Build 0)  -->
<!DOCTYPE svg PUBLIC "-//W3C//DTD SVG 1.1//EN" "http://www.w3.org/Graphics/SVG/1.1/DTD/svg11.dtd">
<svg version="1.1" id="Capa_1" xmlns="http://www.w3.org/2000/svg" xmlns:xlink="http://www.w3.org/1999/xlink" x="0px" y="0px"
	 width="216px" height="146px" viewBox="0 0 216 146" enable-background="new 0 0 216 146" xml:space="preserve">
<g>
	<path d="M71.5,20.857H48.036c-1.412,0-2.634,0.516-3.667,1.548c-1.032,1.032-1.548,2.254-1.548,3.666v52.144
		c0,1.412,0.516,2.635,1.548,3.666c1.032,1.031,2.254,1.548,3.667,1.548H71.5c1.412,0,2.634-0.517,3.666-1.548
		s1.548-2.254,1.548-3.666V26.071c0-1.412-0.516-2.634-1.548-3.666C74.134,21.373,72.912,20.857,71.5,20.857z M62.13,40.167
		c-1.032,1.032-2.254,1.548-3.666,1.548c-1.467,0-2.703-0.516-3.707-1.548c-1.005-1.032-1.507-2.254-1.507-3.667
		c0-1.466,0.502-2.702,1.507-3.707c1.004-1.005,2.24-1.507,3.707-1.507c1.412,0,2.634,0.502,3.666,1.507
		c1.033,1.005,1.548,2.241,1.548,3.707C63.678,37.912,63.162,39.134,62.13,40.167z"/>
	<path d="M168.697,66.075c0.816-2.39,1.222-4.454,1.215-6.19c0.164-4.128-1.004-7.849-3.503-11.162c0.923-3.042,0.923-6.22,0-9.533
		c-0.813-3.096-2.281-5.648-4.399-7.658c0.488-6.084-0.842-10.999-3.992-14.747c-3.477-4.128-8.826-6.247-16.051-6.355h-2.933
		h-6.192h-1.385c-3.584,0-7.495,0.421-11.732,1.263c-4.234,0.842-7.535,1.63-9.897,2.363s-5.635,1.806-9.817,3.218
		c-6.681,2.335-10.972,3.53-12.873,3.584c-1.412,0.055-2.634,0.584-3.666,1.589c-1.032,1.004-1.548,2.213-1.548,3.625v52.225
		c0,1.358,0.49,2.539,1.467,3.544s2.145,1.562,3.503,1.671c1.303,0.109,3.367,1.711,6.192,4.807s5.568,6.382,8.229,9.859
		c3.694,4.724,6.437,7.983,8.229,9.775c0.977,0.977,1.818,2.281,2.525,3.911c0.705,1.629,1.182,2.946,1.427,3.951
		c0.245,1.004,0.61,2.647,1.101,4.929c0.379,2.118,0.719,3.775,1.018,4.97c0.299,1.195,0.828,2.607,1.589,4.236
		c0.761,1.63,1.684,2.987,2.771,4.073c1.032,1.033,2.254,1.549,3.666,1.549c2.5,0,4.739-0.285,6.723-0.855
		c1.982-0.57,3.611-1.275,4.889-2.117c1.277-0.843,2.363-1.942,3.259-3.301c0.896-1.357,1.548-2.579,1.955-3.666
		c0.408-1.087,0.734-2.443,0.978-4.072c0.244-1.631,0.382-2.853,0.408-3.668c0.026-0.814,0.041-1.873,0.041-3.177
		c0-2.063-0.271-4.142-0.814-6.233c-0.544-2.09-1.061-3.68-1.549-4.767c-0.488-1.086-1.221-2.634-2.199-4.644
		c-0.163-0.325-0.434-0.815-0.814-1.467c-0.379-0.651-0.679-1.25-0.896-1.793c-0.218-0.543-0.435-1.194-0.651-1.955h22.568
		c4.236,0,7.889-1.549,10.957-4.645c3.07-3.096,4.631-6.762,4.686-10.998C173.178,73.435,171.684,69.388,168.697,66.075z"/>
</g>
</svg>
