<?xml version="1.0" encoding="utf-8"?>
<!-- Generator: Adobe Illustrator 16.0.4, SVG Export Plug-In . SVG Version: 6.00 Build 0)  -->
<!DOCTYPE svg PUBLIC "-//W3C//DTD SVG 1.1//EN" "http://www.w3.org/Graphics/SVG/1.1/DTD/svg11.dtd">
<svg version="1.1" id="Capa_1" xmlns="http://www.w3.org/2000/svg" xmlns:xlink="http://www.w3.org/1999/xlink" x="0px" y="0px"
	 width="216px" height="146px" viewBox="0 0 216 146" enable-background="new 0 0 216 146" xml:space="preserve">
<path d="M166.579,80.984c2.662-4.02,3.991-8.446,3.991-13.28c0-5.595-2.062-10.455-6.189-14.587
	c-4.129-4.128-9.017-6.191-14.666-6.191h-14.339c2.606-5.377,3.911-10.592,3.911-15.643c0-6.355-0.952-11.406-2.852-15.154
	c-1.902-3.749-4.672-6.505-8.312-8.271c-3.64-1.765-7.74-2.647-12.302-2.647c-2.771,0-5.215,1.005-7.333,3.015
	c-2.335,2.281-4.019,5.215-5.051,8.8c-1.032,3.584-1.861,7.02-2.485,10.306c-0.624,3.286-1.589,5.608-2.892,6.966
	c-2.662,2.879-5.568,6.356-8.718,10.429c-5.486,7.115-9.207,11.325-11.162,12.629H55.857c-2.879,0-5.337,1.02-7.374,3.055
	c-2.036,2.037-3.055,4.495-3.055,7.374v52.143c0,2.879,1.018,5.336,3.055,7.373c2.038,2.037,4.495,3.057,7.374,3.057H79.32
	c1.195,0,4.942,1.086,11.243,3.258c6.681,2.336,12.561,4.115,17.639,5.337c5.079,1.223,10.225,1.834,15.44,1.834h7.575h2.935
	c7.658,0,13.822-2.188,18.494-6.56c4.67-4.373,6.979-10.334,6.926-17.884c3.258-4.183,4.888-9.017,4.888-14.502
	c0-1.194-0.081-2.362-0.244-3.504c2.063-3.638,3.097-7.549,3.097-11.731C167.312,84.65,167.068,82.775,166.579,80.984z
	 M64.738,118.381c-1.032,1.031-2.254,1.548-3.666,1.548c-1.413,0-2.635-0.517-3.667-1.548c-1.032-1.031-1.548-2.254-1.548-3.667
	c0-1.412,0.515-2.634,1.548-3.666c1.033-1.032,2.254-1.548,3.667-1.548c1.412,0,2.634,0.516,3.666,1.548
	c1.032,1.032,1.548,2.254,1.548,3.666C66.286,116.127,65.77,117.35,64.738,118.381z M158.393,74.388
	c-1.168,2.499-2.621,3.775-4.359,3.829c0.814,0.924,1.494,2.214,2.037,3.87c0.543,1.657,0.813,3.164,0.813,4.522
	c0,3.746-1.438,6.979-4.317,9.694c0.979,1.737,1.467,3.612,1.467,5.621s-0.475,4.006-1.426,5.988
	c-0.95,1.981-2.24,3.407-3.869,4.276c0.271,1.629,0.406,3.15,0.406,4.562c0,9.07-5.215,13.605-15.644,13.605h-9.856
	c-7.117,0-16.404-1.981-27.865-5.947c-0.272-0.108-1.059-0.394-2.363-0.855c-1.304-0.461-2.268-0.801-2.893-1.018
	c-0.625-0.219-1.575-0.531-2.852-0.938c-1.277-0.407-2.308-0.706-3.096-0.896c-0.787-0.189-1.684-0.366-2.688-0.529
	c-1.004-0.163-1.86-0.244-2.566-0.244h-2.607V67.787h2.607c0.869,0,1.833-0.245,2.892-0.733c1.059-0.489,2.146-1.222,3.259-2.2
	c1.114-0.978,2.159-1.942,3.137-2.893c0.978-0.95,2.064-2.145,3.259-3.584c1.195-1.44,2.132-2.594,2.811-3.463
	c0.679-0.869,1.534-1.983,2.566-3.341c1.032-1.357,1.657-2.172,1.874-2.444c2.987-3.693,5.078-6.164,6.273-7.414
	c2.227-2.335,3.843-5.309,4.847-8.921c1.006-3.613,1.834-7.021,2.484-10.225c0.652-3.205,1.685-5.514,3.098-6.926
	c5.214,0,8.691,1.276,10.428,3.829c1.738,2.553,2.607,6.491,2.607,11.814c0,3.204-1.305,7.563-3.912,13.076
	c-2.606,5.513-3.909,9.845-3.909,12.995h28.678c2.718,0,5.134,1.045,7.252,3.137c2.118,2.091,3.179,4.521,3.179,7.292
	C160.145,69.687,159.561,71.887,158.393,74.388z"/>
</svg>
