<?xml version="1.0" encoding="utf-8"?>
<!-- Generator: Adobe Illustrator 16.0.4, SVG Export Plug-In . SVG Version: 6.00 Build 0)  -->
<!DOCTYPE svg PUBLIC "-//W3C//DTD SVG 1.1//EN" "http://www.w3.org/Graphics/SVG/1.1/DTD/svg11.dtd">
<svg version="1.1" id="Capa_1" xmlns="http://www.w3.org/2000/svg" xmlns:xlink="http://www.w3.org/1999/xlink" x="0px" y="0px"
	 width="216px" height="146px" viewBox="0 0 216 146" enable-background="new 0 0 216 146" xml:space="preserve">
<path d="M166.579,65.014c0.489-1.793,0.733-3.666,0.733-5.622c0-4.182-1.033-8.093-3.097-11.732c0.163-1.14,0.244-2.308,0.244-3.503
	c0-5.485-1.63-10.319-4.888-14.502v-0.407c0.054-7.441-2.268-13.307-6.967-17.598c-4.698-4.291-10.85-6.437-18.453-6.437h-9.125
	c-5.703,0-11.135,0.597-16.295,1.792c-5.161,1.195-11.216,2.987-18.168,5.377c-6.301,2.173-10.048,3.259-11.243,3.259H55.857
	c-2.879,0-5.337,1.018-7.374,3.055c-2.036,2.037-3.055,4.495-3.055,7.373v52.144c0,2.879,1.018,5.336,3.055,7.373
	c2.038,2.037,4.495,3.055,7.374,3.055H78.18c1.955,1.305,5.676,5.514,11.162,12.629c3.205,4.183,6.111,7.631,8.718,10.348
	c1.031,1.141,1.873,2.879,2.525,5.214c0.652,2.336,1.127,4.631,1.426,6.885c0.299,2.254,0.992,4.713,2.078,7.373
	c1.086,2.662,2.552,4.89,4.399,6.683c2.118,2.01,4.562,3.014,7.333,3.014c4.562,0,8.664-0.881,12.303-2.646s6.41-4.522,8.311-8.271
	c1.901-3.693,2.853-8.745,2.853-15.153c0-5.052-1.304-10.266-3.911-15.644h14.339c5.649,0,10.537-2.063,14.666-6.192
	c4.128-4.127,6.19-8.988,6.19-14.583C170.57,73.462,169.241,69.035,166.579,65.014z M64.738,34.953
	c-1.032,1.032-2.254,1.548-3.666,1.548c-1.413,0-2.635-0.515-3.667-1.548c-1.032-1.033-1.548-2.254-1.548-3.667
	c0-1.412,0.516-2.634,1.548-3.666c1.033-1.032,2.254-1.548,3.667-1.548c1.412,0,2.634,0.516,3.666,1.548
	c1.032,1.032,1.548,2.254,1.548,3.666S65.77,33.92,64.738,34.953z M156.966,85.508c-2.118,2.092-4.534,3.137-7.252,3.137h-28.678
	c0,3.15,1.303,7.481,3.909,12.994c2.607,5.514,3.912,9.873,3.912,13.078c0,5.321-0.869,9.259-2.607,11.812
	c-1.738,2.554-5.214,3.83-10.428,3.83c-1.413-1.412-2.446-3.722-3.098-6.927c-0.65-3.203-1.479-6.612-2.484-10.225
	c-1.004-3.611-2.62-6.586-4.847-8.922c-1.194-1.248-3.286-3.72-6.273-7.414c-0.217-0.271-0.842-1.086-1.874-2.443
	c-1.031-1.357-1.887-2.471-2.566-3.34c-0.679-0.869-1.616-2.023-2.811-3.463c-1.195-1.439-2.281-2.635-3.259-3.586
	c-0.978-0.949-2.023-1.914-3.137-2.892c-1.113-0.978-2.2-1.711-3.259-2.2c-1.059-0.488-2.023-0.732-2.892-0.732h-2.607V26.071h2.607
	c0.706,0,1.561-0.081,2.566-0.244c1.004-0.163,1.9-0.34,2.688-0.53s1.82-0.489,3.096-0.896c1.277-0.407,2.227-0.72,2.852-0.937
	c0.625-0.218,1.589-0.557,2.893-1.019c1.304-0.461,2.092-0.746,2.363-0.855c11.46-3.965,20.748-5.947,27.865-5.947h10.428
	c4.726,0,8.419,1.113,11.08,3.34c2.662,2.227,3.992,5.649,3.992,10.266c0,1.412-0.136,2.933-0.406,4.562
	c1.629,0.869,2.919,2.295,3.869,4.277c0.951,1.982,1.426,3.979,1.426,5.988s-0.488,3.884-1.467,5.622
	c2.879,2.716,4.317,5.947,4.317,9.695c0,1.358-0.271,2.865-0.813,4.522s-1.223,2.947-2.037,3.87c1.738,0.055,3.191,1.331,4.359,3.83
	c1.168,2.498,1.752,4.699,1.752,6.6C160.145,80.984,159.084,83.415,156.966,85.508z"/>
</svg>
