<?xml version="1.0" encoding="utf-8"?>
<!-- Generator: Adobe Illustrator 16.0.4, SVG Export Plug-In . SVG Version: 6.00 Build 0)  -->
<!DOCTYPE svg PUBLIC "-//W3C//DTD SVG 1.1//EN" "http://www.w3.org/Graphics/SVG/1.1/DTD/svg11.dtd">
<svg version="1.1" id="Capa_1" xmlns="http://www.w3.org/2000/svg" xmlns:xlink="http://www.w3.org/1999/xlink" x="0px" y="0px"
	 width="216px" height="146px" viewBox="0 0 216 146" enable-background="new 0 0 216 146" xml:space="preserve">
<g>
	<path d="M168.698,79.925c2.987-3.422,4.481-7.468,4.481-12.14c0-4.236-1.55-7.902-4.639-11c-3.096-3.097-6.762-4.645-10.998-4.645
		h-22.568c0.217-0.76,0.435-1.412,0.651-1.955s0.517-1.141,0.896-1.793s0.651-1.141,0.814-1.466
		c0.977-1.846,1.725-3.368,2.241-4.562c0.516-1.196,1.03-2.825,1.547-4.889c0.517-2.063,0.774-4.128,0.774-6.192
		c0-1.303-0.015-2.363-0.041-3.177c-0.026-0.815-0.164-2.037-0.407-3.667c-0.245-1.629-0.571-2.987-0.978-4.073
		c-0.408-1.086-1.06-2.309-1.955-3.666c-0.897-1.359-1.983-2.458-3.26-3.3c-1.277-0.842-2.906-1.548-4.889-2.118
		c-1.983-0.57-4.223-0.855-6.723-0.855c-1.412,0-2.633,0.516-3.666,1.548c-1.086,1.086-2.01,2.444-2.771,4.073
		c-0.76,1.63-1.29,3.042-1.589,4.237c-0.299,1.195-0.639,2.852-1.018,4.97c-0.49,2.282-0.856,3.924-1.101,4.929
		c-0.245,1.005-0.721,2.322-1.426,3.951c-0.707,1.63-1.548,2.933-2.526,3.911c-1.792,1.792-4.535,5.051-8.229,9.776
		c-2.662,3.476-5.405,6.762-8.229,9.858c-2.825,3.097-4.889,4.699-6.192,4.808c-1.357,0.108-2.525,0.665-3.503,1.67
		s-1.467,2.187-1.467,3.544v52.225c0,1.412,0.516,2.62,1.548,3.625c1.032,1.005,2.254,1.535,3.666,1.589
		c1.901,0.055,6.192,1.249,12.873,3.586c4.182,1.411,7.454,2.485,9.817,3.217c2.362,0.733,5.663,1.521,9.897,2.363
		c4.238,0.842,8.148,1.264,11.732,1.264h1.385h6.192h2.933c7.226-0.108,12.574-2.227,16.051-6.354
		c3.15-3.748,4.48-8.664,3.992-14.747c2.118-2.01,3.586-4.562,4.399-7.658c0.923-3.312,0.923-6.49,0-9.531
		c2.499-3.313,3.667-7.034,3.503-11.162C169.92,84.379,169.514,82.316,168.698,79.925z"/>
	<path d="M71.5,62.571H48.036c-1.413,0-2.635,0.516-3.667,1.548c-1.032,1.032-1.548,2.254-1.548,3.666v52.145
		c0,1.411,0.516,2.633,1.548,3.666c1.033,1.031,2.255,1.547,3.667,1.547H71.5c1.412,0,2.634-0.516,3.666-1.547
		c1.032-1.033,1.548-2.255,1.548-3.666V67.785c0-1.412-0.516-2.634-1.548-3.666C74.134,63.087,72.912,62.571,71.5,62.571z
		 M62.13,113.207c-1.032,1.005-2.254,1.507-3.666,1.507c-1.467,0-2.703-0.502-3.707-1.507c-1.005-1.005-1.507-2.24-1.507-3.707
		c0-1.412,0.502-2.635,1.507-3.666c1.004-1.032,2.24-1.549,3.707-1.549c1.412,0,2.634,0.517,3.666,1.549
		c1.032,1.031,1.548,2.254,1.548,3.666C63.678,110.967,63.163,112.202,62.13,113.207z"/>
</g>
</svg>
