<?xml version="1.0" encoding="utf-8"?>
<!-- Generator: Adobe Illustrator 16.0.4, SVG Export Plug-In . SVG Version: 6.00 Build 0)  -->
<!DOCTYPE svg PUBLIC "-//W3C//DTD SVG 1.1//EN" "http://www.w3.org/Graphics/SVG/1.1/DTD/svg11.dtd">
<svg version="1.1" id="Capa_1" xmlns="http://www.w3.org/2000/svg" xmlns:xlink="http://www.w3.org/1999/xlink" x="0px" y="0px"
	 width="216px" height="146px" viewBox="0 0 216 146" enable-background="new 0 0 216 146" xml:space="preserve">
<g>
	<path d="M173.627,49.903l-10.266-10.184c-3.041,3.041-6.736,4.562-11.08,4.562c-4.346,0-8.039-1.521-11.08-4.562
		c-3.042-3.042-4.562-6.735-4.562-11.081c0-4.346,1.521-8.039,4.562-11.081L131.016,7.373c-2.011-2.009-4.468-3.014-7.373-3.014
		c-2.906,0-5.363,1.005-7.373,3.014L42.373,81.188c-2.01,2.011-3.015,4.469-3.015,7.373c0,2.905,1.005,5.363,3.015,7.373
		L52.557,106.2c3.042-3.041,6.736-4.562,11.081-4.562c4.345,0,8.038,1.52,11.08,4.562c3.041,3.042,4.562,6.735,4.562,11.081
		c0,4.345-1.52,8.037-4.562,11.08l10.266,10.266c2.01,2.01,4.468,3.014,7.374,3.014c2.906,0,5.364-1.004,7.373-3.014l73.896-73.978
		c2.01-2.01,3.014-4.467,3.014-7.373C176.641,54.37,175.637,51.913,173.627,49.903z M151.547,66.197l-50.35,50.35
		c-0.977,0.979-2.199,1.467-3.666,1.467c-1.466,0-2.688-0.488-3.666-1.467L64.371,87.055c-1.032-1.033-1.548-2.255-1.548-3.666
		c0-1.412,0.516-2.635,1.548-3.668l50.35-50.35c0.979-0.978,2.201-1.467,3.668-1.467c1.465,0,2.688,0.489,3.666,1.467l29.492,29.493
		c1.033,1.033,1.549,2.255,1.549,3.667C153.096,63.943,152.58,65.165,151.547,66.197z"/>
	<path d="M118.391,36.787l25.746,25.745l-46.602,46.602L71.79,83.389L118.391,36.787z"/>
</g>
</svg>
