<?xml version="1.0" encoding="utf-8"?>
<!-- Generator: Adobe Illustrator 16.0.4, SVG Export Plug-In . SVG Version: 6.00 Build 0)  -->
<!DOCTYPE svg PUBLIC "-//W3C//DTD SVG 1.1//EN" "http://www.w3.org/Graphics/SVG/1.1/DTD/svg11.dtd">
<svg version="1.1" id="Capa_1" xmlns="http://www.w3.org/2000/svg" xmlns:xlink="http://www.w3.org/1999/xlink" x="0px" y="0px"
	 width="216px" height="146px" viewBox="0 0 216 146" enable-background="new 0 0 216 146" xml:space="preserve">
<path d="M143.113,68.845c-0.326-0.489-2.024-2.946-5.092-7.373c-3.069-4.427-5.812-8.528-8.229-12.303s-5.118-8.609-8.106-14.502
	c-2.987-5.893-5.242-11.366-6.762-16.417c-0.435-1.629-1.344-2.906-2.73-3.829c-1.383-0.923-2.782-1.385-4.194-1.385
	s-2.797,0.462-4.155,1.385c-1.358,0.923-2.281,2.2-2.77,3.829c-1.521,5.051-3.775,10.524-6.762,16.417s-5.689,10.727-8.106,14.502
	s-5.16,7.876-8.229,12.303c-3.069,4.427-4.766,6.884-5.092,7.373c-4.399,7.062-6.599,14.53-6.599,22.405
	c0,11.516,4.074,21.346,12.221,29.493S96.485,132.965,108,132.965c11.514,0,21.346-4.074,29.493-12.222s12.222-17.978,12.222-29.493
	C149.715,83.211,147.514,75.743,143.113,68.845z M104.945,109.052c-2.038,2.037-4.495,3.056-7.374,3.056
	c-2.878,0-5.336-1.019-7.373-3.056c-2.037-2.036-3.056-4.495-3.056-7.373c0-1.956,0.544-3.829,1.63-5.622
	c0.055-0.055,0.475-0.664,1.263-1.832s1.48-2.201,2.078-3.097c0.598-0.897,1.277-2.091,2.037-3.585
	c0.76-1.494,1.331-2.865,1.711-4.113c0.217-0.869,0.788-1.305,1.711-1.305c0.923,0,1.494,0.436,1.711,1.305
	c0.38,1.248,0.951,2.619,1.711,4.113c0.76,1.494,1.439,2.689,2.037,3.585c0.597,0.896,1.289,1.929,2.077,3.097
	c0.787,1.168,1.208,1.777,1.263,1.832c1.086,1.793,1.629,3.666,1.629,5.622C108,104.557,106.981,107.016,104.945,109.052z"/>
</svg>
