<?xml version="1.0" encoding="utf-8"?>
<!-- Generator: Adobe Illustrator 16.0.4, SVG Export Plug-In . SVG Version: 6.00 Build 0)  -->
<!DOCTYPE svg PUBLIC "-//W3C//DTD SVG 1.1//EN" "http://www.w3.org/Graphics/SVG/1.1/DTD/svg11.dtd">
<svg version="1.1" id="Capa_1" xmlns="http://www.w3.org/2000/svg" xmlns:xlink="http://www.w3.org/1999/xlink" x="0px" y="0px"
	 width="216px" height="146px" viewBox="0 0 216 146" enable-background="new 0 0 216 146" xml:space="preserve">
<g>
	<path d="M164.623,32.019c-0.488-0.488-1.113-0.733-1.873-0.733h-25.176l-5.703-13.605c-0.814-2.01-2.28-3.721-4.398-5.133
		c-2.119-1.412-4.265-2.118-6.438-2.118H94.964c-2.172,0-4.318,0.706-6.436,2.118c-2.119,1.412-3.585,3.123-4.4,5.133l-5.703,13.605
		H53.25c-0.761,0-1.385,0.245-1.874,0.733c-0.488,0.489-0.733,1.114-0.733,1.874v5.215c0,0.76,0.244,1.385,0.733,1.873
		c0.489,0.489,1.114,0.733,1.874,0.733h7.821v77.562c0,4.509,1.276,8.352,3.829,11.528c2.553,3.179,5.622,4.767,9.207,4.767h67.786
		c3.586,0,6.654-1.643,9.207-4.928c2.553-3.287,3.828-7.184,3.828-11.691V41.714h7.822c0.76,0,1.385-0.244,1.873-0.733
		c0.488-0.488,0.734-1.113,0.734-1.873v-5.215C165.357,33.133,165.111,32.508,164.623,32.019z M93.742,21.753
		c0.38-0.489,0.842-0.788,1.385-0.896h25.827c0.543,0.109,1.005,0.408,1.385,0.896l3.911,9.532h-36.5L93.742,21.753z M144.5,118.951
		c0,1.195-0.189,2.295-0.57,3.299c-0.381,1.005-0.775,1.738-1.182,2.2c-0.407,0.462-0.691,0.692-0.855,0.692H74.107
		c-0.163,0-0.447-0.23-0.855-0.692s-0.802-1.195-1.182-2.2c-0.38-1.004-0.57-2.105-0.57-3.299V41.714h73V118.951z"/>
	<path d="M84.536,109.5h5.214c0.761,0,1.386-0.244,1.874-0.732c0.488-0.49,0.733-1.113,0.733-1.875V59.964
		c0-0.76-0.245-1.385-0.733-1.874c-0.489-0.488-1.113-0.732-1.874-0.732h-5.214c-0.761,0-1.385,0.244-1.874,0.732
		c-0.488,0.489-0.733,1.114-0.733,1.874v46.929c0,0.762,0.244,1.385,0.733,1.875C83.151,109.256,83.775,109.5,84.536,109.5z"/>
	<path d="M105.393,109.5h5.214c0.761,0,1.386-0.244,1.873-0.732c0.49-0.49,0.733-1.113,0.733-1.875V59.964
		c0-0.76-0.243-1.385-0.733-1.874c-0.487-0.488-1.112-0.732-1.873-0.732h-5.214c-0.76,0-1.385,0.244-1.874,0.732
		c-0.489,0.489-0.733,1.114-0.733,1.874v46.929c0,0.762,0.244,1.385,0.733,1.875C104.008,109.256,104.633,109.5,105.393,109.5z"/>
	<path d="M126.25,109.5h5.214c0.761,0,1.386-0.244,1.874-0.732c0.488-0.49,0.732-1.113,0.732-1.875V59.964
		c0-0.76-0.244-1.385-0.732-1.874c-0.488-0.488-1.113-0.732-1.874-0.732h-5.214c-0.761,0-1.385,0.244-1.874,0.732
		c-0.489,0.489-0.733,1.114-0.733,1.874v46.929c0,0.762,0.244,1.385,0.733,1.875C124.865,109.256,125.489,109.5,126.25,109.5z"/>
</g>
</svg>
