<?xml version="1.0" encoding="utf-8"?>
<!-- Generator: Adobe Illustrator 16.0.4, SVG Export Plug-In . SVG Version: 6.00 Build 0)  -->
<!DOCTYPE svg PUBLIC "-//W3C//DTD SVG 1.1//EN" "http://www.w3.org/Graphics/SVG/1.1/DTD/svg11.dtd">
<svg version="1.1" id="Capa_1" xmlns="http://www.w3.org/2000/svg" xmlns:xlink="http://www.w3.org/1999/xlink" x="0px" y="0px"
	 width="216px" height="146px" viewBox="0 0 216 146" enable-background="new 0 0 216 146" xml:space="preserve">
<path d="M169.023,11.977c-1.032-1.032-2.254-1.548-3.666-1.548H50.643c-1.413,0-2.635,0.516-3.667,1.548
	c-1.032,1.032-1.548,2.254-1.548,3.666v114.714c0,1.412,0.516,2.635,1.548,3.666c1.033,1.032,2.255,1.549,3.667,1.549h114.714
	c1.412,0,2.634-0.517,3.666-1.549c1.031-1.031,1.547-2.254,1.547-3.666V15.643C170.57,14.23,170.055,13.009,169.023,11.977z
	 M102.786,109.5c0,0.761-0.244,1.385-0.733,1.874c-0.489,0.488-1.114,0.733-1.874,0.733H61.072c-0.761,0-1.385-0.245-1.874-0.733
	c-0.488-0.489-0.733-1.113-0.733-1.874V26.071c0-0.761,0.244-1.385,0.733-1.874c0.489-0.488,1.113-0.733,1.874-0.733h39.107
	c0.76,0,1.385,0.245,1.874,0.733c0.489,0.489,0.733,1.113,0.733,1.874V109.5z M157.536,78.214c0,0.761-0.244,1.386-0.733,1.874
	c-0.488,0.489-1.113,0.733-1.873,0.733h-39.106c-0.763,0-1.386-0.244-1.875-0.733c-0.488-0.488-0.732-1.113-0.732-1.874V26.071
	c0-0.761,0.244-1.385,0.732-1.874c0.489-0.488,1.112-0.733,1.875-0.733h39.106c0.76,0,1.385,0.245,1.873,0.733
	c0.489,0.489,0.733,1.113,0.733,1.874V78.214z"/>
</svg>
