<?xml version="1.0" encoding="utf-8"?>
<!-- Generator: Adobe Illustrator 16.0.4, SVG Export Plug-In . SVG Version: 6.00 Build 0)  -->
<!DOCTYPE svg PUBLIC "-//W3C//DTD SVG 1.1//EN" "http://www.w3.org/Graphics/SVG/1.1/DTD/svg11.dtd">
<svg version="1.1" id="Capa_1" xmlns="http://www.w3.org/2000/svg" xmlns:xlink="http://www.w3.org/1999/xlink" x="0px" y="0px"
	 width="216px" height="146px" viewBox="0 0 216 146" enable-background="new 0 0 216 146" xml:space="preserve">
<path d="M163.686,17.313c-4.588-4.589-10.115-6.884-16.578-6.884H68.893c-6.463,0-11.99,2.295-16.58,6.884
	c-4.589,4.59-6.884,10.117-6.884,16.58v78.214c0,6.463,2.295,11.99,6.884,16.58c4.59,4.59,10.117,6.885,16.58,6.885h78.214
	c6.463,0,11.99-2.295,16.578-6.885c4.59-4.59,6.885-10.117,6.885-16.58V33.893C170.57,27.43,168.275,21.902,163.686,17.313z
	 M136.923,114.796c-4.182,1.955-7.821,3.286-10.917,3.991c-3.367,0.76-6.871,1.141-10.51,1.141c-4.237,0-8.039-0.543-11.407-1.629
	c-3.313-1.087-6.138-2.635-8.473-4.645c-2.281-1.956-3.884-4.074-4.807-6.355c-0.924-2.335-1.385-5.621-1.385-9.857V64.526H79.077
	v-13.28c3.694-1.249,6.844-2.96,9.451-5.133c2.662-2.281,4.78-4.969,6.355-8.065c1.575-3.096,2.661-7.088,3.259-11.977h13.362V49.78
	h22.323v14.746h-22.323v24.035c0,5.377,0.298,8.881,0.896,10.511c0.543,1.52,1.602,2.743,3.177,3.666
	c2.01,1.25,4.399,1.874,7.17,1.874c4.671,0,9.397-1.521,14.176-4.562V114.796z"/>
</svg>
