<?xml version="1.0" encoding="utf-8"?>
<!-- Generator: Adobe Illustrator 16.0.4, SVG Export Plug-In . SVG Version: 6.00 Build 0)  -->
<!DOCTYPE svg PUBLIC "-//W3C//DTD SVG 1.1//EN" "http://www.w3.org/Graphics/SVG/1.1/DTD/svg11.dtd">
<svg version="1.1" id="Capa_1" xmlns="http://www.w3.org/2000/svg" xmlns:xlink="http://www.w3.org/1999/xlink" x="0px" y="0px"
	 width="216px" height="146px" viewBox="0 0 216 146" enable-background="new 0 0 216 146" xml:space="preserve">
<path d="M127.635,115.204c-3.638,0-6.816-0.841-9.531-2.525c-2.119-1.25-3.53-2.879-4.236-4.889
	c-0.762-1.955-1.141-6.627-1.141-14.015V61.675h29.655V42.04h-29.655V10.429H94.883c-0.815,6.409-2.281,11.731-4.399,15.97
	c-2.119,4.182-4.916,7.767-8.392,10.754c-3.477,2.934-7.686,5.215-12.629,6.844v17.68h13.85v43.914
	c0,5.812,0.598,10.185,1.792,13.117c1.141,2.935,3.287,5.785,6.437,8.556c3.259,2.715,7.007,4.752,11.243,6.109
	c4.4,1.467,9.451,2.2,15.154,2.2c5.215,0,9.912-0.517,14.095-1.548c4.128-0.924,8.963-2.689,14.503-5.297v-19.717
	C140.29,113.141,133.99,115.204,127.635,115.204z"/>
</svg>
