<?xml version="1.0" encoding="utf-8"?>
<!-- Generator: Adobe Illustrator 16.0.4, SVG Export Plug-In . SVG Version: 6.00 Build 0)  -->
<!DOCTYPE svg PUBLIC "-//W3C//DTD SVG 1.1//EN" "http://www.w3.org/Graphics/SVG/1.1/DTD/svg11.dtd">
<svg version="1.1" id="Capa_1" xmlns="http://www.w3.org/2000/svg" xmlns:xlink="http://www.w3.org/1999/xlink" x="0px" y="0px"
	 width="216px" height="146px" viewBox="0 0 216 146" enable-background="new 0 0 216 146" xml:space="preserve">
<path d="M154.195,71.124c-0.488-0.488-1.113-0.733-1.873-0.733h-13.035c-0.762,0-1.387,0.245-1.875,0.733
	c-0.488,0.489-0.732,1.113-0.732,1.874c0,10.321-3.529,19.229-10.592,26.725c-7.062,7.494-15.697,11.596-25.909,12.301V72.347
	l32.019-9.858c1.25-0.434,1.874-1.276,1.874-2.526V49.535c0-0.869-0.354-1.575-1.061-2.119c-0.705-0.543-1.467-0.678-2.281-0.407
	l-30.551,9.451v-7.577l32.019-9.858c1.25-0.434,1.874-1.276,1.874-2.525V26.072c0-0.869-0.354-1.575-1.061-2.118
	c-0.705-0.543-1.467-0.678-2.281-0.407l-30.551,9.451V18.251c0-0.761-0.244-1.385-0.733-1.874c-0.489-0.488-1.114-0.733-1.874-0.733
	H84.536c-0.76,0-1.385,0.245-1.874,0.733c-0.488,0.489-0.733,1.113-0.733,1.874V38.62l-18.983,5.785
	c-1.249,0.434-1.874,1.276-1.874,2.525v10.429c0,0.869,0.353,1.575,1.059,2.118c0.489,0.326,1.005,0.488,1.548,0.488
	c0.326,0,0.57-0.026,0.733-0.081l17.517-5.377v7.577l-18.983,5.784c-1.249,0.434-1.874,1.276-1.874,2.525v10.43
	c0,0.869,0.353,1.574,1.059,2.117c0.489,0.326,1.005,0.489,1.548,0.489c0.326,0,0.57-0.026,0.733-0.082l17.517-5.377v49.78
	c0,0.761,0.244,1.385,0.733,1.874c0.489,0.487,1.114,0.733,1.874,0.733h13.036c10.374,0,19.961-2.566,28.761-7.699
	c8.797-5.133,15.765-12.098,20.897-20.898c5.133-8.799,7.699-18.386,7.699-28.76C154.93,72.239,154.686,71.615,154.195,71.124z"/>
</svg>
