<?xml version="1.0" encoding="utf-8"?>
<!-- Generator: Adobe Illustrator 16.0.4, SVG Export Plug-In . SVG Version: 6.00 Build 0)  -->
<!DOCTYPE svg PUBLIC "-//W3C//DTD SVG 1.1//EN" "http://www.w3.org/Graphics/SVG/1.1/DTD/svg11.dtd">
<svg version="1.1" id="Capa_1" xmlns="http://www.w3.org/2000/svg" xmlns:xlink="http://www.w3.org/1999/xlink" x="0px" y="0px"
	 width="216px" height="146px" viewBox="0 0 216 146" enable-background="new 0 0 216 146" xml:space="preserve">
<path d="M171.957,14.258c-2.553-2.553-5.621-3.829-9.207-3.829H53.25c-3.585,0-6.654,1.276-9.207,3.829
	c-2.553,2.553-3.829,5.621-3.829,9.206v99.071c0,3.585,1.276,6.654,3.829,9.207c2.553,2.553,5.622,3.829,9.207,3.829h109.5
	c3.586,0,6.654-1.276,9.207-3.829s3.828-5.622,3.828-9.207V23.464C175.785,19.879,174.51,16.811,171.957,14.258z M102.786,125.143
	H53.25c-0.706,0-1.317-0.258-1.833-0.772c-0.516-0.517-0.774-1.127-0.774-1.834v-91.25h52.143V125.143z M165.357,122.535
	c0,0.707-0.258,1.318-0.774,1.834c-0.517,0.515-1.127,0.773-1.834,0.773h-49.535V31.285h52.144V122.535z"/>
</svg>
