<?xml version="1.0" encoding="utf-8"?>
<!-- Generator: Adobe Illustrator 16.0.4, SVG Export Plug-In . SVG Version: 6.00 Build 0)  -->
<!DOCTYPE svg PUBLIC "-//W3C//DTD SVG 1.1//EN" "http://www.w3.org/Graphics/SVG/1.1/DTD/svg11.dtd">
<svg version="1.1" id="Capa_1" xmlns="http://www.w3.org/2000/svg" xmlns:xlink="http://www.w3.org/1999/xlink" x="0px" y="0px"
	 width="216px" height="146px" viewBox="0 0 216 146" enable-background="new 0 0 216 146" xml:space="preserve">
<g>
	<path d="M50.643,52.143h31.285c1.413,0,2.635-0.516,3.667-1.548c1.032-1.032,1.548-2.254,1.548-3.666V15.643
		c0-1.413-0.516-2.634-1.547-3.666c-1.033-1.032-2.255-1.548-3.667-1.548H50.643c-1.413,0-2.635,0.516-3.667,1.548
		c-1.032,1.032-1.548,2.254-1.548,3.666v31.286c0,1.412,0.516,2.634,1.548,3.666C48.009,51.627,49.231,52.143,50.643,52.143z"/>
	<path d="M169.023,11.977c-1.032-1.032-2.254-1.548-3.666-1.548H134.07c-1.411,0-2.633,0.516-3.666,1.548
		c-1.031,1.032-1.547,2.254-1.547,3.666v31.286c0,1.412,0.516,2.634,1.547,3.666c1.033,1.032,2.255,1.548,3.666,1.548h31.287
		c1.412,0,2.634-0.516,3.666-1.548c1.031-1.032,1.547-2.254,1.547-3.666V15.643C170.57,14.23,170.055,13.009,169.023,11.977z"/>
	<path d="M165.357,62.571h-31.285c-1.412,0-2.635,0.516-3.666,1.548c-1.032,1.032-1.549,2.254-1.549,3.666v10.429
		c0,2.825-0.637,5.269-1.914,7.333c-1.276,2.064-2.729,3.613-4.358,4.645s-3.558,1.846-5.785,2.443
		c-2.227,0.598-3.965,0.952-5.214,1.061c-1.249,0.107-2.445,0.162-3.585,0.162c-1.14,0-2.335-0.055-3.584-0.162
		c-1.249-0.109-2.987-0.463-5.214-1.061c-2.227-0.597-4.156-1.412-5.785-2.443c-1.63-1.032-3.083-2.582-4.359-4.645
		c-1.277-2.064-1.915-4.508-1.915-7.333V67.785c0-1.412-0.516-2.634-1.548-3.666c-1.033-1.032-2.255-1.548-3.667-1.548H50.643
		c-1.413,0-2.635,0.516-3.667,1.548c-1.032,1.032-1.548,2.254-1.548,3.666v10.429c0,10.918,2.675,20.749,8.025,29.493
		c5.35,8.745,12.792,15.575,22.324,20.491c9.533,4.915,20.274,7.373,32.223,7.373c11.951,0,22.691-2.458,32.223-7.373
		c9.532-4.916,16.973-11.746,22.323-20.491c5.351-8.744,8.024-18.575,8.024-29.493V67.785c0-1.412-0.514-2.634-1.547-3.666
		C167.992,63.087,166.77,62.571,165.357,62.571z"/>
</g>
</svg>
