<?xml version="1.0" encoding="utf-8"?>
<!-- Generator: Adobe Illustrator 16.0.4, SVG Export Plug-In . SVG Version: 6.00 Build 0)  -->
<!DOCTYPE svg PUBLIC "-//W3C//DTD SVG 1.1//EN" "http://www.w3.org/Graphics/SVG/1.1/DTD/svg11.dtd">
<svg version="1.1" id="Capa_1" xmlns="http://www.w3.org/2000/svg" xmlns:xlink="http://www.w3.org/1999/xlink" x="0px" y="0px"
	 width="216px" height="146px" viewBox="0 0 216 146" enable-background="new 0 0 216 146" xml:space="preserve">
<g>
	<path d="M102.786,70.067v47.254c0,2.716-1.059,5.133-3.177,7.251c-2.118,2.119-4.536,3.178-7.251,3.178s-5.132-1.059-7.251-3.178
		c-2.118-2.118-3.177-4.535-3.177-7.251c0-1.412-0.516-2.634-1.548-3.666c-1.033-1.032-2.254-1.548-3.667-1.548
		s-2.635,0.516-3.667,1.548c-1.032,1.032-1.548,2.254-1.548,3.666c0,5.649,2.064,10.536,6.192,14.665s9.017,6.191,14.666,6.191
		c5.648,0,10.537-2.062,14.665-6.191c4.127-4.129,6.192-9.016,6.192-14.665V70.067c-1.793-0.597-3.531-0.896-5.215-0.896
		C106.317,69.171,104.578,69.47,102.786,70.067z"/>
	<path d="M113.215,21.02v-7.984c0-1.412-0.517-2.635-1.549-3.667c-1.031-1.032-2.254-1.548-3.666-1.548s-2.634,0.516-3.666,1.548
		c-1.032,1.033-1.548,2.255-1.548,3.667v7.984c2.281-0.108,4.019-0.163,5.214-0.163C109.195,20.857,110.934,20.912,113.215,21.02z"
		/>
	<path d="M175.702,71.697c-1.793-7.495-4.931-14.325-9.41-20.49c-4.483-6.165-9.765-11.244-15.849-15.236
		c-6.082-3.992-12.776-7.074-20.082-9.247c-7.305-2.173-14.76-3.259-22.364-3.259c-10.32,0-20.11,1.847-29.371,5.54
		c-9.261,3.693-17.354,9.247-24.279,16.661c-6.925,7.414-11.61,16.092-14.054,26.031c-0.055,0.108-0.082,0.299-0.082,0.57
		c0,0.706,0.258,1.318,0.774,1.833c0.516,0.516,1.127,0.774,1.833,0.774c0.598,0,1.222-0.271,1.874-0.815
		c2.661-2.498,5.187-4.372,7.577-5.621s5.16-1.874,8.31-1.874c3.694,0,7.17,1.006,10.429,3.015c3.259,2.009,6.057,4.644,8.392,7.901
		c0.381,0.545,0.856,1.305,1.426,2.281c0.571,0.979,0.965,1.631,1.182,1.957c0.597,0.922,1.358,1.385,2.281,1.385
		c0.978,0,1.765-0.463,2.363-1.385c0.217-0.326,0.611-0.978,1.181-1.957c0.571-0.976,1.046-1.736,1.426-2.281
		c2.335-3.256,5.119-5.892,8.351-7.901s6.694-3.015,10.388-3.015c3.693,0,7.156,1.005,10.389,3.015
		c3.231,2.009,6.016,4.644,8.35,7.901c0.382,0.545,0.856,1.305,1.427,2.281c0.571,0.979,0.965,1.631,1.183,1.957
		c0.596,0.922,1.383,1.385,2.362,1.385c0.924,0,1.683-0.463,2.28-1.385c0.218-0.326,0.613-0.978,1.183-1.957
		c0.571-0.976,1.045-1.736,1.427-2.281c2.336-3.256,5.133-5.892,8.391-7.901c3.26-2.01,6.736-3.015,10.43-3.015
		c3.15,0,5.92,0.625,8.311,1.874c2.389,1.249,4.914,3.123,7.576,5.621c0.652,0.545,1.277,0.815,1.875,0.815
		c0.705,0,1.317-0.258,1.832-0.774c0.516-0.516,0.773-1.126,0.773-1.833C175.785,71.995,175.76,71.805,175.702,71.697z"/>
</g>
</svg>
