<?xml version="1.0" encoding="utf-8"?>
<!-- Generator: Adobe Illustrator 16.0.4, SVG Export Plug-In . SVG Version: 6.00 Build 0)  -->
<!DOCTYPE svg PUBLIC "-//W3C//DTD SVG 1.1//EN" "http://www.w3.org/Graphics/SVG/1.1/DTD/svg11.dtd">
<svg version="1.1" id="Capa_1" xmlns="http://www.w3.org/2000/svg" xmlns:xlink="http://www.w3.org/1999/xlink" x="0px" y="0px"
	 width="216px" height="146px" viewBox="0 0 216 146" enable-background="new 0 0 216 146" xml:space="preserve">
<g>
	<path d="M49.339,18.168c6.627,0.163,10.619,1.223,11.976,3.174c0.923,1.359,1.385,7.143,1.385,17.354v27.131
		c0,8.528,0.434,14.964,1.303,19.31c1.196,6.463,3.45,11.76,6.763,15.887c3.258,4.074,8.12,7.388,14.583,9.94
		c6.355,2.498,14.068,3.747,23.138,3.747c7.93,0,14.856-0.895,20.777-2.688c5.811-1.738,10.754-4.156,14.827-7.252
		c4.021-3.149,7.062-6.49,9.125-10.021c1.412-2.498,2.526-5.812,3.341-9.938c1.141-5.92,1.549-14.178,1.223-24.769
		c-0.76-20.478-1.357-31.232-1.793-32.264c0-0.597-0.041-1.439-0.121-2.525c-0.082-1.087-0.123-1.819-0.123-2.2
		c0-1.412,0.408-2.526,1.223-3.34c0.327-0.326,2.471-0.788,6.436-1.386c2.119-0.054,4.401-0.408,6.845-1.059
		c0.218-1.303,0.325-2.145,0.325-2.526c0-0.706-0.161-2.091-0.487-4.154l-1.467-0.163c-6.519,0.706-11.841,0.977-15.97,0.814
		l-16.701-0.814h-6.844l-0.164,7.007l1.142,0.244l8.147-0.163c2.334-0.054,4.426,0.87,6.272,2.771
		c1.032,1.141,1.685,3.53,1.956,7.169l0.324,4.808c0.328,4.671,0.693,9.002,1.102,12.994c0.407,3.992,0.706,7.319,0.896,9.98
		c0.189,2.662,0.285,6.138,0.285,10.429c0,8.473-0.57,14.691-1.711,18.656c-0.922,3.15-2.363,6.248-4.317,9.289
		c-0.925,1.521-2.69,3.258-5.298,5.215c-2.334,1.791-5.022,3.176-8.064,4.154c-4.727,1.521-9.914,2.281-15.561,2.281
		c-4.836,0-9.641-1.275-14.421-3.83c-3.313-1.792-5.92-4.29-7.821-7.494c-2.444-4.236-3.829-9.724-4.155-16.459l-1.141-22.812
		L86.491,36.01c0-0.325-0.014-1.018-0.041-2.077c-0.027-1.059-0.041-1.94-0.041-2.647c0-6.409,0.353-9.993,1.059-10.754
		c1.033-1.358,3.178-2.037,6.437-2.037c3.477,0,6.844-0.244,10.103-0.733v-0.733l-0.163-5.214l0.081-1.141
		c-1.629,0.108-3.964,0.163-7.006,0.163c-1.629,0.054-5.595,0.19-11.895,0.407c-4.455,0.163-9.017,0.244-13.688,0.244
		c-1.847,0-6.355-0.189-13.525-0.57c-2.824-0.217-5.866-0.325-9.125-0.325c-1.467,0-2.553,0.026-3.259,0.081l0.245,7.17
		C46.107,17.951,47.329,18.06,49.339,18.168z"/>
	<path d="M167.964,125.143H48.036c-0.76,0-1.385,0.244-1.874,0.733c-0.489,0.489-0.733,1.113-0.733,1.874v5.214
		c0,0.761,0.245,1.386,0.733,1.874c0.489,0.489,1.113,0.733,1.874,0.733h119.928c0.761,0,1.386-0.244,1.875-0.733
		c0.488-0.488,0.731-1.113,0.731-1.874v-5.214c0-0.761-0.243-1.385-0.731-1.874C169.35,125.387,168.725,125.143,167.964,125.143z"/>
</g>
</svg>
