<?xml version="1.0" encoding="utf-8"?>
<!-- Generator: Adobe Illustrator 16.0.4, SVG Export Plug-In . SVG Version: 6.00 Build 0)  -->
<!DOCTYPE svg PUBLIC "-//W3C//DTD SVG 1.1//EN" "http://www.w3.org/Graphics/SVG/1.1/DTD/svg11.dtd">
<svg version="1.1" id="Capa_1" xmlns="http://www.w3.org/2000/svg" xmlns:xlink="http://www.w3.org/1999/xlink" x="0px" y="0px"
	 width="216px" height="146px" viewBox="0 0 216 146" enable-background="new 0 0 216 146" xml:space="preserve">
<path d="M165.6,48.723c-3.312-7.713-7.766-14.367-13.36-19.961c-5.595-5.594-12.248-10.047-19.962-13.361
	c-7.713-3.314-15.805-4.97-24.278-4.97c-7.984,0-15.71,1.506-23.179,4.521c-7.468,3.015-14.108,7.265-19.92,12.751L54.308,17.192
	c-1.63-1.684-3.503-2.064-5.622-1.141c-2.173,0.924-3.259,2.527-3.259,4.808v36.5c0,1.412,0.516,2.634,1.548,3.666
	c1.033,1.032,2.255,1.548,3.667,1.548h36.5c2.282,0,3.884-1.086,4.807-3.259c0.923-2.118,0.543-3.992-1.141-5.622L79.646,42.449
	c3.803-3.585,8.148-6.341,13.036-8.27c4.889-1.928,9.994-2.893,15.317-2.893c5.649,0,11.04,1.101,16.173,3.3
	c5.133,2.2,9.572,5.174,13.32,8.922c3.748,3.747,6.722,8.187,8.922,13.32c2.199,5.133,3.299,10.523,3.299,16.173
	s-1.1,11.039-3.299,16.172c-2.2,5.133-5.174,9.573-8.922,13.321s-8.188,6.722-13.32,8.921c-5.133,2.2-10.525,3.3-16.173,3.3
	c-6.464,0-12.574-1.412-18.332-4.236c-5.757-2.824-10.618-6.816-14.583-11.977c-0.38-0.543-1.005-0.87-1.874-0.979
	c-0.815,0-1.494,0.244-2.037,0.733L60.011,109.5c-0.434,0.436-0.665,0.991-0.692,1.67c-0.027,0.68,0.15,1.29,0.53,1.833
	c5.921,7.17,13.09,12.724,21.509,16.661s17.3,5.907,26.642,5.907c8.473,0,16.566-1.657,24.279-4.97
	c7.713-3.313,14.365-7.768,19.961-13.361c5.594-5.596,10.047-12.248,13.361-19.961c3.313-7.713,4.969-15.807,4.969-24.279
	C170.57,64.526,168.913,56.436,165.6,48.723z"/>
</svg>
