<?xml version="1.0" encoding="utf-8"?>
<!-- Generator: Adobe Illustrator 16.0.4, SVG Export Plug-In . SVG Version: 6.00 Build 0)  -->
<!DOCTYPE svg PUBLIC "-//W3C//DTD SVG 1.1//EN" "http://www.w3.org/Graphics/SVG/1.1/DTD/svg11.dtd">
<svg version="1.1" id="Capa_1" xmlns="http://www.w3.org/2000/svg" xmlns:xlink="http://www.w3.org/1999/xlink" x="0px" y="0px"
	 width="216px" height="146px" viewBox="0 0 216 146" enable-background="new 0 0 216 146" xml:space="preserve">
<g>
	<path d="M70.767,95.73c0.489-0.488,0.733-1.113,0.733-1.873s-0.244-1.385-0.733-1.875c-0.489-0.488-1.114-0.732-1.874-0.732H42.821
		c-0.761,0-1.385,0.244-1.874,0.732c-0.488,0.488-0.733,1.113-0.733,1.875c0,0.76,0.244,1.385,0.733,1.873
		c0.489,0.488,1.114,0.732,1.874,0.732h26.072C69.654,96.463,70.278,96.219,70.767,95.73z"/>
	<path d="M128.857,36.499c0.761,0,1.386-0.244,1.873-0.733c0.49-0.488,0.734-1.113,0.734-1.874V7.821
		c0-0.759-0.244-1.384-0.734-1.874c-0.487-0.488-1.112-0.733-1.873-0.733c-0.76,0-1.385,0.245-1.873,0.733
		c-0.489,0.489-0.733,1.114-0.733,1.874v26.071c0,0.761,0.244,1.386,0.733,1.874C127.473,36.255,128.098,36.499,128.857,36.499z"/>
	<path d="M74.107,104.287c-0.707,0-1.331,0.244-1.874,0.732l-20.857,20.856c-0.489,0.543-0.733,1.168-0.733,1.874
		s0.244,1.331,0.733,1.874c0.598,0.488,1.222,0.733,1.874,0.733c0.706,0,1.331-0.245,1.874-0.733l20.857-20.856
		c0.489-0.543,0.733-1.168,0.733-1.875c0-0.705-0.244-1.33-0.733-1.873C75.438,104.531,74.813,104.287,74.107,104.287z"/>
	<path d="M141.893,41.713c0.652,0,1.277-0.244,1.875-0.732l20.857-20.857c0.488-0.543,0.732-1.168,0.732-1.874
		s-0.244-1.331-0.732-1.874c-0.545-0.488-1.168-0.733-1.875-0.733c-0.705,0-1.33,0.245-1.873,0.733L140.02,37.233
		c-0.487,0.543-0.733,1.168-0.733,1.874s0.246,1.33,0.733,1.874C140.618,41.469,141.243,41.713,141.893,41.713z"/>
	<path d="M140.264,60.29c-1.141-1.141-2.662-2.281-4.562-3.422l-1.467,19.473l22.324,22.403c1.521,1.521,2.28,3.369,2.28,5.541
		c0,2.119-0.76,3.938-2.28,5.459l-11.978,11.896c-1.468,1.468-3.313,2.187-5.541,2.159s-4.072-0.773-5.539-2.241l-22.243-22.323
		l-19.472,1.468c1.141,1.899,2.281,3.421,3.422,4.562l27.213,27.293c4.509,4.617,10.047,6.926,16.619,6.926
		c6.519,0,12.03-2.254,16.539-6.763l11.978-11.895c4.616-4.509,6.926-10.021,6.926-16.539c0-6.409-2.281-11.95-6.844-16.622
		L140.264,60.29z"/>
	<path d="M175.053,50.269c-0.488-0.488-1.113-0.732-1.873-0.732h-26.072c-0.76,0-1.385,0.244-1.873,0.732
		c-0.489,0.489-0.733,1.114-0.733,1.874c0,0.761,0.244,1.386,0.733,1.874c0.488,0.489,1.113,0.733,1.873,0.733h26.072
		c0.76,0,1.385-0.244,1.873-0.733c0.488-0.488,0.732-1.113,0.732-1.874C175.785,51.383,175.541,50.758,175.053,50.269z"/>
	<path d="M71.418,24.361c1.576-1.467,3.422-2.199,5.541-2.199c2.172,0,4.019,0.76,5.54,2.281l22.242,22.323l19.472-1.467
		c-1.141-1.901-2.281-3.422-3.422-4.562L93.579,13.444c-4.508-4.617-10.048-6.926-16.62-6.926c-6.518,0-12.031,2.255-16.539,6.763
		L48.443,25.176c-4.617,4.509-6.925,10.021-6.925,16.539c0,6.41,2.282,11.95,6.844,16.621l27.375,27.375
		c1.14,1.141,2.661,2.281,4.562,3.422l1.466-19.554L59.441,47.256c-1.52-1.521-2.281-3.368-2.281-5.541
		c0-2.118,0.76-3.937,2.281-5.458L71.418,24.361z"/>
	<path d="M87.143,109.5c-0.761,0-1.385,0.244-1.874,0.732c-0.488,0.488-0.733,1.113-0.733,1.875v26.07
		c0,0.762,0.244,1.385,0.733,1.875c0.489,0.487,1.113,0.732,1.874,0.732c0.761,0,1.385-0.245,1.874-0.732
		c0.489-0.49,0.733-1.113,0.733-1.875v-26.07c0-0.76-0.244-1.385-0.733-1.875C88.528,109.744,87.903,109.5,87.143,109.5z"/>
</g>
</svg>
