<?xml version="1.0" encoding="utf-8"?>
<!-- Generator: Adobe Illustrator 16.0.4, SVG Export Plug-In . SVG Version: 6.00 Build 0)  -->
<!DOCTYPE svg PUBLIC "-//W3C//DTD SVG 1.1//EN" "http://www.w3.org/Graphics/SVG/1.1/DTD/svg11.dtd">
<svg version="1.1" id="Capa_1" xmlns="http://www.w3.org/2000/svg" xmlns:xlink="http://www.w3.org/1999/xlink" x="0px" y="0px"
	 width="216px" height="146px" viewBox="0 0 216 146" enable-background="new 0 0 216 146" xml:space="preserve">
<path d="M152.646,75.281c-1.521-1.521-3.367-2.281-5.541-2.281H87.142V46.929c0-5.758,2.037-10.673,6.111-14.747
	c4.074-4.073,8.989-6.11,14.747-6.11s10.673,2.037,14.746,6.11c4.074,4.074,6.111,8.989,6.111,14.747
	c0,1.412,0.516,2.634,1.547,3.666c1.033,1.032,2.255,1.548,3.666,1.548h5.216c1.412,0,2.634-0.516,3.666-1.548
	c1.03-1.032,1.548-2.254,1.548-3.666c0-10.049-3.572-18.643-10.714-25.786S118.049,10.429,108,10.429S89.356,14,82.213,21.143
	C75.071,28.285,71.5,36.88,71.5,46.929V73h-2.607c-2.172,0-4.019,0.761-5.54,2.281c-1.521,1.52-2.281,3.367-2.281,5.54v46.929
	c0,2.173,0.76,4.02,2.281,5.54s3.368,2.281,5.54,2.281h78.212c2.174,0,4.021-0.761,5.541-2.281s2.281-3.367,2.281-5.54V80.821
	C154.928,78.648,154.168,76.802,152.646,75.281z"/>
</svg>
