<?xml version="1.0" encoding="utf-8"?>
<!-- Generator: Adobe Illustrator 16.0.4, SVG Export Plug-In . SVG Version: 6.00 Build 0)  -->
<!DOCTYPE svg PUBLIC "-//W3C//DTD SVG 1.1//EN" "http://www.w3.org/Graphics/SVG/1.1/DTD/svg11.dtd">
<svg version="1.1" id="Capa_1" xmlns="http://www.w3.org/2000/svg" xmlns:xlink="http://www.w3.org/1999/xlink" x="0px" y="0px"
	 width="216px" height="146px" viewBox="0 0 216 146" enable-background="new 0 0 216 146" xml:space="preserve">
<g>
	<path d="M173.503,98.746c-1.519-1.521-3.366-2.281-5.539-2.281h-34.789c-1.14,3.041-3.055,5.539-5.743,7.495
		c-2.69,1.955-5.69,2.933-9.002,2.933H97.571c-3.313,0-6.314-0.978-9.002-2.933c-2.689-1.956-4.603-4.454-5.744-7.495H48.036
		c-2.172,0-4.019,0.76-5.54,2.281c-1.521,1.52-2.281,3.367-2.281,5.539v26.072c0,2.172,0.76,4.02,2.281,5.539
		c1.521,1.521,3.368,2.281,5.54,2.281h119.929c2.172,0,4.02-0.76,5.539-2.281c1.521-1.52,2.281-3.367,2.281-5.539v-26.072
		C175.785,102.113,175.025,100.268,173.503,98.746z M142.953,126.202c-1.033,1.032-2.256,1.548-3.668,1.548
		s-2.633-0.516-3.666-1.548c-1.031-1.032-1.547-2.255-1.547-3.667s0.516-2.635,1.547-3.666c1.033-1.031,2.254-1.548,3.666-1.548
		s2.635,0.517,3.668,1.548c1.031,1.031,1.547,2.254,1.547,3.666S143.984,125.17,142.953,126.202z M163.809,126.202
		c-1.031,1.032-2.254,1.548-3.666,1.548s-2.634-0.516-3.666-1.548c-1.031-1.032-1.547-2.255-1.547-3.667s0.516-2.635,1.547-3.666
		c1.032-1.031,2.254-1.548,3.666-1.548s2.635,0.517,3.666,1.548c1.032,1.031,1.549,2.254,1.549,3.666
		S164.842,125.17,163.809,126.202z"/>
	<path d="M71.5,54.75h20.857v36.5c0,1.412,0.516,2.635,1.548,3.666c1.032,1.032,2.254,1.549,3.666,1.549h20.859
		c1.412,0,2.633-0.517,3.666-1.549c1.031-1.031,1.547-2.254,1.547-3.666v-36.5H144.5c2.282,0,3.885-1.087,4.807-3.259
		c0.924-2.118,0.543-3.992-1.141-5.622l-36.5-36.5c-0.979-1.032-2.199-1.548-3.666-1.548c-1.466,0-2.688,0.516-3.666,1.548
		l-36.5,36.5c-1.684,1.63-2.064,3.503-1.141,5.622C67.617,53.664,69.219,54.75,71.5,54.75z"/>
</g>
</svg>
