<?xml version="1.0" encoding="utf-8"?>
<!-- Generator: Adobe Illustrator 16.0.4, SVG Export Plug-In . SVG Version: 6.00 Build 0)  -->
<!DOCTYPE svg PUBLIC "-//W3C//DTD SVG 1.1//EN" "http://www.w3.org/Graphics/SVG/1.1/DTD/svg11.dtd">
<svg version="1.1" id="Capa_1" xmlns="http://www.w3.org/2000/svg" xmlns:xlink="http://www.w3.org/1999/xlink" x="0px" y="0px"
	 width="216px" height="146px" viewBox="0 0 216 146" enable-background="new 0 0 216 146" xml:space="preserve">
<path d="M144.943,88.886c-0.705-2.388-1.56-4.466-2.565-6.231c-1.004-1.766-2.442-3.489-4.317-5.174
	c-1.873-1.685-3.558-3.041-5.052-4.073c-1.493-1.032-3.544-2.186-6.151-3.463c-2.606-1.277-4.67-2.227-6.19-2.852
	c-1.522-0.624-3.722-1.48-6.601-2.566c-2.553-0.977-4.453-1.724-5.704-2.24c-1.249-0.516-2.892-1.249-4.929-2.2
	c-2.036-0.95-3.557-1.792-4.562-2.525s-2.077-1.629-3.218-2.688c-1.141-1.059-1.942-2.186-2.404-3.381
	c-0.461-1.195-0.692-2.499-0.692-3.911c0-3.693,1.629-6.708,4.888-9.043c3.259-2.335,7.469-3.503,12.629-3.503
	c2.28,0,4.604,0.312,6.966,0.937s4.385,1.33,6.068,2.118c1.686,0.788,3.274,1.657,4.768,2.607c1.494,0.951,2.553,1.67,3.178,2.159
	c0.625,0.489,1.02,0.815,1.182,0.978c0.707,0.543,1.438,0.733,2.199,0.57c0.814-0.054,1.439-0.489,1.875-1.303l6.6-11.895
	c0.652-1.086,0.516-2.118-0.407-3.096c-0.327-0.326-0.733-0.706-1.224-1.141c-0.488-0.435-1.547-1.222-3.178-2.363
	c-1.629-1.14-3.354-2.159-5.172-3.055c-1.82-0.896-4.184-1.806-7.09-2.729c-2.904-0.924-5.906-1.548-9.003-1.874V2.609
	c0-0.76-0.244-1.385-0.731-1.874c-0.489-0.488-1.114-0.733-1.875-0.733h-11c-0.706,0-1.317,0.258-1.833,0.774
	s-0.774,1.127-0.774,1.833v14.665c-8.528,1.629-15.453,5.268-20.776,10.917c-5.322,5.649-7.984,12.22-7.984,19.716
	c0,2.227,0.231,4.345,0.693,6.354c0.461,2.01,1.032,3.816,1.711,5.418c0.679,1.603,1.643,3.178,2.892,4.726
	c1.249,1.548,2.431,2.879,3.544,3.992c1.114,1.113,2.567,2.267,4.359,3.462c1.793,1.196,3.327,2.16,4.604,2.893
	c1.277,0.731,2.974,1.575,5.092,2.524c2.118,0.951,3.789,1.67,5.011,2.16c1.222,0.488,2.892,1.168,5.011,2.035
	c2.933,1.141,5.105,2.023,6.518,2.648s3.205,1.494,5.378,2.607s3.761,2.131,4.767,3.055c1.004,0.924,1.914,2.064,2.729,3.422
	s1.223,2.797,1.223,4.318c0,4.291-1.67,7.604-5.011,9.938c-3.34,2.336-7.211,3.504-11.61,3.504c-2.008,0-4.019-0.216-6.028-0.651
	c-7.061-1.414-13.66-4.808-19.798-10.185l-0.163-0.163c-0.489-0.596-1.141-0.841-1.955-0.732c-0.869,0.109-1.494,0.435-1.874,0.979
	l-8.392,10.998c-0.815,1.086-0.76,2.199,0.163,3.34c0.272,0.326,0.747,0.816,1.426,1.467c0.68,0.653,1.943,1.67,3.789,3.057
	c1.846,1.386,3.856,2.688,6.029,3.911c2.173,1.222,4.929,2.43,8.27,3.625c3.341,1.194,6.803,2.036,10.388,2.524v14.258
	c0,0.707,0.258,1.317,0.774,1.834c0.516,0.516,1.127,0.773,1.833,0.773h11c0.761,0,1.386-0.244,1.875-0.732
	c0.488-0.489,0.731-1.113,0.731-1.875v-14.258c8.638-1.412,15.658-5.119,21.062-11.121c5.404-6.002,8.106-13.158,8.106-21.468
	C146.009,93.83,145.656,91.277,144.943,88.886z"/>
</svg>
