<?xml version="1.0" encoding="utf-8"?>
<!-- Generator: Adobe Illustrator 16.0.4, SVG Export Plug-In . SVG Version: 6.00 Build 0)  -->
<!DOCTYPE svg PUBLIC "-//W3C//DTD SVG 1.1//EN" "http://www.w3.org/Graphics/SVG/1.1/DTD/svg11.dtd">
<svg version="1.1" id="Capa_1" xmlns="http://www.w3.org/2000/svg" xmlns:xlink="http://www.w3.org/1999/xlink" x="0px" y="0px"
	 width="216px" height="146px" viewBox="0 0 216 146" enable-background="new 0 0 216 146" xml:space="preserve">
<g>
	<path d="M107.999,73c8.638,0,16.011-3.056,22.12-9.166c6.111-6.11,9.166-13.483,9.166-22.12c0-8.636-3.055-16.009-9.166-22.12
		c-6.11-6.11-13.484-9.165-22.12-9.165c-8.636,0-16.01,3.055-22.12,9.165c-6.111,6.111-9.166,13.484-9.166,22.12
		c0,8.637,3.055,16.01,9.166,22.12C91.99,69.944,99.363,73,107.999,73z"/>
	<path d="M164.907,103.796c-0.3-3.422-0.95-7.17-1.955-11.243c-1.004-4.074-2.295-7.672-3.869-10.796
		c-1.577-3.123-3.776-5.92-6.601-8.392c-2.823-2.471-6.084-4.115-9.776-4.929c0.435,1.032,0.789,2.118,1.06,3.259
		c0.271,1.141,0.463,2.417,0.57,3.828c0.107,1.412,0.178,2.539,0.204,3.382s0.026,2.145,0,3.911
		c-0.026,1.766-0.041,2.92-0.041,3.463c3.204,1.846,5.744,4.386,7.617,7.617c1.874,3.232,2.812,6.694,2.812,10.388v7.252
		c1.737,1.575,2.606,3.503,2.606,5.784c0,2.173-0.761,4.019-2.281,5.539c-1.521,1.521-3.366,2.281-5.54,2.281
		c-2.173,0-4.02-0.76-5.54-2.281c-1.521-1.52-2.28-3.366-2.28-5.539c0-2.281,0.869-4.209,2.606-5.784v-7.252
		c0-2.824-1.033-5.27-3.097-7.332c-2.063-2.065-4.508-3.097-7.332-3.097c-2.825,0-5.27,1.032-7.334,3.097
		c-2.063,2.062-3.096,4.508-3.096,7.332v7.252c1.738,1.575,2.607,3.503,2.607,5.784c0,2.173-0.76,4.019-2.281,5.539
		c-1.521,1.521-3.367,2.281-5.541,2.281c-2.172,0-4.018-0.76-5.539-2.281c-1.521-1.52-2.281-3.366-2.281-5.539
		c0-2.281,0.869-4.209,2.606-5.784v-7.252c0-5.757,2.037-10.673,6.11-14.746c4.074-4.074,8.988-6.11,14.746-6.11v-5.215
		c0-3.367-0.678-5.892-2.036-7.577c-7.169,5.65-15.181,8.474-24.035,8.474c-8.853,0-16.865-2.824-24.034-8.474
		c-1.358,1.685-2.037,4.21-2.037,7.577v16.539c3.096,1.087,5.607,2.987,7.536,5.703c1.929,2.716,2.893,5.73,2.893,9.044
		c0,4.345-1.52,8.039-4.562,11.08s-6.736,4.562-11.081,4.562c-4.345,0-8.038-1.52-11.08-4.562c-3.041-3.041-4.562-6.735-4.562-11.08
		c0-3.313,0.951-6.328,2.852-9.044c1.901-2.716,4.427-4.616,7.577-5.703V78.213c0-3.693,0.597-6.952,1.792-9.776
		c-3.694,0.815-6.952,2.458-9.777,4.929c-2.824,2.472-5.024,5.269-6.599,8.392c-1.575,3.124-2.865,6.723-3.87,10.796
		s-1.656,7.821-1.955,11.243c-0.299,3.422-0.448,6.98-0.448,10.673c0,6.572,1.983,11.732,5.948,15.479
		c3.965,3.748,9.234,5.621,15.806,5.621h71.208c6.572,0,11.84-1.873,15.806-5.621c3.966-3.747,5.948-8.907,5.948-15.479
		C165.357,110.775,165.206,107.218,164.907,103.796z"/>
	<path d="M71.499,109.5c0,1.412,0.516,2.634,1.548,3.666c1.032,1.032,2.253,1.548,3.666,1.548s2.635-0.516,3.667-1.548
		c1.032-1.032,1.548-2.254,1.548-3.666s-0.516-2.635-1.548-3.666c-1.033-1.032-2.255-1.549-3.667-1.549s-2.634,0.517-3.666,1.549
		C72.015,106.865,71.499,108.088,71.499,109.5z"/>
</g>
</svg>
