<?xml version="1.0" encoding="utf-8"?>
<!-- Generator: Adobe Illustrator 16.0.4, SVG Export Plug-In . SVG Version: 6.00 Build 0)  -->
<!DOCTYPE svg PUBLIC "-//W3C//DTD SVG 1.1//EN" "http://www.w3.org/Graphics/SVG/1.1/DTD/svg11.dtd">
<svg version="1.1" id="Capa_1" xmlns="http://www.w3.org/2000/svg" xmlns:xlink="http://www.w3.org/1999/xlink" x="0px" y="0px"
	 width="216px" height="146px" viewBox="0 0 216 146" enable-background="new 0 0 216 146" xml:space="preserve">
<path d="M158.758,98.908c1.168,1.249,2.215,2.336,3.137,3.259c0.924,0.923,1.916,1.819,2.975,2.688
	c1.059,0.868,1.834,1.304,2.322,1.304c0.924,0,2.716-1.33,5.377-3.992c2.662-2.661,3.992-4.453,3.992-5.377
	c0-0.435-0.774-1.548-2.322-3.341c-1.547-1.791-3.529-3.909-5.947-6.354c-2.417-2.445-4.766-4.779-7.047-7.007
	c-2.282-2.228-4.508-4.386-6.682-6.478c-2.172-2.091-3.422-3.299-3.748-3.625c-0.543-0.543-1.168-0.814-1.873-0.814
	c-0.924,0-2.717,1.33-5.377,3.992c-2.662,2.66-3.992,4.453-3.992,5.377c0,0.488,0.434,1.262,1.303,2.322
	c0.869,1.059,1.766,2.05,2.689,2.974c0.922,0.923,2.01,1.969,3.259,3.137s1.954,1.833,2.118,1.996l-7.821,7.821l-28.925-28.923
	c7.117-9.559,10.675-19.472,10.675-29.738c0-8.853-2.785-16.064-8.351-21.631c-5.568-5.568-12.778-8.351-21.632-8.351
	c-8.69,0-17.191,2.58-25.501,7.739c-8.31,5.16-15.046,11.895-20.206,20.206c-5.16,8.31-7.74,16.811-7.74,25.501
	c0,8.854,2.783,16.062,8.351,21.631s12.778,8.353,21.631,8.353c10.266,0,20.178-3.558,29.738-10.675l54.669,54.67
	c1.521,1.52,3.366,2.281,5.54,2.281c2.281,0,4.482-1.061,6.599-3.179c2.119-2.119,3.179-4.317,3.179-6.599
	c0-2.174-0.761-4.021-2.281-5.541l-17.924-17.924l7.82-7.821C156.925,96.953,157.591,97.659,158.758,98.908z M102.665,50.514
	c-3.041,3.041-6.735,4.562-11.08,4.562c-2.282,0-4.536-0.517-6.763-1.549c1.032,2.228,1.548,4.482,1.548,6.763
	c0,4.346-1.52,8.039-4.562,11.08s-6.736,4.562-11.081,4.562c-4.345,0-8.038-1.52-11.08-4.562c-3.041-3.041-4.562-6.734-4.562-11.08
	c0-4.345,1.52-8.039,4.562-11.08c3.041-3.041,6.735-4.562,11.08-4.562c2.281,0,4.535,0.516,6.762,1.548
	c-1.032-2.227-1.548-4.482-1.548-6.763c0-4.345,1.52-8.039,4.562-11.08s6.736-4.562,11.081-4.562s8.039,1.52,11.08,4.562
	s4.562,6.735,4.562,11.08C107.226,43.778,105.705,47.472,102.665,50.514z"/>
</svg>
