<?xml version="1.0" encoding="utf-8"?>
<!-- Generator: Adobe Illustrator 16.0.4, SVG Export Plug-In . SVG Version: 6.00 Build 0)  -->
<!DOCTYPE svg PUBLIC "-//W3C//DTD SVG 1.1//EN" "http://www.w3.org/Graphics/SVG/1.1/DTD/svg11.dtd">
<svg version="1.1" id="Capa_1" xmlns="http://www.w3.org/2000/svg" xmlns:xlink="http://www.w3.org/1999/xlink" x="0px" y="0px"
	 width="216px" height="146px" viewBox="0 0 216 146" enable-background="new 0 0 216 146" xml:space="preserve">
<path d="M185.412,108.99c-0.189-0.408-0.366-0.747-0.53-1.018c-2.715-4.89-7.903-10.892-15.562-18.007l-0.162-0.163l-0.081-0.08
	l-0.082-0.082h-0.082c-3.476-3.314-5.677-5.541-6.599-6.682c-1.686-2.173-2.064-4.372-1.142-6.6
	c0.651-1.684,3.097-5.24,7.333-10.672c2.227-2.879,3.992-5.187,5.295-6.925c9.397-12.493,13.471-20.477,12.221-23.953l-0.485-0.813
	c-0.326-0.489-1.168-0.936-2.524-1.344c-1.359-0.408-3.097-0.475-5.216-0.204l-23.464,0.163c-0.38-0.135-0.923-0.122-1.63,0.041
	c-0.706,0.163-1.06,0.245-1.06,0.245l-0.408,0.204l-0.324,0.245c-0.271,0.162-0.57,0.447-0.896,0.854
	c-0.324,0.407-0.596,0.883-0.813,1.426c-2.554,6.572-5.459,12.683-8.718,18.331c-2.01,3.368-3.856,6.287-5.541,8.759
	c-1.684,2.471-3.096,4.291-4.236,5.458c-1.141,1.168-2.172,2.104-3.096,2.811s-1.629,1.005-2.118,0.896
	c-0.489-0.109-0.95-0.218-1.386-0.326c-0.76-0.489-1.371-1.154-1.832-1.996c-0.463-0.842-0.775-1.902-0.938-3.178
	c-0.162-1.277-0.258-2.376-0.285-3.3c-0.026-0.923-0.014-2.227,0.041-3.911c0.056-1.684,0.082-2.824,0.082-3.422
	c0-2.064,0.04-4.304,0.121-6.721c0.082-2.417,0.149-4.332,0.204-5.744c0.055-1.412,0.081-2.906,0.081-4.481
	s-0.095-2.811-0.285-3.707c-0.188-0.896-0.474-1.765-0.854-2.607c-0.381-0.842-0.938-1.494-1.67-1.956
	c-0.733-0.461-1.644-0.828-2.729-1.1c-2.879-0.651-6.545-1.004-11-1.059c-10.102-0.108-16.593,0.544-19.472,1.956
	c-1.141,0.597-2.173,1.412-3.096,2.444c-0.978,1.195-1.114,1.847-0.408,1.955c3.259,0.488,5.567,1.656,6.925,3.503l0.489,0.978
	c0.381,0.706,0.761,1.956,1.141,3.748s0.625,3.775,0.733,5.947c0.271,3.965,0.271,7.36,0,10.184c-0.272,2.825-0.529,5.025-0.774,6.6
	c-0.245,1.575-0.611,2.851-1.1,3.829c-0.489,0.977-0.815,1.575-0.978,1.792s-0.299,0.353-0.407,0.407
	c-0.706,0.271-1.44,0.408-2.2,0.408c-0.761,0-1.684-0.381-2.77-1.141c-1.086-0.761-2.213-1.806-3.381-3.137
	s-2.485-3.191-3.952-5.581c-1.466-2.39-2.987-5.214-4.562-8.473l-1.303-2.363c-0.815-1.521-1.928-3.734-3.34-6.64
	c-1.413-2.906-2.662-5.717-3.748-8.433c-0.434-1.141-1.086-2.009-1.955-2.607l-0.408-0.245c-0.271-0.217-0.706-0.447-1.303-0.692
	c-0.598-0.245-1.222-0.421-1.874-0.53l-22.324,0.163c-2.281,0-3.829,0.516-4.644,1.548l-0.326,0.489
	c-0.163,0.271-0.245,0.706-0.245,1.303c0,0.598,0.163,1.331,0.489,2.2c3.259,7.659,6.803,15.046,10.632,22.161
	c3.829,7.115,7.156,12.846,9.98,17.189c2.824,4.346,5.703,8.447,8.636,12.303c2.933,3.856,4.875,6.328,5.825,7.414
	c0.951,1.088,1.698,1.901,2.241,2.444l2.037,1.955c1.304,1.304,3.218,2.866,5.744,4.685c2.526,1.82,5.323,3.612,8.392,5.379
	c3.069,1.764,6.64,3.203,10.714,4.316c4.074,1.115,8.039,1.562,11.895,1.346h9.37c1.9-0.164,3.34-0.762,4.318-1.793l0.324-0.408
	c0.218-0.324,0.422-0.828,0.611-1.506c0.19-0.679,0.285-1.427,0.285-2.24c-0.055-2.335,0.122-4.44,0.529-6.314
	c0.406-1.873,0.869-3.285,1.386-4.236c0.517-0.95,1.101-1.752,1.751-2.402c0.652-0.652,1.115-1.046,1.387-1.182
	c0.271-0.137,0.487-0.23,0.65-0.285c1.304-0.435,2.838-0.014,4.604,1.263s3.422,2.853,4.971,4.726
	c1.548,1.875,3.408,3.979,5.58,6.314c2.174,2.335,4.074,4.072,5.703,5.214l1.629,0.978c1.088,0.652,2.5,1.25,4.238,1.793
	c1.736,0.543,3.256,0.679,4.562,0.407l20.856-0.325c2.063,0,3.668-0.342,4.807-1.02c1.141-0.678,1.818-1.426,2.037-2.24
	c0.218-0.814,0.23-1.738,0.041-2.771C185.792,110.118,185.602,109.398,185.412,108.99z"/>
</svg>
