<?xml version="1.0" encoding="utf-8"?>
<!-- Generator: Adobe Illustrator 16.0.4, SVG Export Plug-In . SVG Version: 6.00 Build 0)  -->
<!DOCTYPE svg PUBLIC "-//W3C//DTD SVG 1.1//EN" "http://www.w3.org/Graphics/SVG/1.1/DTD/svg11.dtd">
<svg version="1.1" id="Capa_1" xmlns="http://www.w3.org/2000/svg" xmlns:xlink="http://www.w3.org/1999/xlink" x="0px" y="0px"
	 width="216px" height="146px" viewBox="0 0 216 146" enable-background="new 0 0 216 146" xml:space="preserve">
<g>
	<path d="M153.029,74.613c-2.497-1.576-5.295-2.852-8.391-3.83c-0.652-0.218-1.115-0.38-1.386-0.489
		c-0.272-0.109-0.599-0.312-0.978-0.611c-0.381-0.299-0.504-0.639-0.367-1.019s0.258-0.923,0.367-1.629
		c2.442-6.246,2.442-11.08,0-14.502c-2.5-3.313-6.654-4.97-12.467-4.97c-5.812,0-12.492,1.603-20.041,4.807l-0.49,0.163
		c-0.324,0.109-0.691,0.203-1.098,0.285c-0.408,0.082-0.802,0.095-1.182,0.041c-0.379-0.054-0.651-0.244-0.814-0.57
		c-0.163-0.326-0.135-0.869,0.082-1.63c2.443-7.876,1.901-13.551-1.63-17.028c-4.019-4.019-10.713-4.209-20.083-0.57
		C75.183,36.701,65.909,43.11,56.729,52.29c-6.952,6.952-12.316,13.959-16.091,21.02c-3.775,7.062-5.662,13.714-5.662,19.962
		c0,5.865,1.765,11.283,5.295,16.254c3.531,4.97,8.188,9.071,13.973,12.302c5.784,3.231,12.316,5.758,19.594,7.577
		c7.278,1.819,14.747,2.729,22.405,2.729c7.659,0,15.005-0.841,22.038-2.524c7.033-1.685,13.171-3.938,18.412-6.763
		c5.242-2.823,9.818-6.015,13.729-9.573c3.911-3.558,6.871-7.277,8.881-11.162c2.01-3.883,3.016-7.672,3.016-11.365
		c0-3.475-0.922-6.641-2.771-9.492C157.702,78.401,155.529,76.188,153.029,74.613z M126.43,111.973
		c-7.957,6.435-17.992,10.278-30.104,11.527c-7.93,0.761-15.385,0.191-22.364-1.711s-12.642-4.861-16.987-8.881
		c-4.345-4.02-6.762-8.637-7.251-13.852c-0.761-7.93,2.838-15.112,10.795-21.549s17.992-10.28,30.104-11.529
		c7.93-0.761,15.385-0.19,22.363,1.711c6.979,1.901,12.642,4.861,16.988,8.88c4.346,4.02,6.762,8.637,7.25,13.851
		C137.984,98.352,134.387,105.534,126.43,111.973z"/>
	<path d="M98.689,78.2c-5.757-1.466-11.474-0.949-17.15,1.549c-5.676,2.498-9.79,6.272-12.343,11.324
		c-2.553,5.159-2.73,10.251-0.53,15.276c2.2,5.024,6.205,8.459,12.017,10.307c6.029,1.955,12.113,1.629,18.25-0.979
		c6.138-2.607,10.428-6.682,12.874-12.221c2.442-5.432,2.375-10.605-0.205-15.521C109.021,83.021,104.718,79.776,98.689,78.2z
		 M89.971,104.598c-1.195,1.846-2.892,3.137-5.093,3.869c-2.2,0.734-4.224,0.666-6.07-0.203c-1.846-0.869-3.014-2.24-3.503-4.115
		c-0.489-1.872-0.136-3.732,1.059-5.579c1.14-1.794,2.77-3.042,4.888-3.748c2.119-0.706,4.101-0.679,5.948,0.082
		c1.901,0.813,3.124,2.172,3.667,4.073C91.41,100.877,91.112,102.75,89.971,104.598z M97.629,94.738
		c-0.38,0.707-0.978,1.209-1.792,1.508c-0.815,0.299-1.603,0.312-2.363,0.041c-1.629-0.761-1.982-1.982-1.059-3.666
		c0.38-0.707,0.964-1.209,1.751-1.508s1.561-0.312,2.322-0.041c0.706,0.271,1.181,0.775,1.426,1.508
		C98.158,93.312,98.064,94.033,97.629,94.738z"/>
	<path d="M151.4,59.012c0.599,1.168,1.521,1.969,2.771,2.404c1.25,0.38,2.458,0.272,3.626-0.326c1.167-0.597,1.969-1.52,2.403-2.77
		c1.032-3.041,1.209-6.233,0.528-9.573c-0.678-3.34-2.158-6.287-4.438-8.84c-2.281-2.553-5.026-4.332-8.229-5.337
		c-3.205-1.005-6.437-1.154-9.695-0.448c-1.305,0.272-2.309,0.965-3.016,2.078c-0.705,1.113-0.922,2.322-0.65,3.625
		c0.218,1.304,0.895,2.309,2.035,3.015c1.142,0.706,2.363,0.923,3.668,0.652c3.422-0.706,6.326,0.245,8.718,2.852
		c2.39,2.606,3.041,5.621,1.955,9.043C150.693,56.636,150.803,57.845,151.4,59.012z"/>
	<path d="M180.202,44.754c-1.386-6.87-4.44-12.913-9.166-18.127c-4.726-5.268-10.374-8.921-16.948-10.959
		c-6.572-2.037-13.197-2.349-19.88-0.937c-1.521,0.326-2.703,1.127-3.544,2.404c-0.842,1.277-1.1,2.675-0.773,4.196
		c0.325,1.521,1.139,2.702,2.444,3.544c1.302,0.842,2.715,1.1,4.235,0.774c4.726-0.977,9.425-0.746,14.096,0.693
		c4.671,1.439,8.691,4.032,12.059,7.78c3.367,3.694,5.541,7.984,6.518,12.873c0.979,4.888,0.707,9.559-0.814,14.013
		c-0.434,1.467-0.299,2.879,0.408,4.237c0.705,1.358,1.792,2.281,3.258,2.77c1.467,0.488,2.879,0.38,4.237-0.326
		s2.282-1.792,2.771-3.259C181.221,58.184,181.587,51.625,180.202,44.754z"/>
</g>
</svg>
