<?xml version="1.0" encoding="utf-8"?>
<!-- Generator: Adobe Illustrator 16.0.4, SVG Export Plug-In . SVG Version: 6.00 Build 0)  -->
<!DOCTYPE svg PUBLIC "-//W3C//DTD SVG 1.1//EN" "http://www.w3.org/Graphics/SVG/1.1/DTD/svg11.dtd">
<svg version="1.1" id="Capa_1" xmlns="http://www.w3.org/2000/svg" xmlns:xlink="http://www.w3.org/1999/xlink" x="0px" y="0px"
	 width="216px" height="146px" viewBox="0 0 216 146" enable-background="new 0 0 216 146" xml:space="preserve">
<g>
	<path d="M120.956,114.674c-3.179,6.002-7.659,10.768-13.444,14.299c-5.784,3.529-12.098,5.295-18.942,5.295
		c-10.049,0-18.644-3.57-25.787-10.713c-7.142-7.142-10.713-15.738-10.713-25.787c0-7.224,1.982-13.863,5.947-19.92
		c3.965-6.056,9.261-10.551,15.887-13.484l-1.385-10.673c-9.234,3.368-16.688,9.098-22.364,17.191
		c-5.676,8.093-8.514,17.056-8.514,26.886c0,8.475,2.105,16.31,6.314,23.506s9.912,12.899,17.109,17.109
		c7.196,4.209,15.032,6.312,23.505,6.312c10.157,0,19.364-3.014,27.619-9.043c8.256-6.028,13.959-13.904,17.109-23.627l-8.309-16.62
		C125.477,102.249,124.134,108.672,120.956,114.674z"/>
	<path d="M169.635,103.553l-16.131,8.066l-18.576-37.07c-0.924-1.901-2.473-2.852-4.645-2.852h-37.07l-1.304-10.428h33.161V50.84
		H90.607l-3.015-23.546c3.694,0.38,6.953-0.747,9.777-3.381c2.825-2.634,4.237-5.825,4.237-9.573c0-3.585-1.276-6.654-3.829-9.207
		c-2.554-2.553-5.623-3.829-9.207-3.829c-2.933,0-5.568,0.855-7.903,2.566c-2.336,1.711-3.884,3.951-4.644,6.721
		c-0.435,1.413-0.598,2.553-0.489,3.422l7.821,63.468c0.163,1.305,0.746,2.404,1.751,3.301c1.005,0.896,2.159,1.344,3.463,1.344
		h38.455l19.474,38.863c0.924,1.9,2.471,2.852,4.646,2.852c0.869,0,1.655-0.189,2.362-0.57l20.854-10.43L169.635,103.553z"/>
</g>
</svg>
