<?xml version="1.0" encoding="utf-8"?>
<!-- Generator: Adobe Illustrator 16.0.4, SVG Export Plug-In . SVG Version: 6.00 Build 0)  -->
<!DOCTYPE svg PUBLIC "-//W3C//DTD SVG 1.1//EN" "http://www.w3.org/Graphics/SVG/1.1/DTD/svg11.dtd">
<svg version="1.1" id="Capa_1" xmlns="http://www.w3.org/2000/svg" xmlns:xlink="http://www.w3.org/1999/xlink" x="0px" y="0px"
	 width="216px" height="146px" viewBox="0 0 216 146" enable-background="new 0 0 216 146" xml:space="preserve">
<g>
	<path d="M48.037,10.428c-2.879,0-5.337,1.02-7.374,3.055c-2.036,2.037-3.055,4.495-3.055,7.374c0,1.901,0.475,3.639,1.426,5.214
		c0.95,1.575,2.213,2.824,3.788,3.748v103.145c0,0.761,0.244,1.386,0.733,1.874c0.489,0.489,1.113,0.733,1.874,0.733h5.214
		c0.761,0,1.386-0.244,1.874-0.733c0.489-0.488,0.733-1.113,0.733-1.874V29.819c1.575-0.924,2.838-2.173,3.788-3.748
		c0.951-1.575,1.426-3.314,1.426-5.214c0-2.878-1.018-5.336-3.054-7.374C53.373,11.447,50.915,10.428,48.037,10.428z"/>
	<path d="M175.869,21.59c-1.684-0.977-3.367-1.031-5.053-0.162c-0.488,0.272-1.33,0.733-2.524,1.385
		c-10.212,6.083-18.63,9.125-25.257,9.125c-2.77,0-5.188-0.516-7.251-1.548c-6.083-2.987-11.759-5.323-17.028-7.007
		c-5.268-1.683-10.944-2.525-17.027-2.525c-3.965,0-8.175,0.516-12.628,1.548c-4.454,1.032-8.596,2.376-12.425,4.032
		c-3.829,1.657-6.926,3.069-9.288,4.237c-2.364,1.168-4.496,2.321-6.396,3.462c-1.684,1.086-2.526,2.58-2.526,4.481v60.453
		c0,2.009,0.869,3.53,2.607,4.562c0.869,0.435,1.738,0.651,2.607,0.651c0.977,0,1.874-0.244,2.688-0.731
		c5.16-3.151,11.365-5.922,18.616-8.312c7.252-2.39,13.648-3.585,19.188-3.585c3.149,0,6.246,0.38,9.288,1.141
		c3.041,0.76,5.513,1.549,7.414,2.362c1.899,0.815,4.588,2.119,8.065,3.911l2.281,1.141c3.801,1.902,8.092,2.853,12.871,2.853
		c8.202,0,18.223-3.15,30.064-9.451c0.38-0.216,0.842-0.461,1.385-0.733c1.9-0.978,2.852-2.525,2.852-4.644V26.071
		C178.393,24.17,177.551,22.677,175.869,21.59z M167.964,85.141c-9.397,4.996-17.354,7.494-23.872,7.495
		c-3.096,0-5.838-0.598-8.229-1.792l-2.281-1.141c-2.988-1.467-5.229-2.539-6.721-3.219c-1.494-0.679-3.586-1.521-6.273-2.525
		c-2.689-1.005-5.35-1.711-7.984-2.118s-5.445-0.61-8.433-0.61c-10.212,0-21.97,3.068-35.278,9.207V41.634
		c12.493-6.899,23.438-10.348,32.834-10.348c5.106,0,9.94,0.747,14.501,2.241c4.562,1.493,9.56,3.571,14.992,6.232
		c3.42,1.738,7.358,2.607,11.812,2.607c7.441,0,15.752-2.472,24.931-7.414V85.141z"/>
</g>
</svg>
