<?xml version="1.0" encoding="utf-8"?>
<!-- Generator: Adobe Illustrator 16.0.4, SVG Export Plug-In . SVG Version: 6.00 Build 0)  -->
<!DOCTYPE svg PUBLIC "-//W3C//DTD SVG 1.1//EN" "http://www.w3.org/Graphics/SVG/1.1/DTD/svg11.dtd">
<svg version="1.1" id="Capa_1" xmlns="http://www.w3.org/2000/svg" xmlns:xlink="http://www.w3.org/1999/xlink" x="0px" y="0px"
	 width="216px" height="146px" viewBox="0 0 216 146" enable-background="new 0 0 216 146" xml:space="preserve">
<g>
	<path d="M92.804,61.431l14.991-21.753h10.184V25.99H97.041L85.635,44.566l-2.037,3.422c-0.434,0.651-0.733,1.222-0.896,1.711
		h-0.244c-0.163-0.652-0.461-1.223-0.896-1.711c-1.141-2.065-1.766-3.205-1.874-3.422L68.363,25.99H45.877v13.688h11.161
		l15.073,22.16l-16.05,23.709H45.632v13.605h21.02L79.28,78.785c0.815-1.305,1.494-2.499,2.037-3.585l0.733-1.711h0.245
		c0.163,0.651,0.462,1.222,0.896,1.711l1.956,3.422l12.954,20.53h20.206V85.547h-8.883L92.804,61.431z"/>
	<path d="M160.102,103.227v6.52h-18.899c0.217-2.118,1.33-4.1,3.34-5.947c2.01-1.847,4.374-3.558,7.088-5.133
		s5.418-3.273,8.106-5.092c2.688-1.819,4.97-4.155,6.845-7.008c1.873-2.852,2.812-6.068,2.812-9.653
		c0-5.378-1.849-9.682-5.541-12.914s-8.527-4.848-14.502-4.848c-5.865,0-10.973,1.766-15.315,5.296
		c-2.011,1.575-3.722,3.368-5.134,5.377l8.556,7.496c1.196-1.467,2.172-2.5,2.933-3.096c2.5-2.121,5.133-3.18,7.903-3.18
		c2.226,0,4.14,0.665,5.744,1.996c1.601,1.331,2.401,3.029,2.401,5.092c0,1.793-0.705,3.53-2.117,5.217
		c-1.411,1.683-3.178,3.147-5.297,4.397c-2.117,1.249-4.398,2.729-6.844,4.438c-2.443,1.711-4.726,3.478-6.845,5.295
		c-2.117,1.82-3.883,4.17-5.295,7.049c-1.412,2.88-2.119,6.057-2.119,9.531c0,0.057,0.082,1.306,0.244,3.748l0.326,2.199h41.877
		v-16.781H160.102z"/>
</g>
</svg>
