<?xml version="1.0" encoding="utf-8"?>
<!-- Generator: Adobe Illustrator 16.0.4, SVG Export Plug-In . SVG Version: 6.00 Build 0)  -->
<!DOCTYPE svg PUBLIC "-//W3C//DTD SVG 1.1//EN" "http://www.w3.org/Graphics/SVG/1.1/DTD/svg11.dtd">
<svg version="1.1" id="Capa_1" xmlns="http://www.w3.org/2000/svg" xmlns:xlink="http://www.w3.org/1999/xlink" x="0px" y="0px"
	 width="216px" height="146px" viewBox="0 0 216 146" enable-background="new 0 0 216 146" xml:space="preserve">
<g>
	<path d="M85.9,35.846c-1.412-2.445-3.205-3.667-5.377-3.667H61.051c-1.249,0-2.118,0.408-2.607,1.222
		c-0.597,0.815-0.57,1.82,0.082,3.015l13.117,22.731c0.054,0.055,0.054,0.082,0,0.082l-20.613,36.5
		c-0.543,1.035-0.543,2.011,0,2.935c0.544,0.924,1.385,1.385,2.526,1.385h19.472c2.064,0,3.829-1.249,5.295-3.748
		c13.416-23.789,20.396-36.173,20.939-37.151L85.9,35.846z"/>
	<path d="M164.93,9.858c0.598-1.14,0.598-2.145,0-3.014c-0.49-0.814-1.33-1.222-2.525-1.223H142.77
		c-2.119,0-3.857,1.222-5.215,3.666c-27.865,49.428-42.285,75.01-43.263,76.748l27.619,50.677c1.304,2.444,3.096,3.667,5.377,3.667
		h19.474c1.194,0,2.062-0.409,2.606-1.223c0.543-0.924,0.516-1.928-0.082-3.016l-27.375-50.105v-0.081L164.93,9.858z"/>
</g>
</svg>
