<?xml version="1.0" encoding="utf-8"?>
<!-- Generator: Adobe Illustrator 16.0.4, SVG Export Plug-In . SVG Version: 6.00 Build 0)  -->
<!DOCTYPE svg PUBLIC "-//W3C//DTD SVG 1.1//EN" "http://www.w3.org/Graphics/SVG/1.1/DTD/svg11.dtd">
<svg version="1.1" id="Capa_1" xmlns="http://www.w3.org/2000/svg" xmlns:xlink="http://www.w3.org/1999/xlink" x="0px" y="0px"
	 width="216px" height="146px" viewBox="0 0 216 146" enable-background="new 0 0 216 146" xml:space="preserve">
<path d="M163.686,17.313c-4.588-4.589-10.115-6.884-16.578-6.884H68.893c-6.463,0-11.99,2.295-16.58,6.884
	c-4.589,4.59-6.884,10.117-6.884,16.58v78.214c0,6.463,2.295,11.99,6.884,16.58c4.59,4.59,10.117,6.885,16.58,6.885h78.214
	c6.463,0,11.99-2.295,16.578-6.885c4.59-4.59,6.885-10.117,6.885-16.58V33.893C170.57,27.43,168.275,21.902,163.686,17.313z
	 M80.952,93.938H65.879c-0.869,0-1.521-0.354-1.955-1.061c-0.489-0.76-0.489-1.52,0-2.281l15.969-28.188v-0.081L69.708,44.727
	c-0.434-0.923-0.461-1.711-0.081-2.362c0.434-0.597,1.14-0.896,2.118-0.896h14.991c1.683,0,3.095,0.924,4.236,2.771
	c6.844,12.003,10.266,18.032,10.266,18.087L85.026,91.004C83.994,92.959,82.636,93.938,80.952,93.938z M152.076,24.117
	l-33.323,58.904v0.082l21.185,38.78c0.488,0.814,0.517,1.575,0.08,2.281c-0.379,0.651-1.058,0.978-2.035,0.978h-14.991
	c-1.738,0-3.15-0.951-4.237-2.852c-14.176-26.016-21.291-39.08-21.345-39.188l33.485-59.395c1.032-1.902,2.362-2.852,3.991-2.852
	h15.236c0.923,0,1.573,0.326,1.955,0.978C152.512,22.486,152.512,23.247,152.076,24.117z"/>
</svg>
