<?xml version="1.0" encoding="utf-8"?>
<!-- Generator: Adobe Illustrator 16.0.4, SVG Export Plug-In . SVG Version: 6.00 Build 0)  -->
<!DOCTYPE svg PUBLIC "-//W3C//DTD SVG 1.1//EN" "http://www.w3.org/Graphics/SVG/1.1/DTD/svg11.dtd">
<svg version="1.1" id="Capa_1" xmlns="http://www.w3.org/2000/svg" xmlns:xlink="http://www.w3.org/1999/xlink" x="0px" y="0px"
	 width="216px" height="146px" viewBox="0 0 216 146" enable-background="new 0 0 216 146" xml:space="preserve">
<path d="M149.439,16.947c-0.543-0.869-1.276-1.304-2.199-1.304h-15.562c-1.14,0-1.928,0.517-2.363,1.548L113.754,51.41
	c-0.381,0.924-1.128,2.58-2.24,4.971c-1.113,2.39-1.941,4.236-2.484,5.54c-2.01-4.726-3.531-8.121-4.563-10.185L86.949,17.11
	c-0.544-0.978-1.331-1.467-2.363-1.467H68.78c-0.977,0-1.738,0.435-2.281,1.304c-0.434,0.869-0.434,1.738,0,2.607l26.153,47.092
	H75.216c-0.706,0-1.317,0.257-1.833,0.773c-0.516,0.517-0.774,1.127-0.774,1.833v8.474c0,0.761,0.258,1.386,0.774,1.874
	c0.516,0.488,1.127,0.733,1.833,0.733H98.68v6.925H75.216c-0.706,0-1.317,0.258-1.833,0.774c-0.516,0.516-0.774,1.127-0.774,1.833
	v8.392c0,0.761,0.258,1.386,0.774,1.874c0.516,0.488,1.127,0.733,1.833,0.733h23.465v26.886c0,0.761,0.258,1.385,0.774,1.874
	c0.516,0.488,1.127,0.733,1.833,0.733h14.014c0.706,0,1.316-0.258,1.835-0.774c0.514-0.517,0.772-1.127,0.772-1.833v-26.886h23.628
	c0.705,0,1.316-0.245,1.832-0.733s0.773-1.113,0.773-1.874v-8.392c0-0.706-0.256-1.317-0.773-1.833
	c-0.516-0.517-1.127-0.774-1.832-0.774h-23.628v-6.925h23.628c0.705,0,1.316-0.245,1.832-0.733s0.773-1.113,0.773-1.874v-8.474
	c0-0.706-0.256-1.316-0.773-1.833c-0.516-0.515-1.127-0.773-1.832-0.773H124.02l25.502-47.174
	C149.955,18.55,149.928,17.708,149.439,16.947z"/>
</svg>
