<?xml version="1.0" encoding="utf-8"?>
<!-- Generator: Adobe Illustrator 16.0.4, SVG Export Plug-In . SVG Version: 6.00 Build 0)  -->
<!DOCTYPE svg PUBLIC "-//W3C//DTD SVG 1.1//EN" "http://www.w3.org/Graphics/SVG/1.1/DTD/svg11.dtd">
<svg version="1.1" id="Capa_1" xmlns="http://www.w3.org/2000/svg" xmlns:xlink="http://www.w3.org/1999/xlink" x="0px" y="0px"
	 width="216px" height="146px" viewBox="0 0 216 146" enable-background="new 0 0 216 146" xml:space="preserve">
<path d="M180.918,60.779c-0.053-2.933-0.285-6.641-0.691-11.121c-0.408-4.482-0.992-8.488-1.752-12.018
	c-0.869-3.964-2.757-7.305-5.662-10.021c-2.906-2.716-6.287-4.291-10.145-4.726c-12.059-1.357-30.281-2.036-54.668-2.036
	c-24.387,0-42.61,0.679-54.668,2.036c-3.857,0.435-7.225,2.01-10.103,4.726c-2.879,2.715-4.753,6.056-5.622,10.021
	c-0.814,3.531-1.426,7.537-1.833,12.018c-0.407,4.48-0.638,8.187-0.692,11.121C35.027,63.712,35,67.785,35,73
	c0,5.214,0.027,9.288,0.082,12.221c0.054,2.934,0.285,6.641,0.692,11.121c0.407,4.482,0.991,8.488,1.752,12.018
	c0.869,3.965,2.756,7.306,5.662,10.021s6.288,4.291,10.144,4.725c12.058,1.358,30.28,2.037,54.668,2.037
	c24.389,0,42.609-0.679,54.668-2.037c3.857-0.434,7.225-2.01,10.104-4.725s4.752-6.057,5.621-10.021
	c0.814-3.53,1.426-7.537,1.834-12.018c0.406-4.48,0.637-8.188,0.691-11.121C180.973,82.288,181,78.214,181,73
	C181,67.785,180.973,63.712,180.918,60.779z M136.842,77.4l-41.714,26.07c-0.761,0.543-1.685,0.814-2.771,0.814
	c-0.814,0-1.656-0.217-2.525-0.651c-1.792-0.978-2.688-2.498-2.688-4.562V46.929c0-2.063,0.896-3.584,2.688-4.562
	c1.847-0.979,3.612-0.924,5.296,0.163l41.714,26.071c1.629,0.922,2.443,2.389,2.443,4.399S138.471,76.477,136.842,77.4z"/>
</svg>
