<?xml version="1.0" encoding="utf-8"?>
<!-- Generator: Adobe Illustrator 16.0.4, SVG Export Plug-In . SVG Version: 6.00 Build 0)  -->
<!DOCTYPE svg PUBLIC "-//W3C//DTD SVG 1.1//EN" "http://www.w3.org/Graphics/SVG/1.1/DTD/svg11.dtd">
<svg version="1.1" id="Capa_1" xmlns="http://www.w3.org/2000/svg" xmlns:xlink="http://www.w3.org/1999/xlink" x="0px" y="0px"
	 width="216px" height="146px" viewBox="0 0 216 146" enable-background="new 0 0 216 146" xml:space="preserve">
<g>
	<path d="M163.686,17.313c-4.588-4.589-10.115-6.884-16.578-6.884H68.893c-6.463,0-11.99,2.295-16.58,6.884
		c-4.589,4.59-6.884,10.117-6.884,16.58v78.214c0,6.463,2.295,11.99,6.884,16.58c4.59,4.59,10.117,6.885,16.58,6.885h78.214
		c6.463,0,11.99-2.295,16.578-6.885c4.59-4.59,6.885-10.117,6.885-16.58V33.893C170.57,27.43,168.275,21.902,163.686,17.313z
		 M119.325,28.515h5.459v22.16c0,1.304,0.026,2.01,0.081,2.119c0.054,0.869,0.49,1.303,1.304,1.303c1.086,0,2.228-0.841,3.422-2.525
		V28.515h5.459V58.66h-5.459h-0.001V55.4c-2.227,2.444-4.318,3.667-6.273,3.667c-1.737,0-2.905-0.733-3.504-2.2
		c-0.326-0.977-0.487-2.471-0.487-4.481V28.515z M98.713,38.292c0-3.15,0.57-5.513,1.711-7.088c1.466-2.064,3.584-3.096,6.354-3.096
		c2.662,0,4.781,1.033,6.355,3.096c1.141,1.575,1.711,3.938,1.711,7.088v10.592c0,3.259-0.57,5.622-1.711,7.088
		c-1.574,2.065-3.693,3.097-6.355,3.097c-2.77,0-4.888-1.033-6.354-3.097c-1.141-1.575-1.711-3.938-1.711-7.088V38.292z
		 M84.047,18.168l4.318,15.888l4.155-15.888h6.111l-7.333,24.116h0.001V58.66H85.27V42.284c-0.598-2.987-1.847-7.278-3.748-12.872
		c-1.249-3.748-1.874-5.622-1.874-5.622l-1.956-5.622H84.047z M151.182,116.507c-0.543,2.335-1.697,4.317-3.464,5.947
		c-1.764,1.63-3.813,2.581-6.149,2.853c-7.441,0.814-18.631,1.222-33.567,1.222c-14.937,0-26.126-0.408-33.567-1.222
		c-2.335-0.272-4.385-1.223-6.151-2.853c-1.765-1.63-2.919-3.612-3.462-5.947c-1.086-4.563-1.629-11.624-1.629-21.184
		c0-9.397,0.543-16.457,1.629-21.183c0.543-2.39,1.697-4.386,3.462-5.989c1.766-1.603,3.843-2.54,6.233-2.811
		c7.386-0.816,18.548-1.223,33.485-1.223c14.991,0,26.181,0.408,33.567,1.223c2.336,0.272,4.398,1.208,6.19,2.811
		c1.793,1.602,2.962,3.598,3.505,5.989c1.03,4.508,1.547,11.569,1.547,21.183C152.811,104.883,152.268,111.943,151.182,116.507z"/>
	<polygon points="69.87,80.251 76.225,80.251 76.225,114.714 82.254,114.714 82.254,80.251 88.772,80.251 88.772,74.548 
		69.87,74.548 	"/>
	<path d="M99.69,107.626c-1.195,1.683-2.336,2.525-3.422,2.525c-0.76,0-1.168-0.408-1.222-1.222
		c-0.055-0.108-0.082-0.814-0.082-2.119V84.812h-5.377v23.627c0,2.064,0.163,3.531,0.489,4.399c0.489,1.521,1.63,2.281,3.422,2.281
		c2.01,0,4.074-1.222,6.192-3.666v3.259h5.458V84.814H99.69V107.626z"/>
	<path d="M120.793,84.406c-1.956,0-3.803,1.086-5.54,3.259V74.548h-5.459v40.166h5.459v-2.933c1.791,2.227,3.64,3.34,5.54,3.34
		c2.227,0,3.666-1.141,4.316-3.422c0.381-1.141,0.57-3.123,0.57-5.947V93.857c0-2.879-0.191-4.889-0.57-6.029
		C124.459,85.547,123.02,84.406,120.793,84.406z M120.303,106.159c0,2.662-0.787,3.991-2.363,3.993
		c-0.922,0-1.819-0.436-2.688-1.305v-18.25c0.869-0.867,1.766-1.303,2.688-1.303c1.576,0,2.363,1.357,2.363,4.073V106.159z"/>
	<path d="M140.588,106.118c0,0.571-0.014,1.019-0.04,1.345c-0.026,0.325-0.041,0.516-0.041,0.569
		c-0.325,1.412-1.14,2.118-2.444,2.118c-1.847,0-2.77-1.385-2.77-4.155V100.7h10.836v-6.192c0-3.15-0.57-5.485-1.711-7.007
		c-1.466-2.063-3.584-3.096-6.355-3.096c-2.77,0-4.942,1.033-6.518,3.096c-1.086,1.468-1.629,3.804-1.629,7.007v10.51
		c0,3.205,0.57,5.541,1.711,7.008c1.575,2.064,3.775,3.096,6.6,3.096c2.879,0,5.051-1.086,6.519-3.259
		c0.651-0.979,1.06-2.064,1.222-3.259c0.108-0.761,0.163-1.929,0.163-3.504v-0.732v-0.001h-5.542V106.118z M135.295,93.449
		c0-2.77,0.896-4.154,2.688-4.154c1.793,0,2.688,1.384,2.688,4.154v2.771h-5.376V93.449z"/>
	<path d="M106.778,54.097c1.738,0,2.607-1.384,2.607-4.154v-12.71c0-2.824-0.869-4.237-2.607-4.237s-2.607,1.413-2.607,4.237v12.71
		C104.171,52.712,105.04,54.097,106.778,54.097z"/>
</g>
</svg>
